<?xml version="1.0" encoding="utf-8"?>
<!-- Generator: Adobe Illustrator 26.5.0, SVG Export Plug-In . SVG Version: 6.00 Build 0)  -->
<svg version="1.1" id="Ebene_1" xmlns="http://www.w3.org/2000/svg" xmlns:xlink="http://www.w3.org/1999/xlink" x="0px" y="0px"
	 viewBox="0 0 1314.1 536" style="enable-background:new 0 0 1314.1 536;" xml:space="preserve">
<style type="text/css">
	.st0{fill-rule:evenodd;clip-rule:evenodd;fill:#F0871B;}
	.st1{fill:#1382BB;}
</style>
<g>
	<g>
		<g>
			<path class="st1" d="M233,276.9c-11.3,8-18.1,13-32.7,13c-20,0-36.2-13.6-36.2-34.2c0-32.5,42.8-39.1,67.3-41.8
				c2.1-16.1-3.3-21.8-14.6-21.8c-9.7,0-16.7,4.3-18.3,14.4l-29.2-4.5c6.8-24.5,23.3-32.3,47.4-32.3c31.1,0,45.3,14.8,45.3,36.5
				v57.3c0,8.2,0.4,16.5,4.1,24.1h-29.7L233,276.9z M231.4,234.7c-12.6,2.3-37.5,3.5-37.5,20.4c0,6.8,3.3,12.4,10.5,12.4
				c12.6,0,21.2-7.4,27-15V234.7z"/>
			<path class="st1" d="M359.7,277.7c-9.3,8.2-16.5,12.2-29.2,12.2c-23.3,0-44.7-14.4-44.7-63c0-42.6,25.5-57.3,42.2-57.3
				c12.4,0,19.8,6.2,28.4,13.8v-56.2h30.5v160.2h-24.5L359.7,277.7z M336,193.7c-16.9,0-20.4,21.4-20.4,34.2c0,13.8,2.7,36,21,36
				c9.1,0,15-6,19.8-13.2v-44.5C351.1,199.9,344.9,193.7,336,193.7z"/>
			<path class="st1" d="M440.5,236.9c-1,14,7.4,30.5,23.1,30.5c10.9,0,16.9-8.9,19.2-18.5l28.2,5.1c-6.6,22.9-28.6,35.8-50.5,35.8
				c-33.6,0-50.7-29.7-50.7-60.1c0-30.7,16.9-60.1,50.7-60.1c29,0,51.3,13.8,50.5,67.3H440.5z M481,217.8c0-13-5.1-25.7-19.8-25.7
				c-13.8,0-19.4,13.4-19.8,25.7H481z"/>
			<path class="st1" d="M586.3,205.8c-1.4-8-4.1-13.8-13.2-13.8c-7.2,0-12.4,5.4-12.4,12.8c0,19.8,55.8,5.4,55.8,48.6
				c0,24.5-20.4,36.5-43.9,36.5c-23.7,0-38.7-11.5-41.8-35.4l28.6-3.1c0.6,8.2,4.9,16.1,14.2,16.1c7.6,0,14.8-3.5,14.8-12.4
				c0-20.2-55.8-3.7-55.8-48.6c0-23.3,20-36.9,42.4-36.9c20.2,0,36.5,12.8,40,32.7L586.3,205.8z"/>
			<path class="st1" d="M690.3,205.8c-1.4-8-4.1-13.8-13.2-13.8c-7.2,0-12.4,5.4-12.4,12.8c0,19.8,55.8,5.4,55.8,48.6
				c0,24.5-20.4,36.5-43.9,36.5c-23.7,0-38.7-11.5-41.8-35.4l28.6-3.1c0.6,8.2,4.9,16.1,14.2,16.1c7.6,0,14.8-3.5,14.8-12.4
				c0-20.2-55.8-3.7-55.8-48.6c0-23.3,20-36.9,42.4-36.9c20.2,0,36.5,12.8,40,32.7L690.3,205.8z"/>
			<path class="st1" d="M738.7,229.7c0-30.7,16.9-60.1,50.7-60.1c33.8,0,50.7,29.5,50.7,60.1c0,30.5-17.1,60.1-50.7,60.1
				C755.8,289.9,738.7,260.2,738.7,229.7z M808.7,229.7c0-14.4-2.9-37.7-19.4-37.7c-16.5,0-19.4,23.3-19.4,37.7
				c0,14.4,2.9,37.7,19.4,37.7C805.8,267.4,808.7,244.2,808.7,229.7z"/>
		</g>
	</g>
	<g>
		<g>
			<path class="st1" d="M209.3,331.7c-1.4-4.8-3.4-8.8-9-8.8c-3.9,0-7.6,3.2-7.6,7.4c0,10.7,21,6.5,21,21.6
				c0,7.5-5.6,12.2-12.8,12.2c-7.7,0-13.2-4.7-14.6-12.2l4.4-1.1c1.1,5.1,4.9,9.5,10.3,9.5c4.4,0,8.2-3.4,8.2-8c0-11.9-21-7-21-21.4
				c0-7.1,5.5-11.7,12.4-11.7c6.8,0,11.2,5,12.8,11.2L209.3,331.7z"/>
			<path class="st1" d="M218.8,347.8c0-11.4,5.4-16.1,12.2-16.1c6.8,0,12.2,4.7,12.2,16.1S237.8,364,231,364
				C224.2,364,218.8,359.3,218.8,347.8z M238.9,347.8c0-5.2-1.3-12.5-7.9-12.5c-6.6,0-7.9,7.3-7.9,12.5s1.3,12.5,7.9,12.5
				C237.7,360.3,238.9,353,238.9,347.8z"/>
			<path class="st1" d="M268.8,335.3l-15.3,24.2h15.3v3.6h-20.5v-3.2l15.1-23.7h-13.7v-3.6h19.1V335.3z"/>
			<path class="st1" d="M279.1,324.8h-4.3v-4.8h4.3V324.8z M279.1,363.1h-4.3v-30.5h4.3V363.1z"/>
			<path class="st1" d="M302.8,363.1l-0.4-3.9c-2.5,2.4-5.3,4.8-8.8,4.8c-4.7,0-8.5-3.9-8.5-8.7c0-8.7,9.2-10.6,15.9-12.4l1.4-0.4
				v-1.7c0-3.5-2.4-5.4-5.8-5.4c-3.4,0-5.7,2.2-7.5,4.8l-3-2.3c2.5-3.6,5.9-6.2,10.5-6.2c4.1,0,10.1,2.5,10.1,9.5v15.1
				c0.1,2.3-0.1,4.6,0.8,6.7H302.8z M300.6,346.4c-4.1,1.2-11.6,2.9-11.6,8.3c0,2.5,2,5.1,4.6,5.1c3.4,0,6.6-2.4,8.7-5v-9
				L300.6,346.4z"/>
			<path class="st1" d="M317.8,363.1h-4.3v-43h4.3V363.1z"/>
			<path class="st1" d="M328.2,348.5c0,8.7,3.7,11.8,8.1,11.8c3.2,0,5.9-2.6,7.5-5.3l3.1,2c-1.7,3.9-5.7,6.9-11,6.9
				c-6.8,0-12.2-4.7-12.2-16.1s5.4-16.1,12.2-16.1c8.8,0,11.3,9.4,10.7,16.9H328.2z M342.1,344.9c0.1-3.9-2-9.6-6.5-9.6
				c-4.9,0-7.2,5.3-7.2,9.6H342.1z"/>
			<path class="st1" d="M396.1,363.1h-4.6l-3.9-13.7h-14l-3.7,13.7h-4.6l12.1-43h6.4L396.1,363.1z M380.5,322.9h-0.1l-5.6,22.6h11.8
				L380.5,322.9z"/>
			<path class="st1" d="M403.8,339.1h0.1c1.7-3.6,3.9-7,8.5-7h1.7v3.9c-5.6-0.8-8.6,5.3-10.2,9.7v17.3h-4.3v-30.5h4.3V339.1z"/>
			<path class="st1" d="M423.1,363.1h-4.3v-43h4.3v15.6c2-2.1,4.7-4,7.6-4c5.3,0,11.3,4.8,11.3,16.8c0,11.7-7,15.5-11.2,15.5
				c-3.4,0-5.7-1.8-7.8-4.4V363.1z M423.1,354.5c1.2,2.6,4.1,5.7,7.2,5.7c3,0,7.2-2.9,7.2-11.9c0-4.6-1.3-12.9-7.3-12.9
				c-3.3,0-5.8,2.3-7.1,4.9V354.5z"/>
			<path class="st1" d="M451.6,348.5c0,8.7,3.7,11.8,8.1,11.8c3.2,0,5.9-2.6,7.5-5.3l3.1,2c-1.7,3.9-5.7,6.9-11,6.9
				c-6.8,0-12.2-4.7-12.2-16.1s5.4-16.1,12.2-16.1c8.8,0,11.3,9.4,10.7,16.9H451.6z M465.5,344.9c0.1-3.9-2-9.6-6.5-9.6
				c-4.9,0-7.2,5.3-7.2,9.6H465.5z"/>
			<path class="st1" d="M480.5,324.8h-4.3v-4.8h4.3V324.8z M480.5,363.1h-4.3v-30.5h4.3V363.1z"/>
			<path class="st1" d="M493.3,332.6h6.9v3.6h-6.9v19.2c0,3-0.1,4.9,3.5,4.9c1.2,0,2.4-0.1,3.4-0.4v3.2c-1.4,0.5-2.8,0.9-4.3,0.9
				c-7.3,0-6.9-4.9-6.9-10.5v-17.2h-4.6v-3.6h4.6v-9.9h4.3V332.6z"/>
			<path class="st1" d="M524.2,324.8h-4.3v-4.8h4.3V324.8z M524.2,363.1h-4.3v-30.5h4.3V363.1z"/>
			<path class="st1" d="M535.2,363.1h-4.3v-30.5h4.3v3.2c2.5-2,4.9-4,8.4-4c4.3,0,7.8,2.4,7.8,10.3v21.1h-4.3v-20
				c0-3.2,0.6-7.9-4-7.9c-2.7,0-6.1,2.6-7.9,4.6V363.1z"/>
			<path class="st1" d="M592,320.1h4.3v43H592v-3.5c-2,2.5-4.4,4.4-7.8,4.4c-4.1,0-11.2-3.8-11.2-15.5c0-12,6.1-16.8,11.3-16.8
				c2.9,0,5.6,1.9,7.6,4V320.1z M592,340.4c-1.3-2.7-3.8-4.9-7.1-4.9c-6,0-7.3,8.3-7.3,12.9c0,9,4.3,11.9,7.2,11.9
				c3,0,6-3.1,7.2-5.7V340.4z"/>
			<path class="st1" d="M606.8,348.5c0,8.7,3.7,11.8,8.1,11.8c3.2,0,5.9-2.6,7.5-5.3l3.1,2c-1.7,3.9-5.7,6.9-11,6.9
				c-6.8,0-12.2-4.7-12.2-16.1s5.4-16.1,12.2-16.1c8.8,0,11.3,9.4,10.7,16.9H606.8z M620.7,344.9c0.1-3.9-2-9.6-6.5-9.6
				c-4.9,0-7.2,5.3-7.2,9.6H620.7z"/>
			<path class="st1" d="M635.7,339.1h0.1c1.7-3.6,3.9-7,8.5-7h1.7v3.9c-5.6-0.8-8.6,5.3-10.2,9.7v17.3h-4.3v-30.5h4.3V339.1z"/>
			<path class="st1" d="M688.2,323.9H671v14.2h13v3.9h-13v21.1h-4.5v-43h21.7V323.9z"/>
			<path class="st1" d="M710.2,363.1l-0.4-3.9c-2.5,2.4-5.3,4.8-8.8,4.8c-4.7,0-8.5-3.9-8.5-8.7c0-8.7,9.2-10.6,15.9-12.4l1.4-0.4
				v-1.7c0-3.5-2.4-5.4-5.8-5.4c-3.4,0-5.7,2.2-7.5,4.8l-3-2.3c2.5-3.6,5.9-6.2,10.5-6.2c4.1,0,10.1,2.5,10.1,9.5v15.1
				c0.1,2.3-0.1,4.6,0.8,6.7H710.2z M708.1,346.4c-4.1,1.2-11.6,2.9-11.6,8.3c0,2.5,2,5.1,4.6,5.1c3.4,0,6.6-2.4,8.7-5v-9
				L708.1,346.4z"/>
			<path class="st1" d="M725.1,363.1h-4.3v-30.5h4.3v2.7c2.7-2.2,4.9-3.6,8.5-3.6c3.3,0,5.8,1.4,7.4,4.1c2.8-2.3,5.5-4.1,9.3-4.1
				c4.3,0,7.8,2.4,7.8,10.3v21.1h-4.3v-20c0-3.2,0.6-7.9-4-7.9c-3.2,0-6.3,2.1-8.1,4v23.8h-4.3v-20c0-3.2,0.6-7.9-4-7.9
				c-3.7,0-5.9,2-8.1,4V363.1z"/>
			<path class="st1" d="M769,324.8h-4.3v-4.8h4.3V324.8z M769,363.1h-4.3v-30.5h4.3V363.1z"/>
			<path class="st1" d="M780.1,363.1h-4.3v-43h4.3V363.1z"/>
			<path class="st1" d="M791.3,324.8h-4.3v-4.8h4.3V324.8z M791.3,363.1h-4.3v-30.5h4.3V363.1z"/>
			<path class="st1" d="M801.7,348.5c0,8.7,3.7,11.8,8.1,11.8c3.2,0,5.9-2.6,7.5-5.3l3.1,2c-1.7,3.9-5.7,6.9-11,6.9
				c-6.8,0-12.2-4.7-12.2-16.1s5.4-16.1,12.2-16.1c8.8,0,11.3,9.4,10.7,16.9H801.7z M815.6,344.9c0.1-3.9-2-9.6-6.5-9.6
				c-4.9,0-7.2,5.3-7.2,9.6H815.6z"/>
		</g>
	</g>
	<g>
		<g>
			<path class="st0" d="M1246.6,237.6c0.7-0.3,1.3-0.7,2-1c0.3-0.7,0.7-1.3,1-2c1,0,2,0,3,0c0.9-0.6,1.7-3.6,2-5
				c4.8-1.1,9.8-5.1,10.9-10c2-0.6,0.9,0.1,2-1c0.3,0,0.7,0,1,0c0-1,0-2,0-3c-1.3,0-2.6,0-4,0c0,0.3,0,0.7,0,1c-0.3,0-0.7,0-1,0
				c0.3-0.7,0.7-1.3,1-2c-5.6,0.6-6.6,3.5-11.9,4c-1.2,4.5-4.8,4.6-6.9,8c-0.7,0-1.3,0-2,0c0,0.7,0,1.3,0,2c-3.6,0.8-5.2,2.5-7.9,4
				c0.9,1.8,1.4,1.6,2,4c-4.8-0.9-6.4-0.2-11.9,0c-0.8,3-1.6,2.5-2,6c1.7-0.3,3.3-0.7,5-1c0,1,0,2,0,3c-2,0.3-4,0.7-5.9,1
				c0-0.7,0-1.3,0-2c-0.7,0-1.3,0-2,0c0-0.3,0-0.7,0-1c-0.6,0-1.8,0.9-4,1c-0.6,2,0.1,0.9-1,2c0,0.3,0,0.7,0,1c-0.3,0-0.7,0-1,0
				c0-1,0-2,0-3c-0.7,0-1.3,0-2,0c0.6-2-0.1-0.9,1-2c0-0.3,0-0.7,0-1c1,0,2,0,3,0c0-0.7,0-1.3,0-2c-1.3,0-2.6,0-4,0
				c0.8-3,1.6-2.5,2-6c-3.9,0.4-4.4,1.6-6.9,3c-0.6-1.6-0.9-2.4-1-5c-1.3,0-2.6,0-4,0c0,1.7,0,3.3,0,5c-0.9-0.3-2.2-1.9-4-1
				c0,0.3,0,0.7,0,1c-1,0-2,0-3,0c0-0.3,0-0.7,0-1c3.1-0.8,5.9-3.1,7.9-5c0.3-0.7,0.7-1.3,1-2c1.7-0.3,3.3-0.7,5-1
				c0.3-0.7,0.7-1.3,1-2c0.7,0,1.3,0,2,0c0-0.3,0-0.7,0-1c0.7,0,1.3,0,2,0c0.3-0.7,0.7-1.3,1-2c2.6-1.7,5.1-1.3,6.9-4
				c0.3,0,0.7,0,1,0c-0.3-1-0.7-2-1-3c-2.3-0.2-2.5-0.4-4-1c-2.1,3.2-5.9,4.5-7.9,8c-2.5-0.5-3.6-1-6.9-1c0,0.7,0,1.3,0,2
				c1.3,0,2.6,0,4,0c0,0.3,0,0.7,0,1c-0.9,0.5-1.9,2-2,2c-1.3,0-2.6,0-4,0c-0.7,1-1.3,2-2,3c-0.7,0-1.3,0-2,0c0,0.3,0,0.7,0,1
				c-2,1.2-2.2,0-4,2c-0.7,0-1.3,0-2,0c0-0.3,0-0.7,0-1c0.7,0,1.3,0,2,0c0.8-2.7,0.2-2.3,3-3c0-0.7,0-1.3,0-2
				c-3.6,0.3-7.3,0.7-10.9,1c0,0.3,0,0.7,0,1c-1,0.3-2,0.7-3,1c0,1,0,2,0,3c-1.7,0-3.3,0-5,0c0-1.7,0-3.3,0-5c-0.3,0-0.7,0-1,0
				c0-0.3,0-0.7,0-1c-2.8,0.7-2.8,1.8-5,3c0,1.3,0,2.7,0,4c1.7,0,3.3,0,5,0c0,0.3,0,0.7,0,1c0.3,0,0.7,0,1,0c0,0.3,0,0.7,0,1
				c-1,0.3-2,0.7-3,1c0,1.3,0,2.7,0,4c3.5-0.4,3.9-1.4,6.9-2c0,0.3,0,0.7,0,1c-0.7,0-1.3,0-2,0c0,0.7,0,1.3,0,2c-0.7,0-1.3,0-2,0
				c0,1,0,2,0,3c-3.1-0.9-3.7-0.6-6.9,1c-0.7,0-1.3,0-2,0c-0.3,0.7-0.7,1.3-1,2c-1.7,0.3-3.3,0.7-5,1c-0.3,0.7-0.7,1.3-1,2
				c-1,0-2,0-3,0c-0.3,0.7-0.7,1.3-1,2c-1.3,0.3-2.6,0.7-4,1c-0.3,0.7-0.7,1.3-1,2c-0.7,0-1.3,0-2,0c-0.3,0.7-0.7,1.3-1,2
				c-1.3,0.3-2.6,0.7-4,1c-0.3,0.7-0.7,1.3-1,2c-0.7,0-1.3,0-2,0c-0.7,2-1.3,4-2,6c-4.5-0.5-8.5-1.8-10.9,2c-0.7,0-1.3,0-2,0
				c0.3-1,0.7-2,1-3c-1.3,0-2.6,0-4,0c-0.7,1-1.3,2-2,3c-1,0.3-2,0.7-3,1c1.3,1.9,1,1.7,4,2c0,0.3,0,0.7,0,1c-1.3,0.3-2.6,0.7-4,1
				c-0.3,0.7-0.7,1.3-1,2c-1,0-2,0-3,0c-0.7,1-1.3,2-2,3c-0.7,0-1.3,0-2,0c-0.3,0.7-0.7,1.3-1,2c-1,0-2,0-3,0c0,0.3,0,0.7,0,1
				c-1.6,1.1-1.7,1.4-4,2c0-0.7,0-1.3,0-2c4.4-1.1,9.9-5.4,11.9-9c0.7,0,1.3,0,2,0c-0.2-2.4-0.4-2.5-1-4c1.3-1,2.6-2,4-3
				c0-0.3,0-0.7,0-1c1.7-0.3,3.3-0.7,5-1c0-0.3,0-0.7,0-1c3-2.3,5.4-5.2,5.9-10c-3.2,0.8-4.9,2.1-6.9,4c-0.3,0.7-0.7,1.3-1,2
				c-0.7,0-1.3,0-2,0c-0.3,0.7-0.7,1.3-1,2c-0.3,0-0.7,0-1,0c-0.7,1-1.3,2-2,3c-1.7-0.3-3.3-0.7-5-1c-0.3,0.7-0.7,1.3-1,2
				c-0.7,0-1.3,0-2,0c0,0.3,0,0.7,0,1c-1.5,1.2-1.7,1.4-4,2c0,0.7,0,1.3,0,2c-2,0.3-4,0.7-5.9,1c-1,3.1-0.5,1.5,0,5
				c-1,0.3-2,0.7-3,1c0,0.7,0,1.3,0,2c-1.3,0.3-2.6,0.7-4,1c0,0.3,0,0.7,0,1c-1.3-0.3-2.6-0.7-4-1c-3.3,4-6.6,8-9.9,12c-1,0-2,0-3,0
				c0.8-2.9,1.6-2.9,4-4c-0.4-3.4,0-3.2-3-4c0-0.3,0-0.7,0-1c2-1.2,6.1,0.6,6.9,1c0.3-1,0.7-2,1-3c-1.1-0.9-0.2,0.1-1-1
				c-3.6-0.3-7.3-0.7-10.9-1c-0.3,0.7-0.7,1.3-1,2c-0.7,0-1.3,0-2,0c0,0.3,0,0.7,0,1c-2,1.1-2.4,0.2-4,2c-0.7,0-1.3,0-2,0
				c0-0.3,0-0.7,0-1c2.3-1.7,4.6-3.3,6.9-5c-0.3-1.7-0.7-3.3-1-5c0.7,0,1.3,0,2,0c-0.6-2,0.1-0.9-1-2c0-0.3,0-0.7,0-1
				c1.7,0,3.3,0,5,0c0.7-1.3,1.3-2.7,2-4c1.6,0.4,2.4,0.9,5,1c-0.3-1.3-0.7-2.7-1-4c0.3,0,0.7,0,1,0c0-0.3,0-0.7,0-1c1,0,2,0,3,0
				c0-0.3,0-0.7,0-1c1.1-0.9,0.2,0.1,1-1c-1.1-0.9-0.2,0.1-1-1c-4.1-0.1-5.1-0.4-5.9,3c-4.8,1-11.2,2.7-14.9,5c0,0.3,0,0.7,0,1
				c-1,0.3-2,0.7-3,1c-0.3,0.7-0.7,1.3-1,2c-1,0-2,0-3,0c0,0.3,0,0.7,0,1c-0.7,0-1.3,0-2,0c-0.3,0.7-0.7,1.3-1,2c-1,0-2,0-3,0
				c0,0.3,0,0.7,0,1c-1.7,0.3-3.3,0.7-5,1c0,0.3,0,0.7,0,1c-0.3,0-0.7,0-1,0c0,1,0,2,0,3c4.3,0,7.8-0.4,10.9-1c0-1.3,0-2.7,0-4
				c3.7-0.2,4.5-0.9,6.9-2c0,0.3,0,0.7,0,1c0.3,0,0.7,0,1,0c-0.7,1-1.3,2-2,3c-0.7,0-1.3,0-2,0c0,0.7,0,1.3,0,2
				c-2.2,0.6-2.5,0.8-4,2c0,0.3,0,0.7,0,1c-0.7,0-1.3,0-2,0c-0.3,0.7-0.7,1.3-1,2c-2.2,1.1-4.7-0.9-5.9,1c0,1.3,0,2.7,0,4
				c-1,0.3-2,0.7-3,1c-0.7,1-1.3,2-2,3c-0.7,0-1.3,0-2,0c-0.3,0.7-0.7,1.3-1,2c-0.7,0-1.3,0-2,0c-0.7,1-1.3,2-2,3
				c-2.6,1.8-5.1,1.3-6.9,4c-0.4-0.4-1.7,0.2-1-1c0.3,0,0.7,0,1,0c-0.3-2.1-0.1-0.9-1-2c0-0.3,0-0.7,0-1c-1.7,0.9-3.8,1.5-5,3
				c-2.7,0.8-2.3,0.2-3,3c0.7,0,1.3,0,2,0c0,0.7,0,1.3,0,2c-1.5,0.3-6.7,1.4-7.9,2c-0.3,0.7-0.7,1.3-1,2c-0.7,0-1.3,0-2,0
				c0,0.3,0,0.7,0,1c-0.7,0-1.3,0-2,0c-0.3,0.7-0.7,1.3-1,2c-0.7,0-1.3,0-2,0c-0.3,0.7-0.7,1.3-1,2c-1,0.3-2,0.7-3,1
				c0,0.3,0,0.7,0,1c-1.5,1.2-1.7,1.4-4,2c0-0.7,0-1.3,0-2c2.8-0.7,2.8-1.8,5-3c-0.6-2.4-1-2.2-2-4c1.5-0.6,1.6-0.8,4-1c0-1,0-2,0-3
				c-1,0-2,0-3,0c0,0.7,0,1.3,0,2c-2-1.1-1.7-1.7-5-2c0,1.3,0,2.7,0,4c0.7,0,1.3,0,2,0c-1.7,6-12.9,7.4-16.9,12c-0.7,0-1.3,0-2,0
				c0-0.3,0-0.7,0-1c0.3,0,0.7,0,1,0c2.6-3.9,9.6-4.7,12.9-8c0.3,0,0.7,0,1,0c0-1,0-2,0-3c-2.7,0-8.1,1.1-8.9,1c0-0.3,0-0.7,0-1
				c-2.3,0-4.6,0-6.9,0c0,0.3,0,0.7,0,1c-0.7,0-1.3,0-2,0c-0.3,0.7-0.7,1.3-1,2c-1,0-2,0-3,0c0,0.3,0,0.7,0,1c-0.7,0-1.3,0-2,0
				c0,0.3,0,0.7,0,1c-2,1.1-2.4,0.2-4,2c-0.3,0-0.7,0-1,0c0,0.3,0,0.7,0,1c0.3,0,0.7,0,1,0c0,0.7,0,1.3,0,2c1,1,1-1,1-1
				c1.3,0,2.6,0,4,0c0,0.3,0,0.7,0,1c-2.3,0.3-4.6,0.7-6.9,1c0,0.3,0,0.7,0,1c-0.3,0-0.7,0-1,0c0,1,0,2,0,3c-1,0-2,0-3,0
				c0,0.3,0,0.7,0,1c-2,0.6-0.9-0.1-2,1c-0.3,0-0.7,0-1,0c0,1,0,2,0,3c3,0,6.1,0.1,7.9-1c0.3-0.7,0.7-1.3,1-2c1.8-1.2,2.3,0,4-2
				c0.7,0,1.3,0,2,0c0,0.3,0,0.7,0,1c-1.8,1-1.5,1.4-4,2c0,1,0,2,0,3c3.5-0.4,4.8-1.4,7.9-2c0,0.3,0,0.7,0,1c-1,0.3-2,0.7-3,1
				c0,0.3,0,0.7,0,1c-3.8,2.3-4.8,0.4-5.9,6c-2,0.3-4,0.7-5.9,1c-0.3,0.7-0.7,1.3-1,2c-1.7,0.3-3.3,0.7-5,1c-0.3,0.7-0.7,1.3-1,2
				c-2.8,1.7-5.8,1.5-7.9,4c-0.7,0-1.3,0-2,0c1-1.7,2-3.3,3-5c1.3,0,2.6,0,4,0c0-0.7,0-1.3,0-2c-1-0.3-2-0.7-3-1c0-0.3,0-0.7,0-1
				c-0.9,0.4-2,2-2,2c-2.3,1-1.1-1.1-3,1c-0.3,0-0.7,0-1,0c0-2.3,0-4.7,0-7c-0.3,0-0.7,0-1,0c0-0.3,0-0.7,0-1
				c-5.4,1.5-5.5,8.2-9.9,11c0,1.3,0,2.7,0,4c-0.7,0-1.3,0-2,0c-0.3-1.3-0.7-2.7-1-4c0.7,0,1.3,0,2,0c-0.6-2,0.1-0.9-1-2
				c-1.1-1.1,0-0.4-2-1c-0.9,3-1,0.9,0,4c-2.4,0.9-5.4,0.2-7.9,1c0,0.3,0,0.7,0,1c-2.3,0.3-4.6,0.7-6.9,1c0,0.3,0,0.7,0,1
				c-0.7,0-1.3,0-2,0c0,0.3,0,0.7,0,1c-1,0-2,0-3,0c0,0.3,0,0.7,0,1c-1,0-2,0-3,0c-0.3,0.7-0.7,1.3-1,2c-1,0-2,0-3,0
				c-0.3,0.7-0.7,1.3-1,2c-0.7,0-1.3,0-2,0l-2,2c-0.7,0-1.3,0-2,0c0,0.3,0,0.7,0,1c-0.7,0-1.3,0-2,0c0,0.3,0,0.7,0,1
				c-0.7,0-1.3,0-2,0c0,0.3,0,0.7,0,1c-0.7,0-1.3,0-2,0c0,0.3,0,0.7,0,1c-2.3-0.3-4.6-0.7-6.9-1c0,0.3,0,0.7,0,1c-0.7,0-1.3,0-2,0
				c-0.3,0.7-0.7,1.3-1,2c-0.7,0-1.3,0-2,0c0,0.3,0,0.7,0,1c-1.4,0.3-0.1-0.2-1-1c-2.6,0.3-5.3,0.7-7.9,1c0,1,0,2,0,3
				c0.7,0,1.3,0,2,0c0,0.3,0,0.7,0,1c-4.6,1.3-9.3,2.7-13.9,4c-0.6-2,0.1-0.9-1-2c-2.5-2.4-7.8-1.6-10.9-1c-0.1-2.6-0.4-3.4-1-5
				c-1.7,0.3-3.3,0.7-5,1c0,0.3,0,0.7,0,1c-0.7,0-1.3,0-2,0c-0.7,1-1.3,2-2,3c-2.6,0.3-5.3,0.7-7.9,1c0,1,0,2,0,3c2.6,0,5.3,0,7.9,0
				c3.2-1.1,4.1-2.8,8.9-3c0,0.3,0,0.7,0,1c-2.9,0.7-2.4,1.7-3,2c-2.9,1.3-6.7-0.6-7.9,2c-0.6,1.3,1.8,1.6,2,2c0,0.7,0,1.3,0,2
				c-2.6-0.1-7.9-0.6-8.9,1c0.3,0.7,0.7,1.3,1,2c-4.9,0.2-4.9,1.5-8.9,2c0-0.7,0-1.3,0-2c1,0,2,0,3,0c0-0.3,0-0.7,0-1
				c0.3,0,0.7,0,1,0c0-1,0-2,0-3c2.6-0.3,5.3-0.7,7.9-1c0-1,0-2,0-3c-5.3-0.2-7.9-0.3-8.9,4c-0.7,0-1.3,0-2,0c0.3-1.7,0.7-3.3,1-5
				c-1-0.3-2-0.7-3-1c0,0.3,0,0.7,0,1c-1,0-2,0-3,0c0,0.3,0,0.7,0,1c-1.3,0-2.6,0-4,0c0,0.3,0,0.7,0,1c-2.3,0.3-4.6,0.7-6.9,1
				c0,1.3,0,2.7,0,4c1.3,0,2.6,0,4,0c0,0.3,0,0.7,0,1c-0.7,0-1.3,0-2,0c0.6,2-0.1,0.9,1,2c0,0.3,0,0.7,0,1c1-0.3,2-0.7,3-1
				c0-0.7,0-1.3,0-2c0.7,0,1.3,0,2,0c-0.6,2,0.1,0.9-1,2c0,0.3,0,0.7,0,1c-1,0-2,0-3,0c0,0.3,0,0.7,0,1c-0.7,0-1.3,0-2,0
				c0,0.3,0,0.7,0,1c-0.7,0-1.3,0-2,0c0,0.3,0,0.7,0,1c-1.6,0.4-1.8-1-2-1c-2,0-4,0-5.9,0c0,1.3,0,2.7,0,4c-3.1-1.9-2.8-3.8-7.9-4
				c0-0.3,0-0.7,0-1c1.7,0,3.3,0,5,0c0-0.3,0-0.7,0-1c0.7,0,1.3,0,2,0c0-0.3,0-0.7,0-1c2.6,0,5.3,0,7.9,0c0-0.3,0-0.7,0-1
				c0.3,0,0.7,0,1,0c-0.3-1-0.7-2-1-3c-8.6,0.2-9.8,3-18.8,3c0,1.3,0,2.7,0,4c4.7,0.6,5.7,3.1,8.9,5c0,0.3,0,0.7,0,1
				c-1,0.3-2,0.7-3,1c0,0.3,0,0.7,0,1c-2-0.3-4-0.7-5.9-1c0,0.3,0,0.7,0,1c-0.3,0-0.7,0-1,0c0,1,0,2,0,3c-3.3,1-6.6,2-9.9,3
				c-3.3,0-6.6,0-9.9,0c0-0.3,0-0.7,0-1c3-0.7,3.8-1.8,5.9-3c0-1.3,0-2.7,0-4c-0.7,0-1.3,0-2,0c0-0.7,0-1.3,0-2c-2.5,0.2-3.5,0-5,1
				c0,0.3,0,0.7,0,1c-0.7,0-1.3,0-2,0c-0.3,0.7-0.7,1.3-1,2c-1.7,0.3-3.3,0.7-5,1c0,0.3,0,0.7,0,1c-1.5,0.9-2.4,0.9-5,1
				c0.6,2-0.1,0.9,1,2c0,0.3,0,0.7,0,1c-1.3,0-2.6,0-4,0c0,1.7,0,3.3,0,5c-3.6,0-5.3,0.1-6.9,2c-2,0-4,0-5.9,0c0-0.3,0-0.7,0-1
				c-0.3,0-0.7,0-1,0c0-0.3,0-0.7,0-1c1.7-0.3,3.3-0.7,5-1c0-0.7,0-1.3,0-2c-0.7,0-1.3,0-2,0c0.3-1.7,0.7-3.3,1-5c-1.3,0-2.6,0-4,0
				c0,1,0,2,0,3c-3.3,0.3-6.6,0.7-9.9,1c0,1,0,2,0,3c-0.4-0.2-2-2-2-2c-2.3-0.9-8.8,2.5-10.9,3c0-1,0-2,0-3c-5.4,0.4-4.7,1.5-7.9,3
				c-1,0-2,0-3,0c-0.3,0.7-0.7,1.3-1,2c-2,0.3-4,0.7-5.9,1c-0.3,0.7-0.7,1.3-1,2c-2.1,1-5.2-0.3-6.9,1c-1.3,1,0,2.5-1,4
				c-0.8,1.3-4.3,3.2-5.9,4c-0.8,1.1,0.1,0.2-1,1c-0.3-1-0.7-2-1-3c-2.6,0.7-2.8,1-4,3c-0.7,0-1.3,0-2,0c0.8-1.1-0.1-0.2,1-1
				c1.2-2,5.3-4.4,7.9-5c0-1,0-2,0-3c-0.3,0-0.7,0-1,0c0-0.3,0-0.7,0-1c-8.6,0.2-14.1,2.1-23.8,2c0.3,1.3,0.7,2.7,1,4
				c-3.6,0.3-6.5,1.8-9.9,0c-0.3-0.7-0.7-1.3-1-2c-0.7,0-1.3,0-2,0c0-0.3,0-0.7,0-1c-3.2-1-12.8,4.9-14.9,6c0.8,1.3,0.7,1.2,2,2
				c0,0.3,0,0.7,0,1c-3.3,0.3-6.6,0.7-9.9,1c-0.3-0.7-0.7-1.3-1-2c-0.7,0-1.3,0-2,0c-0.8,1.1,0.1,0.2-1,1c0.8,1.3,0.7,1.2,2,2
				c0,0.3,0,0.7,0,1c-1.3,0-2.6,0-4,0c-0.3-0.7-0.7-1.3-1-2c-0.7,0-1.3,0-2,0c0-0.7,0-1.3,0-2c-3.2,0.8-3.6,1.3-4,5
				c-0.3,0-0.7,0-1,0c0-1.7,0-3.3,0-5c-3.6,0.2-5.6,1.3-7.9,2c-1.7,0-3.3,0-5,0c0-0.3,0-0.7,0-1c-2.7-0.7-10.5,1.1-11.9,2
				c-0.3,0.7-0.7,1.3-1,2c-0.3,0-0.7,0-1,0c0,0.7,0,1.3,0,2c-1,0.8-1.8-1.9-2-2c-3.6,0-7.3,0-10.9,0c-4,0-7.9,0-11.9,0
				c0,0.3,0,0.7,0,1c-1.7,0.3-3.3,0.7-5,1c-0.3,0.7-0.7,1.3-1,2c-1,0.3-2,0.7-3,1c-0.6,1.5-0.8,1.6-1,4c1.9-0.3,2-1,2-1
				c2,0,4,0,5.9,0c0.3-0.7,0.7-1.3,1-2c2,0,4,0,5.9,0c0-0.3,0-0.7,0-1c1,0,2,0,3,0c0,0.3,0,0.7,0,1c-2.1,1.2-2.1,2.3-5,3
				c-2.2,2-18.1,1.1-22.8,1c0-0.3,0-0.7,0-1c1.3,0,2.6,0,4,0c0-0.3,0-0.7,0-1c3.5-1.8,5.8-1.7,6.9-6c-2-0.3-4-0.7-5.9-1
				c0-0.3,0-0.7,0-1c0.7,0,1.3,0,2,0c0-0.7,0-1.3,0-2c1.7,0.3,3.3,0.7,5,1c0.8-1.1-0.1-0.2,1-1c-0.4-4.1-1.9-4.7-5-6
				c-2.9,5.1-8.7,7.2-16.9,7c0,1,0,2,0,3c-0.3,0-0.7,0-1,0c-1.7,2.1-2,0.6-3,4c-4,0.3-7.9,0.7-11.9,1c-0.3-0.7-0.7-1.3-1-2
				c-3.3,0.3-6.6,0.7-9.9,1c0,1,0,2,0,3c4.3,0.2,5.4,1.2,6.9,4c6.9-1.7,13.9-3.3,20.8-5c0,0.7,0,1.3,0,2c-1,0-2,0-3,0
				c-0.3,1-0.7,2-1,3c-4,0-8.3,0-10.9,1c1.2,4.1,2,2,4,5c2.6,0,5.3,0,7.9,0c0,0.3,0,0.7,0,1c-6.2,2.5-6.6,1.8-12.9,0
				c-4.6,0-9.3,0-13.9,0c-0.3-0.7-0.7-1.3-1-2c-3.3,0-6.6,0-9.9,0c0,1,0,2,0,3c-1.7,0-3.3,0-5,0c0.3-0.7,0.7-1.3,1-2
				c-1.5-0.6-1.6-0.8-4-1c0.3,1.3,0.7,2.7,1,4c-2.3-0.6-1.9-0.3-3-2c-3,1-5.9,2-8.9,3c-0.1-2.6-0.4-3.4-1-5c-2,0.3-4,0.7-5.9,1
				c0,0.3,0,0.7,0,1c0,0-2.4-0.9-4-1c0-0.7,0-1.3,0-2c-4,0.3-7.9,0.7-11.9,1c0,0.3,0,0.7,0,1c-1-0.3-2-0.7-3-1c-1.1,0.5-0.5,2.9-4,2
				c0-0.3,0-0.7,0-1c-0.7,0-1.3,0-2,0c0-0.3,0-0.7,0-1c-2,0-4,0-5.9,0c0-0.3,0-0.7,0-1c-0.3,0-0.7,0-1,0c0-0.3,0-0.7,0-1
				c2,0,4,0,5.9,0c0,0.3,0,0.7,0,1c2.6-0.3,5.3-0.7,7.9-1c-0.3-2.3-0.7-4.7-1-7c-0.3,0-0.7,0-1,0c0-0.3,0-0.7,0-1
				c-1.7,0.3-3.3,0.7-5,1c0-0.3,0-0.7,0-1c-1.3,0-2.6,0-4,0c0-0.3,0-0.7,0-1c-5.8-1.8-17,0.9-20.8,2c-5.6,0-11.2,0-16.9,0
				c-3,0-5.9,0-8.9,0c-0.8-0.2-6.6-2.6-7.9-2c0,0.3,0,0.7,0,1c-2.7,0.8-2.3,0.2-3,3c2.3,0.3,4.6,0.7,6.9,1c0,0.3,0,0.7,0,1
				c2.3,0,4.6,0,6.9,0c0,0.3,0,0.7,0,1c7.3,0,14.5,0,21.8,0c0.3,0.7,0.7,1.3,1,2c3,1,4.1-1.6,5-3c0.3,0,0.7,0,1,0c0,1,0,2,0,3
				c2.6,0,5.3,0,7.9,0c1.1,1.7,2.1,2.2,4,3c0,0.3,0,0.7,0,1c-2.3,0-4.6,0-6.9,0c0-1,0-2,0-3c-1,0-2,0-3,0c0.3,1,0.7,2,1,3
				c-1.5,0.6-1.6,0.8-4,1c0-1,0-2,0-3c-5.3,0-10.6,0-15.9,0c0-0.3,0-0.7,0-1c-1.7,0-3.3,0-5,0c0,0.3,0,0.7,0,1
				c-4,1.1-9.1-0.5-11.9-1c0-0.7,0-1.3,0-2c-1.3-0.3-2.6-0.7-4-1c0-0.3,0-0.7,0-1c-2,0-4,0-5.9,0c0-0.3,0-0.7,0-1
				c-6.6,0.3-13.2,0.7-19.8,1c-0.6-2,0.1-0.9-1-2c0-0.3,0-0.7,0-1c-1.7,0-3.3,0-5,0c0-0.3,0-0.7,0-1c-0.7,0-1.3,0-2,0
				c0-0.3,0-0.7,0-1c-5.9,0.7-11.9,1.3-17.8,2c0.3-1.3,0.7-2.7,1-4c-1.1-0.9-0.2,0.1-1-1c-2.3,0-4.6,0-6.9,0c0,0.3,0,0.7,0,1
				c-1.1,0.9-0.2-0.1-1,1c1,0.3,2,0.7,3,1l1-1c0.8,1.1-0.1,0.2,1,1c0,0.3,0,0.7,0,1c-2.3-0.3-4.6-0.7-6.9-1c0-0.3,0-0.7,0-1
				c-2.6,0-5.3,0-7.9,0c0-0.3,0-0.7,0-1c-0.7,0-1.3,0-2,0c0-0.3,0-0.7,0-1c-3.3-0.3-6.6-0.7-9.9-1c0-0.7,0-1.3,0-2
				c1.7-0.3,3.3-0.7,5-1c0,0.7,0,1.3,0,2c2.3,0,4.6,0,6.9,0c0-0.3,0-0.7,0-1c0.3,0,0.7,0,1,0c-0.6-1.4-1.8-3.1-3-4
				c-2.4-2.4-11.3-4.2-16.9-4c0.3,2.3,0.7,4.7,1,7c0.3,0,0.7,0,1,0c0,0.3,0,0.7,0,1c-2,0-4,0-5.9,0c-0.3-0.7-0.7-1.3-1-2
				c-1.7,0-3.3,0-5,0c0-1.7,0-3.3,0-5c2.6,0.3,5.3,0.7,7.9,1c0-0.7,0-1.3,0-2c-3-0.7-2.1-1.6-3-2c-1,0-2,0-3,0c0-0.3,0-0.7,0-1
				c-1,0.3-2,0.7-3,1c0,0.3,0,0.7,0,1c-0.7-0.3-1.3-0.7-2-1c-0.3,0.7-0.7,1.3-1,2l1,1c-1.7,0.3-3.3,0.7-5,1c-0.3-1-0.7-2-1-3
				c-0.7,0-1.3,0-2,0c0-0.3,0-0.7,0-1c-1,0.3-2,0.7-3,1c0,0.3,0,0.7,0,1c-0.7,0-1.3,0-2,0c-0.3,0.7-0.7,1.3-1,2
				c-1.1-0.2-1.9-1.9-4-1c-0.3,0.7-0.7,1.3-1,2c-2.6,0-5.3,0-7.9,0c0.3-1.3,0.7-2.7,1-4c-2.4-0.9-6.2-1.1-9.9-1c0-1,0-2,0-3
				c-4.6-1-9.3-2-13.9-3c-0.3-0.7-0.7-1.3-1-2c-1,0-2,0-3,0c-0.3-0.7-0.7-1.3-1-2c-0.7,0-1.3,0-2,0c0-0.3,0-0.7,0-1c-1,0-2,0-3,0
				c-0.3-0.7-0.7-1.3-1-2c-1.9-1.2-2.2,0-4-2c-0.7,0-1.3,0-2,0c0-0.3,0-0.7,0-1c3,0.7,5.9,1.3,8.9,2c0,0.3,0,0.7,0,1
				c0.7,0,1.3,0,2,0c0,0.3,0,0.7,0,1c1.3,0,2.6,0,4,0c0,0.3,0,0.7,0,1c1,0,2,0,3,0c0,0.3,0,0.7,0,1c1.3,0,2.6,0,4,0c0,0.3,0,0.7,0,1
				c1.3,0,2.6,0,4,0c0,0.3,0,0.7,0,1c0.7,0,1.3,0,2,0c0,0.3,0,0.7,0,1c1.3,0,2.6,0,4,0c0,0.3,0,0.7,0,1c0.7,0,1.3,0,2,0
				c0,0.3,0,0.7,0,1c1,0,2,0,3,0c0,0.3,0,0.7,0,1c2.4,1.3,1.4-0.4,3,2c3.2,0.1,8.2,0.6,9.9-1c0.6-1.3,1.2,0.4,1-1c-0.3,0-0.7,0-1,0
				c-2-3.1-4.6-2.4-7.9-4c0-0.3,0-0.7,0-1c-0.7,0-1.3,0-2,0c0-0.3,0-0.7,0-1c-1,0-2,0-3,0c0-0.3,0-0.7,0-1c-1,0-2,0-3,0
				c-0.3-0.7-0.7-1.3-1-2c-1.3,0-2.6,0-4,0c0-0.3,0-0.7,0-1c-1.3-0.3-2.6-0.7-4-1c0-0.3,0-0.7,0-1c-1,0-2,0-3,0c0-0.3,0-0.7,0-1
				c-0.7,0-1.3,0-2,0c0-0.3,0-0.7,0-1c-1,0-2,0-3,0c0-0.3,0-0.7,0-1c-1,0-2,0-3,0c0-0.3,0-0.7,0-1c-0.7,0-1.3,0-2,0c0-0.3,0-0.7,0-1
				c-1,0-2,0-3,0c0-0.3,0-0.7,0-1c-0.7,0-1.3,0-2,0c0-0.3,0-0.7,0-1c-3,0-5.9,0-8.9,0c0-0.3,0-0.7,0-1c-1,0-2,0-3,0c0-0.3,0-0.7,0-1
				c-0.7,0-1.3,0-2,0c0-0.3,0-0.7,0-1c-1.3,0-2.6,0-4,0c-0.3-0.7-0.7-1.3-1-2c-1.7-0.3-3.3-0.7-5-1c-0.3-0.7-0.7-1.3-1-2
				c-0.7,0-1.3,0-2,0l-2-2c-0.7,0-1.3,0-2,0c0-0.3,0-0.7,0-1c-0.7,0-1.3,0-2,0c-0.3-0.7-0.7-1.3-1-2c-1.3-0.3-2.6-0.7-4-1
				c-0.3-0.7-0.7-1.3-1-2c-1-0.3-2-0.7-3-1c0-0.3,0-0.7,0-1c-1.3-0.3-2.6-0.7-4-1c-0.3-0.7-0.7-1.3-1-2c-0.7,0-1.3,0-2,0
				c0-0.3,0-0.7,0-1c-0.7,0-1.3,0-2,0c-0.3-0.7-0.7-1.3-1-2c-1-0.3-2-0.7-3-1c0-0.3,0-0.7,0-1c-1.3-0.3-2.6-0.7-4-1
				c-0.3-0.7-0.7-1.3-1-2c-0.7,0-1.3,0-2,0c-0.3-0.7-0.7-1.3-1-2c-1.3-0.3-2.6-0.7-4-1c-0.3-0.7-0.7-1.3-1-2c-0.7,0-1.3,0-2,0
				c-0.7-1-1.3-2-2-3c-0.7,0-1.3,0-2,0c-0.3-0.7-0.7-1.3-1-2c-0.7,0-1.3,0-2,0c-0.3-0.7-0.7-1.3-1-2c-1.5-1.3-4.9-3.5-6.9-4
				c0-0.7,0-1.3,0-2c-3.2-0.9-4.7-3.1-6.9-5c0-0.3,0-0.7,0-1c-0.7,0-1.3,0-2,0c-0.3-0.7-0.7-1.3-1-2c-1.7-1.3-3.3-2.7-5-4
				c0-0.7,0-1.3,0-2c-2-1.7-4-3.3-5.9-5c0-0.7,0-1.3,0-2c-0.7,0-1.3,0-2,0c-0.6-2.2-0.8-2.5-2-4c-0.3,0-0.7,0-1,0c0-0.7,0-1.3,0-2
				c-0.7-0.3-1.3-0.7-2-1c0-0.3,0-0.7,0-1c-0.7-0.3-1.3-0.7-2-1c0-0.7,0-1.3,0-2c-0.7-0.3-1.3-0.7-2-1c0-0.7,0-1.3,0-2
				c-0.7-0.3-1.3-0.7-2-1c0-0.7,0-1.3,0-2c-0.7-0.3-1.3-0.7-2-1c-0.3-1-0.7-2-1-3c-0.3,0-0.7,0-1,0c-0.3-1.3-0.7-2.7-1-4
				c-0.7-0.3-1.3-0.7-2-1c0-1,0-2,0-3c-0.3,0-0.7,0-1,0c-0.3-1.3-0.7-2.7-1-4c-0.3,0-0.7,0-1,0c0-1,0-2,0-3c-0.3,0-0.7,0-1,0
				c0-0.7,0-1.3,0-2c-0.3,0-0.7,0-1,0c0-1.3,0-2.7,0-4c-0.3,0-0.7,0-1,0c-0.3-2.3-0.7-4.7-1-7c-0.3,0-0.7,0-1,0c0-2.7,0-5.3,0-8
				c-0.3,0-0.7,0-1,0c0-1.3,0-2.7,0-4c-0.3,0-0.7,0-1,0c0-3.7,0-7.3,0-11c-1-3.5-2.4-25.2-1-30c0.3,0,0.7,0,1,0c0-2.7,0-5.3,0-8
				c0.3,0,0.7,0,1,0c0-1,0-2,0-3c0.3,0,0.7,0,1,0c0-2,0-4,0-6c0.3,0,0.7,0,1,0c0-0.7,0-1.3,0-2c0.7-0.3,1.3-0.7,2-1c0-1,0-2,0-3
				c0.3,0,0.7,0,1,0c-0.3-1.3-0.7-2.7-1-4c0.7-0.3,1.3-0.7,2-1c0.3-2,0.7-4,1-6c0.7-0.3,1.3-0.7,2-1c0-1,0-2,0-3
				c0.7-0.3,1.3-0.7,2-1c0.3-1.3,0.7-2.7,1-4c0.7-0.3,1.3-0.7,2-1c0-0.7,0-1.3,0-2c0.7-0.3,1.3-0.7,2-1c0-0.7,0-1.3,0-2
				c1-0.7,2-1.3,3-2c0-0.7,0-1.3,0-2c1-0.7,2-1.3,3-2c0-0.7,0-1.3,0-2c0.7-0.3,1.3-0.7,2-1c3.6-4,7.3-8,10.9-12c0.7,0,1.3,0,2,0
				c0-0.7,0-1.3,0-2c1-0.3,2-0.7,3-1c1-1.3,2-2.7,3-4c0.7,0,1.3,0,2,0c1-1.3,2-2.7,3-4c1-0.3,2-0.7,3-1c0-0.3,0-0.7,0-1
				c0.7,0,1.3,0,2,0c0-0.7,0-1.3,0-2c2.7-0.6,4.2-1.5,5.9-3c0.3-0.7,0.7-1.3,1-2c1.3-0.3,2.6-0.7,4-1c0.7-1,1.3-2,2-3
				c0.7,0,1.3,0,2,0c0.3-0.7,0.7-1.3,1-2c0.7,0,1.3,0,2,0c0.3-0.7,0.7-1.3,1-2c1-0.3,2-0.7,3-1c0-0.3,0-0.7,0-1c1.3-0.3,2.6-0.7,4-1
				c0.3-0.7,0.7-1.3,1-2c1.3-0.3,2.6-0.7,4-1c0.3-0.7,0.7-1.3,1-2c1-0.3,2-0.7,3-1c0-0.3,0-0.7,0-1c1.7-0.3,3.3-0.7,5-1
				c0.3-0.7,0.7-1.3,1-2c1.3-0.3,2.6-0.7,4-1c0-0.3,0-0.7,0-1c0.7,0,1.3,0,2,0c0-0.3,0-0.7,0-1c0.7,0,1.3,0,2,0c0-0.3,0-0.7,0-1
				c0.7,0,1.3,0,2,0c0-0.3,0-0.7,0-1c3-1,5.9-2,8.9-3c0.3-0.7,0.7-1.3,1-2c2-0.3,4-0.7,5.9-1c0-0.3,0-0.7,0-1c0.7,0,1.3,0,2,0
				c0-0.3,0-0.7,0-1c1,0,2,0,3,0c0-0.3,0-0.7,0-1c1.3-0.3,2.6-0.7,4-1c0-0.3,0-0.7,0-1c1.3,0,2.6,0,4,0c0.3-0.7,0.7-1.3,1-2
				c2-0.3,4-0.7,5.9-1c0.3-0.7,0.7-1.3,1-2c1,0,2,0,3,0c0-0.3,0-0.7,0-1c0.7,0,1.3,0,2,0c0-0.3,0-0.7,0-1c2-0.3,4-0.7,5.9-1
				c0-0.3,0-0.7,0-1c0.7,0,1.3,0,2,0c0-0.3,0-0.7,0-1c1,0,2,0,3,0c0-0.3,0-0.7,0-1c0.7,0,1.3,0,2,0c0-0.3,0-0.7,0-1c1,0,2,0,3,0
				c0-0.3,0-0.7,0-1c1.3,0,2.6,0,4,0c0-0.3,0-0.7,0-1c0.7,0,1.3,0,2,0c0-0.3,0-0.7,0-1c1,0,2,0,3,0c0-0.3,0-0.7,0-1c1.3,0,2.6,0,4,0
				c0-0.3,0-0.7,0-1c1,0,2,0,3,0c0-0.3,0-0.7,0-1c1.3,0,2.6,0,4,0c0-0.3,0-0.7,0-1c0.7,0,1.3,0,2,0c0-0.3,0-0.7,0-1
				c4-0.7,7.9-1.3,11.9-2c0-0.3,0-0.7,0-1c1.7,0,3.3,0,5,0c0-0.3,0-0.7,0-1c0.7,0,1.3,0,2,0c0-0.3,0-0.7,0-1c4-0.3,7.9-0.7,11.9-1
				c0-0.3,0-0.7,0-1c0.7,0,1.3,0,2,0c0-0.3,0-0.7,0-1c2.3,0,4.6,0,6.9,0c0-0.3,0-0.7,0-1c1.3,0,2.6,0,4,0c0-0.3,0-0.7,0-1
				c1.7,0,3.3,0,5,0c0-0.3,0-0.7,0-1c2.3,0,4.6,0,6.9,0c0-0.3,0-0.7,0-1c1,0,2,0,3,0c0-0.3,0-0.7,0-1c3,0,5.9,0,8.9,0
				c0-0.3,0-0.7,0-1c2,0,4,0,5.9,0c0-0.3,0-0.7,0-1c1.7,0,3.3,0,5,0c0-0.3,0-0.7,0-1c3.3,0,6.6,0,9.9,0c0-0.3,0-0.7,0-1
				c1.3,0,2.6,0,4,0c0-0.3,0-0.7,0-1c3,0,5.9,0,8.9,0c0-0.3,0-0.7,0-1c4,0,7.9,0,11.9,0c2.8-0.8,7.2-1.9,10.9-2c3.3,0,6.6,0,9.9,0
				c0-0.3,0-0.7,0-1c2,0,4,0,5.9,0c0-0.3,0-0.7,0-1c5.9,0,11.9,0,17.8,0c0-0.3,0-0.7,0-1c2.4-0.7,5.6,1,5.9,1c0-0.3,0-0.7,0-1
				c6.3,0,12.6,0,18.8,0c15.5,0,31.1,0,46.6,0c6.9,0,13.9,0,20.8,0c0.7,0.3,1.3,0.7,2,1c0-0.3,0-0.7,0-1c2.1-0.1,2,1,2,1
				c5,0,9.9,0,14.9,0c0,0.3,0,0.7,0,1c1.7,0,3.3,0,5,0c0,0.3,0,0.7,0,1c3.3,0,6.6,0,9.9,0c0,0.3,0,0.7,0,1c1.7,0,3.3,0,5,0
				c0,0.3,0,0.7,0,1c5.6,0.3,11.2,0.7,16.9,1c0,0.3,0,0.7,0,1c1.3,0,2.6,0,4,0c0,0.3,0,0.7,0,1c4.3,0.3,8.6,0.7,12.9,1
				c0,0.3,0,0.7,0,1c2.3,0,4.6,0,6.9,0c0,0.3,0,0.7,0,1c2.3,0,4.6,0,6.9,0c0,0.3,0,0.7,0,1c1,0,2,0,3,0c0,0.3,0,0.7,0,1
				c2.6,0,5.3,0,7.9,0c0,0.3,0,0.7,0,1c1.7,0,3.3,0,5,0c0,0.3,0,0.7,0,1c1.7,0,3.3,0,5,0c0,0.3,0,0.7,0,1c2,0,4,0,5.9,0
				c0,0.3,0,0.7,0,1c1,0,2,0,3,0c0,0.3,0,0.7,0,1c3.3,0.3,6.6,0.7,9.9,1c0,0.3,0,0.7,0,1c1,0,2,0,3,0c0,0.3,0,0.7,0,1
				c1.7,0,3.3,0,5,0c0,0.3,0,0.7,0,1c0.7,0,1.3,0,2,0c0,0.3,0,0.7,0,1c3,0.3,5.9,0.7,8.9,1c0,0.3,0,0.7,0,1c0.7,0,1.3,0,2,0
				c0,0.3,0,0.7,0,1c1.7,0,3.3,0,5,0c0,0.3,0,0.7,0,1c0.7,0,1.3,0,2,0c0,0.3,0,0.7,0,1c3,0.3,5.9,0.7,8.9,1c0,0.3,0,0.7,0,1
				c0.7,0,1.3,0,2,0c0,0.3,0,0.7,0,1c1.7,0,3.3,0,5,0c0,0.3,0,0.7,0,1c1.3,0,2.6,0,4,0c0,0.3,0,0.7,0,1c0.7,0,1.3,0,2,0
				c0,0.3,0,0.7,0,1c1.7,0,3.3,0,5,0c0,0.3,0,0.7,0,1c0.7,0,1.3,0,2,0c0,0.3,0,0.7,0,1c3,0.3,5.9,0.7,8.9,1c0,0.3,0,0.7,0,1
				c0.7,0,1.3,0,2,0c0,0.3,0,0.7,0,1c1.3,0,2.6,0,4,0c0,0.3,0,0.7,0,1c1,0,2,0,3,0c0,0.3,0,0.7,0,1c1.3,0,2.6,0,4,0c0,0.3,0,0.7,0,1
				c1.3,0,2.6,0,4,0c0,0.3,0,0.7,0,1c0.7,0,1.3,0,2,0c0,0.3,0,0.7,0,1c2.6,0.3,5.3,0.7,7.9,1c0,0.3,0,0.7,0,1c0.7,0,1.3,0,2,0
				c0,0.3,0,0.7,0,1c1.7,0,3.3,0,5,0c0.3,0.7,0.7,1.3,1,2c2.6,0.3,5.3,0.7,7.9,1c0,0.3,0,0.7,0,1c0.7,0,1.3,0,2,0c0,0.3,0,0.7,0,1
				c1.3,0,2.6,0,4,0c0,0.3,0,0.7,0,1c0.7,0,1.3,0,2,0c0,0.3,0,0.7,0,1c1,0,2,0,3,0c0,0.3,0,0.7,0,1c1.3,0,2.6,0,4,0c0,0.3,0,0.7,0,1
				c0.7,0,1.3,0,2,0c0,0.3,0,0.7,0,1c1,0,2,0,3,0c0,0.3,0,0.7,0,1c1,0,2,0,3,0c0,0.3,0,0.7,0,1c2,0.3,4,0.7,5.9,1
				c0.3,0.7,0.7,1.3,1,2c2.3,0.3,4.6,0.7,6.9,1c0.3,0.7,0.7,1.3,1,2c1.3,0,2.6,0,4,0c0.3,0.7,0.7,1.3,1,2c2,0.3,4,0.7,5.9,1
				c0.3,0.7,0.7,1.3,1,2c1.3,0,2.6,0,4,0c0,0.3,0,0.7,0,1c1.3,0.3,2.6,0.7,4,1c0,0.3,0,0.7,0,1c1,0,2,0,3,0c0,0.3,0,0.7,0,1
				c0.7,0,1.3,0,2,0c0,0.3,0,0.7,0,1c1,0,2,0,3,0c0,0.3,0,0.7,0,1c1.3,0.3,2.6,0.7,4,1c0,0.3,0,0.7,0,1c1,0,2,0,3,0c0,0.3,0,0.7,0,1
				c0.7,0,1.3,0,2,0c0,0.3,0,0.7,0,1c1,0,2,0,3,0c0,0.3,0,0.7,0,1c1.3,0.3,2.6,0.7,4,1c0,0.3,0,0.7,0,1c1,0,2,0,3,0c0,0.3,0,0.7,0,1
				c1.3,0.3,2.6,0.7,4,1c0,0.3,0,0.7,0,1c1,0,2,0,3,0c0.3,0.7,0.7,1.3,1,2c1,0,2,0,3,0c0,0.3,0,0.7,0,1c1.3,0.3,2.6,0.7,4,1
				c0,0.3,0,0.7,0,1c1,0,2,0,3,0c0.3,0.7,0.7,1.3,1,2c1,0,2,0,3,0c0,0.3,0,0.7,0,1c1.3,0.3,2.6,0.7,4,1c0,0.3,0,0.7,0,1c1,0,2,0,3,0
				c0.3,0.7,0.7,1.3,1,2c0.7,0,1.3,0,2,0c0,0.3,0,0.7,0,1c1,0,2,0,3,0c0.3,0.7,0.7,1.3,1,2c1,0,2,0,3,0c0.3,0.7,0.7,1.3,1,2
				c1.3,0.3,2.6,0.7,4,1c0.3,0.7,0.7,1.3,1,2c1.7,0.3,3.3,0.7,5,1c0,0.3,0,0.7,0,1c1,0.3,2,0.7,3,1c0.3,0.7,0.7,1.3,1,2
				c1.3,0.3,2.6,0.7,4,1c0.3,0.7,0.7,1.3,1,2c0.7,0,1.3,0,2,0c0.3,0.7,0.7,1.3,1,2c0.7,0,1.3,0,2,0c0.7,1,1.3,2,2,3c0.7,0,1.3,0,2,0
				c0.7,1,1.3,2,2,3c0.7,0,1.3,0,2,0c2,2.3,4,4.7,5.9,7c1.7,1.5,2.5,0.8,4,3c1.3,0,2.6,0,4,0c0,0.3,0,0.7,0,1c2-0.3,4-0.7,5.9-1
				c0-0.7,0-1.3,0-2c0.7,0,1.3,0,2,0c0.5-2.2,0.6-2.8,2-4c-0.1-4.8-0.9-5.5-3-8c-0.3,0-0.7,0-1,0c-0.3-1-0.7-2-1-3
				c-0.7-0.3-1.3-0.7-2-1c0-0.7,0-1.3,0-2c-2.6-2.3-5.3-4.7-7.9-7c0-0.7,0-1.3,0-2c-1-0.7-2-1.3-3-2c-3.3-3.3-5.4-6.9-9.9-9
				c0-0.7,0-1.3,0-2c-3.2-0.9-4.7-3.1-6.9-5c0-0.3,0-0.7,0-1c-0.7,0-1.3,0-2,0c-1-1.3-2-2.7-3-4c-0.7,0-1.3,0-2,0c-0.7-1-1.3-2-2-3
				c-0.7,0-1.3,0-2,0c-0.7-1-1.3-2-2-3c-0.7,0-1.3,0-2,0c-0.7-1-1.3-2-2-3c-0.7,0-1.3,0-2,0c-0.3-0.7-0.7-1.3-1-2c-1-0.3-2-0.7-3-1
				c0-0.3,0-0.7,0-1c-0.7,0-1.3,0-2,0c-0.7-1-1.3-2-2-3c-0.7,0-1.3,0-2,0c-0.3-0.7-0.7-1.3-1-2c-1.3-0.3-2.6-0.7-4-1
				c-0.3-0.7-0.7-1.3-1-2c-1.3-0.3-2.6-0.7-4-1c-0.3-0.7-0.7-1.3-1-2c-1-0.3-2-0.7-3-1c0-0.3,0-0.7,0-1c-1.3-0.3-2.6-0.7-4-1
				c-0.3-0.7-0.7-1.3-1-2c-1,0-2,0-3,0c-0.3-0.7-0.7-1.3-1-2c-1.3-0.3-2.6-0.7-4-1c-0.3-0.7-0.7-1.3-1-2c-1,0-2,0-3,0
				c-0.3-0.7-0.7-1.3-1-2c-1.7-0.3-3.3-0.7-5-1c-0.3-0.7-0.7-1.3-1-2c-0.7,0-1.3,0-2,0c0-0.3,0-0.7,0-1c-1.3-0.3-2.6-0.7-4-1
				c0-0.3,0-0.7,0-1c-1,0-2,0-3,0c-0.3-0.7-0.7-1.3-1-2c-1.7-0.3-3.3-0.7-5-1c-0.3-0.7-0.7-1.3-1-2c-1,0-2,0-3,0
				c-0.3-0.7-0.7-1.3-1-2c-1,0-2,0-3,0c0-0.3,0-0.7,0-1c-1.3-0.3-2.6-0.7-4-1c0-0.3,0-0.7,0-1c-1,0-2,0-3,0c0-0.3,0-0.7,0-1
				c-1.3-0.3-2.6-0.7-4-1c0-0.3,0-0.7,0-1c-1,0-2,0-3,0c-0.3-0.7-0.7-1.3-1-2c-1,0-2,0-3,0c0-0.3,0-0.7,0-1c-1.3-0.3-2.6-0.7-4-1
				c0-0.3,0-0.7,0-1c-1,0-2,0-3,0c0-0.3,0-0.7,0-1c-0.7,0-1.3,0-2,0c0-0.3,0-0.7,0-1c-1,0-2,0-3,0c0-0.3,0-0.7,0-1
				c-1.3-0.3-2.6-0.7-4-1c0-0.3,0-0.7,0-1c-1,0-2,0-3,0c0-0.3,0-0.7,0-1c-1.3-0.3-2.6-0.7-4-1c0-0.3,0-0.7,0-1c-1.3,0-2.6,0-4,0
				c-0.3-0.7-0.7-1.3-1-2c-2-0.3-4-0.7-5.9-1c0-0.3,0-0.7,0-1c-0.7,0-1.3,0-2,0c0-0.3,0-0.7,0-1c-1,0-2,0-3,0c-0.3-0.7-0.7-1.3-1-2
				c-2-0.3-4-0.7-5.9-1c0-0.3,0-0.7,0-1c-0.7,0-1.3,0-2,0c0-0.3,0-0.7,0-1c-1.7-0.3-3.3-0.7-5-1c0-0.3,0-0.7,0-1c-1,0-2,0-3,0
				c0-0.3,0-0.7,0-1c-1.3,0-2.6,0-4,0c-0.3-0.7-0.7-1.3-1-2c-1.3,0-2.6,0-4,0c0-0.3,0-0.7,0-1c-1,0-2,0-3,0c0-0.3,0-0.7,0-1
				c-1,0-2,0-3,0c0-0.3,0-0.7,0-1c-1.3,0-2.6,0-4,0c0-0.3,0-0.7,0-1c-0.7,0-1.3,0-2,0c0-0.3,0-0.7,0-1c-2.6-0.3-5.3-0.7-7.9-1
				c0-0.3,0-0.7,0-1c-0.7,0-1.3,0-2,0c0-0.3,0-0.7,0-1c-1.3,0-2.6,0-4,0c0-0.3,0-0.7,0-1c-1,0-2,0-3,0c0-0.3,0-0.7,0-1
				c-1.3,0-2.6,0-4,0c0-0.3,0-0.7,0-1c-1.7,0-3.3,0-5,0c0-0.3,0-0.7,0-1c-0.7,0-1.3,0-2,0c0-0.3,0-0.7,0-1c-2.6-0.3-5.3-0.7-7.9-1
				c0-0.3,0-0.7,0-1c-3-0.3-5.9-0.7-8.9-1c0-0.3,0-0.7,0-1c-0.7,0-1.3,0-2,0c0-0.3,0-0.7,0-1c-3.6-0.3-7.3-0.7-10.9-1
				c0-0.3,0-0.7,0-1c-0.7,0-1.3,0-2,0c0-0.3,0-0.7,0-1c-2.3,0-4.6,0-6.9,0c0-0.3,0-0.7,0-1c-0.7,0-1.3,0-2,0c0-0.3,0-0.7,0-1
				c-4-0.3-7.9-0.7-11.9-1c0-0.3,0-0.7,0-1c-0.7,0-1.3,0-2,0c0-0.3,0-0.7,0-1c-2.3,0-4.6,0-6.9,0c0-0.3,0-0.7,0-1c-1.7,0-3.3,0-5,0
				c0-0.3,0-0.7,0-1c-1.7,0-3.3,0-5,0c0-0.3,0-0.7,0-1c-1,0-2,0-3,0c-0.3-0.7-0.7-1.3-1-2c-2.6,0-5.3,0-7.9,0c-0.7-1-1.3-2-2-3
				c-3-0.3-5.9-0.7-8.9-1c-0.6,2,0.1,0.9-1,2c0,0.3,0,0.7,0,1c-0.3,0-0.7,0-1,0c0-0.3,0-0.7,0-1c-1.7,0-3.3,0-5,0c0-0.3,0-0.7,0-1
				c-3,0-5.9,0-8.9,0c0-0.3,0-0.7,0-1c-1.3,0-2.6,0-4,0c0-0.3,0-0.7,0-1c-2.6,0-5.3,0-7.9,0c0-0.3,0-0.7,0-1c-2.6,0-5.3,0-7.9,0
				c0-0.3,0-0.7,0-1c-10.2-1.3-20.5-2.7-30.7-4c0-1,0-2,0-3c-0.3,0-0.7,0-1,0c0-0.3,0-0.7,0-1c-1.3,0-2.6,0-4,0c0,1.3,0,2.7,0,4
				c-29-5.5-66-5.3-103.1-5c0-1,0-2,0-3c-2.3,0-4.6,0-6.9,0c-0.6,2,0.1,0.9-1,2c-3.8,3.4-14.2-0.6-19.8,1c-13.1,3.7-32.6,1.3-45.6,5
				c-4,0-7.9,0-11.9,0c0,0.3,0,0.7,0,1c-2.6,0-5.3,0-7.9,0c0,0.3,0,0.7,0,1c-2.3,0-4.6,0-6.9,0c0,0.3,0,0.7,0,1c-0.3,0-0.7,0-1,0
				c0.7-1.3,1.3-2.7,2-4c-1.1-0.9-0.2,0.1-1-1c-3.6,1.3-7.3,2.7-10.9,4c0,0.7,0,1.3,0,2c-6.3,0.7-12.6,1.3-18.8,2c0,0.3,0,0.7,0,1
				c-1,0-2,0-3,0c0,0.3,0,0.7,0,1c-2.6,0-5.3,0-7.9,0c0,0.3,0,0.7,0,1c-1,0-2,0-3,0c0,0.3,0,0.7,0,1c-4,0.3-7.9,0.7-11.9,1
				c0,0.3,0,0.7,0,1c-1,0-2,0-3,0c0,0.3,0,0.7,0,1c-2,0-4,0-5.9,0c0,0.3,0,0.7,0,1c-1,0-2,0-3,0c0,0.3,0,0.7,0,1c-1.3,0-2.6,0-4,0
				c0,0.3,0,0.7,0,1c-1.7,0-3.3,0-5,0c0,0.3,0,0.7,0,1c-3.6,0.7-7.3,1.3-10.9,2c0,0.3,0,0.7,0,1c-1,0-2,0-3,0c0,0.3,0,0.7,0,1
				c-1.3,0-2.6,0-4,0c0,0.3,0,0.7,0,1c-0.7,0-1.3,0-2,0c0,0.3,0,0.7,0,1c-2.6,0.3-5.3,0.7-7.9,1c0,0.3,0,0.7,0,1c-0.7,0-1.3,0-2,0
				c0,0.3,0,0.7,0,1c-1.3,0-2.6,0-4,0c-0.3,0.7-0.7,1.3-1,2c-1.3,0-2.6,0-4,0c0,0.3,0,0.7,0,1c-1,0-2,0-3,0c0,0.3,0,0.7,0,1
				c-0.7,0-1.3,0-2,0c0,0.3,0,0.7,0,1c-2,0.3-4,0.7-5.9,1c0,0.3,0,0.7,0,1c-0.7,0-1.3,0-2,0c0,0.3,0,0.7,0,1c-1,0-2,0-3,0
				c0,0.3,0,0.7,0,1c-0.7,0-1.3,0-2,0c0,0.3,0,0.7,0,1c-2,0.3-4,0.7-5.9,1c-0.3,0.7-0.7,1.3-1,2c-1,0-2,0-3,0c0,0.3,0,0.7,0,1
				c-0.7,0-1.3,0-2,0c0,0.3,0,0.7,0,1c-2,0.3-4,0.7-5.9,1c-0.3,0.7-0.7,1.3-1,2c-1,0-2,0-3,0c0,0.3,0,0.7,0,1c-0.7,0-1.3,0-2,0
				c-0.3,0.7-0.7,1.3-1,2c-1,0-2,0-3,0c-0.3,0.7-0.7,1.3-1,2c-0.7-0.3-1.3-0.7-2-1c-0.3,0.7-0.7,1.3-1,2c-0.7,0-1.3,0-2,0
				c-1,1.3-2,2.7-3,4c-0.7,0-1.3,0-2,0c-2.7,1.5-4.6,2.9-8.9,3c-0.5,3.8-1.2,2.8-2,6c-3.3,0.8-5.2,2.6-6.9,5c-0.3,0-0.7,0-1,0
				c-1.8,3.4,1.7,3.2-2,6c0,0.3,0,0.7,0,1c-0.3,0-0.7,0-1,0c-1.9-2.1,1.1-1.8-3-3c-3.9-2.8-16.3,6.1-19.8,8c-0.1,1.9-1,2-1,2
				c-0.2,0.9,2.1,2.9,1,5c-0.3,0-0.7,0-1,0c-2.8,1.9-3.5-2.4-7.9-1c0,0.3,0,0.7,0,1c-0.7,0-1.3,0-2,0c0,0.3,0,0.7,0,1
				c-0.7,0-1.3,0-2,0c0,0.3,0,0.7,0,1c-0.7,0-1.3,0-2,0l-2,2c-0.7,0-1.3,0-2,0c-1,1.3-2,2.7-3,4c-0.7,0-1.3,0-2,0c-0.7,1-1.3,2-2,3
				c-0.7,0-1.3,0-2,0c-1.3,2-2.6,4-4,6c2.7,2.2,1.9,3.6,6.9,4c0,0.3,0,0.7,0,1c-0.3,0-0.7,0-1,0c0,0.3,0,0.7,0,1
				c-1.3-0.5-1.6-1.8-2-2c-1,0.3-2,0.7-3,1c-0.9,3.4-3.4,5.1-5,8c-0.7,0-1.3,0-2,0c0,0.7,0,1.3,0,2c-2.3,0.6-3.7,1.4-5,3
				c-0.3,0-0.7,0-1,0c0,1.7,0,3.3,0,5c-1,0.3-2,0.7-3,1c0,0.7,0,1.3,0,2c-1.7,0.3-3.3,0.7-5,1c0,1.3,0,2.7,0,4c0.7,0,1.3,0,2,0
				c-1.3,4.8-5.3,5.6-8.9,8c-0.3,0.7-0.7,1.3-1,2c-1,0-2,0-3,0c0,0.3,0,0.7,0,1c-2,1.7-4,3.3-5.9,5c0,0.7,0,1.3,0,2
				c-0.3,0-0.7,0-1,0c-1.3,2.2,0.4,1.4-2,3c0,3.7,0,7.3,0,11c-0.3,0-0.7,0-1,0c0,0.3,0,0.7,0,1c0.3,0,0.7,0,1,0c0,0.7,0,1.3,0,2
				c4.2-0.8,5.8-0.8,9.9,0c0,2.7,0,5.3,0,8c-4.1,1.1-1.2,0.4-3,3c-0.7,0.3-1.3,0.7-2,1c0,1,0,2,0,3c-0.7,0.3-1.3,0.7-2,1
				c-0.9,2.2,0.8,3.9,1,5c-0.3,0-0.7,0-1,0c-1.4,3.7-3,4.6-3,10c-0.3,0-0.7,0-1,0c0,0.3,0,0.7,0,1c-2.6-0.3-5.3-0.7-7.9-1
				c0.3,1.3,0.7,2.7,1,4c2-0.6,0.9,0.1,2-1c0.3,0,0.7,0,1,0c0,1.7,0,3.3,0,5c-2,0.6-0.9-0.1-2,1c-0.3,0-0.7,0-1,0
				c0.7,1.3,1.3,2.7,2,4c-0.7,0.3-1.3,0.7-2,1c0,1,0,2,0,3c-0.3,0-0.7,0-1,0c-0.8,1.4-0.8,1.7-1,4c2-0.3,4-0.7,5.9-1c0-3,0-6,0-9
				c10.3,2.9-0.9,17.5,5.9,24c0.8,2.7,0.2,2.3,3,3c1,7,2,14,3,21c0.3,0,0.7,0,1,0c0,0.7,0,1.3,0,2c0.3,0,0.7,0,1,0c0,1.7,0,3.3,0,5
				c0.3,0,0.7,0,1,0c0,1,0,2,0,3c0.3,0,0.7,0,1,0c0,1.3,0,2.7,0,4c0.3,0,0.7,0,1,0c0,1.7,0,3.3,0,5c0.7,0.3,1.3,0.7,2,1
				c0,1.7,0,3.3,0,5c0.3,0,0.7,0,1,0c0,0.7,0,1.3,0,2c0.3,0,0.7,0,1,0c0.3,2,0.7,4,1,6c0.3,0,0.7,0,1,0c0.3,1.3,0.7,2.7,1,4
				c0.3,0,0.7,0,1,0c0,1,0,2,0,3c0.7,0.3,1.3,0.7,2,1c0.3,1.7,0.7,3.3,1,5c0.7,0.3,1.3,0.7,2,1c0,1,0,2,0,3c0.3,0,0.7,0,1,0
				c0.3,1,0.7,2,1,3c0.7,0.3,1.3,0.7,2,1c0.3,1.3,0.7,2.7,1,4c1,0.7,2,1.3,3,2c2.1,3,1.6,4.9,5,7c0,0.7,0,1.3,0,2c0.7,0,1.3,0,2,0
				c0.6,2.2,0.8,2.5,2,4c0.3,0,0.7,0,1,0c0,0.7,0,1.3,0,2c0.3,0,0.7,0,1,0c0.7,1,1.3,2,2,3c0.7,0.3,1.3,0.7,2,1c0.9,1.5-0.4,3.1,1,4
				c0.7,0,1.3,0,2,0c0.3,2,0.7,4,1,6c2,0.7,4,1.3,5.9,2c-0.9,1-1.7,1.4-3,2c0.5,1,1.8,1.7,2,2c0,1,0,2,0,3c0.3,0,0.7,0,1,0
				c1.7,2,3.3,4,5,6c4.4-0.7,2.2,0.5,2-4c0.3,0,0.7,0,1,0c0.3,1,0.7,2,1,3c3.4,0.9,6.5,4.7,8.9,7c0.3,0.7,0.7,1.3,1,2
				c0.7,0,1.3,0,2,0c0.3,0.7,0.7,1.3,1,2c1.7,1,3.3,2,5,3c-0.9,1-1.7,1.4-3,2c1.4,2.6,3.7,5.2,6.9,6c0-1,0-2,0-3c-0.3,0-0.7,0-1,0
				c0-0.7,0-1.3,0-2c2.6,2,5.3,4,7.9,6c0.7,1,1.3,2,2,3c1.3,0.3,2.6,0.7,4,1c0.3,0.7,0.7,1.3,1,2c0.7,0,1.3,0,2,0c1,1.3,2,2.7,3,4
				c0.7,0,1.3,0,2,0c0,0.3,0,0.7,0,1c0.7,0,1.3,0,2,0c0.3,0.7,0.7,1.3,1,2c1.3,0.3,2.6,0.7,4,1c0.3,0.7,0.7,1.3,1,2c0.7,0,1.3,0,2,0
				c0,0.3,0,0.7,0,1c0.7,0,1.3,0,2,0c0,0.3,0,0.7,0,1c1,0.3,2,0.7,3,1c0,0.3,0,0.7,0,1c-2.3,0-4.6,0-6.9,0c-0.8,1.1,0.1,0.2-1,1
				c0.8,1.4,1.8,3,3,4c0.7,0.7,0,1.4,2,1c0-0.3,0-0.7,0-1c1.3,0.5-0.1,0.1,1,1c2.7,0.8,2.3,0.2,3,3c3.2,0.9,4.7,3.1,6.9,5
				c0,0.3,0,0.7,0,1c1,0.3,2,0.7,3,1c0.7,1,1.3,2,2,3c0.7,0,1.3,0,2,0c0.3,0.7,0.7,1.3,1,2c0.3,0,0.7,0,1,0c0.9,1.5-0.4,3.1,1,4
				c1.7,0.3,3.3,0.7,5,1c1.4,0.1-0.4-1.3,1-1c0.3,0.7,0.7,1.3,1,2c0.7,0,1.3,0,2,0c0,0.3,0,0.7,0,1c2,1.1,2.4,0.2,4,2
				c0.3,0,0.7,0,1,0c0,1.3,0,2.7,0,4c0.5,1,1.3-0.2,2,3c0.7,0,1.3,0,2,0c0-1,0-2,0-3c1,0,2,0,3,0c0,0.3,0,0.7,0,1c1.3,0,2.6,0,4,0
				c0,0.3,0,0.7,0,1c-0.3,0-0.7,0-1,0c0,1,0,2,0,3c0.3,0,0.7,0,1,0c0,0.3,0,0.7,0,1c1,0,2,0,3,0c0-0.7,0-1.3,0-2c1,0,2,0,3,0
				c0.3,0.7,0.7,1.3,1,2c1,0.3,2,0.7,3,1c0,0.7,0,1.3,0,2c0.7,0.3,1.3,0.7,2,1c0,0.3,0,0.7,0,1c2.3,0.3,4.6,0.7,6.9,1
				c0,0.3,0,0.7,0,1c1,0,2,0,3,0c0,0.3,0,0.7,0,1c2.3,0,4.6,0,6.9,0c0,0.3,0,0.7,0,1c0.7,0,1.3,0,2,0c0,0.3,0,0.7,0,1
				c2.3,0.3,4.6,0.7,6.9,1c0.3,0.7,0.7,1.3,1,2c0.7,0,1.3,0,2,0c0,0.3,0,0.7,0,1c3.8,2,6.8,1.8,10.9,1c0.7-2.8,1.8-2.9,3-5
				c-1.5-0.6-1.6-0.8-4-1c0.6,2-0.1,0.9,1,2c0,0.3,0,0.7,0,1c-2.8-0.3-3.6-0.4-5-2c-0.3,0-0.7,0-1,0c0.3-0.7,0.7-1.3,1-2
				c-2.9-1.3-5.9-2.7-9.9-3c0,0.7,0,1.3,0,2c-1.3,0-2.6,0-4,0c0-0.3,0-0.7,0-1c-0.7,0-1.3,0-2,0c0.9-1.8,1.4-1.6,2-4
				c-1.5-0.6-3.4-0.4-5-1c0-0.3,0-0.7,0-1c-0.7,0-1.3,0-2,0c0-0.3,0-0.7,0-1c-1.7,0-3.3,0-5,0c0-0.3,0-0.7,0-1c-0.7,0-1.3,0-2,0
				c0-0.3,0-0.7,0-1c-1,0-2,0-3,0c0-0.3,0-0.7,0-1c-1,0-2,0-3,0c0-0.3,0-0.7,0-1c-1-0.7-2-1.3-3-2c-0.3-1-0.7-2-1-3
				c-2.7-1.9-10.1-2.1-14.9-2c0-1,0-2,0-3c-0.7,0-1.3,0-2,0c0-0.3,0-0.7,0-1c1,0,2,0,3,0c0-1,0-2,0-3c-4-1.2-2-2-5-4
				c0-0.7,0-1.3,0-2c3,0.1,4.8,0,6.9,1c0,0.3,0,0.7,0,1c1,0,2,0,3,0c0,0.3,0,0.7,0,1c1.6,1.1,1.7,1.4,4,2c0,0.7,0,1.3,0,2
				c3.6,1,3.3,2,5,5c0.3,0,0.7,0,1,0c0.8,1.7-0.3,3,1,4c1.7,0.3,3.3,0.7,5,1c0.3,0.7,0.7,1.3,1,2c1.3,0.3,2.6,0.7,4,1
				c0.3,0.7,0.7,1.3,1,2c2.3,0,4.6,0,6.9,0c0-0.3,0-0.7,0-1c1,0.3,2,0.7,3,1c0.3,1,0.7,2,1,3c2,0.7,4,1.3,5.9,2c0-0.3,0-0.7,0-1
				c4-0.3,7.9-0.7,11.9-1c0,0.3,0,0.7,0,1c1,0,2,0,3,0c0,0.3,0,0.7,0,1c1,0,2,0,3,0c0,0.3,0,0.7,0,1c1.3,0,2.6,0,4,0
				c0,0.3,0,0.7,0,1c0.7,0,1.3,0,2,0c0,0.3,0,0.7,0,1c1.3,0,2.6,0,4,0c0,0.3,0,0.7,0,1c1,0,2,0,3,0c0,0.3,0,0.7,0,1c1,0,2,0,3,0
				c0,0.3,0,0.7,0,1c2.3,0.3,4.6,0.7,6.9,1c0,0.3,0,0.7,0,1c3,0.3,5.9,0.7,8.9,1c0,0.3,0,0.7,0,1c4.3,0.7,8.6,1.3,12.9,2
				c-0.8,1.3-0.7,1.2-2,2c0.6,2-0.1,0.9,1,2c2.1,1.6,9.3-2,13.9,0c0.3,0.7,0.7,1.3,1,2c0.7,0,1.3,0,2,0c0,0.3,0,0.7,0,1
				c6.3,0,12.6,0,18.8,0c0,0.3,0,0.7,0,1c1,0,2,0,3,0c0,0.3,0,0.7,0,1c1.3,0,2.6,0,4,0c0,0.3,0,0.7,0,1c3,0,5.9,0,8.9,0
				c0.7,1.3,1.3,2.7,2,4c5.3,0,10.6,0,15.9,0c0-0.3,0-0.7,0-1c1.3,0,2.6,0,4,0c0-0.3,0-0.7,0-1c1.3,0,2.6,0,4,0c0-0.3,0-0.7,0-1
				c0.3,0,0.7,0,1,0c-0.3-0.7-0.7-1.3-1-2c1.1,0.8,0.1-0.1,1,1c0.3,0,0.7,0,1,0c-0.3,1-0.7,2-1,3c0.3,0,0.7,0,1,0
				c3.1,3.2,6.2,0.6,10.9,2c5.3,1.6,11.7,2.2,18.8,2c0,1,0,2,0,3c1,0,2,0,3,0c-0.6-2,0.1-0.9-1-2c0-0.3,0-0.7,0-1c1,0,2,0,3,0
				c0.3,1,0.7,2,1,3c2.6,0.2,3.4,0.1,5,1c0,0.3,0,0.7,0,1c2.3,0,4.6,0,6.9,0c0-0.3,0-0.7,0-1c1.7,0.3,3.3,0.7,5,1
				c-1.1,3.9-0.7,1.7,1,5c1.7,0,3.3,0,5,0c0,0.3,0,0.7,0,1c10.6,0,21.2,0,31.7,0c0,0.3,0,0.7,0,1c-1,0-2,0-3,0c0,0.3,0,0.7,0,1
				c-0.3,0-0.7,0-1,0c4,5.7,12.8,0.5,15.9,3c3.4-0.4,3.2,0,4-3c2.8-0.3,3.6-0.4,5-2c2,0,4,0,5.9,0c-0.9,1.8-1.4,1.6-2,4
				c2,0,4,0,5.9,0c0.8-0.3,0.4-2.1,2-2c0,0,1.8,3.2,5,2c0-0.3,0-0.7,0-1c1.2-0.7,3.5-1.6,5.9-1c0,0.3,0,0.7,0,1
				c5.9,0.3,11.9,0.7,17.8,1c0-0.3,0-0.7,0-1c1.7,0,3.3,0,5,0c0-0.3,0-0.7,0-1c2.3,0,4.6,0,6.9,0c0-0.3,0-0.7,0-1c1,0,2,0,3,0
				c0-0.3,0-0.7,0-1c2.3,0,4.6,0,6.9,0c0-0.3,0-0.7,0-1c4.6,0.3,9.3,0.7,13.9,1c9.3-0.3,18.5-0.7,27.8-1c0,0.7,0,1.3,0,2
				c-1.3-0.3-2.6-0.7-4-1c0,0.3,0,0.7,0,1c-0.3,0-0.7,0-1,0c0,1.3,0,2.7,0,4c1.7-0.3,3.3-0.7,5-1c0-0.7,0-1.3,0-2
				c8.4-0.2,12.1-2.1,22.8-2c0-0.7,0-1.3,0-2c-2-0.6-0.9,0.1-2-1c-0.3,0-0.7,0-1,0c0-0.3,0-0.7,0-1c6.3-0.7,12.6-1.3,18.8-2
				c0-0.3,0-0.7,0-1c3.6-0.3,7.3-0.7,10.9-1c0-0.3,0-0.7,0-1c2,0,4,0,5.9,0c0-0.3,0-0.7,0-1c1.7,0,3.3,0,5,0c0-0.3,0-0.7,0-1
				c2,0,4,0,5.9,0c0-0.3,0-0.7,0-1c1,0,2,0,3,0c0-0.3,0-0.7,0-1c3-0.6,6.8,3.5,11.9,2c0-0.3,0-0.7,0-1c8.6-1.3,17.2-2.7,25.8-4
				c-2.1,2-17.4,4.7-21.8,5c-0.3,1.7-0.7,3.3-1,5c5.3-0.3,10.6-0.7,15.9-1c0-0.3,0-0.7,0-1c3.3-0.3,6.6-0.7,9.9-1c0.3-1,0.7-2,1-3
				c0.7-0.3,1.3-0.7,2-1c0.7-1,1.3-2,2-3c0.7,0,1.3,0,2,0c0.3-0.7,0.7-1.3,1-2c1,0,2,0,3,0c0-0.3,0-0.7,0-1c2.3,0,4.6,0,6.9,0
				c0-0.3,0-0.7,0-1c3.3-0.3,6.6-0.7,9.9-1c0-0.3,0-0.7,0-1c1.3,0,2.6,0,4,0c0-0.3,0-0.7,0-1c1.3,0,2.6,0,4,0c0-0.3,0-0.7,0-1
				c3.6-0.3,7.3-0.7,10.9-1c0-0.3,0-0.7,0-1c2.3,0,4.6,0,6.9,0c0-0.3,0-0.7,0-1c3.3-0.3,6.6-0.7,9.9-1c0-0.3,0-0.7,0-1
				c2.3,0,4.6,0,6.9,0c0-0.3,0-0.7,0-1c1.3,0,2.6,0,4,0c0-0.3,0-0.7,0-1c2.3,0,4.6,0,6.9,0c0-0.3,0-0.7,0-1c2.3,0,4.6,0,6.9,0
				c0-0.3,0-0.7,0-1c1,0,2,0,3,0c0-0.3,0-0.7,0-1c2.3,0,4.6,0,6.9,0c0-0.3,0-0.7,0-1c1.3,0,2.6,0,4,0c0-0.3,0-0.7,0-1
				c1.3,0,2.6,0,4,0c0-0.3,0-0.7,0-1c2,0,4,0,5.9,0c0.3-0.7,0.7-1.3,1-2c3.3-0.3,6.6-0.7,9.9-1c0-0.3,0-0.7,0-1c0.7,0,1.3,0,2,0
				c0-0.3,0-0.7,0-1c1.7,0,3.3,0,5,0c0-0.3,0-0.7,0-1c0.7,0,1.3,0,2,0c0-0.3,0-0.7,0-1c2.6-0.3,5.3-0.7,7.9-1c0-0.3,0-0.7,0-1
				c0.7,0,1.3,0,2,0c0-0.3,0-0.7,0-1c1.7,0,3.3,0,5,0c0-0.3,0-0.7,0-1c0.7,0,1.3,0,2,0c0-0.3,0-0.7,0-1c2.6-0.3,5.3-0.7,7.9-1
				c0-0.3,0-0.7,0-1c0.7,0,1.3,0,2,0c0-0.3,0-0.7,0-1c1.3,0,2.6,0,4,0c0-0.3,0-0.7,0-1c1,0,2,0,3,0c0-0.3,0-0.7,0-1c1,0,2,0,3,0
				c0-0.3,0-0.7,0-1c1.3,0,2.6,0,4,0c0.3-0.7,0.7-1.3,1-2c1.7,0,3.3,0,5,0c0-0.3,0-0.7,0-1c1,0,2,0,3,0c0-0.3,0-0.7,0-1
				c0.7,0,1.3,0,2,0c0-0.3,0-0.7,0-1c1.3,0,2.6,0,4,0c0-0.3,0-0.7,0-1c0.7,0,1.3,0,2,0c0-0.3,0-0.7,0-1c2.3-0.3,4.6-0.7,6.9-1
				c0-0.3,0-0.7,0-1c0.7,0,1.3,0,2,0c0-0.3,0-0.7,0-1c1.3,0,2.6,0,4,0c0-0.3,0-0.7,0-1c1,0,2,0,3,0c0-0.3,0-0.7,0-1c0.7,0,1.3,0,2,0
				c0-0.3,0-0.7,0-1c1.3,0,2.6,0,4,0c0.3-0.7,0.7-1.3,1-2c1.3,0,2.6,0,4,0c0-0.3,0-0.7,0-1c1,0,2,0,3,0c0-0.3,0-0.7,0-1
				c0.7,0,1.3,0,2,0c0-0.3,0-0.7,0-1c1.3,0,2.6,0,4,0c0-0.3,0-0.7,0-1c0.7,0,1.3,0,2,0c0-0.3,0-0.7,0-1c2-0.3,4-0.7,5.9-1
				c0-0.3,0-0.7,0-1c0.7,0,1.3,0,2,0c0-0.3,0-0.7,0-1c1.3,0,2.6,0,4,0c0-0.3,0-0.7,0-1c1.3-0.3,2.6-0.7,4-1c0-0.3,0-0.7,0-1
				c1.3,0,2.6,0,4,0c0-0.3,0-0.7,0-1c0.7,0,1.3,0,2,0c0-0.3,0-0.7,0-1c2-0.3,4-0.7,5.9-1c0-0.3,0-0.7,0-1c0.7,0,1.3,0,2,0
				c0-0.3,0-0.7,0-1c1.3,0,2.6,0,4,0c0.3-0.7,0.7-1.3,1-2c2.3-0.3,4.6-0.7,6.9-1c0.3-0.7,0.7-1.3,1-2c1,0,2,0,3,0c0-0.3,0-0.7,0-1
				c0.7,0,1.3,0,2,0c0-0.3,0-0.7,0-1c2-0.3,4-0.7,5.9-1c0-0.3,0-0.7,0-1c0.7,0,1.3,0,2,0c0-0.3,0-0.7,0-1c1,0,2,0,3,0
				c0-0.3,0-0.7,0-1c1.3-0.3,2.6-0.7,4-1c0-0.3,0-0.7,0-1c1.3,0,2.6,0,4,0c0.3-0.7,0.7-1.3,1-2c2-0.3,4-0.7,5.9-1
				c0.3-0.7,0.7-1.3,1-2c1.3,0,2.6,0,4,0c0.3-0.7,0.7-1.3,1-2c2-0.3,4-0.7,5.9-1c0.3-0.7,0.7-1.3,1-2c1,0,2,0,3,0c0-0.3,0-0.7,0-1
				c1.3-0.3,2.6-0.7,4-1c0-0.3,0-0.7,0-1c1,0,2,0,3,0c0-0.3,0-0.7,0-1c1.3-0.3,2.6-0.7,4-1c0-0.3,0-0.7,0-1c1,0,2,0,3,0
				c0-0.3,0-0.7,0-1c2-0.7,4-1.3,5.9-2c0-0.3,0-0.7,0-1c0.7,0,1.3,0,2,0c0-0.3,0-0.7,0-1c1,0,2,0,3,0c0.3-0.7,0.7-1.3,1-2
				c1,0,2,0,3,0c0.3-0.7,0.7-1.3,1-2c1,0,2,0,3,0c0-0.3,0-0.7,0-1c0.7,0,1.3,0,2,0c0.3-0.7,0.7-1.3,1-2c1.7-0.3,3.3-0.7,5-1
				c0.3-0.7,0.7-1.3,1-2c1,0,2,0,3,0c0.3-0.7,0.7-1.3,1-2c0.7,0,1.3,0,2,0c0-0.3,0-0.7,0-1c0.7,0,1.3,0,2,0l2-2c0.7,0,1.3,0,2,0
				c0.3-0.7,0.7-1.3,1-2c1.3-0.3,2.6-0.7,4-1c0.3-0.7,0.7-1.3,1-2c1.3-0.3,2.6-0.7,4-1c0.3-0.7,0.7-1.3,1-2c1,0,2,0,3,0
				c0.3-0.7,0.7-1.3,1-2c1.3-0.3,2.6-0.7,4-1c0.3-0.7,0.7-1.3,1-2c1-0.3,2-0.7,3-1c0-0.3,0-0.7,0-1c0.7,0,1.3,0,2,0c0-0.3,0-0.7,0-1
				c0.7,0,1.3,0,2,0c0.3-0.7,0.7-1.3,1-2c0.7,0,1.3,0,2,0c0.3-0.7,0.7-1.3,1-2c1.3-0.3,2.6-0.7,4-1c0.3-0.7,0.7-1.3,1-2
				c1.3-0.3,2.6-0.7,4-1c0.3-0.7,0.7-1.3,1-2c1-0.3,2-0.7,3-1c0-0.3,0-0.7,0-1c1.3-0.3,2.6-0.7,4-1c0.3-0.7,0.7-1.3,1-2
				c0.7,0,1.3,0,2,0c0-0.3,0-0.7,0-1c0.7,0,1.3,0,2,0c0.3-0.7,0.7-1.3,1-2c0.7,0,1.3,0,2,0c0.3-0.7,0.7-1.3,1-2c0.7,0,1.3,0,2,0
				c0-0.3,0-0.7,0-1c0.7,0,1.3,0,2,0c0-0.3,0-0.7,0-1c1-0.3,2-0.7,3-1c0.7-2.7,1.3-2.3,2-5c4.2-0.5,4.3-1.8,6.9-3c1,0,2,0,3,0
				c0.3-0.7,0.7-1.3,1-2c0.7,0,1.3,0,2,0c0.3-0.7,0.7-1.3,1-2c1.3-0.3,2.6-0.7,4-1c0.3-0.7,0.7-1.3,1-2c1.3-0.3,2.6-0.7,4-1
				c0-0.3,0-0.7,0-1c1-0.3,2-0.7,3-1c0.3-0.7,0.7-1.3,1-2c0.7,0,1.3,0,2,0c0.7-1,1.3-2,2-3c0.7,0,1.3,0,2,0c6-4.1,12.3-8.4,15.9-15
				c1.7,0,3.3,0,5,0c0-0.7,0-1.3,0-2c-1,0-2,0-3,0c0-0.3,0-0.7,0-1c1.3,0,2.6,0,4,0c1.7-2,3.3-4,5-6c0.7,0,1.3,0,2,0
				c0.3-0.7,0.7-1.3,1-2c1,0,2,0,3,0c0-0.3,0-0.7,0-1c0.7,0,1.3,0,2,0c0-0.3,0-0.7,0-1c1.3,0,2.6,0,4,0c0-0.3,0-0.7,0-1c1,0,2,0,3,0
				c1-0.5-0.1-1.3,3-2c0.3-2.3,0.7-4.7,1-7c0.3,0,0.7,0,1,0c0-0.3,0-0.7,0-1c1.3,0,2.6,0,4,0c0.3-0.7,0.7-1.3,1-2c2-0.3,4-0.7,5.9-1
				c0-0.3,0-0.7,0-1c0.7,0,1.3,0,2,0c3.2-1.7,3.3-3,8.9-3c-0.3-1-0.7-2-1-3c0.3,0,0.7,0,1,0c0-0.3,0-0.7,0-1c1,0,2,0,3,0
				c0-0.3,0-0.7,0-1c0.3,0,0.7,0,1,0c-0.3-1.3-0.7-2.7-1-4c1.7,0,3.3,0,5,0c0-0.7,0-1.3,0-2c1,0,2,0,3,0c0-0.3,0-0.7,0-1
				c0.3,0,0.7,0,1,0C1247.2,240.8,1245.7,239.3,1246.6,237.6z M1252.5,228.6c-2-0.6-0.9,0.1-2-1
				C1252.5,228.2,1251.4,227.4,1252.5,228.6z M975.9,315.5c2,0.6,0.9-0.1,2,1C975.9,315.9,977,316.7,975.9,315.5z M700.3,66.7
				c0,0.3,0,0.7,0,1c-2.3-0.6-1.9-0.3-3-2C698.3,66,699.3,66.4,700.3,66.7z M688.4,65.7c-2-0.6-0.9,0.1-2-1
				C688.4,65.3,687.2,64.6,688.4,65.7z M666.6,54.7c1,0.3,2,0.7,3,1c0,0.3,0,0.7,0,1c1.3,0,2.6,0,4,0c0.3,0.7,0.7,1.3,1,2
				c1,0,2,0,3,0c0,0.3,0,0.7,0,1c0.7,0,1.3,0,2,0c0.3,0.7,0.7,1.3,1,2c1,0,2,0,3,0c1.3,0.6-0.3,0.5,1,1c0,0.3,0,0.7,0,1
				c-6-0.7-9.7-3.8-14.9-5c0-0.7,0-1.3,0-2c-2-0.6-0.9,0.1-2-1c-0.3,0-0.7,0-1,0C666.6,55.4,666.6,55.1,666.6,54.7z M651.7,48.7
				c0.3,0.7,0.7,1.3,1,2c3.6,1,7.3,2,10.9,3c0,0.3,0,0.7,0,1c-2.6,0-5.3,0-7.9,0c-0.7-1-1.3-2-2-3c-0.7,0-1.3,0-2,0c0-0.3,0-0.7,0-1
				c-4.6-1.7-7.1,2.2-9.9-2C645.1,48.7,648.4,48.7,651.7,48.7z M591.2,30.7c0,0.3,0,0.7,0,1c-2.3-0.6-1.9-0.3-3-2
				C589.2,30.1,590.2,30.4,591.2,30.7z M565.4,23.7c2-0.6,0.9,0.1,2-1c1,0.3,2,0.7,3,1c0,0.3,0,0.7,0,1c0.7,0,1.3,0,2,0
				c0,0.3,0,0.7,0,1c1-0.3,2-0.7,3-1c0,0.3,0,0.7,0,1c0.7,0,1.3,0,2,0c0.4,0.2,0.8,1.4,2,2c0,0.3,0,0.7,0,1c-4.6-1.3-9.3-2.7-13.9-4
				C565.4,24.4,565.4,24.1,565.4,23.7z M550.6,24.7c0.8-1.1-0.1-0.2,1-1c0.6,1.5,0.8,1.6,1,4c-1.3,0-2.6,0-4,0
				C549.2,26.5,549.5,25.6,550.6,24.7z M544.6,26.7c-2-0.6-0.9,0.1-2-1C544.6,26.3,543.5,25.6,544.6,26.7z M532.7,17.8
				c0,0.3,0,0.7,0,1c3.1,0,5.1,0.3,6.9,1c0,0.3,0,0.7,0,1c-3.5-0.1-11.1-1.3-12.9-3C528.7,17.8,530.7,17.8,532.7,17.8z M409.8,2.8
				c0.3,0,0.7,0,1,0c0-0.3,0-0.7,0-1c0.7,0.3,1.3,0.7,2,1c0,0.3,0,0.7,0,1C412.2,3.7,408.6,4.3,409.8,2.8z M312.6,11.8
				c-2-0.6-0.9,0.1-2-1C312.6,11.4,311.5,10.6,312.6,11.8z M165.9,104.7c0-0.3,0-0.7,0-1c0.3,0,0.7,0,1,0c0,0.7,0,1.3,0,2
				c-2-0.6-0.9,0.1-2-1C165.2,104.7,165.5,104.7,165.9,104.7z M155,114.7c-2-0.6-0.9,0.1-2-1C155,114.3,153.8,113.5,155,114.7z
				 M126.2,78.7c2.7-1.1,6.1-1.9,7.9-4c0.3,0,0.7,0,1,0c-1.5,2.6-4.1,2.9-5.9,5c-1,0-2,0-3,0C126.2,79.4,126.2,79,126.2,78.7z
				 M87.6,171.6c0.3,0,0.7,0,1,0c0,1.7,0,3.3,0,5c-0.3,0-0.7,0-1,0c0,0.3,0,0.7,0,1c-0.3,0-0.7,0-1,0
				C86.9,175.6,87.2,173.6,87.6,171.6z M31,237.6c0-0.7,0-1.3,0-2c2,0.6,0.9-0.1,2,1c-0.3,0-0.7,0-1,0
				C31.2,237.7,32.2,236.7,31,237.6z M33,243.6c-0.8,1.1,0.1,0.2-1,1c0-0.7,0-1.3,0-2c2,0.6,0.9-0.1,2,1
				C33.7,243.6,33.4,243.6,33,243.6z M34,226.6c-1,0-2,0-3,0c0-0.7,0-1.3,0-2c2-0.6,0.9,0.1,2-1c0.3,0,0.7,0,1,0
				C33.3,226.5,33.5,223.8,34,226.6z M34,198.6c-0.3,0-0.7,0-1,0c0-1,0-2,0-3c0.3,0,0.7,0,1,0C34,196.6,34,197.6,34,198.6z
				 M43.9,178.6c0-0.3,0-0.7,0-1c-1.7,0-3.3,0-5,0c0.6-1.3,1-2.1,2-3c0-0.3,0-0.7,0-1c0.3,0,0.7,0,1,0c0,0.3,0,0.7,0,1
				c2.1-0.3,0.9-0.1,2-1c1.1-1.1,0.4,0,1-2c-1-0.3-2-0.7-3-1c0-1,0-2,0-3c0.3,0,0.7,0,1,0c0-0.3,0-0.7,0-1c0.3,0,0.7,0,1,0
				c1.7,3.7,3.1,6.2,3,12C45.9,178.6,44.9,178.6,43.9,178.6z M57.8,137.7c-0.3,0-0.7,0-1,0c0,0.7,0,1.3,0,2c-0.3,0-0.7,0-1,0
				c0-1,0-2,0-3C55.8,136.7,59.6,136.7,57.8,137.7z M80.6,108.7c-0.3,0-0.7,0-1,0c-0.7,2.8-1.8,3.8-4,5c0,0.7,0,1.3,0,2
				c-0.3,0-0.7,0-1,0c0.9-3.7,3.3-5.1,5-8c0.3,0,0.7,0,1,0C80.6,108,80.6,108.3,80.6,108.7z M84.6,303.5c0.3,0,0.7,0,1,0
				c0,2,0,4,0,6c-0.3,0-0.7,0-1,0C84.6,307.5,84.6,305.5,84.6,303.5z M88.5,364.5c-0.3,0-0.7,0-1,0c0-0.3,0-0.7,0-1
				c-0.3,0-0.7,0-1,0c0-0.3,0-0.7,0-1c0.7,0,1.3,0,2,0C88.5,363.1,88.5,363.8,88.5,364.5z M89.5,326.5c-1.2-2.8-1.7-5.1-5-6
				c0-1.3,0-2.7,0-4c1.3-0.8,1.2-0.7,2-2c0.7,0,1.3,0,2,0c0,0.3,0,0.7,0,1c-1,0.3-2,0.7-3,1c0.2,2-0.1,3,1,4c0.7,0,1.3,0,2,0
				c1,0.8,0.7,2,2,3c0,1,0,2,0,3C90.2,326.5,89.9,326.5,89.5,326.5z M92.5,342.5c-0.7,0-1.3,0-2,0c0-0.7,0-1.3,0-2c0.3,0,0.7,0,1,0
				c0.8,1.1-0.1,0.2,1,1C92.5,341.8,92.5,342.2,92.5,342.5z M92.5,334.5c-0.1-2.6-0.4-3.4-1-5c1-0.3,2-0.7,3-1c0.7,2,1.3,4,2,6
				C95.2,334.5,93.8,334.5,92.5,334.5z M114.3,380.5c2,0.6,0.9-0.1,2,1C114.3,380.9,115.5,381.6,114.3,380.5z M155,416.4
				c-0.7,0-1.3,0-2,0c0-0.7,0-1.3,0-2c0.3,0,0.7,0,1,0c0.8,1.1-0.1,0.2,1,1C155,415.8,155,416.1,155,416.4z M185.7,427.4
				c-1,0-2,0-3,0c0,0.7,0,1.3,0,2c-2.1,0-6.6,1.1-6.9,1c0-0.3,0-0.7,0-1c-0.7,0-1.3,0-2,0c-0.3-0.7-0.7-1.3-1-2c-0.7,0-1.3,0-2,0
				c-0.3-0.7-0.7-1.3-1-2c-1,0-2,0-3,0c0-0.3,0-0.7,0-1c-2.6-1.4-4.7-2.4-7.9-3c0-0.7,0-1.3,0-2c2,0.3,4,0.7,5.9,1c0.7,1,1.3,2,2,3
				c2,0.3,4,0.7,5.9,1c0,0.3,0,0.7,0,1c0.7,0,1.3,0,2,0c0,0.3,0,0.7,0,1c3.4,1,2.9-1.4,4-2c1.4,0.1-0.4,0.7,1,1c2,0.3,4,0.7,5.9,1
				C185.7,426.8,185.7,427.1,185.7,427.4z M264,439.4c1,0,2,0,3,0c0,0.3,0,0.7,0,1C265.3,441.3,264.5,439.8,264,439.4z M267,449.4
				c2,0.6,0.9-0.1,2,1C267,449.8,268.1,450.5,267,449.4z M294.8,423.4c2,0.6,0.9-0.1,2,1C294.8,423.8,295.9,424.6,294.8,423.4z
				 M346.3,437.4c-2-0.6-0.9,0.1-2-1C346.3,437,345.2,436.3,346.3,437.4z M339.4,458.4c-1.7,0-3.3,0-5,0c0-0.3,0-0.7,0-1
				c1.7,0,3.3,0,5,0C339.4,457.7,339.4,458.1,339.4,458.4z M350.3,460.4c-2,0-4,0-5.9,0c0-0.3,0-0.7,0-1c2,0,4,0,5.9,0
				C350.3,459.7,350.3,460.1,350.3,460.4z M359.2,476.4c-1.7,0.3-3.3,0.7-5,1c0-0.7,0-1.3,0-2c1.7,0,3.3,0,5,0
				C359.2,475.7,359.2,476.1,359.2,476.4z M428.6,488.4c2,0.6,0.9-0.1,2,1C428.6,488.8,429.7,489.5,428.6,488.4z M438.5,492.4
				c-1.7,0.9-2.5-0.6-3-1c1,0,2,0,3,0C438.5,491.7,438.5,492,438.5,492.4z M443.5,486.4c-1.7,0.9-2.5-0.6-3-1c1,0,2,0,3,0
				C443.5,485.7,443.5,486,443.5,486.4z M634.8,417.4c1,0,2,0,3,0c0,0.3,0,0.7,0,1c-1,0.3-2,0.7-3,1
				C634.8,418.8,634.8,418.1,634.8,417.4z M622.9,429.4c3,0,5.9,0,8.9,0c-2.2,2.1-20,4.9-24.8,5
				C610.8,430.6,619.6,432.9,622.9,429.4z M600.1,426.4c1.3,0,2.6,0,4,0c0,0.3,0,0.7,0,1c-1.3,0-2.6,0-4,0
				C600.1,427.1,600.1,426.8,600.1,426.4z M565.4,433.4c1-0.3,2-0.7,3-1c0-0.3,0-0.7,0-1c1,0,2,0,3,0c0-0.3,0-0.7,0-1
				c0.3,0,0.7,0,1,0c0,1,0,2,0,3c-1.7,0-3.3,0-5,0c0,0.3,0,0.7,0,1c-0.7,0-1.3,0-2,0C565.4,434.1,565.4,433.8,565.4,433.4z
				 M531.7,437.4c-2-0.6-0.9,0.1-2-1C531.7,437,530.6,436.3,531.7,437.4z M505.9,470.4c0,0.3,0,0.7,0,1c-6.6,0.1-27.4,1.4-29.7-2
				C486.1,469.7,496,470.1,505.9,470.4z M505.9,492.4c-2,0-4,0-5.9,0c0-0.3,0-0.7,0-1c2,0,4,0,5.9,0
				C505.9,491.7,505.9,492,505.9,492.4z M542.6,481.4c-5.3,0.3-10.6,0.7-15.9,1c0,0.3,0,0.7,0,1c-1.7,0.3-3.3,0.7-5,1
				c0,1.3,0,2.7,0,4c-1.2-0.4-1.9-1.7-4-1c-0.7,0.2-0.6,3-4,2c-0.3-0.7-0.7-1.3-1-2c-3-0.7-2.2,2.8-5.9,2c0-0.3,0-0.7,0-1
				c-1.7,0-3.3,0-5,0c0-0.3,0-0.7,0-1c-1.7-0.3-1.7,0.9-2,1c-1.7,0-3.3,0-5,0c0,0.3,0,0.7,0,1c-2.3,0-4.6,0-6.9,0c0,0.3,0,0.7,0,1
				c-1,0-2,0-3,0c0,0.3,0,0.7,0,1c-3.8,1.2-9.1,0-11.9,1c-0.6-1.5-0.8-1.6-1-4c-1.5,0.6-1.6,0.8-4,1c0.6,2-0.1,0.9,1,2
				c0,0.3,0,0.7,0,1c-1.4-0.2-4-0.1-2-1c-0.3-0.7-0.7-1.3-1-2c-1,0-2,0-3,0c-0.3,0.7-0.7,1.3-1,2c-1.9,0.5-3.7-1.4-5-2
				c-0.3,0.7-0.7,1.3-1,2c0.3,0,0.7,0,1,0c0,0.3,0,0.7,0,1c-3.2-1.9-4-3.1-9.9-3c0-0.3,0-0.7,0-1c1.6-0.6,2.3-0.9,5-1
				c0.3-1,0.7-2,1-3c-0.7,0-1.3,0-2,0c1.7-2,3.3-4,5-6c4.3,0,8.6,0,12.9,0c1.4,0.8,0.1,2.4,1,4c0.7,0.3,1.3,0.7,2,1
				c-0.3,1-0.7,2-1,3c0.3,0,0.7,0,1,0c1.1,1.1,0,0.4,2,1c0-0.3,0-0.7,0-1c0.3,0,0.7,0,1,0c-0.3-1.7-0.7-3.3-1-5
				c4-0.3,7.9-0.7,11.9-1c0.3,0.7,0.7,1.3,1,2c10.2,0,20.5,0,30.7,0c9.7-2.7,23.5-2,35.7-2C551.6,482.1,546.1,481.4,542.6,481.4z
				 M556.5,485.4c-1.3,0-2.6,0-4,0c0-0.3,0-0.7,0-1c2-0.6,0.9,0.1,2-1c0.7,0.3,1.3,0.7,2,1C556.5,484.7,556.5,485,556.5,485.4z
				 M569.4,480.4c2,0.6,0.9-0.1,2,1C569.4,480.8,570.5,481.5,569.4,480.4z M580.3,480.4c-1.7-0.3-3.3-0.7-5-1c0-0.3,0-0.7,0-1
				c1-0.3,2-0.7,3-1c1.1,1.1,0,0.4,2,1C580.3,479.1,580.3,479.7,580.3,480.4z M582.3,441.4c-13.5,1.3-27.1,2.7-40.6,4
				c0-0.7,0-1.3,0-2c2-0.3,4-0.7,5.9-1c0-0.3,0-0.7,0-1c4,0,7.9,0,11.9,0c0,0.3,0,0.7,0,1c0.3,0,0.7,0,1,0c0-0.3,0-0.7,0-1
				c3,0,5.9,0,8.9,0c0-0.3,0-0.7,0-1c0.7,0,1.3,0,2,0c0-0.3,0-0.7,0-1c4.6,0.3,9.3,0.7,13.9,1c0,1,0,2,0,3c-0.7,0-1.3,0-2,0
				C582.9,442.7,582.6,442.1,582.3,441.4z M603.1,494.4c-2,0-4,0-5.9,0c0-0.3,0-0.7,0-1c2,0,4,0,5.9,0
				C603.1,493.7,603.1,494,603.1,494.4z M600.1,479.4c-5.2,1.5-10.5,2.1-15.9,1c0-1,0-2,0-3c7.3-1,14.5-2,21.8-3c0.6,2-0.1,0.9,1,2
				c0,0.3,0,0.7,0,1c1.3-0.7,2.6-1.3,4-2c0.8,1.3,0.7,1.2,2,2C609.6,480.9,605.3,477.9,600.1,479.4z M617,481.4c-2-0.6-0.9,0.1-2-1
				c0.3,0,0.7,0,1,0c0.8-1.1-0.1-0.2,1-1C617,480,617,480.7,617,481.4z M654.7,468.4c-3,1-5.9,2-8.9,3c-0.3,0.7-0.7,1.3-1,2
				c-1,0-2,0-3,0c0,0.3,0,0.7,0,1c-4.6,0-9.3,0-13.9,0c0,0.3,0,0.7,0,1c-3.3,0.7-6.6,1.3-9.9,2c0-0.7,0-1.3,0-2c3.3-2,6.6-4,9.9-6
				c1.3,0.3,2.6,0.7,4,1c0,0.3,0,0.7,0,1c2.3-0.3,4.6-0.7,6.9-1c0-0.3,0-0.7,0-1c1.3,0,2.6,0,4,0c0.3-0.7,0.7-1.3,1-2
				c1.3,0,2.6,0,4,0c0-0.3,0-0.7,0-1c1.4-0.8,1.7-0.8,4-1c0,1,0,2,0,3c1-0.3,2-0.7,3-1C654.7,467.7,654.7,468.1,654.7,468.4z
				 M649.7,434.4c0-0.3,0-0.7,0-1c2-0.6,0.9,0.1,2-1c0.3,0,0.7,0,1,0c-0.3,0.7-0.7,1.3-1,2C651,434.4,650.4,434.4,649.7,434.4z
				 M666.6,425.4c-1.7,0-3.3,0-5,0c0,0.3,0,0.7,0,1c-1.3,0-2.6,0-4,0c0,0.3,0,0.7,0,1c-4.5,1.4-8.9-0.6-11.9,2c-1,0-2,0-3,0
				c0-0.3,0-0.7,0-1c1.7-0.3,3.3-0.7,5-1c0-0.3,0-0.7,0-1c4.7-1.5,6.8,1.5,9.9-2c3,0,5.9,0,8.9,0
				C666.6,424.8,666.6,425.1,666.6,425.4z M671.5,462.4c0,0.3,0,0.7,0,1c-1.3,0-2.6,0-4,0c0-0.3,0-0.7,0-1c1,0,2,0,3,0
				c0-0.3,0-0.7,0-1c2,0.6,0.9-0.1,2,1C672.2,462.4,671.8,462.4,671.5,462.4z M678.5,431.4c-2,0.6-0.9-0.1-2,1c-1.3,0-2.6,0-4,0
				c0-0.3,0-0.7,0-1c-0.3,0-0.7,0-1,0c0-0.3,0-0.7,0-1c2.2-0.5,2.8-0.6,4-2c1,0,2,0,3,0c0.8,1.1-0.1,0.2,1,1
				C679.1,430.1,678.8,430.8,678.5,431.4z M713.2,459.4c-0.3,0-0.7,0-1,0c0,0.3,0,0.7,0,1c-1.3,0-2.6,0-4,0c0-0.3,0-0.7,0-1
				c2-0.6,0.9,0.1,2-1c1,0,2,0,3,0C713.2,458.7,713.2,459.1,713.2,459.4z M730,451.4c-2,0.3-4,0.7-5.9,1c0,1.3,0,2.7,0,4
				c-1.7,0.3-3.3,0.7-5,1c0,0.3,0,0.7,0,1c-0.7,0-1.3,0-2,0c0-0.3,0-0.7,0-1c4-1.3,1.2-0.7,3-3c0.7-0.3,1.3-0.7,2-1c0-0.3,0-0.7,0-1
				c1.5-1,5.7-1.8,7.9-2C730,450.7,730,451.1,730,451.4z M736,450.4c-1.3,0-2.6,0-4,0c0-0.3,0-0.7,0-1c1.3,0,2.6,0,4,0
				C736,449.7,736,450.1,736,450.4z M754.8,451.4c2,0.6,0.9-0.1,2,1C754.8,451.8,755.9,452.5,754.8,451.4z M756.8,419.4
				c-1.7,0.9-2.5-0.6-3-1c1,0,2,0,3,0C756.8,418.8,756.8,419.1,756.8,419.4z M756.8,400.4c2,0.6,0.9-0.1,2,1
				C756.8,400.8,757.9,401.6,756.8,400.4z M765.7,410.4c1.7,0,3.3,0,5,0c0,0.3,0,0.7,0,1c-0.3,0-0.7,0-1,0c0,0.3,0,0.7,0,1
				c-0.8-0.4-3.3-0.6-4-1C765.7,411.1,765.7,410.8,765.7,410.4z M765.7,420.4c0-0.7,0-1.3,0-2c1.7-0.3,3.3-0.7,5-1c0,0.7,0,1.3,0,2
				C768.1,419.6,767.3,419.8,765.7,420.4z M770.7,439.4c0.3-0.7,0.7-1.3,1-2c0.3,0,0.7,0,1,0C773.5,437.8,770.7,439.4,770.7,439.4z
				 M779.6,414.4c-2.1,1.6-1.9-1-4,2c-1,0-2,0-3,0c0-0.3,0-0.7,0-1c2.2-0.5,2.8-0.6,4-2c1,0,2,0,3,0
				C779.6,413.8,779.6,414.1,779.6,414.4z M787.5,433.4c2,0.6,0.9-0.1,2,1C787.5,433.8,788.6,434.6,787.5,433.4z M790.5,410.4
				c2,0.6,0.9-0.1,2,1C790.5,410.8,791.6,411.6,790.5,410.4z M806.4,399.4c-1,0.3-2,0.7-3,1c0,0.3,0,0.7,0,1c-2,0.3-4,0.7-5.9,1
				c0,0.3,0,0.7,0,1c-1,0-2,0-3,0c0,0.3,0,0.7,0,1c-1,0-2,0-3,0c0,0.3,0,0.7,0,1c-1,0-2,0-3,0c0,0.3,0,0.7,0,1
				c-3.6,1.2-6.4-0.3-8.9,2c-1,0-2,0-3,0c0-0.3,0-0.7,0-1c2-0.3,4-0.7,5.9-1c0-0.3,0-0.7,0-1c1.3,0,2.6,0,4,0c0-0.3,0-0.7,0-1
				c1,0,2,0,3,0c0-0.3,0-0.7,0-1c1,0,2,0,3,0c0-0.3,0-0.7,0-1c1.3,0,2.6,0,4,0c0-0.3,0-0.7,0-1c0.7,0,1.3,0,2,0c0-0.3,0-0.7,0-1
				c2-0.3,4-0.7,5.9-1c0-0.3,0-0.7,0-1c0.7,0,1.3,0,2,0C806.4,398.8,806.4,399.1,806.4,399.4z M821.2,438.4c-0.3,0-0.7,0-1,0
				c0-0.7,0-1.3,0-2c0.3,0,0.7,0,1,0C821.2,437.1,821.2,437.8,821.2,438.4z M849,389.5c-0.3,0-0.7,0-1,0c0-0.7,0-1.3,0-2
				c0.3,0,0.7,0,1,0c0-0.3,0-0.7,0-1c1,0,2,0,3,0c0-0.3,0-0.7,0-1c0.3,0,0.7,0,1,0C851.8,387.4,850.3,387.8,849,389.5z M868.8,396.5
				c-0.3,0-0.7,0-1,0c0-0.7,0-1.3,0-2c0.3,0,0.7,0,1,0C868.8,395.1,868.8,395.8,868.8,396.5z M1191,238.6c-2-0.6-0.9,0.1-2-1
				C1191,238.2,1189.9,237.4,1191,238.6z M1195,238.6c0.3,0,0.7,0,1,0c-1.1,4-4.1,4.8-5.9,8c-0.3,0-0.7,0-1,0
				C1189.7,241.3,1192.8,241.9,1195,238.6z M1193,253.6c0,1,0,2,0,3c-1,0-2,0-3,0c0.3-0.7,0.7-1.3,1-2c1.1-0.9,0.2,0.1,1-1
				C1192.4,253.6,1192.7,253.6,1193,253.6z M1170.2,248.6c2,0.6,0.9-0.1,2,1c-1.3,0.7-2.6,1.3-4,2
				C1168.9,250.6,1169.6,249.6,1170.2,248.6z M1154.3,259.6c0.7,0,1.3,0,2,0c0,0.7,0,1.3,0,2c1.3,0,2.6,0,4,0c-0.2-2.4-0.4-2.5-1-4
				c2.3-1.2,4.6-2.7,5.9-5c0.7,0,1.3,0,2,0c0,1,0,2,0,3c1.3,0,2.6,0,4,0c0-0.7,0-1.3,0-2c6.7-1.5,9.8-6.4,16.9-7c0,0.7,0,1.3,0,2
				c-7,1.7-8.1,7.9-16.9,8c0,1,0,2,0,3c-0.7,0-1.3,0-2,0c0,1,0,2,0,3c-2.8,1.6-3.4,4.1-6.9,5c0,0.3,0,0.7,0,1c-1.6-0.7-2.4-0.9-5-1
				c0.3-1.7,0.7-3.3,1-5c-3,0.3-2.7,0.1-4,2c-0.3,0-0.7,0-1,0C1154,263,1154.3,262.2,1154.3,259.6z M1139.5,270.6c0.3,0,0.7,0,1,0
				c0-0.3,0-0.7,0-1c1.6,0.7,2.4,0.9,5,1c0-0.3,0-0.7,0-1c0.3,0,0.7,0,1,0c0-2,0-4,0-6c4.4,1.1,1.5,2.3,5.9,1c-0.3,1-0.7,2-1,3
				c-0.7,0-1.3,0-2,0c-1.7,2-3.3,4-5,6c-0.7,0-1.3,0-2,0c-1,1.3-2,2.7-3,4c-0.3,0-0.7,0-1,0C1139.1,275.6,1138.5,272,1139.5,270.6z
				 M1137.5,269.6c0,0.3,0,0.7,0,1c-1.7,0.9-2.5-0.6-3-1C1135.5,269.6,1136.5,269.6,1137.5,269.6z M1127.6,269.6c-2-0.6-0.9,0.1-2-1
				C1127.6,269.2,1126.4,268.4,1127.6,269.6z M1091.9,287.5c3-1,5.9-2,8.9-3c0,0.3,0,0.7,0,1c-2.8,2-2.6-1.8-4,3c-1.7,0-3.3,0-5,0
				C1091.9,288.2,1091.9,287.9,1091.9,287.5z M1096.8,291.5c0,0.3,0,0.7,0,1c-0.7,0-1.3,0-2,0c0.7-1,1.3-2,2-3c0.3,0,0.7,0,1,0
				C1098.5,291.4,1097.3,291,1096.8,291.5z M1090.9,290.5c-2-0.6-0.9,0.1-2-1C1090.9,290.1,1089.8,289.4,1090.9,290.5z
				 M1088.9,295.5c0.3,0,0.7,0,1,0c0.9,0.4-1.9,2-2,2C1088.3,296.9,1088.6,296.2,1088.9,295.5z M1079,298.5c0.7,2.8,1.8,2.9,3,5
				c5.7-0.7,6.9-3.9,11.9-5c0-1,0-2,0-3c-1,0-2,0-3,0c0-0.3,0-0.7,0-1c3.8-0.6,5.7-0.3,9.9-1c-0.6-2.4-0.3-1.9-2-3c0-0.3,0-0.7,0-1
				c1.7-0.3,3.3-0.7,5-1c3-1.6,4.9-4.2,8.9-5c0-0.7,0-1.3,0-2c2.2-0.3,2.6-0.1,4-1c0-0.3,0-0.7,0-1c0.7,0,1.3,0,2,0c0-0.3,0-0.7,0-1
				c1,0,2,0,3,0c0-0.3,0-0.7,0-1c1-0.3,2-0.7,3-1c0,0.3,0,0.7,0,1c-0.7,0-1.3,0-2,0c0,1.3,0,2.7,0,4c3.7-0.8,8.9-3.5,10.9-6
				c0.3,0,0.7,0,1,0c-2,3.4-3.1,2.9-5.9,5c-1.3,1.7-2.6,3.3-4,5c-0.7,0-1.3,0-2,0c-0.7,1-1.3,2-2,3c-1.7-0.3-3.3-0.7-5-1
				c0,0.3,0,0.7,0,1c-3,1.3-4,1.5-5,5c-0.7,0-1.3,0-2,0c-0.9,3.2-2.5,3.5-4,6c-2-0.6-0.9,0.1-2-1c-0.3,0-0.7,0-1,0c0.3-1,0.7-2,1-3
				c-3,0.4-3.2,0.6-5,2c0,0.3,0,0.7,0,1c-1,0.3-2,0.7-3,1c-0.3,0.7-0.7,1.3-1,2c-0.7,0-1.3,0-2,0c-0.3,0.7-0.7,1.3-1,2
				c-0.7,0-1.3,0-2,0c-0.3,0.7-0.7,1.3-1,2c-1.7,0.3-3.3,0.7-5,1c-0.3,0.7-0.7,1.3-1,2c-1.3,0.3-2.6,0.7-4,1c-0.3,0.7-0.7,1.3-1,2
				c-0.7,0-1.3,0-2,0c-0.3,0.7-0.7,1.3-1,2c-0.7,0-1.3,0-2,0c0,0.3,0,0.7,0,1c-1.3-0.3-2.6-0.7-4-1c-2.6,3-5.3,6-7.9,9c-1,0-2,0-3,0
				c0,0.3,0,0.7,0,1c-1.3,0.3-2.6,0.7-4,1c-0.3,0.7-0.7,1.3-1,2c-0.7,0-1.3,0-2,0c0,0.3,0,0.7,0,1c-2,0.7-4,1.3-5.9,2
				c-0.3,1-0.7,2-1,3c-1.7,0.3-3.3,0.7-5,1c0-0.3,0-0.7,0-1c-0.1,0-3.5,0.3-2-1c0.3,0,0.7,0,1,0c-0.8-1.4-0.7-1.2-2-2
				c2-2.3,2.5-0.6,5-2c0.3-0.7,0.7-1.3,1-2c0.7,0,1.3,0,2,0c0-0.3,0-0.7,0-1c0.7,0,1.3,0,2,0c0.3-0.7,0.7-1.3,1-2c2.3,0,4.6,0,6.9,0
				c0.7-1,1.3-2,2-3c2.3-1.7,4.6-3.3,6.9-5c0-1,0-2,0-3c-2,0.3-4,0.7-5.9,1c0,0.7,0,1.3,0,2c-3.7,0.4-6.1,1.7-7.9,4
				c-0.7,0-1.3,0-2,0c0-0.3,0-0.7,0-1c0.3,0,0.7,0,1,0c1.6-2.4,0.8-0.6,3-2c0-0.3,0-0.7,0-1c0.7,0,1.3,0,2,0c1-1.3,2-2.7,3-4
				c1,0,2,0,3,0c0.7-1,1.3-2,2-3c1,0,2,0,3,0c0-0.3,0-0.7,0-1c0.7,0,1.3,0,2,0c0.3-0.7,0.7-1.3,1-2c1,0,2,0,3,0c0.3-0.7,0.7-1.3,1-2
				c1.3-0.3,2.6-0.7,4-1c0-0.3,0-0.7,0-1C1075.6,299.4,1076.8,299,1079,298.5z M1082,314.5c0,0.3,0,0.7,0,1c-1,0-2,0-3,0
				c0,0.3,0,0.7,0,1c-2.8,1.2-2.9-0.2-5,2c-1,0-2,0-3,0c0-0.3,0-0.7,0-1c1.3-0.3,2.6-0.7,4-1c0-0.3,0-0.7,0-1c1.3,0,2.6,0,4,0
				c0-0.3,0-0.7,0-1C1080,314.5,1081,314.5,1082,314.5z M1061.2,325.5c0,0.3,0,0.7,0,1c-2,0.6-0.9-0.1-2,1c0,0-3.9-0.1-2-1
				c0.3,0,0.7,0,1,0c0-0.3,0-0.7,0-1C1059.2,325.5,1060.2,325.5,1061.2,325.5z M1038.3,322.5c0-0.3,0-0.7,0-1c0.3,0,0.7,0,1,0
				c-1.7,2.6-5,2.8-6.9,5c-1,0-2,0-3,0c0-0.3,0-0.7,0-1C1032.4,324.5,1035.4,323.5,1038.3,322.5z M1037.4,315.5c2,0.6,0.9-0.1,2,1
				C1037.4,315.9,1038.5,316.7,1037.4,315.5z M1045.3,319.5c-1.3,0.6-2.1,1-3,2c-0.7,0-1.3,0-2,0c0-0.3,0-0.7,0-1
				c2.3-0.6,1.9-0.3,3-2C1045.3,319.1,1044.2,318.4,1045.3,319.5z M1044.3,311.5c0-0.3,0-0.7,0-1c2.6-1.1,5.3-2,6.9-4
				c1,0.3,2,0.7,3,1c0,0.3,0,0.7,0,1c-1,0-2,0-3,0c-0.3,0.7-0.7,1.3-1,2c-0.7,0-1.3,0-2,0c0,0.3,0,0.7,0,1
				C1046.9,311.5,1045.6,311.5,1044.3,311.5z M1056.2,306.5c0-0.3,0-0.7,0-1c2.6-1.2,5.3-2.9,6.9-5c0.3,0,0.7,0,1,0
				c-1.6,2.7-4,2.6-5,6C1058.2,306.5,1057.2,306.5,1056.2,306.5z M1025.5,301.5c2-0.6,0.9,0.1,2-1c0.3,0,0.7,0,1,0
				c-0.3,0.7-0.7,1.3-1,2c-0.7,0-1.3,0-2,0C1025.5,302.2,1025.5,301.9,1025.5,301.5z M1024.5,309.5c3.3,0,6.6,0,9.9,0
				c0.3-0.7,0.7-1.3,1-2c0.7,0,1.3,0,2,0c1.7-2,3.3-4,5-6c0.7,0,1.3,0,2,0c2-2.3,4-4.7,5.9-7c0.7,0,1.3,0,2,0c0.7-1,1.3-2,2-3
				c0.7,0,1.3,0,2,0c0-0.3,0-0.7,0-1c0.7,0,1.3,0,2,0c0-0.3,0-0.7,0-1c1,0,2,0,3,0c0-0.3,0-0.7,0-1c1.3-0.3,2.6-0.7,4-1
				c0-0.3,0-0.7,0-1c1,0,2,0,3,0c0.3-0.7,0.7-1.3,1-2c0.7,0,1.3,0,2,0c0-0.3,0-0.7,0-1c1.3,0,2.6,0,4,0c0-0.3,0-0.7,0-1
				c0.7,0,1.3,0,2,0c-0.6,1.5-0.8,1.6-1,4c-2-0.3-4-0.7-5.9-1c1,3.4,1.3,1.9,3,4c-1.8,1.1-5.8,4.2-6.9,6c-0.7,0-1.3,0-2,0
				c0-0.7,0-1.3,0-2c-1.3,0-2.6,0-4,0c-0.3-0.7-0.7-1.3-1-2c-0.7,0-1.3,0-2,0c0,1,0,2,0,3c0.3,0,0.7,0,1,0c0,0.3,0,0.7,0,1
				c-2-0.3-4-0.7-5.9-1c0,1,0,2,0,3c1,0,2,0,3,0c0,0.3,0,0.7,0,1c-2.7,0.7-2.2,1.4-5,2c-0.8,3.1-1.9,3.4-4,5c0,0.3,0,0.7,0,1
				c-1,0-2,0-3,0c0,0.3,0,0.7,0,1c-2,1.7-4,3.3-5.9,5c0,0.3,0,0.7,0,1c-1.3-0.7-2.3-2.9-5-2c-0.3,0.7-0.7,1.3-1,2
				c-3.7,1.4-4.3-1.7-5-2c-0.7,0-1.3,0-2,0C1024.5,310.9,1024.5,310.2,1024.5,309.5z M1029.4,341.5c0,0.3,0,0.7,0,1
				c-1.7,0.9-2.5-0.6-3-1C1027.4,341.5,1028.4,341.5,1029.4,341.5z M1017.5,317.5c1-0.3,2-0.7,3-1c0-0.3,0-0.7,0-1c1,0,2,0,3,0
				c0-0.3,0-0.7,0-1c2,0.6,0.9-0.1,2,1c-1.9,0.9-2.9,1.3-4,3c-1.3,0-2.6,0-4,0C1017.5,318.2,1017.5,317.8,1017.5,317.5z
				 M1013.6,339.5c-2-0.6-0.9,0.1-2-1C1013.6,339.1,1012.4,338.4,1013.6,339.5z M1009.6,345.5c0.3,0,0.7,0,1,0c-0.9,1.5-1.4,2.1-3,3
				c0-0.7,0-1.3,0-2C1009.6,345.9,1008.5,346.6,1009.6,345.5z M1008.6,340.5c0,0.7,0,1.3,0,2c-3.9,0.5-4.1,1.8-6.9,3c-1,0-2,0-3,0
				c-0.3,0.7-0.7,1.3-1,2c-1.3,0-2.6,0-4,0c0,0.3,0,0.7,0,1c-0.3,0-0.7,0-1,0C994.7,345,1003.6,340.9,1008.6,340.5z M978.9,314.5
				c2.2-0.6,5.7-2.5,6.9-4c0.3,0,0.7,0,1,0c-1.8,3-4.1,2.3-5.9,5c-0.7,0-1.3,0-2,0C978.9,315.2,978.9,314.8,978.9,314.5z
				 M971.9,353.5c0.3,0,0.7,0,1,0c0-0.3,0-0.7,0-1c2,0.6,0.9-0.1,2,1c-0.3,0-0.7,0-1,0c0,0.3,0,0.7,0,1
				C973.9,354.5,970,354.3,971.9,353.5z M974.9,367.5c-2-0.6-0.9,0.1-2-1C974.9,367.1,973.8,366.3,974.9,367.5z M969.9,360.5
				c-2-0.6-0.9,0.1-2-1C969.9,360.1,968.8,359.3,969.9,360.5z M936.2,358.5c1,0,2,0,3,0c0,0.7,0,1.3,0,2c0.3,0.8,2.2,0.4,2,2
				c-0.3,0-0.7,0-1,0c-0.8,1.1,0.1,0.2-1,1c-0.7-2.6-1-2.9-3-4C936.2,359.1,936.2,358.8,936.2,358.5z M903.5,383.5c0,0.3,0,0.7,0,1
				c-1.7,0.9-2.5-0.6-3-1C901.5,383.5,902.5,383.5,903.5,383.5z M900.5,400.4c0.8-1.1-0.1-0.2,1-1c0,0.7,0,1.3,0,2
				c-2-0.6-0.9,0.1-2-1C899.9,400.4,900.2,400.4,900.5,400.4z M911.4,406.4c-3.3,0.3-6.3,1-7.9,3c-1.7,0-3.3,0-5,0c0-0.3,0-0.7,0-1
				c-0.3,0-0.7,0-1,0c4.6-1.3,9.3-2.7,13.9-4C911.4,405.1,911.4,405.8,911.4,406.4z M924.3,369.5c-0.7,0-1.3,0-2,0c0,0.3,0,0.7,0,1
				c-1.3,0-2.6,0-4,0c0,0.3,0,0.7,0,1c-3,1-5.9,2-8.9,3c0-0.7,0-1.3,0-2c10.1-0.7,13.3-7.1,24.8-7c0,0.7,0,1.3,0,2
				c-3.3,0.3-6.6,0.7-9.9,1C924.3,368.8,924.3,369.1,924.3,369.5z M952.1,399.4c-1.3,0.3-2.6,0.7-4,1c0,0.3,0,0.7,0,1
				c-1.3,0-2.6,0-4,0c0,0.3,0,0.7,0,1c-3,0.3-5.9,0.7-8.9,1c0,0.3,0,0.7,0,1c-2,0-4,0-5.9,0c0,0.3,0,0.7,0,1c-1.3,0-2.6,0-4,0
				c0-0.3,0-0.7,0-1c1.4-0.6,2.2-0.4,4-1c0-0.3,0-0.7,0-1c2,0,4,0,5.9,0c0-0.3,0-0.7,0-1c1,0,2,0,3,0c0-0.3,0-0.7,0-1
				c4.7-1.5,8.6,1,11.9-2c0.7,0,1.3,0,2,0C952.1,398.8,952.1,399.1,952.1,399.4z M953.1,393.5c-0.3,0-0.7,0-1,0c0,0.3,0,0.7,0,1
				c-0.5-0.1-4.1,0.6-3-1c0.3,0,0.7,0,1,0c0-0.3,0-0.7,0-1c1,0,2,0,3,0C953.1,392.8,953.1,393.1,953.1,393.5z M958,390.5
				c-2,0.6-0.9-0.1-2,1c-0.7,0-1.3,0-2,0c0-0.3,0-0.7,0-1c2-0.6,0.9,0.1,2-1c0.7,0,1.3,0,2,0C958,389.8,958,390.1,958,390.5z
				 M954.1,367.5c2,0.6,0.9-0.1,2,1C954.1,367.9,955.2,368.6,954.1,367.5z M957.1,382.5c2,0.6,0.9-0.1,2,1
				C957.1,382.9,958.2,383.6,957.1,382.5z M959,374.5c0,0.3,0,0.7,0,1c0,0-3.9-0.1-2-1c0.3,0,0.7,0,1,0c0-0.3,0-0.7,0-1
				c2,0.6,0.9-0.1,2,1C959.7,374.5,959.4,374.5,959,374.5z M967,351.5c0,2.9-0.3,4.3-1,6c-2,0.3-4,0.7-5.9,1c0,0.3,0,0.7,0,1
				c-0.7,0-1.3,0-2,0c0,0.3,0,0.7,0,1c-3.3,1.3-3.6-0.6-5.9,2c-1,0-2,0-3,0c0-0.3,0-0.7,0-1c2.2-0.6,2.5-0.8,4-2c0-0.3,0-0.7,0-1
				c0.7,0,1.3,0,2,0c0.3-0.7,0.7-1.3,1-2c0.3,0,0.7,0,1,0c0.3-0.7,0.7-1.3,1-2c3-2.2,5.9-2.6,7.9-6c0.7,0,1.3,0,2,0c0,1,0,2,0,3
				C967.6,351.5,967.3,351.5,967,351.5z M980.8,370.5c0,0.3,0,0.7,0,1c-0.7,0-1.3,0-2,0c0,0.3,0,0.7,0,1c-1.7,0.3-3.3,0.7-5,1
				c-0.3,0.7-0.7,1.3-1,2c-1.9,1.2-2.2,0-4,2c-0.3,0-0.7,0-1,0c0-0.7,0-1.3,0-2c1-0.3,2-0.7,3-1c0.3-0.7,0.7-1.3,1-2
				c3.1-1.6,5.3-0.1,7.9-3c1.3,0,2.6,0,4,0c0,0.3,0,0.7,0,1C982.8,370.5,981.8,370.5,980.8,370.5z M998.7,383.5
				c-2.7,0.5-9.2,1.4-10.9,3c-1.3,0-2.6,0-4,0c0-0.3,0-0.7,0-1c2.2-0.9,4.5-1.3,5.9-3c3,0,5.9,0,8.9,0
				C998.7,382.8,998.7,383.1,998.7,383.5z M986.8,378.5c1,0,2,0,3,0c0,0.3,0,0.7,0,1C988,380.3,987.3,378.9,986.8,378.5z
				 M1000.7,372.5c0.3-0.7,0.7-1.3,1-2c0.3,0,0.7,0,1,0C1003.5,370.9,1000.7,372.4,1000.7,372.5z M1005.6,360.5c-2,0.7-4,1.3-5.9,2
				c0,0.3,0,0.7,0,1c-0.7,0-1.3,0-2,0c-0.3,0.7-0.7,1.3-1,2c-1.3,0.3-2.6,0.7-4,1c0,0.3,0,0.7,0,1c-2.3,0.3-4.6,0.7-6.9,1
				c0,0.3,0,0.7,0,1c-0.3,0-0.7,0-1,0c1.7-2.7,4-2.3,5-6c3.3-0.3,6.6-0.7,9.9-1c0-1,0-2,0-3c0.3,0,0.7,0,1,0c0-0.3,0-0.7,0-1
				c1.7,0.3,3.3,0.7,5,1C1005.6,359.8,1005.6,360.1,1005.6,360.5z M1007.6,359.5c0.3-0.7,0.7-1.3,1-2c0.3,0,0.7,0,1,0
				C1010.5,357.9,1007.7,359.4,1007.6,359.5z M1026.5,360.5c-1,0-2,0-3,0c-0.3,0.7-0.7,1.3-1,2c-2.9,1.9-5.1,2-6.9,5
				c-0.3,0-0.7,0-1,0c0-0.7,0-1.3,0-2c2-1,4.7-2.3,5.9-4c0-0.7,0-1.3,0-2c0.7-0.9,2-0.8,3-2c1,0.7,2,1.3,3,2
				C1026.5,359.8,1026.5,360.1,1026.5,360.5z M1034.4,363.5c-0.3,0-0.7,0-1,0c0.7-2.8,1.8-2.9,3-5c0.3,0,0.7,0,1,0
				C1036.6,361.3,1035.6,361.4,1034.4,363.5z M1043.3,354.5c2,0.6,0.9-0.1,2,1C1043.3,354.9,1044.4,355.6,1043.3,354.5z
				 M1070.1,350.5c-4.6,1-9.4,4.9-11.9,8c0,0-3.9-0.1-2-1c0.3,0,0.7,0,1,0c0-0.3,0-0.7,0-1l-1-1c-1.7,0-3.3,0-5,0c0-0.3,0-0.7,0-1
				c-0.3,0-0.7,0-1,0c0-0.3,0-0.7,0-1c2,0,4,0,5.9,0c0.3-0.7,0.7-1.3,1-2c1.3-0.3,2.6-0.7,4-1c0-0.7,0-1.3,0-2c1,0,2,0,3,0
				c0-0.7,0-1.3,0-2c2-0.6,0.9,0.1,2-1c0.3,0,0.7,0,1,0c-0.6,1.5-0.8,1.6-1,4c1.3,0,2.6,0,4,0
				C1070.1,349.8,1070.1,350.2,1070.1,350.5z M1103.8,329.5c-2.3,0-4.6,0-6.9,0c-0.3,1-0.7,2-1,3c-1.3,0-2.6,0-4,0c0,0.3,0,0.7,0,1
				c-1,0-2,0-3,0c0-0.3,0-0.7,0-1c0.3,0,0.7,0,1,0c2.1-3.1,1.3-0.5,4-2c0.3-0.7,0.7-1.3,1-2c0.7,0,1.3,0,2,0c0-0.3,0-0.7,0-1
				c0.7,0,1.3,0,2,0c0.3-0.7,0.7-1.3,1-2c1.3-0.3,2.6-0.7,4-1c0.3-0.7,0.7-1.3,1-2c1.3-0.3,2.6-0.7,4-1c0.3-0.7,0.7-1.3,1-2
				c3.8-2.5,8.4-3.3,10.9-7c0.3,0,0.7,0,1,0C1119.5,316.2,1107.6,327.7,1103.8,329.5z M1128.6,306.5c0.3-0.7,0.7-1.3,1-2
				c0.3,0,0.7,0,1,0C1131.4,304.9,1128.6,306.5,1128.6,306.5z M1127.6,303.5c0.7-1.3,1.3-2.7,2-4c2,0.6,0.9-0.1,2,1
				c-1.5,0.9-2.1,1.4-3,3C1128.2,303.5,1127.9,303.5,1127.6,303.5z M1129.6,316.5c0.3-0.7,0.7-1.3,1-2c0.3,0,0.7,0,1,0
				C1132.4,314.9,1129.6,316.5,1129.6,316.5z M1145.4,288.5c-1,0.3-2,0.7-3,1c0,0.3,0,0.7,0,1c-0.7,0-1.3,0-2,0
				c-0.3,0.7-0.7,1.3-1,2c-1.3,0.3-2.6,0.7-4,1c-0.3,0.7-0.7,1.3-1,2c-1.7,0.3-3.3,0.7-5,1c-1,1.3-2,2.7-3,4c-1,0.3-2,0.7-3,1
				c-0.3,0.7-0.7,1.3-1,2c-1.7,0-3.3,0-5,0c0,0-1.1,1.6-2,2c0,2.3,0,4.7,0,7c-0.7,0-1.3,0-2,0c-0.3-1.3-0.7-2.7-1-4
				c-5,1.4-6.6,6.6-11.9,8c0,0.7,0,1.3,0,2c-5.1,1.2-9.6,4.8-14.9,6c-0.7,2.8-1.8,2.9-3,5c-0.7,0-1.3,0-2,0c-0.3,2-0.7,4-1,6
				c-2,0.7-4,1.3-5.9,2c-0.3,0.7-0.7,1.3-1,2c-1,0-2,0-3,0c-0.7,1-1.3,2-2,3c-1,0.3-2,0.7-3,1c0,0.3,0,0.7,0,1c-0.7,0-1.3,0-2,0
				c0,0.3,0,0.7,0,1c-2.2,1.4-1.4-0.4-3,2c-6.4-0.3-6.6-2.7-12.9-3c0,0.7,0,1.3,0,2c1,0,2,0,3,0c0,0.3,0,0.7,0,1c-1,0-2,0-3,0
				c0,1,0,2,0,3c1,0,2,0,3,0c0,0.3,0,0.7,0,1c-2.3,0.9-10.8-0.1-12.9,1c-1,1.7-2,3.3-3,5c-2.8,1.5-3.6-0.7-5.9,2c-0.3,0-0.7,0-1,0
				c0.8-1.5,2.7-4,4-5c0,0.3,0,0.7,0,1c1-0.3,2-0.7,3-1c0-0.7,0-1.3,0-2c-1.3,0-2.6,0-4,0c-0.7,0.3-0.4,2.3-2,2c0-0.3,0-0.7,0-1
				c-0.7,0-1.3,0-2,0c0,0.3,0,0.7,0,1c-1-0.3-2-0.7-3-1c0,0.3,0,0.7,0,1c-4.2,1.2-7.4,0.1-9.9,3c-1,0-2,0-3,0c0-0.3,0-0.7,0-1
				c0.3,0,0.7,0,1,0c1.7-2.7,3.9-2.5,6.9-4c0-0.3,0-0.7,0-1c1,0,2,0,3,0c0-0.3,0-0.7,0-1c1.3-0.3,2.6-0.7,4-1c0-0.3,0-0.7,0-1
				c2,0,4,0,5.9,0c0-0.3,0-0.7,0-1c0.7,0,1.3,0,2,0c0-0.3,0-0.7,0-1c1.7-0.3,3.3-0.7,5-1c0.3-0.7,0.7-1.3,1-2c1,0,2,0,3,0
				c0-0.3,0-0.7,0-1c1,0,2,0,3,0c0-0.3,0-0.7,0-1c4.6-0.3,9.3-0.7,13.9-1c1.3-1.7,2.6-3.3,4-5c0.7,0,1.3,0,2,0c0.3-0.7,0.7-1.3,1-2
				c1.3-0.3,2.6-0.7,4-1c0.7-1,1.3-2,2-3c0.7,0,1.3,0,2,0c0.3-0.7,0.7-1.3,1-2c1-0.3,2-0.7,3-1c0-0.3,0-0.7,0-1c0.7,0,1.3,0,2,0
				c0.7-1,1.3-2,2-3c0.7,0,1.3,0,2,0c0.3-0.7,0.7-1.3,1-2c0.7,0,1.3,0,2,0c0.6-0.4,0.7-1.3,2-2c0-1.7,0-3.3,0-5c2-0.6,0.9,0.1,2-1
				c0.3,0,0.7,0,1,0c-0.3,1-0.7,2-1,3c4.3-0.2,3.4-0.6,5.9-2c0-1.3,0-2.7,0-4c0.7,0,1.3,0,2,0c0.3-0.7,0.7-1.3,1-2
				c2.4-1.3,3.5-0.6,5,1c2,0,4,0,5.9,0c-0.7-1.7-1.3-3.3-2-5c1.2-0.7,1.4-1.6,2-2c0.7,0,1.3,0,2,0c0.7-1,1.3-2,2-3c0.7,0,1.3,0,2,0
				c0.3-0.7,0.7-1.3,1-2c0.7,0,1.3,0,2,0c0.3-0.7,0.7-1.3,1-2c2,0,4,0,5.9,0c0.3-0.7,0.7-1.3,1-2c0.7,0,1.3,0,2,0c0-0.3,0-0.7,0-1
				c1.7,0.3,3.3,0.7,5,1c0-0.3,0-0.7,0-1c0.3,0,0.7,0,1,0c-0.8-1.3-0.8-1.1-2-2c1.2-4.4,4.9-5.5,6.9-9c0.3,0,0.7,0,1,0
				c0,1.7,0,3.3,0,5c1.3,0,2.6,0,4,0C1145.4,286.5,1145.4,287.5,1145.4,288.5z M1143.4,279.5c-0.3,0-0.7,0-1,0
				c2.5-4.3,7.8-5.3,10.9-9c0.3,0,0.7,0,1,0C1152.8,275.8,1146.2,275.5,1143.4,279.5z M1164.3,287.5c-2.1,0.5-7.8,3.6-8.9,5
				c-1,0-2,0-3,0c0-0.3,0-0.7,0-1c1-0.3,2-0.7,3-1c0-0.3,0-0.7,0-1c3-1.5,4.5-0.2,6.9-3c0.7,0,1.3,0,2,0
				C1164.3,286.9,1164.3,287.2,1164.3,287.5z M1218.8,251.6c-1.1,2.3-18.2,11.2-21.8,12c-1.3-0.3-2.6-0.7-4-1c-0.3,1-0.7,2-1,3
				c-1.7,0.3-3.3,0.7-5,1c0,0.3,0,0.7,0,1c-2.9,0.9-7-1.2-8.9-2c-0.3,1-0.7,2-1,3c0.7,0,1.3,0,2,0c0,0.3,0,0.7,0,1
				c-3.1,2.1-4.3-1.7-5.9,4c1,0,2,0,3,0c0,0.3,0,0.7,0,1c0.3,0,0.7,0,1,0c-0.6,2,0.1,0.9-1,2c0,0.3,0,0.7,0,1c-0.7-0.3-1.3-0.7-2-1
				c0,0.3,0,0.7,0,1c-0.7,0-1.3,0-2,0c0,0.7,0,1.3,0,2c-0.7,0-1.3,0-2,0c0-1,0-2,0-3c-1,0-2,0-3,0c-0.6,2,0.1,0.9-1,2
				c0,0.3,0,0.7,0,1c-2.3,0.3-4.6,0.7-6.9,1c-0.8,0.4,0.1,1.4-3,2c1-3.8,2.8-4.4,5.9-6c0-0.3,0-0.7,0-1c2,0,4,0,5.9,0
				c0-0.3,0-0.7,0-1c1-0.7,2-1.3,3-2c0-0.7,0-1.3,0-2c0.3,0,0.7,0,1,0c0-0.7,0-1.3,0-2c3.3-2.3,6.6-4.7,9.9-7c0-0.3,0-0.7,0-1
				c1.3,0.5,1.6,1.8,2,2c1-0.3,2-0.7,3-1c0-1,0-2,0-3c1,0.3,2,0.7,3,1l1-1c0,0.7,0,1.3,0,2c3.8-0.2,5.3-0.9,6.9-3c0.3,0,0.7,0,1,0
				c0,1,0,2,0,3c5-0.6,6.5-3.1,10.9-4c0-1.3,0-2.7,0-4c-1.3,0-2.6,0-4,0c0,0.7,0,1.3,0,2c-3,0.3-2.7,0.1-4,2c-4.6-0.5-4.2-1.8-5.9-5
				c-0.3,0-0.7,0-1,0c0-1,0-2,0-3c-0.3,0-0.7,0-1,0c0-0.3,0-0.7,0-1c3.8,0.1,4.1-0.2,5,3c1,0,2,0,3,0c-0.2-2.4-0.4-2.5-1-4
				c1.3-1,2.6-2,4-3c1.2-1.3,0.2-0.8,2,0c0,0.3,0,0.7,0,1c1.3,0,2.6,0,4,0c0.2,0.1,1.9,2.3,3,3c0,1,0,2,0,3c3-0.3,2.7-0.1,4-2
				c0.3,0,0.7,0,1,0C1218.8,249.6,1218.8,250.6,1218.8,251.6z M326.5,7.8c0-0.7,0-1.3,0-2c-2,0-4,0-5.9,0c0.3,1,0.7,2,1,3
				C323.2,8.4,324.8,8.1,326.5,7.8z M546.6,9.8c0-1,0-2,0-3c-0.3,0-0.7,0-1,0c0-0.3,0-0.7,0-1c-2,0-4,0-5.9,0c0.6,2.4,1,2.2,2,4
				C543.3,9.8,544.9,9.8,546.6,9.8z M557.5,10.8c0,0.3,0,0.7,0,1c1.8,0.6,1.4-0.6,2-1c0.3,0,0.7,0,1,0c0-0.3,0-0.7,0-1
				c-1.5-0.6-1.6-0.8-4-1C557.1,10.8,556.4,9.6,557.5,10.8z M179.8,134.7c1.7-0.3,3.3-0.7,5-1c0.3-0.7,0.7-1.3,1-2c0.7,0,1.3,0,2,0
				c0-0.3,0-0.7,0-1c1.5-1.4,1.4-0.5,2-3C183.1,127.5,180.7,129.4,179.8,134.7z M164.9,142.7c0,1.3,0,2.7,0,4c1,0,2,0,3,0
				c0.8-1.1-0.1-0.2,1-1c0-1.3,0-2.7,0-4c-1,0-2,0-3,0C165,142.8,166,141.8,164.9,142.7z M161.9,150.6c0-0.3,0-0.7,0-1
				c0.7-0.3,1.3-0.7,2-1c0-1,0-2,0-3c-1,0-2,0-3,0c-0.8,1.1,0.1,0.2-1,1c0,1,0,2,0,3c0.3,0,0.7,0,1,0c0,0.3,0,0.7,0,1
				C161.3,150.6,161.6,150.6,161.9,150.6z M154,154.6c-0.3,0-0.7,0-1,0c0,0.3,0,0.7,0,1c4.3-0.2,3.4-0.6,5.9-2c0-1,0-2,0-3
				c-1,0-2,0-3,0C155.3,152,154.6,153.3,154,154.6z M1262.4,167.6c0-0.3,0-0.7,0-1c1.1-0.9,0.2,0.1,1-1c-0.7,0-1.3,0-2,0
				C1262,167.6,1261.3,166.5,1262.4,167.6z M1260.4,176.6c0,0.3,0,0.7,0,1c1,0,2,0,3,0c0-1,0-2,0-3c-0.3,0-0.7,0-1,0
				c-1.1-1.1,0-0.4-2-1c0,0.3,0,0.7,0,1c-0.3,0-0.7,0-1,0C1260,176.6,1259.3,175.5,1260.4,176.6z M1285.2,174.6
				c-2.3-0.2-2.5-0.4-4-1c-0.3,0.9-1.9,2.2-1,4c0.3,0,0.7,0,1,0c1.3,0.6-0.4,1.2,1,1c0-0.3,0-0.7,0-1
				C1284.9,176.9,1284.5,177.4,1285.2,174.6z M31,186.6c0.7,0,1.3,0,2,0c0-1.7,0-3.3,0-5c-1,0-2,0-3,0c-1.1,2.3-1.8,3.7-4,5
				c0,1.7,0,3.3,0,5c1,0,2,0,3,0C29.9,189.8,30.6,189,31,186.6z M21.1,182.6c-1,0-2,0-3,0c0,1,0,2,0,3c1,0,2,0,3,0
				C21.1,184.6,21.1,183.6,21.1,182.6z M23.1,186.6c0.8,1.1-0.1,0.2,1,1c0.3-1,0.7-2,1-3c-1,0-2,0-3,0
				C22.7,186.6,22,185.5,23.1,186.6z M1290.2,184.6c0,0.3,0,0.7,0,1c-1.1,0.9-0.2-0.1-1,1c1,0.3,2,0.7,3,1c0-0.3,0-0.7,0-1
				c0.7,0,1.3,0,2,0c0-0.7,0-1.3,0-2C1292.8,184.6,1291.5,184.6,1290.2,184.6z M1283.2,191.6c1,0,2,0,3,0c0.7-2.7,1.3-2.3,2-5
				c-1.7,0.3-3.3,0.7-5,1C1283.2,188.9,1283.2,190.3,1283.2,191.6z M1219.8,195.6c0.3-2,0.7-4,1-6c-1.3,0-2.6,0-4,0c0,0.7,0,1.3,0,2
				c0.7,0,1.3,0,2,0c-2.3,2.4-3.5,1.2-6.9,1c0.3,1,0.7,2,1,3C1216.6,196.3,1216,196.3,1219.8,195.6z M1274.3,194.6c0,0.3,0,0.7,0,1
				c-1,0-2,0-3,0c0,0.3,0,0.7,0,1c-1,0.3-2,0.7-3,1c0,0.7,0,1.3,0,2c-0.7,0-1.3,0-2,0c0.6,2-0.1,0.9,1,2c0,0.3,0,0.7,0,1
				c-1,0-2,0-3,0c0,0.3,0,0.7,0,1c-0.5-0.1-4.1,0.6-3-1c0.3,0,0.7,0,1,0c0-0.3,0-0.7,0-1c-1-0.3-2-0.7-3-1c0,0.7,0,1.3,0,2
				c-0.7,0-1.3,0-2,0c0,0.7,0,1.3,0,2c1,0.3,2,0.7,3,1c0.7,0.9-2.5,2.7-3,3c0.6,2-0.1,0.9,1,2c1.1,1.1,0,0.4,2,1c0.3-1,0.7-2,1-3
				c1,0,2,0,3,0c0.4-2.8-0.1-3,2-4c0.7,0,1.3,0,2,0c0-0.3,0-0.7,0-1c0.3,0,0.7,0,1,0c0-0.7,0-1.3,0-2c4.8-0.9,7.9-3.4,9.9-7
				c0.3,0,0.7,0,1,0c-0.3-1-0.7-2-1-3C1276.6,192.4,1276.2,193.2,1274.3,194.6z M21.1,207.6c0.8-3,1.6-2.5,2-6c1.7,0,3.3,0,5,0
				c-0.4-3.5-1.4-3.9-2-7c-7.1,0.9-2.9,1.9-5,6c-0.7,0.3-1.3,0.7-2,1c0,1,0,2,0,3c-0.3,0-0.7,0-1,0
				C18.9,207.3,18.4,206.9,21.1,207.6z M1185.1,212.6c1.8,0.6,1.4-0.6,2-1c4.9-0.2,5.5-1.6,6.9-5c1.7,0,3.3,0,5,0c0.6-2-0.1-0.9,1-2
				c0-0.3,0-0.7,0-1c1,0,2,0,3,0c0.3-1.3,0.7-2.7,1-4c-2,0.3-4,0.7-5.9,1c0,0.7,0,1.3,0,2c-1-0.3-2-0.7-3-1c-0.8,1.7-1.2,3.2-3,4
				c-0.7,0-1.3,0-2,0c-0.7,1-1.3,2-2,3c-0.7,0-1.3,0-2,0c-0.7,0.4-0.7,1.3-2,2c0,0.3,0,0.7,0,1c0.3,0,0.7,0,1,0
				C1185.1,211.9,1185.1,212.3,1185.1,212.6z M98.5,234.6c0.3,0,0.7,0,1,0c0-2,0-4,0-6c0.3,0,0.7,0,1,0c0.3-3.3,0.7-6.7,1-10
				c1.7-4.5,4.7-4.4,5-11c-1,0-2,0-3,0c-1.8,3.8-4.3,4.8-3,9c-1,0.3-2,0.7-3,1c-0.9,8.6-4.1,12.9-4,23c1.3,0,2.6,0,4,0
				C97.8,238.6,98.1,236.6,98.5,234.6z M1212.8,207.6c-1.3,0-2.6,0-4,0c0,0.7,0,1.3,0,2c1.3,0,2.6,0,4,0
				C1212.8,208.9,1212.8,208.3,1212.8,207.6z M1212.8,210.6c0,1,0,2,0,3c1.3,0,2.6,0,4,0c0.3-0.7,0.7-1.3,1-2c0.7,0,1.3,0,2,0
				c0-1,0-2,0-3c-1.1-0.9-0.2,0.1-1-1C1214.6,208.1,1215.6,209,1212.8,210.6z M1200,210.6c0,0.7,0,1.3,0,2c-1,1.2-2.7,0.9-5,1
				c0.7,1,1.3,2,2,3c1-0.3,2-0.7,3-1c0-0.3,0-0.7,0-1c1,0,2,0,3,0c0.3-0.1,1-1.5,2-2c-0.3-3-0.1-2.7-2-4
				C1202,209.9,1200.7,209.6,1200,210.6z M1248.5,221.6c0.3,0,0.7,0,1,0c0,0-0.9-5.4-1-7c-0.7,0-1.3,0-2,0c0-0.3,0-0.7,0-1
				c0.7-0.3,1.3-0.7,2-1c0-1,0-2,0-3c-4.2,0.5-3.2,1.4-5.9,3c0.3,1.7,0.7,3.3,1,5c0.7,0,1.3,0,2,0c0,0.7,0,1.3,0,2
				c-1.3,0.3-2.6,0.7-4,1c0,1.3,0,2.7,0,4C1245.4,224.4,1246.9,223.7,1248.5,221.6z M91.5,213.6c-0.3,0-0.7,0-1,0c0-0.3,0-0.7,0-1
				c-0.3,0-0.7,0-1,0c0,0.3,0,0.7,0,1c-0.7,0.3-1.3,0.7-2,1c0,1,0,2,0,3c1.3,0,2.6,0,4,0C91.5,216.3,91.5,214.9,91.5,213.6z
				 M1236.6,219.6c1.3,0,2.6,0,4,0c-0.1-5.2-0.4-3.9-2-7c-2.3,0.2-2.5,0.4-4,1c0.3,1.7,0.7,3.3,1,5
				C1236.8,219.4,1235.8,218.5,1236.6,219.6z M19.1,219.6c-0.3,0-0.7,0-1,0c-0.6-2,0.1-0.9-1-2c0-0.3,0-0.7,0-1c-1,0-2,0-3,0
				c0,1,0,2,0,3c-0.3,0-0.7,0-1,0c0.3,1,0.7,2,1,3c1.3,0,2.6,0,4,0C18.5,221.6,18.8,220.6,19.1,219.6z M1277.3,221.6
				c-0.3,0-0.7,0-1,0c0,0.3,0,0.7,0,1c-1.7-0.3-3.3-0.7-5-1c-0.3,1-0.7,2-1,3c1.3,0.3,2.6,0.7,4,1c0.1,0,0.3-1.8,2-2
				c0,0.3,0,0.7,0,1c1,0.3,2,0.7,3,1c0-2.7,0-5.3,0-8c-0.7,0-1.3,0-2,0C1277.3,218.9,1277.3,220.3,1277.3,221.6z M1184.1,225.6
				c-1.7,0-3.3,0-5,0c0,0.7,0,1.3,0,2c1.7,0,3.3,0,5,0C1184.1,226.9,1184.1,226.3,1184.1,225.6z M1219.8,235.6c1.7,0,3.3,0,5,0
				c0.5-2.5,1-3.7,1-7c1.5,0.9,2.1,1.4,3,3c4.1,0.1,5.1,0.4,5.9-3c-5.3-0.4-5.7-2.5-10.9-3c-0.7,2.9-1.7,2.3-2,3c0.3,1,0.7,2,1,3
				c-0.7,0-1.3,0-2,0C1219.7,232.7,1220,233.5,1219.8,235.6z M1269.4,229.6c-0.6-2,0.1-0.9-1-2c0-0.3,0-0.7,0-1c-1,0-2,0-3,0
				c0.6,2-0.1,0.9,1,2c0,0.3,0,0.7,0,1C1267.4,229.6,1268.4,229.6,1269.4,229.6z M1166.2,234.6c0.7,0,1.3,0,2,0c0-0.3,0-0.7,0-1
				c1-0.3,2-0.7,3-1c0-1.3,0-2.7,0-4c-3.6,0.3-3.9,0.5-5.9,2c0,0.3,0,0.7,0,1c-1,0-2,0-3,0c-0.3,0.7-0.7,1.3-1,2c-0.7,0-1.3,0-2,0
				c0,0.3,0,0.7,0,1c-1,0.3-2,0.7-3,1c0,1,0,2,0,3c3.3-1,6.6-2,9.9-3C1166.2,235.2,1166.2,234.9,1166.2,234.6z M1253.5,233.6
				c0,0.7,0,1.3,0,2c1,0.3,2,0.7,3,1c0-0.3,0-0.7,0-1c1.3-0.3,2.6-0.7,4-1c0-0.3,0-0.7,0-1c1-0.3,2-0.7,3-1c0.3-1.3,0.7-2.7,1-4
				C1258.4,229,1258.4,232.3,1253.5,233.6z M1264.4,240.6c6.6-0.8,6.5-5.2,12.9-6c0-1,0-2,0-3c-1-0.3-2-0.7-3-1
				C1271.2,234.3,1265.8,235,1264.4,240.6z M18.2,261.6c1.7-0.3,3.3-0.7,5-1c0-4,0-8,0-12c-0.7,0-1.3,0-2,0c0-0.3,0-0.7,0-1
				c0.7-0.3,1.3-0.7,2-1c0-1,0-2,0-3c0.3,0,0.7,0,1,0c-0.7-3.7-1.3-7.3-2-11c-0.3,0-0.7,0-1,0c0-0.3,0-0.7,0-1c-2.3,0.2-2.5,0.4-4,1
				c0.7,6.3,1.3,12.7,2,19c0.1,3.1,0.5,7.4-1,9C18.2,260.9,18.2,261.2,18.2,261.6z M1138.5,239.6c0-1,0-2,0-3c-0.3,0-0.7,0-1,0
				c-0.3-1-0.7-2-1-3c-1,0-2,0-3,0c0,0.3,0,0.7,0,1c-0.3,0-0.7,0-1,0c0.7,1.6,0.9,2.4,1,5C1135.2,239.6,1136.8,239.6,1138.5,239.6z
				 M1252.5,238.6c-1,0.3-2,0.7-3,1c0,1,0,2,0,3c1.3,0,2.6,0,4,0c0-1,0-2,0-3c-0.3,0-0.7,0-1,0
				C1252.5,239.2,1252.5,238.9,1252.5,238.6z M88.5,257.6c0.3,0,0.7,0,1,0c1-2.9-3-2.3-2-6c0.3,0,0.7,0,1,0c0-0.7,0-1.3,0-2
				c0.3,0,0.7,0,1,0c0-2,0-4,0-6c-0.3,0-0.7,0-1,0c0.3-1,0.7-2,1-3c-1.3,0-2.6,0-4,0c-0.3,2.8-0.4,3.6-2,5c0,4.6-0.2,9.9,1,13
				c1.3,0,2.6,0,4,0C88.5,258.2,88.5,257.9,88.5,257.6z M1148.4,248.6c0,0.3,0,0.7,0,1c0.7-0.3,1.3-0.7,2-1c0.6,1.3,1,2.1,2,3
				c1.3,0.6-0.4,1.2,1,1c0-0.3,0-0.7,0-1c0.7-0.3,1.3-0.7,2-1c-0.6-2.4-0.3-1.9-2-3c2.1-2.5,4.9-2.3,5.9-6c-1.7,0-3.3,0-5,0
				c0,0.3,0,0.7,0,1c-0.7,0-1.3,0-2,0c0,0.3,0,0.7,0,1c-1-0.3-2-0.7-3-1c0,1.3,0,2.7,0,4c-0.7,0-1.3,0-2,0
				C1148,248.6,1147.3,247.4,1148.4,248.6z M92.5,244.6c0.3,1,0.7,2,1,3c2.3-0.2,2.5-0.4,4-1c0-1.3,0-2.7,0-4c-1.3,0-2.6,0-4,0
				C92.9,244.6,93.6,243.4,92.5,244.6z M1090.9,257.6c0.6,2-0.1,0.9,1,2c1.3,0.6-0.4,1.2,1,1c0-0.3,0-0.7,0-1c3.5-0.9,3.9-2.7,4-7
				c0.3,0,0.7,0,1,0c0,1,0,2,0,3c1.3,0.3,2.6,0.7,4,1c0-1.3,0-2.7,0-4c-0.3,0-0.7,0-1,0c0-0.3,0-0.7,0-1c0.3,0,0.7,0,1,0
				c0-1.3,0-2.7,0-4c-3.9,0.6-3.5,1.2-5.9,3c0,0.3,0,0.7,0,1c-1.3,0-2.6,0-4,0c0,0.3,0,0.7,0,1c-1.6,1.1-1.7,1.4-4,2
				C1088.7,257.3,1088.2,256.8,1090.9,257.6z M1110.7,248.6c-1.3,0-2.6,0-4,0c0,1,0,2,0,3c1,0.3,2,0.7,3,1
				C1110.1,251.2,1110.4,249.9,1110.7,248.6z M1258.4,250.6c0,0.3,0,0.7,0,1c0.3,0,0.7,0,1,0c0.3-1,0.7-2,1-3c-1,0-2,0-3,0
				C1258.1,250.6,1257.3,249.4,1258.4,250.6z M1148.4,255.6c-0.2-2.4-0.4-2.5-1-4c-1.3,0-2.6,0-4,0c0.3,2.8,0.4,3.6,2,5
				c0,0.3,0,0.7,0,1c0.3,0,0.7,0,1,0c0-0.3,0-0.7,0-1C1147.1,256.2,1147.7,255.9,1148.4,255.6z M1107.8,258.6c0,0.3,0,0.7,0,1
				c2.4,0.8,2-1.5,3-2c0.7,0,1.3,0,2,0c0-0.3,0-0.7,0-1c1,0,2,0,3,0c0-1,0-2,0-3c-4.6,0.6-4.5,2.5-8.9,3
				C1107.4,258.6,1106.6,257.4,1107.8,258.6z M1247.5,256.6c0.8,0.4,2.2,1.8,4,1c0-0.3,0-0.7,0-1c1.1-0.9,0.2,0.1,1-1
				c-1.5-0.6-1.6-0.8-4-1C1248.2,255.2,1247.9,255.9,1247.5,256.6z M87.6,263.6c0-1.3,0-2.7,0-4c-1,0.3-2,0.7-3,1
				C85.3,263.3,84.8,262.8,87.6,263.6z M23.1,267.6c0.2-1.4,0.9-1.7,1-4c-1.3,0-2.6,0-4,0c0.3,2.7,0.7,5.3,1,8c1.3,0,2.6,0,4,0
				c-0.3-2.3-0.3-2.5-1-4C23.8,267.6,23.4,267.6,23.1,267.6z M1091.9,266.6c1,0,2,0,3,0c0-0.7,0-1.3,0-2c-1,0-2,0-3,0
				C1091.9,265.2,1091.9,265.9,1091.9,266.6z M1041.3,282.5c0.6-1.3,1.2,0.4,1-1c-0.3,0-0.7,0-1,0c-0.3-0.7-0.7-1.3-1-2
				c-1,0-2,0-3,0c0,1,0,2,0,3c-1,0-2,0-3,0c0,0.7,0,1.3,0,2c2.3-0.3,4.6-0.7,6.9-1C1041.3,283.2,1041.3,282.9,1041.3,282.5z
				 M1199,291.5c1,0,2,0,3,0c0-0.3,0-0.7,0-1c1.1-0.9,0.2,0.1,1-1c-1.5-0.6-1.6-0.8-4-1C1199,289.5,1199,290.5,1199,291.5z
				 M1066.1,289.5c-1.3,0-2.6,0-4,0c-0.6,2,0.1,0.9-1,2c0,0.3,0,0.7,0,1c1.3,0,2.6,0,4,0C1065.4,291.5,1065.8,290.5,1066.1,289.5z
				 M37,295.5c-1,0-2,0-3,0c0,1,0,2,0,3c1,0,2,0,3,0C37,297.5,37,296.5,37,295.5z M1017.5,299.5c1,0,2,0,3,0c-0.6-2,0.1-0.9-1-2
				c0-0.3,0-0.7,0-1c-2.5-0.9-2.4,1.8-3,2c-1,0-2,0-3,0c0,1,0,2,0,3c1.3,0,2.6,0,4,0C1017.5,300.9,1017.5,300.2,1017.5,299.5z
				 M1009.6,302.5c0,0.3,0,0.7,0,1c1,0,2,0,3,0c0-1,0-2,0-3c-1.3,0-2.6,0-4,0C1009.2,302.5,1008.5,301.4,1009.6,302.5z M45.9,309.5
				c0-1.3,0-2.7,0-4c-1.3,0-2.6,0-4,0c0.8,1.1-0.1,0.2,1,1C43.7,309.2,43.2,308.8,45.9,309.5z M41.9,322.5c0,0.3,0,0.7,0,1
				c1,0,2,0,3,0c0,0.3,0,0.7,0,1c1.4,0.8,1.7,0.8,4,1c-0.7-3.3-1.8-3.8-2-8c0.7,0,1.3,0,2,0c-0.8-3.2-1.3-3.7-5-4c-0.3,1-0.7,2-1,3
				c0.1,0.6,1.7-0.2,1,1c-0.3,0-0.7,0-1,0c0,0.3,0,0.7,0,1c-1-0.3-2-0.7-3-1C40.1,321,40.1,321,41.9,322.5z M38,315.5
				c-1.1-1.1,0-0.4-2-1c-0.3,1-0.7,2-1,3c1.3,0,2.6,0,4,0C38.4,315.5,39.1,316.7,38,315.5z M1192,318.5c0,0.3,0,0.7,0,1
				c0.3,0,0.7,0,1,0c0.6-1.5,0.8-1.6,1-4c-1,0.3-2,0.7-3,1C1191.6,318.5,1190.9,317.4,1192,318.5z M31,318.5c1.1,1.1,0,0.4,2,1
				c0.3-1,0.7-2,1-3c-1.3,0-2.6,0-4,0C30.6,318.5,29.9,317.4,31,318.5z M964,318.5c1.1,1.1,0,0.4,2,1c0.3-1,0.7-2,1-3
				c-1.3,0-2.6,0-4,0C963.6,318.5,962.9,317.4,964,318.5z M959,319.5c-2.7,0.8-2.3,0.2-3,3c1,0,2,0,3,0
				C959,321.5,959,320.5,959,319.5z M946.1,328.5c1,0,2,0,3,0c0-0.3,0-0.7,0-1c0.8-0.1,6.3,1,8.9,1c0-1.3,0-2.7,0-4c-1,0-2,0-3,0
				c0-0.7,0-1.3,0-2c-3.5,0.3-5.5,0.5-7.9,2c-0.3,0.7-0.7,1.3-1,2c-1.7,0-3.3,0-5,0c0,1.3,0,2.7,0,4c1.7,0,3.3,0,5,0
				C946.1,329.8,946.1,329.2,946.1,328.5z M1177.2,325.5c1.3,0.3,2.6,0.7,4,1c0-1,0-2,0-3c-1.3,0-2.6,0-4,0
				C1177.2,324.2,1177.2,324.8,1177.2,325.5z M1173.2,329.5c0.7,0.3,1.3,0.7,2,1c0.3-1,0.7-2,1-3c-1.5-0.6-1.6-0.8-4-1
				C1172.5,327.5,1172.9,328.5,1173.2,329.5z M45.9,328.5c-1.3-0.3-2.6-0.7-4-1c-0.8,1.1,0.1,0.2-1,1c0,1,0,2,0,3c0.3,0,0.7,0,1,0
				c0,0.3,0,0.7,0,1C44.8,331.8,45.2,331.4,45.9,328.5z M851,336.5c-0.3,0-0.7,0-1,0c-0.3-0.7-0.7-1.3-1-2c-1,0-2,0-3,0
				c-0.3,0.9-1.9,2.2-1,4c0.3,0,0.7,0,1,0c1.1,1.1,0,0.4,2,1c0.8-1,1.2-1,2-2c0.3,0,0.7,0,1,0C851,337.2,851,336.8,851,336.5z
				 M51.9,338.5c-0.8-2.7-0.2-2.3-3-3c0,0.7,0,1.3,0,2c-1,0-2,0-3,0c0-0.7,0-1.3,0-2c-2,0.6-0.9-0.1-2,1c-0.3,0-0.7,0-1,0
				c1.6,2.8,4.1,4.3,5,8c1.3,0,2.6,0,4,0c-1-2.4-0.9-3.6-3-5c0-0.3,0-0.7,0-1C49.9,338.5,50.9,338.5,51.9,338.5z M919.4,335.5
				c-1.7,0.3-3.3,0.7-5,1c0,1,0,2,0,3c-2,0-4,0-5.9,0c0,0.7,0,1.3,0,2c-1.6-0.6-2.3-0.9-5-1c-0.3,1.3-0.7,2.7-1,4
				c0.7,0.3,1.3,0.7,2,1c-0.2,1.4-0.9,1.7-1,4c4.8-0.5,12.9-4.9,14.9-8c0.3,0,0.7,0,1,0c-0.3-1-0.7-2-1-3c0.3,0,0.7,0,1,0
				C919.4,337.5,919.4,336.5,919.4,335.5z M67.7,341.5c-0.6-2,0.1-0.9-1-2c-0.6,1.5-0.8,1.6-1,4c1,0,2,0,3,0
				C68.1,341.5,68.9,342.6,67.7,341.5z M895.6,347.5c-0.7,0-1.3,0-2,0c0,0.3,0,0.7,0,1c-0.3,0-0.7,0-1,0c0,1,0,2,0,3
				c3.1-0.7,4.4-1.7,7.9-2c0.8-1.1-0.1-0.2,1-1c-0.2-2.4-0.4-2.5-1-4c-2.9,0.3-3.3,0.6-5,2C895.6,346.8,895.6,347.2,895.6,347.5z
				 M1039.3,349.5c2.7-0.8,2.3-0.2,3-3c-1.3,0-2.6,0-4,0C1038.7,347.5,1039,348.5,1039.3,349.5z M876.7,356.5c3.7-0.2,7.2-1.4,8.9,0
				c2.3-0.2,2.5-0.4,4-1c0-2.9-0.3-4.3-1-6c-1.7-0.3-3.3-0.7-5-1c0,0.7,0,1.3,0,2c-1.7-0.7-3.1-1-5.9-1c0.3,1.7,0.7,3.3,1,5
				c-0.7,0-1.3,0-2,0C876.7,355.1,876.7,355.8,876.7,356.5z M860.9,359.5c-0.3,0-0.7,0-1,0c-0.3-0.7-0.7-1.3-1-2c-1,0-2,0-3,0
				c0.3,1,0.7,2,1,3c1,0.3,2,0.7,3,1c0-0.3,0-0.7,0-1c0.3,0,0.7,0,1,0C860.9,360.1,860.9,359.8,860.9,359.5z M850,362.5
				c0.6,2-0.1,0.9,1,2c1.1,1.1,0,0.4,2,1c1-1.2,2.6-2.3,4-3c0-0.7,0-1.3,0-2c-1.3-0.7-2.6-1.3-4-2
				C852.1,360.3,851.7,361.4,850,362.5z M855.9,365.5c0.8,0.4,2.2,1.8,4,1c0-0.3,0-0.7,0-1c0.3,0,0.7,0,1,0c0-0.3,0-0.7,0-1
				c-1.5-0.6-1.6-0.8-4-1C856.6,364.1,856.3,364.8,855.9,365.5z M778.6,385.5c1.7,0,3.3,0,5,0c0-0.3,0-0.7,0-1c-1.6-0.6-2.3-0.9-5-1
				C778.6,384.1,778.6,384.8,778.6,385.5z M1232.7,389.5c0,1,0,2,0,3c1,0,2,0,3,0C1234.9,389.7,1235.4,390.2,1232.7,389.5z
				 M1237.6,394.5c0-0.3,0-0.7,0-1c-1,0-2,0-3,0c0.6,2-0.1,0.9,1,2c0,0.3,0,0.7,0,1c1,0,2,0,3,0
				C1238,394.5,1238.8,395.6,1237.6,394.5z M40,399.4c0.3,0,0.7,0,1,0c0.8,1.1-0.1,0.2,1,1c0.6-1.5,0.8-1.6,1-4c-1,0-2,0-3,0
				C40,397.4,40,398.4,40,399.4z M741.9,397.4c0,0.7,0,1.3,0,2c-1,0-2,0-3,0c0,1,0,2,0,3c2.3,0,4.6,0,6.9,0c0-1.3,0-2.7,0-4
				c-0.3,0-0.7,0-1,0c0-0.3,0-0.7,0-1C743.9,397.4,742.9,397.4,741.9,397.4z M1010.6,400.4c-0.3,0-0.7,0-1,0c0,0.3,0,0.7,0,1
				c1.7-0.3,3.3-0.7,5-1c0-0.7,0-1.3,0-2C1012.4,398.9,1011.7,399.1,1010.6,400.4z M987.8,413.4c0,0.3,0,0.7,0,1c0.3,0,0.7,0,1,0
				c0,0.3,0,0.7,0,1c2.4,0.8,2-1.6,3-2c1,0,2,0,3,0c0-0.3,0-0.7,0-1c1,0,2,0,3,0c0.3-0.7,0.7-1.3,1-2c1.3,0,2.6,0,4,0
				c-0.3-1-0.7-2-1-3C996.6,408.1,992.1,411.5,987.8,413.4z M581.3,414.4c-2,0-4,0-5.9,0c0,1,0,2,0,3c0.3,0,0.7,0,1,0
				c0,0.3,0,0.7,0,1C579.9,418.1,580.6,417.6,581.3,414.4z M569.4,420.4c0-0.3,0-0.7,0-1c0.3,0,0.7,0,1,0c0-1,0-2,0-3
				c-1.7,0-3.3,0-5,0c0-0.3,0-0.7,0-1c-4.1-0.1-5.1-0.4-5.9,3c1.7,0.3,3.3,0.7,5,1c0,0.3,0,0.7,0,1
				C566.1,420.4,567.7,420.4,569.4,420.4z M547.6,417.4c-0.8,1.1,0.1,0.2-1,1c0,0.3,0,0.7,0,1c1.8,0.8,2.6,1.5,5,2
				c-0.6-2.4-1-2.2-2-4C548.9,417.4,548.2,417.4,547.6,417.4z M553.5,421.4c1.3,0,2.6,0,4,0c0-0.7,0-1.3,0-2c-1.3,0-2.6,0-4,0
				C553.5,420.1,553.5,420.8,553.5,421.4z M339.4,429.4c0-0.7,0-1.3,0-2c-2.9-0.3-5.8-1.4-7.9-2c-2.6,0-5.3,0-7.9,0c0-0.3,0-0.7,0-1
				c-3.6-0.1-10-0.8-11.9,1c-0.3,0-0.7,0-1,0c0,1,0,2,0,3c0.7,0,1.3,0,2,0c0.3-0.7,0.7-1.3,1-2c2.3-0.8,5.4,2.5,6.9,3
				c2.6,0,5.3,0,7.9,0c0,0.3,0,0.7,0,1C331.4,430.6,338.2,431.2,339.4,429.4z M959,424.4c-1.3,0-2.6,0-4,0c0,1.7,0,3.3,0,5
				c3.2-0.4,2.9-0.9,5-2c0-0.7,0-1.3,0-2c-0.3,0-0.7,0-1,0C959,425.1,959,424.8,959,424.4z M511.9,425.4c0,1.3,0,2.7,0,4
				c4.2,0.1,7.1,0.2,8.9-2c0.3,0,0.7,0,1,0c0-0.3,0-0.7,0-1C519.4,425.5,515.7,425.3,511.9,425.4z M341.4,430.4c2.6,0.5,4.4,1,7.9,1
				c0-0.7,0-1.3,0-2c-3.2-0.8-3.4-1.9-7.9-2C341.4,428.4,341.4,429.4,341.4,430.4z M472.2,427.4c0,1.3,0,2.7,0,4c1.3,0,2.6,0,4,0
				C475.5,428.5,475.1,428.1,472.2,427.4z M489.1,431.4c0-0.7,0-1.3,0-2c-3.8-0.5-4.1-1.6-7.9-2c0,1,0,2,0,3c0.3,0,0.7,0,1,0
				c0,0.3,0,0.7,0,1C484.5,431.4,486.8,431.4,489.1,431.4z M494,427.4c-1.3,0-2.6,0-4,0c0.3,1,0.7,2,1,3
				C493.8,429.7,493.3,430.2,494,427.4z M365.2,432.4c-0.6-2,0.1-0.9-1-2c-1.2-1.1-11-2.1-13.9-2c0,1,0,2,0,3c3.3,0.3,6.6,0.7,9.9,1
				c0,0.3,0,0.7,0,1C361.9,433.1,363.5,432.8,365.2,432.4z M448.4,429.4c-0.3,1-0.7,2-1,3c1,0,2,0,3,0c-0.6-2,0.1-0.9-1-2
				C448.6,429.3,449.6,430.3,448.4,429.4z M497,433.4c-1.7-0.7-3.1-1-5.9-1c0,0.7,0,1.3,0,2c2,0,4,0,5.9,0
				C497,434.1,497,433.8,497,433.4z M163.9,434.4c-0.3,0.7-0.7,1.3-1,2c0,0.3,0,0.7,0,1c0.3,0,0.7,0,1,0c0.8,1.1-0.1,0.2,1,1
				c0.8-1.1-0.1-0.2,1-1C165.2,435.1,165.6,435.5,163.9,434.4z M194.6,434.4c0,1,0,2,0,3c1,0,2,0,3,0
				C196.8,434.7,197.4,435.1,194.6,434.4z M459.3,438.4c0-1,0-2,0-3c-0.3,0-0.7,0-1,0c-1.3-0.6,0.4-1.2-1-1c0,0.3,0,0.7,0,1
				c-0.7,0.3-1.3,0.7-2,1c0.8,1.1-0.1,0.2,1,1c0,0.3,0,0.7,0,1C457.4,438.4,458.4,438.4,459.3,438.4z M441.5,436.4c0.7,1,1.3,2,2,3
				c1,0,2,0,3,0c-0.6-2.4-1-2.2-2-4c-0.7,0-1.3,0-2,0C441.6,436.5,442.6,435.6,441.5,436.4z M904.5,439.4c1.3,0,2.6,0,4,0
				c0-0.3,0-0.7,0-1c0.3,0,0.7,0,1,0c0-1,0-2,0-3c-2.8,0-4.2,0.3-5.9,1C903.8,437.4,904.2,438.4,904.5,439.4z M476.2,437.4
				c-1.1-1.1,0-0.4-2-1c-0.3,1-0.7,2-1,3c1.3,0,2.6,0,4,0C476.6,437.4,477.3,438.6,476.2,437.4z M199.6,441.4c-0.6-2,0.1-0.9-1-2
				c0-0.3,0-0.7,0-1c-0.3,0-0.7,0-1,0c0,0.3,0,0.7,0,1c-0.7,0-1.3,0-2,0c0.8,1.1-0.1,0.2,1,1c0,0.3,0,0.7,0,1
				C197.6,441.4,198.6,441.4,199.6,441.4z M911.4,441.4c0.6,2-0.1,0.9,1,2c0,0.3,0,0.7,0,1c1-0.3,2-0.7,3-1c0.3-1.3,0.7-2.7,1-4
				c-1-0.3-2-0.7-3-1C912.8,440.8,913.1,440.3,911.4,441.4z M505.9,439.4c0.6,2-0.1,0.9,1,2c0,0.3,0,0.7,0,1c1,0,2,0,3,0
				c-0.6-2,0.1-0.9-1-2c0-0.3,0-0.7,0-1C507.9,439.4,506.9,439.4,505.9,439.4z M177.8,447.4c0.7,0,1.3,0,2,0c0-1.3,0-2.7,0-4
				c-0.7,0-1.3,0-2,0C177.8,444.7,177.8,446.1,177.8,447.4z M851,457.4c-0.7,0-1.3,0-2,0c0,0.3,0,0.7,0,1c-2,0-4,0-5.9,0
				c0,0.3,0,0.7,0,1c-0.7,0-1.3,0-2,0c0,0.3,0,0.7,0,1c-2.6,0.3-5.3,0.7-7.9,1c0,0.3,0,0.7,0,1c-0.7,0-1.3,0-2,0c0,0.3,0,0.7,0,1
				c-1.3,0-2.6,0-4,0c0,0.3,0,0.7,0,1c-1,0-2,0-3,0c0,0.3,0,0.7,0,1c-1,0-2,0-3,0c0,0.3,0,0.7,0,1c-3-0.3-5.9-0.7-8.9-1
				c1.4,2,1.6,1.9,5,2c-0.3,1-0.7,2-1,3c2.3-0.3,4.6-0.7,6.9-1c0-0.3,0-0.7,0-1c0.7,0,1.3,0,2,0c0-0.3,0-0.7,0-1c1.7,0,3.3,0,5,0
				c0-0.3,0-0.7,0-1c0.7,0,1.3,0,2,0c0-0.3,0-0.7,0-1c3-0.3,5.9-0.7,8.9-1c0-0.3,0-0.7,0-1c1.7-0.3,3.3-0.7,5-1c0,1,0,2,0,3
				c1,0,2,0,3,0c0,0.3,0,0.7,0,1c0.3,0,0.7,0,1,0c0-1,0-2,0-3c-1,0-2,0-3,0c0-0.3,0-0.7,0-1c2.6-1,5.3-2,7.9-3c1,0,2,0,3,0
				c0-0.3,0-0.7,0-1c2.7-0.8,2.3-0.2,3-3c-3.3,0.3-6.6,0.7-9.9,1C851,456.7,851,457.1,851,457.4z M275.9,480.4
				c-0.5-5.1-1.9-4.4-5.9-6c0-0.3,0-0.7,0-1c-2.3,0-4.6,0-6.9,0c0-0.3,0-0.7,0-1c-0.7,0-1.3,0-2,0c0-0.3,0-0.7,0-1c-1.3,0-2.6,0-4,0
				c-0.8-0.4,0.1-1.4-3-2c-0.3,1-0.7,2-1,3c0.7,0,1.3,0,2,0c0.3,1,0.7,2,1,3c2.3,0,4.6,0,6.9,0c0,1.3,0,2.7,0,4
				c2.6-0.3,5.3-0.7,7.9-1c0,0.3,0,0.7,0,1C272.6,479.7,274.3,480,275.9,480.4z M779.6,474.4c-2.5,0.2-3.4,0.1-5,1c0,0.3,0,0.7,0,1
				c-1,0-2,0-3,0c0,0.3,0,0.7,0,1c-1.3,0-2.6,0-4,0c0,0.3,0,0.7,0,1c-4.3,0.3-8.6,0.7-12.9,1c0,0.3,0,0.7,0,1c-1,0-2,0-3,0
				c0,0.3,0,0.7,0,1c-2.3,0.3-4.6,0.7-6.9,1c-0.3,0.7-0.7,1.3-1,2c-3.5,1.9-3.4-1.5-5,4c11.7-0.1,35.6-5,40.6-11c1.1-1.1,0.4,0,1-2
				c-0.3,0-0.7,0-1,0C779.6,475.1,779.6,474.7,779.6,474.4z M281.9,478.4c-1.3,0-2.6,0-4,0c0,0.7,0,1.3,0,2c1.3,0,2.6,0,4,0
				C281.9,479.7,281.9,479.1,281.9,478.4z M721.1,481.4c-1.5-0.6-1.6-0.8-4-1c0,1,0,2,0,3c1.7-0.3,3.3-0.7,5-1c0,0,0.9,1.5,3,1
				c0-0.3,0-0.7,0-1c1,0,2,0,3,0c0.3-1,0.7-2,1-3c-2.6,0-5.3,0-7.9,0C721.1,480,721.1,480.7,721.1,481.4z M462.3,483.4
				c0,0.3,0,0.7,0,1c1.7-0.3,3.3-0.7,5-1c0-0.7,0-1.3,0-2c-2,0-4,0-5.9,0C461.9,483.4,461.2,482.2,462.3,483.4z M273,485.4
				c2,0.3,4,0.7,5.9,1c0-1.3,0-2.7,0-4C274.8,482.3,273.8,482,273,485.4z M301.7,483.4c-1.1-1.1,0-0.4-2-1c-0.3,1-0.7,2-1,3
				c1.3,0,2.6,0,4,0C302.1,483.4,302.8,484.5,301.7,483.4z M325.5,484.4c-1,0-2,0-3,0c0,1,0,2,0,3c1.1,0.9,0.2-0.1,1,1c1,0,2,0,3,0
				c0-0.3,0-0.7,0-1c1.1-0.9,0.2,0.1,1-1c-0.7,0-1.3,0-2,0C325.5,485.7,325.5,485,325.5,484.4z M308.6,488.4c0-0.7,0-1.3,0-2
				c-1.7-0.1-3.7-1-4-1c0,0.3,0,0.7,0,1c-0.7,0-1.3,0-2,0c0,0.7,0,1.3,0,2C304.7,488.4,306.7,488.4,308.6,488.4z M289.8,486.4
				c-1.3,0-2.6,0-4,0c0,1,0,2,0,3c1,0,2,0,3,0C289.1,488.4,289.5,487.4,289.8,486.4z M328.5,486.4c0,0.7,0,1.3,0,2
				c1.3,0.3,2.6,0.7,4,1c0,0.3,0,0.7,0,1c2.8,0.5,2.6-1.9,3-2c2.2-0.5,2.6,1.3,4,2c0.3-1,0.7-2,1-3
				C337.5,486.3,332.7,486.3,328.5,486.4z M714.1,489.4c0.3,0,0.7,0,1,0c0.8,1.1-0.1,0.2,1,1c0.6-1.3,1-2.1,2-3c0-0.3,0-0.7,0-1
				c-1.3,0-2.6,0-4,0C714.1,487.4,714.1,488.4,714.1,489.4z M320.5,489.4c0-0.7,0-1.3,0-2c-3.3,0-6.6,0-9.9,0c0,1,0,2,0,3
				c7.1,0.4,10.6,3.5,16.9,4C326.6,490.7,324.3,490,320.5,489.4z M344.3,487.4c-0.8,1.1,0.1,0.2-1,1c0.8,2.7,0.2,2.3,3,3
				c0-1,0-2,0-3c-0.3,0-0.7,0-1,0C344.5,487.3,345.5,488.2,344.3,487.4z M706.2,487.4c0,0.3,0,0.7,0,1c-0.3,0-0.7,0-1,0c0,1,0,2,0,3
				c3.3-0.1,4.5-0.6,6.9-1c-0.3-1-0.7-2-1-3C709.5,487.4,707.9,487.4,706.2,487.4z M699.3,490.4c-1.1-1.1,0-0.4-2-1
				c-0.8,1.1,0.1,0.2-1,1c0.3,1,0.7,2,1,3c1.7,0,3.3,0,5,0C701.5,490.7,702,491.1,699.3,490.4z M120.3,493.4c1.3,0,2.6,0,4,0
				c0-0.7,0-1.3,0-2c-1.3,0-2.6,0-4,0C120.3,492,120.3,492.7,120.3,493.4z M330.5,493.4c1,0,2,0,3,0c0-0.7,0-1.3,0-2c-1,0-2,0-3,0
				C330.5,492,330.5,492.7,330.5,493.4z M126.2,493.4c0.3,0.7,0.7,1.3,1,2c2,0.6,0.9-0.1,2,1c1,0,2,0,3,0c0-0.3,0-0.7,0-1
				c0.3,0,0.7,0,1,0c-0.3-1-0.7-2-1-3C129.3,492.4,127.9,492.7,126.2,493.4z M380,495.4c-3.8-0.8-8.6-2.1-11.9-3
				c-0.7,0.3-1.3,0.7-2,1c0-0.3,0-0.7,0-1c-2.6-0.8-7.8-0.1-8.9,1c-2.7,0.8-2.3,0.2-3,3c7.1,0.2,14.6,2,20.8,3c2-0.3,4-0.7,5.9-1
				C380.7,497.4,380.4,496.4,380,495.4z M420.7,496.4c-0.6-1.5-0.5-2.7-1-4c-1,0-2,0-3,0c0,0.3,0,0.7,0,1c-0.3,0-0.7,0-1,0
				c0.3,1,0.7,2,1,3c-1-0.3-2-0.7-3-1c0,0.3,0,0.7,0,1c-0.7,0-1.3,0-2,0c2.4,3.5,2.2,0.2,5,2c0,0.3,0,0.7,0,1c1.7,0,3.3,0,5,0
				c0-0.3,0-0.7,0-1c0.3,0,0.7,0,1,0C422.4,497.9,420.7,496.4,420.7,496.4z M615,492.4c-2,0.6-0.9-0.1-2,1c-0.3,0-0.7,0-1,0
				c0,0.3,0,0.7,0,1c1,0.3,2,0.7,3,1C615,494.4,615,493.4,615,492.4z M674.5,497.4c0-1.3,0-2.7,0-4c-1,0-2,0-3,0c0,0.3,0,0.7,0,1
				c-0.3,0-0.7,0-1,0C671.7,496.3,671.9,496.7,674.5,497.4z M381,500.4c3.9,1.5,7.4,1.6,10.9,1c0-1.3,0-2.7,0-4c-3.3,0-6.6,0-9.9,0
				C381.7,498.4,381.4,499.4,381,500.4z M429.6,501.4c1,0,2,0,3,0c0-1,0-2,0-3c-1,0-2,0-3,0C429.6,499.4,429.6,500.4,429.6,501.4z
				 M137.1,499.4c-0.3,0-0.7,0-1,0c0,0.3,0,0.7,0,1c-0.3,0-0.7,0-1,0c0.8,2.7,0.2,2.3,3,3c0-1,0-2,0-3c-0.3,0-0.7,0-1,0
				C137.1,500,137.1,499.7,137.1,499.4z M402.8,499.4c-0.3,0.7-0.7,1.3-1,2c-0.5,0.1-6.6-1-8.9-1c0,1,0,2,0,3c1.1,0.9,0.2-0.1,1,1
				c3.8,0.8,5.8,2,10.9,2c-0.6-2,0.1-0.9-1-2c0-0.3,0-0.7,0-1c2,0.3,4,0.7,5.9,1c0,0.3,0,0.7,0,1c3.6-0.3,7.3-0.7,10.9-1
				c0-1,0-2,0-3C417.3,500.7,407.6,497.5,402.8,499.4z M487.1,499.4c-1.3,0-2.6,0-4,0c0,0.7,0,1.3,0,2c1.3,0.3,2.6,0.7,4,1
				C487.1,501.4,487.1,500.4,487.1,499.4z M593.2,502.4c1,0,2,0,3,0c0-0.3,0-0.7,0-1c0.3,0,0.7,0,1,0c0-0.3,0-0.7,0-1
				c-1.6-0.6-2.3-0.9-5-1C592.5,500.4,592.9,501.4,593.2,502.4z M607.1,499.4c-1,0-2,0-3,0c0,1,0,2,0,3c0.3,0,0.7,0,1,0
				c0,0.3,0,0.7,0,1c1,0,2,0,3,0c0-0.3,0-0.7,0-1c0.3,0,0.7,0,1,0c0-0.3,0-0.7,0-1c-0.3,0-0.7,0-1,0
				C607.7,500.7,607.4,500,607.1,499.4z M547.6,502.4c0-0.3,0-0.7,0-1c-1,0-2,0-3,0c0.6,2-0.1,0.9,1,2c0,0.3,0,0.7,0,1c1,0,2,0,3,0
				C548,502.4,548.7,503.5,547.6,502.4z M589.2,506.4c1,0,2,0,3,0c0-1,0-2,0-3c-1,0-2,0-3,0C589.2,504.4,589.2,505.4,589.2,506.4z
				 M273,504.4c0.6,2.4,1,2.2,2,4c1.3,0,2.6,0,4,0c1.4,0.3-0.4,1.2,1,1c0-0.3,0-0.7,0-1c1,0,2,0,3,0c-0.3-1-0.7-2-1-3
				C279.2,504.8,276.7,504.3,273,504.4z M552.5,507.4c0.3,0,0.7,0,1,0c0,0.3,0,0.7,0,1c2.3,0,4.6,0,6.9,0c0-0.3,0-0.7,0-1
				c0.3,0,0.7,0,1,0c0-0.3,0-0.7,0-1c-2.7-1.1-5.2-1.9-8.9-2C552.5,505.4,552.5,506.4,552.5,507.4z M738.9,506.4c1.3,0,2.6,0,4,0
				c0-0.7,0-1.3,0-2c-1.3,0-2.6,0-4,0C738.9,505,738.9,505.7,738.9,506.4z M151,509.4c1.3,0.3,2.6,0.7,4,1c0.3-1,0.7-2,1-3
				c-1.7-0.3-3.3-0.7-5-1C151,507.4,151,508.4,151,509.4z M287.8,508.4c-0.3,0-0.7,0-1,0c0,0.3,0,0.7,0,1c0.3,0,0.7,0,1,0
				c1.1,1.1,0,0.4,2,1c0.3-1,0.7-2,1-3c-1,0-2,0-3,0C287.8,507.7,287.8,508,287.8,508.4z M408.8,509.4c1.3,0,2.6,0,4,0
				c0-0.7,0-1.3,0-2c-1.3,0-2.6,0-4,0C408.8,508,408.8,508.7,408.8,509.4z M543.6,508.4c-0.3,0-0.7,0-1,0c0,0.3,0,0.7,0,1
				c1.3,0,2.6,0,4,0c0,0.3,0,0.7,0,1c0.3,0,0.7,0,1,0c0-1,0-2,0-3c-1.3,0-2.6,0-4,0C543.6,507.7,543.6,508,543.6,508.4z
				 M313.6,515.4c0-0.3,0-0.7,0-1c-3.3,0-6.6,0-9.9,0c-2.3-0.7-4.3-1.9-7.9-2c0.7,2.8,1.8,2.9,3,5c2.3,0.3,4.6,0.7,6.9,1
				c0.6,2-0.1,0.9,1,2c0,0.3,0,0.7,0,1c0.3,0,0.7,0,1,0c0.3-0.7,0.7-1.3,1-2c3.3,0.3,6.6,0.7,9.9,1c-0.2-2.4-0.4-2.5-1-4
				C316.2,515.8,315.3,516,313.6,515.4z M672.5,518.4c1,0,2,0,3,0c0-0.3,0-0.7,0-1c0.3,0,0.7,0,1,0c0-0.3,0-0.7,0-1
				c-1.6-0.6-2.3-0.9-5-1C671.8,516.4,672.2,517.4,672.5,518.4z M323.5,520.4c0-1,0-2,0-3c-1,0-2,0-3,0
				C321.3,520.1,320.8,519.6,323.5,520.4z M526.8,519.4c1.3,0,2.6,0,4,0c0-0.7,0-1.3,0-2c-1.3,0-2.6,0-4,0
				C526.8,518,526.8,518.7,526.8,519.4z M486.1,527.3c1.3,0,2.6,0,4,0c0-0.7,0-1.3,0-2c-1.3,0-2.6,0-4,0
				C486.1,526,486.1,526.7,486.1,527.3z"/>
		</g>
	</g>
</g>
</svg>
