<?xml version="1.0" standalone="no"?>
<!DOCTYPE svg PUBLIC "-//W3C//DTD SVG 1.1//EN" "http://www.w3.org/Graphics/SVG/1.1/DTD/svg11.dtd">
<!--Generator: Xara Designer (www.xara.com), SVG filter version: 6.6.0.8-->
<svg fill-rule="evenodd" stroke-width="0" stroke-linejoin="bevel" stroke-miterlimit="10" xmlns:xlink="http://www.w3.org/1999/xlink" xmlns="http://www.w3.org/2000/svg" version="1.1" overflow="visible" width="492.001pt" height="455.885pt" viewBox="69.748 -519.371 492.001 455.885">
 <defs>
	</defs>
 <g id="Layer 1" transform="scale(1 -1)">
  <path d="M 83.748,284.25 C 79.748,286.25 75.748,290.25 69.748,294.25 C 73.748,298.25 77.748,304.25 81.748,310.25 C 83.748,308.25 85.748,310.25 89.748,312.25 L 87.748,314.25 C 99.748,322.25 85.748,320.25 97.748,328.25 C 99.748,328.25 99.748,328.25 101.748,328.25 C 109.748,330.25 99.748,334.25 109.748,334.25 C 107.748,332.25 111.748,330.25 113.748,332.25 L 111.748,334.25 C 113.748,336.25 113.748,334.25 115.748,336.25 C 113.748,336.25 113.748,338.25 115.748,340.25 L 111.748,340.25 L 119.748,340.25 C 121.748,344.25 127.748,348.25 127.748,350.25 C 127.748,350.25 133.748,358.25 137.748,356.25 C 135.748,356.25 137.748,360.25 135.748,362.25 C 139.748,362.25 145.748,366.25 145.748,370.25 L 145.748,370.25 C 151.748,380.25 161.748,380.25 165.748,388.25 C 167.748,386.25 169.748,390.25 171.748,386.25 C 181.748,390.25 179.748,404.25 189.748,398.25 C 193.748,400.25 191.748,404.25 191.748,406.25 L 189.748,406.25 C 195.748,412.25 197.748,412.25 201.748,418.25 C 203.748,420.25 209.748,416.25 211.748,420.25 C 209.748,420.25 211.748,422.25 211.748,422.25 C 209.748,422.25 209.748,422.25 209.748,424.25 C 209.748,424.25 211.748,424.25 211.748,424.25 C 211.748,424.25 211.748,424.25 211.748,424.25 C 213.748,426.25 213.748,424.25 213.748,424.25 C 213.748,424.25 213.748,424.25 213.748,422.25 C 213.748,426.25 221.748,428.25 217.748,432.25 C 225.748,438.25 233.748,442.25 239.748,446.25 C 239.748,448.25 235.748,448.25 233.748,446.25 L 237.748,450.25 C 239.748,456.25 237.748,452.25 235.748,452.25 C 237.748,460.25 249.748,460.25 251.748,468.25 L 253.748,468.25 L 253.748,468.25 C 253.748,468.25 257.748,468.25 257.748,468.25 C 257.748,470.25 253.748,472.25 257.748,474.25 C 257.748,478.25 265.748,480.25 269.748,482.25 C 267.748,480.25 269.748,480.25 271.749,480.25 C 273.749,482.25 271.749,484.25 273.749,484.25 L 271.749,486.25 C 273.749,484.25 277.748,488.25 279.748,488.25 C 279.748,490.25 275.748,488.25 273.749,488.25 C 279.748,494.25 277.749,490.25 283.749,496.25 C 287.749,498.25 285.749,494.25 287.749,492.25 C 291.748,496.25 295.748,498.25 297.748,502.25 L 297.748,500.25 C 303.748,504.25 307.748,508.25 309.748,512.25 C 363.749,534.25 339.748,498.25 339.748,498.25 C 329.748,478.25 315.748,476.25 295.748,460.25 C 279.748,442.25 279.748,434.25 261.748,420.25 C 253.748,412.25 245.748,404.25 235.748,396.25 C 229.748,396.25 225.748,386.25 217.748,384.25 L 217.748,380.25 C 215.748,380.25 213.748,378.25 211.749,376.25 L 211.749,376.25 C 207.748,376.25 205.749,372.25 203.749,372.25 L 203.749,372.25 L 201.749,370.25 L 203.749,370.25 C 197.749,368.25 193.749,364.25 191.749,360.25 L 189.748,362.25 C 183.749,352.25 177.748,354.25 173.749,344.25 L 173.749,344.25 C 159.748,340.25 163.749,326.25 149.748,322.25 C 151.749,322.25 149.748,320.25 151.749,320.25 C 149.748,318.25 149.748,318.25 147.748,318.25 L 147.748,318.25 L 191.749,316.249 L 195.749,314.249 C 203.749,318.249 215.749,314.249 223.749,316.249 L 223.749,314.249 C 225.749,314.249 225.749,316.249 227.749,316.249 C 251.749,316.249 275.749,312.25 297.749,316.249 C 299.749,318.25 305.749,316.249 307.749,318.25 C 315.749,316.249 321.749,316.249 329.749,316.249 L 329.749,316.249 L 333.749,316.249 C 333.749,316.249 333.749,316.249 333.749,316.249 C 337.749,314.249 343.749,316.249 347.749,316.249 L 347.749,316.249 C 373.749,316.249 399.749,312.25 425.749,316.249 C 437.749,320.249 451.749,314.249 465.749,318.25 C 467.749,320.25 497.749,318.25 499.749,318.25 L 495.749,316.249 C 505.749,314.249 511.749,318.25 519.749,316.249 L 519.749,316.249 C 521.749,316.249 521.749,310.249 535.749,318.25 L 535.749,318.25 C 535.749,318.25 535.749,318.25 537.749,318.25 L 535.749,316.249 C 537.749,316.249 537.749,314.249 539.749,314.249 C 539.749,314.249 539.749,314.249 539.749,316.249 L 543.749,316.249 L 545.749,318.25 C 547.749,316.249 545.749,314.25 549.749,316.249 C 547.749,314.249 551.749,314.249 551.749,312.25 C 551.749,312.25 551.749,312.25 553.749,314.25 C 555.749,314.25 559.749,312.25 561.749,312.25 C 561.749,312.25 551.749,306.249 549.749,304.25 C 553.749,304.25 549.749,304.25 549.749,302.25 L 549.749,302.25 C 547.749,302.25 547.749,300.249 545.749,300.249 C 545.749,300.249 545.749,300.249 545.749,300.249 L 545.749,300.249 C 545.749,300.249 545.749,300.249 545.749,300.249 C 545.749,300.249 545.749,300.249 545.749,300.249 L 545.749,300.249 C 545.749,300.249 543.749,300.249 543.749,300.249 L 543.749,298.249 C 545.748,296.25 537.748,290.25 535.748,290.25 C 533.748,288.25 531.748,290.25 527.748,290.25 C 523.748,290.25 525.748,288.25 523.748,286.25 C 521.748,286.25 523.748,288.25 523.748,288.25 L 519.749,286.25 C 521.748,286.25 519.749,284.25 519.749,284.25 C 517.749,284.25 513.748,282.25 511.748,284.25 C 507.749,282.25 507.749,282.25 505.748,282.25 C 505.748,282.25 507.748,284.25 507.748,284.25 C 505.748,282.25 507.748,284.25 507.748,284.25 C 505.748,286.25 495.748,278.25 495.748,282.25 L 495.748,282.25 C 495.748,284.25 495.748,286.249 493.748,288.25 L 495.748,286.25 L 493.748,288.25 C 491.748,288.25 493.748,286.25 493.748,286.25 C 491.748,288.25 487.748,286.25 485.748,286.25 L 489.748,292.25 C 487.748,290.25 481.748,288.25 481.748,290.25 L 479.748,288.25 C 473.748,284.25 475.748,290.25 473.748,288.25 L 471.748,286.249 L 473.748,286.249 C 471.748,284.249 469.748,284.249 467.748,282.25 C 467.748,282.25 467.748,282.25 467.748,282.25 C 467.748,282.25 467.748,282.25 467.748,282.25 L 467.748,282.25 C 467.748,284.25 465.748,284.25 463.748,284.25 C 461.748,284.25 459.748,286.25 455.748,282.25 L 453.748,284.25 L 449.748,282.25 L 449.748,280.249 C 451.748,280.249 457.748,280.249 461.748,280.249 L 461.748,280.249 C 459.748,280.249 457.748,280.249 455.748,280.249 C 455.748,280.249 453.748,278.249 453.748,276.249 L 455.748,278.25 C 447.748,278.25 447.748,278.25 439.748,276.25 L 439.748,276.25 C 437.748,276.25 435.748,278.25 435.748,276.25 C 431.748,276.25 425.748,274.25 423.748,272.25 L 423.748,274.25 C 421.748,274.25 421.748,270.249 421.748,274.25 L 419.748,274.25 C 417.748,274.25 417.748,276.25 415.748,274.25 C 415.748,274.25 415.748,274.25 415.748,274.25 C 415.748,274.25 415.748,274.25 415.748,274.25 C 415.748,274.25 415.748,274.25 415.748,274.25 C 415.748,274.25 415.748,274.25 415.748,274.25 C 411.748,274.25 415.748,276.25 411.748,274.25 C 409.748,272.25 409.748,276.25 409.748,276.25 L 407.748,272.25 C 403.748,270.249 403.748,274.25 399.748,274.25 C 397.748,272.25 395.748,270.249 397.748,268.25 C 395.748,270.25 397.748,270.25 393.748,272.25 C 393.748,270.25 393.748,270.25 393.748,270.25 C 391.748,268.25 391.748,272.25 389.748,272.25 C 389.748,274.25 387.748,278.25 387.748,278.25 L 387.748,278.25 C 385.748,280.25 383.748,280.25 381.748,278.25 L 381.748,276.25 L 379.748,276.25 L 379.748,274.25 L 375.748,274.25 L 375.748,274.25 C 375.748,274.25 371.748,274.25 371.748,274.25 L 371.748,274.25 C 367.748,272.25 363.748,274.25 359.748,276.25 L 359.748,274.25 C 357.748,272.25 359.748,276.25 357.748,276.25 L 357.748,274.25 C 355.748,276.25 355.748,274.25 353.748,272.25 L 353.748,274.25 L 351.748,274.25 C 349.748,274.25 349.748,270.25 349.748,270.25 L 347.748,272.25 L 347.748,270.25 C 345.748,272.25 345.748,270.25 343.748,272.25 C 343.748,272.25 343.748,270.25 343.748,270.25 L 339.748,274.25 L 341.748,272.25 L 341.748,276.25 C 339.748,278.25 337.748,276.25 337.748,276.25 L 341.748,276.25 C 339.748,276.25 339.748,276.25 337.748,274.25 C 337.748,274.25 339.748,276.25 337.748,276.25 C 337.748,276.25 337.748,274.25 335.748,274.25 C 335.748,276.25 333.748,278.25 331.748,276.25 C 331.748,276.25 331.748,276.25 331.748,276.25 C 331.748,276.25 331.748,276.25 329.748,276.25 L 329.748,274.25 L 327.748,276.25 C 327.748,276.25 325.748,278.25 325.748,276.25 L 325.748,276.25 L 317.748,276.25 L 317.748,274.25 C 317.748,276.25 313.748,272.25 313.748,276.25 C 311.748,274.25 307.748,278.25 309.748,274.25 C 305.748,274.25 301.748,278.25 295.748,276.25 C 293.748,272.25 287.748,274.25 283.748,274.25 C 275.748,276.25 271.748,276.25 263.748,278.25 C 259.748,274.25 251.748,280.25 247.748,276.25 L 245.748,278.25 C 241.748,276.25 237.748,278.25 233.748,276.25 C 237.748,276.25 235.748,276.25 235.748,276.25 C 235.748,276.25 235.748,276.25 235.748,278.25 C 233.748,278.25 231.748,278.25 231.748,276.25 L 231.748,276.25 C 231.748,274.25 227.748,278.25 225.748,276.25 L 225.748,278.25 L 223.748,278.25 L 223.748,278.25 C 213.748,284.25 207.748,276.25 197.748,280.25 C 199.748,278.25 195.748,282.25 195.748,278.25 C 193.748,274.25 191.748,278.25 189.748,280.25 C 189.748,280.25 189.748,280.25 189.748,280.25 L 185.748,280.25 C 187.748,276.25 183.748,284.25 185.748,280.25 C 175.748,278.25 163.748,280.25 153.748,278.25 L 153.748,278.25 C 151.748,278.25 147.748,280.25 145.748,278.25 C 143.748,276.25 141.748,280.25 139.748,280.25 C 137.748,282.25 135.748,278.25 135.748,278.25 C 135.748,278.25 135.748,278.25 133.748,278.25 C 141.748,268.25 153.748,254.25 165.748,248.25 L 167.748,250.25 C 171.749,252.25 167.748,240.25 171.749,242.25 L 171.749,238.25 C 173.749,238.25 173.749,238.25 173.749,240.25 C 175.749,238.25 175.749,238.25 175.749,236.25 L 179.749,236.25 C 189.749,230.25 191.749,220.25 201.749,212.249 C 215.749,206.25 229.749,184.25 239.749,172.249 C 249.749,152.249 279.749,148.249 289.749,126.25 C 289.749,126.25 291.749,124.249 289.749,124.249 L 303.749,110.249 C 303.749,110.249 373.749,42.249 295.749,70.249 L 295.749,68.249 C 285.749,74.249 281.749,78.249 279.749,88.249 C 275.749,84.249 273.749,94.249 269.749,94.249 L 269.749,94.249 C 267.749,102.249 257.749,102.249 255.749,108.249 C 255.749,108.249 253.749,106.249 255.749,106.249 C 253.749,110.249 249.749,116.249 245.749,114.249 C 237.749,122.249 225.749,132.249 225.749,142.249 L 225.749,140.249 C 225.749,146.249 221.749,144.249 219.749,148.249 C 219.749,148.249 219.749,148.249 219.749,148.249 C 219.749,154.249 211.749,158.249 209.749,162.249 L 207.749,160.249 L 201.749,166.249 L 203.749,164.249 C 207.749,170.249 195.749,166.249 193.749,174.249 C 189.749,178.249 193.749,192.249 187.749,194.249 C 187.749,198.249 185.749,188.249 183.749,194.249 C 181.749,192.249 183.749,192.249 181.749,190.249 C 179.749,194.249 173.749,192.249 171.749,198.249 L 169.749,196.249 C 167.749,204.249 157.749,204.249 157.749,210.249 C 153.749,216.249 149.749,208.249 147.749,216.249 L 143.749,216.249 C 141.749,218.249 145.749,220.249 141.749,222.249 C 139.748,220.249 137.748,224.249 137.748,222.249 C 129.748,226.249 129.748,236.249 117.748,240.249 C 119.748,244.249 113.748,246.249 113.748,250.249 C 111.748,248.249 105.748,258.249 107.748,250.249 C 107.748,250.249 107.748,248.249 109.748,250.249 L 107.748,248.249 C 99.748,250.249 101.749,258.249 97.748,262.249 C 99.748,262.249 101.749,260.249 101.749,262.249 L 95.749,266.249 L 95.749,264.249 L 83.748,274.249 L 87.749,274.249 C 81.749,278.249 75.749,280.249 73.748,286.249 C 79.748,286.25 87.748,278.25 83.748,284.25 Z M 143.748,314.25 C 141.748,314.25 141.748,314.25 143.748,314.25 C 141.748,314.25 141.748,314.25 139.748,314.25 L 143.748,314.25 Z" fill-rule="nonzero" stroke-linejoin="miter" stroke="none" stroke-width="20" fill="#000000" marker-start="none" marker-end="none"/>
 </g>
</svg>
