<?xml version="1.0" standalone="no"?>
<!DOCTYPE svg PUBLIC "-//W3C//DTD SVG 1.1//EN" "http://www.w3.org/Graphics/SVG/1.1/DTD/svg11.dtd">
<!--Generator: Xara Designer (www.xara.com), SVG filter version: 6.6.0.8-->
<svg fill="inherit" fill-rule="evenodd" stroke-width="0" stroke-linejoin="bevel" stroke-miterlimit="10" xmlns:xlink="http://www.w3.org/1999/xlink" xmlns="http://www.w3.org/2000/svg" version="1.1" overflow="visible" width="492.001pt" height="455.885pt" viewBox="76.499 -544.871 492.001 455.885">
 <defs>
	</defs>
 <g id="Layer 1" transform="scale(1 -1)">
  <path d="M 554.5,309.75 C 558.5,311.75 562.5,315.75 568.5,319.75 C 564.5,323.75 560.5,329.75 556.5,335.75 C 554.5,333.75 552.5,335.75 548.5,337.75 L 550.5,339.75 C 538.5,347.75 552.5,345.75 540.5,353.75 C 538.5,353.75 538.5,353.75 536.5,353.75 C 528.5,355.75 538.5,359.75 528.5,359.75 C 530.5,357.75 526.5,355.75 524.5,357.75 L 526.5,359.75 C 524.5,361.75 524.5,359.75 522.5,361.75 C 524.5,361.75 524.5,363.75 522.5,365.75 L 526.5,365.75 L 518.5,365.75 C 516.5,369.75 510.5,373.75 510.5,375.75 C 510.5,375.75 504.5,383.75 500.5,381.75 C 502.5,381.75 500.5,385.75 502.5,387.75 C 498.5,387.75 492.5,391.75 492.5,395.75 L 492.5,395.75 C 486.5,405.75 476.5,405.75 472.5,413.75 C 470.5,411.75 468.5,415.75 466.5,411.75 C 456.5,415.75 458.5,429.75 448.5,423.75 C 444.5,425.75 446.5,429.75 446.5,431.75 L 448.5,431.75 C 442.5,437.75 440.5,437.75 436.5,443.75 C 434.5,445.75 428.5,441.75 426.5,445.75 C 428.5,445.75 426.5,447.75 426.5,447.75 C 428.5,447.75 428.5,447.75 428.5,449.75 C 428.5,449.75 426.5,449.75 426.5,449.75 C 426.5,449.75 426.5,449.75 426.5,449.75 C 424.5,451.75 424.5,449.75 424.5,449.75 C 424.5,449.75 424.5,449.75 424.5,447.75 C 424.5,451.75 416.5,453.75 420.5,457.75 C 412.5,463.75 404.5,467.75 398.5,471.75 C 398.5,473.75 402.5,473.75 404.5,471.75 L 400.5,475.75 C 398.5,481.75 400.5,477.75 402.5,477.75 C 400.5,485.75 388.5,485.75 386.5,493.75 L 384.5,493.75 L 384.5,493.75 C 384.5,493.75 380.5,493.75 380.5,493.75 C 380.5,495.75 384.5,497.75 380.5,499.75 C 380.5,503.75 372.5,505.75 368.5,507.75 C 370.5,505.75 368.5,505.75 366.499,505.75 C 364.499,507.75 366.499,509.75 364.499,509.75 L 366.499,511.75 C 364.499,509.75 360.5,513.75 358.5,513.75 C 358.5,515.75 362.5,513.75 364.499,513.75 C 358.5,519.75 360.499,515.75 354.499,521.75 C 350.499,523.75 352.499,519.75 350.499,517.75 C 346.5,521.75 342.5,523.75 340.5,527.75 L 340.5,525.75 C 334.5,529.75 330.5,533.75 328.5,537.75 C 274.499,559.75 298.5,523.75 298.5,523.75 C 308.5,503.75 322.5,501.75 342.5,485.75 C 358.5,467.75 358.5,459.75 376.5,445.75 C 384.5,437.75 392.5,429.75 402.5,421.75 C 408.5,421.75 412.5,411.75 420.5,409.75 L 420.5,405.75 C 422.5,405.75 424.5,403.75 426.499,401.75 L 426.499,401.75 C 430.5,401.75 432.499,397.75 434.499,397.75 L 434.499,397.75 L 436.499,395.75 L 434.499,395.75 C 440.499,393.75 444.499,389.75 446.499,385.75 L 448.5,387.75 C 454.499,377.75 460.5,379.75 464.499,369.75 L 464.499,369.75 C 478.5,365.75 474.499,351.75 488.5,347.75 C 486.499,347.75 488.5,345.75 486.499,345.75 C 488.5,343.75 488.5,343.75 490.5,343.75 L 490.5,343.75 L 446.499,341.749 L 442.499,339.749 C 434.499,343.749 422.499,339.749 414.499,341.749 L 414.499,339.749 C 412.499,339.749 412.499,341.749 410.499,341.749 C 386.499,341.749 362.499,337.75 340.499,341.749 C 338.499,343.75 332.499,341.749 330.499,343.75 C 322.499,341.749 316.499,341.749 308.499,341.749 L 308.499,341.749 L 304.499,341.749 C 304.499,341.749 304.499,341.749 304.499,341.749 C 300.499,339.749 294.499,341.749 290.499,341.749 L 290.499,341.749 C 264.499,341.749 238.499,337.75 212.499,341.749 C 200.499,345.749 186.499,339.749 172.499,343.75 C 170.499,345.75 140.499,343.75 138.499,343.75 L 142.499,341.749 C 132.499,339.749 126.499,343.75 118.499,341.749 L 118.499,341.749 C 116.499,341.749 116.499,335.749 102.499,343.75 L 102.499,343.75 C 102.499,343.75 102.499,343.75 100.499,343.75 L 102.499,341.749 C 100.499,341.749 100.499,339.749 98.499,339.749 C 98.499,339.749 98.499,339.749 98.499,341.749 L 94.499,341.749 L 92.499,343.75 C 90.499,341.749 92.499,339.75 88.499,341.749 C 90.499,339.749 86.499,339.749 86.499,337.75 C 86.499,337.75 86.499,337.75 84.499,339.75 C 82.499,339.75 78.499,337.75 76.499,337.75 C 76.499,337.75 86.499,331.749 88.499,329.75 C 84.499,329.75 88.499,329.75 88.499,327.75 L 88.499,327.75 C 90.499,327.75 90.499,325.749 92.499,325.749 C 92.499,325.749 92.499,325.749 92.499,325.749 L 92.499,325.749 C 92.499,325.749 92.499,325.749 92.499,325.749 C 92.499,325.749 92.499,325.749 92.499,325.749 L 92.499,325.749 C 92.499,325.749 94.499,325.749 94.499,325.749 L 94.499,323.749 C 92.5,321.75 100.5,315.75 102.5,315.75 C 104.5,313.75 106.5,315.75 110.5,315.75 C 114.5,315.75 112.5,313.75 114.5,311.75 C 116.5,311.75 114.5,313.75 114.5,313.75 L 118.499,311.75 C 116.5,311.75 118.499,309.75 118.499,309.75 C 120.499,309.75 124.5,307.75 126.5,309.75 C 130.499,307.75 130.499,307.75 132.5,307.75 C 132.5,307.75 130.5,309.75 130.5,309.75 C 132.5,307.75 130.5,309.75 130.5,309.75 C 132.5,311.75 142.5,303.75 142.5,307.75 L 142.5,307.75 C 142.5,309.75 142.5,311.749 144.5,313.75 L 142.5,311.75 L 144.5,313.75 C 146.5,313.75 144.5,311.75 144.5,311.75 C 146.5,313.75 150.5,311.75 152.5,311.75 L 148.5,317.75 C 150.5,315.75 156.5,313.75 156.5,315.75 L 158.5,313.75 C 164.5,309.75 162.5,315.75 164.5,313.75 L 166.5,311.749 L 164.5,311.749 C 166.5,309.749 168.5,309.749 170.5,307.75 C 170.5,307.75 170.5,307.75 170.5,307.75 C 170.5,307.75 170.5,307.75 170.5,307.75 L 170.5,307.75 C 170.5,309.75 172.5,309.75 174.5,309.75 C 176.5,309.75 178.5,311.75 182.5,307.75 L 184.5,309.75 L 188.5,307.75 L 188.5,305.749 C 186.5,305.749 180.5,305.749 176.5,305.749 L 176.5,305.749 C 178.5,305.749 180.5,305.749 182.5,305.749 C 182.5,305.749 184.5,303.749 184.5,301.749 L 182.5,303.75 C 190.5,303.75 190.5,303.75 198.5,301.75 L 198.5,301.75 C 200.5,301.75 202.5,303.75 202.5,301.75 C 206.5,301.75 212.5,299.75 214.5,297.75 L 214.5,299.75 C 216.5,299.75 216.5,295.749 216.5,299.75 L 218.5,299.75 C 220.5,299.75 220.5,301.75 222.5,299.75 C 222.5,299.75 222.5,299.75 222.5,299.75 C 222.5,299.75 222.5,299.75 222.5,299.75 C 222.5,299.75 222.5,299.75 222.5,299.75 C 222.5,299.75 222.5,299.75 222.5,299.75 C 226.5,299.75 222.5,301.75 226.5,299.75 C 228.5,297.75 228.5,301.75 228.5,301.75 L 230.5,297.75 C 234.5,295.749 234.5,299.75 238.5,299.75 C 240.5,297.75 242.5,295.749 240.5,293.75 C 242.5,295.75 240.5,295.75 244.5,297.75 C 244.5,295.75 244.5,295.75 244.5,295.75 C 246.5,293.75 246.5,297.75 248.5,297.75 C 248.5,299.75 250.5,303.75 250.5,303.75 L 250.5,303.75 C 252.5,305.75 254.5,305.75 256.5,303.75 L 256.5,301.75 L 258.5,301.75 L 258.5,299.75 L 262.5,299.75 L 262.5,299.75 C 262.5,299.75 266.5,299.75 266.5,299.75 L 266.5,299.75 C 270.5,297.75 274.5,299.75 278.5,301.75 L 278.5,299.75 C 280.5,297.75 278.5,301.75 280.5,301.75 L 280.5,299.75 C 282.5,301.75 282.5,299.75 284.5,297.75 L 284.5,299.75 L 286.5,299.75 C 288.5,299.75 288.5,295.75 288.5,295.75 L 290.5,297.75 L 290.5,295.75 C 292.5,297.75 292.5,295.75 294.5,297.75 C 294.5,297.75 294.5,295.75 294.5,295.75 L 298.5,299.75 L 296.5,297.75 L 296.5,301.75 C 298.5,303.75 300.5,301.75 300.5,301.75 L 296.5,301.75 C 298.5,301.75 298.5,301.75 300.5,299.75 C 300.5,299.75 298.5,301.75 300.5,301.75 C 300.5,301.75 300.5,299.75 302.5,299.75 C 302.5,301.75 304.5,303.75 306.5,301.75 C 306.5,301.75 306.5,301.75 306.5,301.75 C 306.5,301.75 306.5,301.75 308.5,301.75 L 308.5,299.75 L 310.5,301.75 C 310.5,301.75 312.5,303.75 312.5,301.75 L 312.5,301.75 L 320.5,301.75 L 320.5,299.75 C 320.5,301.75 324.5,297.75 324.5,301.75 C 326.5,299.75 330.5,303.75 328.5,299.75 C 332.5,299.75 336.5,303.75 342.5,301.75 C 344.5,297.75 350.5,299.75 354.5,299.75 C 362.5,301.75 366.5,301.75 374.5,303.75 C 378.5,299.75 386.5,305.75 390.5,301.75 L 392.5,303.75 C 396.5,301.75 400.5,303.75 404.5,301.75 C 400.5,301.75 402.5,301.75 402.5,301.75 C 402.5,301.75 402.5,301.75 402.5,303.75 C 404.5,303.75 406.5,303.75 406.5,301.75 L 406.5,301.75 C 406.5,299.75 410.5,303.75 412.5,301.75 L 412.5,303.75 L 414.5,303.75 L 414.5,303.75 C 424.5,309.75 430.5,301.75 440.5,305.75 C 438.5,303.75 442.5,307.75 442.5,303.75 C 444.5,299.75 446.5,303.75 448.5,305.75 C 448.5,305.75 448.5,305.75 448.5,305.75 L 452.5,305.75 C 450.5,301.75 454.5,309.75 452.5,305.75 C 462.5,303.75 474.5,305.75 484.5,303.75 L 484.5,303.75 C 486.5,303.75 490.5,305.75 492.5,303.75 C 494.5,301.75 496.5,305.75 498.5,305.75 C 500.5,307.75 502.5,303.75 502.5,303.75 C 502.5,303.75 502.5,303.75 504.5,303.75 C 496.5,293.75 484.5,279.75 472.5,273.75 L 470.5,275.75 C 466.499,277.75 470.5,265.75 466.499,267.75 L 466.499,263.75 C 464.499,263.75 464.499,263.75 464.499,265.75 C 462.499,263.75 462.499,263.75 462.499,261.75 L 458.499,261.75 C 448.499,255.75 446.499,245.75 436.499,237.749 C 422.499,231.75 408.499,209.75 398.499,197.749 C 388.499,177.749 358.499,173.749 348.499,151.75 C 348.499,151.75 346.499,149.749 348.499,149.749 L 334.499,135.749 C 334.499,135.749 264.499,67.749 342.499,95.749 L 342.499,93.749 C 352.499,99.749 356.499,103.749 358.499,113.749 C 362.499,109.749 364.499,119.749 368.499,119.749 L 368.499,119.749 C 370.499,127.749 380.499,127.749 382.499,133.749 C 382.499,133.749 384.499,131.749 382.499,131.749 C 384.499,135.749 388.499,141.749 392.499,139.749 C 400.499,147.749 412.499,157.749 412.499,167.749 L 412.499,165.749 C 412.499,171.749 416.499,169.749 418.499,173.749 C 418.499,173.749 418.499,173.749 418.499,173.749 C 418.499,179.749 426.499,183.749 428.499,187.749 L 430.499,185.749 L 436.499,191.749 L 434.499,189.749 C 430.499,195.749 442.499,191.749 444.499,199.749 C 448.499,203.749 444.499,217.749 450.499,219.749 C 450.499,223.749 452.499,213.749 454.499,219.749 C 456.499,217.749 454.499,217.749 456.499,215.749 C 458.499,219.749 464.499,217.749 466.499,223.749 L 468.499,221.749 C 470.499,229.749 480.499,229.749 480.499,235.749 C 484.499,241.749 488.499,233.749 490.499,241.749 L 494.499,241.749 C 496.499,243.749 492.499,245.749 496.499,247.749 C 498.5,245.749 500.5,249.749 500.5,247.749 C 508.5,251.749 508.5,261.749 520.5,265.749 C 518.5,269.749 524.5,271.749 524.5,275.749 C 526.5,273.749 532.5,283.749 530.5,275.749 C 530.5,275.749 530.5,273.749 528.5,275.749 L 530.5,273.749 C 538.5,275.749 536.499,283.749 540.5,287.749 C 538.5,287.749 536.499,285.749 536.499,287.749 L 542.499,291.749 L 542.499,289.749 L 554.5,299.749 L 550.499,299.749 C 556.499,303.749 562.499,305.749 564.5,311.749 C 558.5,311.75 550.5,303.75 554.5,309.75 Z M 494.5,339.75 C 496.5,339.75 496.5,339.75 494.5,339.75 C 496.5,339.75 496.5,339.75 498.5,339.75 L 494.5,339.75 Z" fill-rule="nonzero" stroke-linejoin="miter" stroke="none" stroke-width="20" fill="#000000" marker-start="none" marker-end="none"/>
 </g>
</svg>
