<?xml version="1.0" encoding="utf-8"?>
<!-- Generator: Adobe Illustrator 26.5.0, SVG Export Plug-In . SVG Version: 6.00 Build 0)  -->
<svg version="1.1" id="Ebene_1" xmlns="http://www.w3.org/2000/svg" xmlns:xlink="http://www.w3.org/1999/xlink" x="0px" y="0px"
	 viewBox="0 0 30 30" style="enable-background:new 0 0 30 30;" xml:space="preserve">
<style type="text/css">
	.st0{display:none;}
	.st1{display:inline;}
	.st2{fill:#1D1D1B;}
	.st3{fill:#FFFFFF;}
	.st4{fill:#1D1D1D;}
</style>
<g class="st0">
	<g class="st1">
		<g>
			<g>
				<g>
					<path class="st2" d="M5.6,0c0.9-0.8,1.3-0.9,2.1-1.8C8.2-2.3,8.6-2.8,9-3.2c0.1-0.3,0.5-0.5,0.7-0.9l0.2,0
						c0-0.1,0.1-0.2,0.2-0.3l0,0c0.1-0.2,0.2-0.3,0.3-0.4l0,0l0.1-0.2l0,0.1c0.2-0.3,0.4-0.5,0.6-0.6L11-5.5c0.5-0.3,0.5-0.6,1-0.9
						l0,0c0.2-0.7,0.9-0.6,1.2-1.3c0,0.1,0.1,0,0.1,0c0.2-0.2,0.4-0.5,0.3-0.7c0.2-0.2,0.2-0.1,0.3,0c-0.1-0.1,0-0.2,0.2-0.4l0,0.1
						L14.2-9L14-9c0.2-0.2,0.2,0.1,0.4-0.1l-0.1-0.1c0.3-0.3,0.8-0.4,1.4-0.9l0.2-0.2c-0.4-0.4-0.9-0.9-1.4-1.3
						c-0.3-0.2-0.6-0.5-0.8-0.7c-0.6-0.5-1.1-1-1.5-1.5l0-0.1c0.1-0.1-0.5-0.1-0.4-0.2l-0.2-0.1c0-0.1-0.1-0.1,0-0.1
						c-0.1-0.1-0.1-0.1-0.2-0.1l0-0.2c-0.4-0.5-0.9-0.7-1.3-1.2c-0.4-0.7-1.5-1.5-2.2-2c-1-0.6-1.4-2-2.5-2.7c0,0-0.1-0.1-0.1-0.1
						l-0.7-0.8c0,0-3.6-3.7-1.8,0.1l0,0c0.3,0.5,0.6,0.8,1,0.9c-0.1,0.2,0.3,0.4,0.4,0.5l0,0c0.4,0.1,0.4,0.6,0.8,0.8
						c0,0-0.1,0-0.1,0c0.2,0.2,0.5,0.4,0.4,0.5c0.4,0.4,1,1,1.4,1.2l0,0c0.3,0.1,0.2,0.2,0.4,0.3c0,0,0,0,0,0
						c0.3,0.1,0.5,0.5,0.7,0.6l-0.1,0.1L8-16.3l-0.1-0.1c0.2-0.1,0.1,0.4,0.5,0.5c0.2,0.2,0.8,0.1,1,0.4c0.2,0-0.2,0,0,0.1
						c-0.1,0.1-0.1,0-0.2,0.1c0.2,0.1,0.2,0.4,0.4,0.5l-0.1,0.1c0.4,0.1,0.4,0.6,0.7,0.6c0.3,0.2,0,0.4,0.4,0.5l0,0.2
						c0.1,0.1,0.2,0,0.3,0.2c-0.1,0.1,0.1,0.2,0,0.2c0.2,0.4,0.8,0.5,1,1.1c0.2,0,0.3,0.2,0.5,0.2c0,0.1,0.4,0.4,0.1,0.3
						c0,0-0.1,0,0-0.1l-0.1,0c0.1,0.4,0.5,0.3,0.7,0.6c0-0.1-0.1-0.2,0-0.2l0.2,0.2l-0.1,0c0.1,0.1,0.2,0.3,0.2,0.3l0.1-0.1
						c0,0.1-0.2,0.1,0,0.1c0.1,0,0.1-0.1,0.2,0c0,0,0,0.1,0,0.1c-0.1,0-0.2,0.1-0.2,0.1c0.1,0,0.1,0.1,0.1,0.1l-0.1-0.1
						c0,0.2-0.1-0.2-0.3,0.2l0-0.1l0.1,0.2c-0.1,0.4-0.3,0-0.4,0.5c0.1-0.1,0.2,0.1,0,0.2l0-0.1c-0.1,0.1-0.1,0.1-0.1,0.2
						c0-0.1-0.1-0.1-0.2,0l0-0.2L12.4-9c-0.2,0.1-0.4,0.4-0.6,0.4c0,0-0.4,0.3-0.4,0.5c0-0.1-0.2,0-0.2-0.1c0,0.2-0.2,0.5-0.4,0.5
						l0,0c-0.5,0.3-0.6,0.8-1,1c0.1,0.1-0.1,0.2,0,0.3C9.6-6,8.9-6,9.1-5.6C9-5.4,8.9-5.4,8.8-5.4l0-0.1C8.5-5.1,8.4-5,8.2-4.8
						C8.1-4.6,8.2-4.5,8-4.3c0-0.1-0.1,0-0.1,0c0-0.1,0-0.1-0.1,0c0,0,0,0.1,0,0.1c0,0,0,0,0,0C7.6-4,7.6-4,7.7-4.1c0,0,0,0,0.1,0
						C7.5-4,7.4-3.7,7.3-3.8C6.9-3.4,6.7-3,6.4-2.6c-0.1,0-0.1-0.1,0-0.3L6.3-2.6C6.2-2.7,6.3-2.8,6.4-2.9C6-2.7,6-2.2,5.5-2l0,0.1
						l0,0c0,0,0,0.1,0,0.2c-0.1,0-0.1-0.2-0.3,0C5-1.6,4.8-1.3,4.7-1.1c0.1-0.1,0.1,0,0.1,0C4.7-0.9,4.6-1,4.6-0.9L4.5-1
						c0.1,0.1-0.1,0.3-0.1,0.4c-0.1,0,0.1-0.2,0-0.2C4.1-0.5,4.3-0.7,3.9-0.4C3.8-0.1,4.1-0.3,4.1-0.1C3.9,0,3.8,0.2,3.6,0.3l0.1,0
						C3.5,0.7,3.4,0.9,3.1,1C1.6,3.7,3.5,2.3,3.5,2.3C4.5,1.7,4.7,1,5.6,0z"/>
				</g>
			</g>
		</g>
	</g>
</g>
<g>
	<path d="M23.8,18.1l-0.1,0C23.7,18.1,23.8,18.1,23.8,18.1z"/>
	<polygon points="20.1,19 20.1,19 20.1,19 	"/>
	<path d="M16.7,25.9C16.7,25.9,16.7,25.9,16.7,25.9c0,0,0,0.1,0,0.1L16.7,25.9z"/>
	<path d="M14.5,26.7c0.1,0.2,0.3,0.4,0.5,0.7c0.2-0.2,0.5-0.4,0.8-0.6c-0.1-0.1,0-0.2,0.1-0.4l0.1,0.1c0.4-0.6,0.3,0.1,0.7-0.5
		c0-0.1,0-0.1,0-0.2c0.1-0.4,0.3,0.1,0.3-0.4c-0.1,0.1-0.2-0.1-0.1-0.2l0.1,0.1c0.1-0.1,0-0.1,0.1-0.2c0,0.1,0.1,0.1,0.2,0l0,0.2
		l0-0.4c0.2-0.1,0.4-0.4,0.5-0.4c0,0,0.4-0.3,0.3-0.5c0,0.1,0.2,0,0.3,0.1c0-0.2,0.2-0.5,0.4-0.5l0,0c0.5-0.3,0.5-0.8,0.9-1
		c-0.1-0.1,0.1-0.2-0.1-0.3c0.2-0.5,0.9-0.4,0.6-0.9c0.1-0.2,0.3-0.1,0.4-0.1l0,0.1c0.3-0.3,0.3-0.4,0.6-0.6
		c0.1-0.1-0.1-0.4,0.1-0.5c0,0.1,0.1,0,0.1,0c0,0.1,0,0.1,0.1,0.1c0,0,0-0.1,0-0.1c0,0,0,0,0,0c0.1-0.1,0-0.1,0-0.1c0,0,0,0-0.1,0
		c0.2,0,0.3-0.4,0.5-0.2c0.3-0.4,0.5-0.8,0.7-1.1c0.1,0,0.1,0.2,0,0.3l0.2-0.2c0.1,0.1-0.1,0.2-0.1,0.3c0.4-0.1,0.4-0.7,0.8-0.8
		l0-0.1l0,0c0,0,0-0.2,0-0.2c0.1,0,0.2,0.2,0.3,0c0.2,0,0.3-0.4,0.4-0.6c-0.1,0.1-0.1,0-0.1-0.1c0.1-0.1,0.2,0,0.2-0.1l0.1,0.1
		c-0.1-0.1,0.1-0.3,0.1-0.4c0.1,0,0,0.2,0,0.3c0.3-0.3,0.1-0.2,0.4-0.5c0.1-0.2-0.1-0.1-0.2-0.2c0.1-0.2,0.2-0.4,0.4-0.5l-0.1,0
		c0.2-0.3,0.4-0.5,0.6-0.6c1.1-2.7-0.7-1.5-0.7-1.5c-1,0.5-1.1,1.2-1.9,2.2c-0.9,0.8-1.3,0.8-2,1.7c-0.4,0.4-0.8,0.8-1.2,1.3
		c0,0.3-0.5,0.5-0.6,0.9l-0.2,0c0,0.1-0.1,0.2-0.2,0.3l0,0c0,0.2-0.2,0.3-0.2,0.4l0,0l-0.1,0.1l0-0.1c-0.1,0.3-0.3,0.5-0.5,0.6
		l0.1,0.1c-0.5,0.3-0.4,0.6-0.9,0.8l0,0c-0.2,0.7-0.9,0.5-1.1,1.2c0-0.1-0.1,0-0.1-0.1c-0.1,0.1-0.1,0.1-0.1,0.2l0,0L16,21.2
		L15.9,21c0.2-0.4,0-1,0.1-1.4l-0.1,0c0-0.1,0.1-0.1,0.1-0.2c0-1.2-0.2-2.4,0-3.5c0.1-0.1,0-0.4,0.1-0.5c-0.1-0.4-0.1-0.7-0.1-1.1
		l0,0l0-0.2c0,0,0,0,0,0c-0.1-0.2,0-0.5,0-0.7l0,0c0-1.3-0.2-2.6,0-3.9c0.2-0.6-0.1-1.3,0.1-2c0.1-0.1,0-1.6,0-1.7L15.9,6
		c-0.1-0.5,0.1-0.8,0-1.2l0,0c0-0.1-0.3-0.1,0.1-0.8h0c0,0,0,0,0-0.1L15.9,4c0-0.1-0.1-0.1-0.1-0.2c0,0,0,0,0.1,0l0-0.2L16,3.4
		c-0.1-0.1-0.2,0-0.1-0.2c-0.1,0.1-0.1-0.1-0.2-0.1c0,0,0,0,0.1-0.1c0-0.1-0.1-0.3-0.1-0.4c0,0-0.3,0.5-0.4,0.6c0-0.2,0,0-0.1,0l0,0
		c0,0.1-0.1,0.1-0.1,0.2c0,0,0,0,0,0l0,0c0,0,0,0,0,0c0,0,0,0,0,0l0,0c0,0,0,0.1,0,0.1l-0.1,0c0.1,0.1-0.2,0.5-0.2,0.6
		c-0.1,0.1,0,0.2,0,0.4c0,0.2-0.1,0.1-0.2,0.2c0,0.1,0.1,0,0.1,0l-0.1,0.2c0-0.1-0.1,0-0.1,0c0,0.1-0.1,0.3,0,0.4
		c-0.1,0.2-0.1,0.2-0.1,0.3c0,0,0.1-0.1,0.1-0.1c-0.1,0.1,0,0,0,0C14.5,5.5,14.2,6,14.4,6h0c0.1,0,0.2,0,0.3,0.1l-0.1,0.1l0.1,0.1
		c0,0.1-0.1,0-0.1,0c0.1,0.1,0,0.3,0,0.4l0.3-0.2c-0.1,0.1-0.2,0.4-0.1,0.4L14.6,7c-0.2,0.3,0.1,0.2,0,0.3l-0.1,0.1l0-0.1
		c-0.1,0.1-0.1,0.2-0.2,0.3c0,0,0,0,0,0c0,0,0,0,0,0l0,0c0.1,0,0.1,0.1,0.1,0.2c0,0.1,0.1,0.2-0.1,0.4l0.1,0.1l-0.1,0.2h-0.1
		c0-0.1,0-0.4,0-0.6l0,0c0,0.1,0,0.2,0,0.3c0,0-0.1,0.1-0.2,0.1l0.1,0.1c0,0.4,0,0.4-0.1,0.8l0,0c0,0.1,0.1,0.2,0,0.2
		c0,0.2-0.1,0.5-0.2,0.6l0.1,0c0,0.1-0.2,0.1,0,0.1l0,0.1c0,0.1,0.1,0.1,0,0.2c0,0,0,0,0,0c0,0,0,0,0,0c0,0,0,0,0,0c0,0,0,0,0,0
		c0,0.2,0.1,0,0,0.2c-0.1,0.1,0.1,0.1,0.1,0.1l-0.2,0.1c-0.1,0.2,0.1,0.2,0.1,0.4c-0.1,0.1-0.2,0.2-0.3,0.1c0.1,0.1,0.1,0,0.2,0.2
		c-0.1,0-0.1,0-0.1,0c-0.1,0.1,0.1,0.1,0.1,0.2c0.1,0,0.3,0.1,0.3,0.1l0,0c0.1,0.1,0.1,0.2,0,0.3l-0.1,0l0,0.1l-0.1,0l0,0.2l0,0
		c0,0,0,0.2,0,0.2l0,0c-0.1,0.2,0,0.4,0.1,0.6l-0.1,0c-0.1,0.1,0.1,0,0.1,0.1l-0.1,0c0.1,0.1,0,0.1-0.1,0.2l0.1,0l0,0.1
		c0,0.1-0.2,0.1-0.2,0.1l0.1,0.1l-0.1,0c0.1,0.1,0,0.1,0.1,0.2c0,0-0.1,0-0.1,0l0.2,0.2L14,13.7l0.2,0c0.1,0.1,0,0.2,0,0.2l-0.1-0.1
		c0,0.1,0,0.1-0.1,0.2c0,0,0.1-0.1,0.1,0c0,0-0.1,0-0.1,0.1c0.1,0,0.2,0.1,0.1,0.2c0,0,0,0,0,0c0,0,0,0,0,0.1l-0.1,0l0.1,0.1
		c0,0,0.1,0.1,0,0.1l0,0l0,0.4l-0.1,0c0.1,0-0.1,0.2,0.1,0.2c-0.1,0.1,0.1,0.3-0.1,0.2c0,0.2,0.2,0.4,0.1,0.7
		c-0.2,0.1-0.1,0.4-0.1,0.6c0.1,0.4,0.1,0.6,0.2,1c-0.2,0.2,0.1,0.6-0.1,0.8l0.1,0.1c-0.1,0.2,0,0.4-0.1,0.6c0,0.1,0.1,0.1,0.1,0.1
		c0,0,0,0,0.1,0c0,0.1,0,0.2-0.1,0.2l0,0c-0.1,0,0.1,0.2,0,0.3l0.1,0l0,0.1l0,0c0.3,0.5-0.1,0.8,0.1,1.3c-0.1-0.1,0.1,0.1-0.1,0.1
		c-0.2,0.1,0,0.2,0.1,0.3c0,0,0,0,0,0l0,0.2c-0.2-0.1,0.2,0.1,0,0c-0.1,0.5,0,1.1-0.1,1.6l0,0c0,0.1,0.1,0.3,0,0.4
		c-0.1,0.1,0.1,0.2,0.1,0.3c0.1,0.1-0.1,0.2-0.1,0.2c0,0,0,0,0,0.1c-0.5-0.4-1.2-1-1.5-1.6l0.1-0.1c0.1-0.2-0.5,0-0.4-0.2l-0.2,0
		c0-0.1,0-0.1,0.1-0.1c-0.1-0.1-0.1-0.1-0.2-0.1l0-0.2c-0.3-0.5-0.8-0.6-1.2-1.1c-0.3-0.7-1.4-1.4-2-1.9c-1-0.5-1.2-2-2.3-2.5
		c0,0-0.1-0.1-0.1,0l-0.7-0.7c0,0-3.4-3.5-2,0.4l-0.1,0c0.3,0.5,0.5,0.7,1,0.8C4.5,16.8,5,16.9,5,17.1l0,0c0.4,0.1,0.4,0.6,0.7,0.7
		c0,0-0.1,0.1-0.1,0c0.2,0.1,0.5,0.3,0.4,0.5c0.4,0.4,0.9,1,1.4,1l-0.1,0c0.3,0,0.2,0.2,0.4,0.3c0,0,0,0,0,0c0.3,0,0.5,0.4,0.7,0.5
		l-0.1,0.1l0.3,0.3l-0.1-0.1c0.3-0.2,0.1,0.4,0.5,0.5c0.2,0.2,0.9,0,1,0.3c0.2,0-0.3,0.1,0,0.2c-0.1,0.1-0.1,0-0.2,0.1
		c0.2,0.1,0.1,0.4,0.4,0.5L10,22c0.4,0.1,0.4,0.6,0.7,0.6c0.3,0.2-0.1,0.4,0.3,0.5l0,0.2c0.1,0.1,0.2-0.1,0.3,0.1
		c-0.1,0.1,0.1,0.2,0,0.2c0.2,0.4,0.7,0.4,0.9,1c0.2-0.1,0.3,0.2,0.5,0.2c-0.1,0.1,0.4,0.4,0,0.3c0,0-0.1,0,0-0.1l-0.1,0.1
		c0.1,0.4,0.5,0.3,0.7,0.5c0-0.1-0.1-0.2,0-0.2l0.2,0.3l-0.1,0l0.5,0.6l0-0.2c0.2,0.3,0.3,0.6,0.6,0.7
		C14.6,26.9,14.2,26.5,14.5,26.7z M16,23.7C16,23.8,16,23.8,16,23.7c0,0.1,0,0.1,0,0.2L16,23.7z"/>
	<path d="M13.9,11.4C13.9,11.4,13.9,11.4,13.9,11.4C13.9,11.4,13.9,11.4,13.9,11.4L13.9,11.4z"/>
	<path d="M14.2,21.3C14.2,21.3,14.2,21.3,14.2,21.3C14.2,21.3,14.2,21.3,14.2,21.3L14.2,21.3z"/>
	<path d="M14.2,21.3C14.2,21.3,14.2,21.3,14.2,21.3C14.3,21.3,14.3,21.3,14.2,21.3C14.2,21.2,14.2,21.3,14.2,21.3z"/>
	<path d="M14.1,9.1C14.1,9.1,14.2,9.1,14.1,9.1C14.2,9.1,14.2,9.1,14.1,9.1L14.1,9.1z"/>
	<path d="M15,3.4L15,3.4C15.1,3.4,15.1,3.4,15,3.4C15,3.4,15,3.4,15,3.4z"/>
	<path d="M14.4,7.5C14.4,7.5,14.4,7.5,14.4,7.5c0,0,0,0.1,0,0.2l0.1,0L14.4,7.5z"/>
	<path d="M15.9,3.7L15.9,3.7C15.9,3.7,15.9,3.7,15.9,3.7z"/>
	<polygon points="14.5,6.7 14.5,6.7 14.5,6.7 	"/>
	<path d="M14.5,4.9C14.5,4.8,14.5,4.8,14.5,4.9C14.5,4.9,14.5,4.9,14.5,4.9z"/>
	<path d="M15.8,3C15.8,3,15.8,3,15.8,3C15.7,3.1,15.8,3.1,15.8,3C15.8,3.1,15.8,3,15.8,3z"/>
</g>
</svg>
