<?xml version="1.0" encoding="utf-8"?>
<!-- Generator: Adobe Illustrator 26.5.0, SVG Export Plug-In . SVG Version: 6.00 Build 0)  -->
<svg version="1.1" id="Ebene_1" xmlns="http://www.w3.org/2000/svg" xmlns:xlink="http://www.w3.org/1999/xlink" x="0px" y="0px"
	 viewBox="0 0 30 30" style="enable-background:new 0 0 30 30;" xml:space="preserve">
<style type="text/css">
	.st0{display:none;}
	.st1{display:inline;}
	.st2{fill:#1D1D1B;}
	.st3{fill:#FFFFFF;}
	.st4{fill:#1D1D1D;}
</style>
<g>
	<path d="M18,6.3l0,0.1C18,6.4,18,6.4,18,6.3z"/>
	<polygon points="18.9,10 18.9,10 18.9,10 	"/>
	<path d="M25.8,13.4C25.8,13.4,25.8,13.4,25.8,13.4c0,0,0.1,0,0.1,0L25.8,13.4z"/>
	<path d="M26.6,15.6c0.2-0.1,0.4-0.3,0.7-0.5c-0.2-0.2-0.4-0.5-0.6-0.8c-0.1,0.1-0.2,0-0.4-0.1l0.1-0.1c-0.6-0.4,0.1-0.3-0.5-0.7
		c-0.1,0-0.1,0-0.2,0c-0.4-0.1,0.1-0.3-0.4-0.3c0.1,0.1-0.1,0.2-0.2,0.1l0.1-0.1c-0.1-0.1-0.1,0-0.2-0.1c0.1,0,0.1-0.1,0-0.2l0.2,0
		l-0.4,0c-0.1-0.2-0.4-0.4-0.4-0.5c0,0-0.3-0.4-0.5-0.3c0.1,0,0-0.2,0.1-0.3c-0.2,0-0.5-0.2-0.5-0.4l0,0c-0.3-0.5-0.8-0.5-1-0.9
		c-0.1,0.1-0.2-0.1-0.3,0.1c-0.5-0.2-0.4-0.9-0.9-0.6c-0.2-0.1-0.1-0.3-0.1-0.4l0.1,0c-0.3-0.3-0.4-0.3-0.6-0.6
		c-0.1-0.1-0.4,0.1-0.5-0.1c0.1,0,0-0.1,0-0.1c0.1,0,0.1,0,0.1-0.1c0,0-0.1,0-0.1,0c0,0,0,0,0,0c-0.1-0.1-0.1,0-0.1,0c0,0,0,0,0,0.1
		c0-0.2-0.4-0.3-0.2-0.5c-0.4-0.3-0.8-0.5-1.1-0.7c0-0.1,0.2-0.1,0.3,0l-0.2-0.2C18.8,7,18.9,7.2,19,7.2c-0.1-0.4-0.7-0.4-0.8-0.8
		l-0.1,0l0,0c0,0-0.2,0-0.2,0c0-0.1,0.2-0.2,0-0.3c0-0.2-0.4-0.3-0.6-0.4c0.1,0.1,0,0.1-0.1,0.1c-0.1-0.1,0-0.2-0.1-0.2l0.1-0.1
		c-0.1,0.1-0.3-0.1-0.4-0.1c0-0.1,0.2,0,0.3,0c-0.3-0.3-0.2-0.1-0.5-0.4c-0.2-0.1-0.1,0.1-0.2,0.2C16.2,5,16,4.9,15.9,4.7l0,0.1
		c-0.3-0.2-0.5-0.4-0.6-0.6c-2.7-1.1-1.5,0.7-1.5,0.7C14.3,5.9,15,6,16,6.8c0.8,0.9,0.8,1.3,1.7,2c0.4,0.4,0.8,0.8,1.3,1.2
		c0.3,0,0.5,0.5,0.9,0.6l0,0.2c0.1,0,0.2,0.1,0.3,0.2l0,0c0.2,0,0.3,0.2,0.4,0.2l0,0l0.1,0.1l-0.1,0c0.3,0.1,0.5,0.3,0.6,0.5
		l0.1-0.1c0.3,0.5,0.6,0.4,0.8,0.9l0,0c0.7,0.2,0.5,0.9,1.2,1.1c-0.1,0,0,0.1-0.1,0.1c0.1,0.1,0.1,0.1,0.2,0.1l0,0l-2.2,0.1
		l-0.2,0.1c-0.4-0.2-1,0-1.4-0.1l0,0.1c-0.1,0-0.1-0.1-0.2-0.1c-1.2,0-2.4,0.2-3.5,0c-0.1-0.1-0.4,0-0.5-0.1
		c-0.4,0.1-0.7,0.1-1.1,0.1l0,0l-0.2,0c0,0,0,0,0,0c-0.2,0.1-0.5,0-0.7,0l0,0c-1.3,0-2.6,0.2-3.9,0c-0.6-0.2-1.3,0.1-2-0.1
		c-0.1-0.1-1.6,0-1.7,0l0.2,0.1c-0.5,0.1-0.8-0.1-1.2,0l0,0c-0.1,0-0.1,0.3-0.8-0.1v0c0,0,0,0-0.1,0l0.1,0.1c-0.1,0-0.1,0.1-0.2,0.1
		c0,0,0,0,0-0.1l-0.2,0l-0.1-0.1c-0.1,0.1,0,0.2-0.2,0.1c0.1,0.1-0.1,0.1-0.1,0.2c0,0,0,0-0.1-0.1c-0.1,0-0.3,0.1-0.4,0.1
		c0,0,0.5,0.3,0.6,0.4c-0.2,0,0,0,0,0.1l0,0c0.1,0,0.1,0.1,0.2,0.1c0,0,0,0,0,0l0,0c0,0,0,0,0,0c0,0,0,0,0,0l0,0c0,0,0.1,0,0.1,0
		l0,0.1C3.5,15,3.9,15.3,4,15.3c0.1,0.1,0.2,0,0.4,0c0.2,0,0.1,0.1,0.2,0.2c0.1,0,0-0.1,0-0.1l0.2,0.1c-0.1,0,0,0.1,0,0.1
		c0.1,0,0.3,0.1,0.4,0c0.2,0.1,0.2,0.1,0.3,0.1c0,0-0.1-0.1-0.1-0.1c0.1,0.1,0,0,0,0c0.1-0.1,0.6,0.3,0.6,0.1v0c0-0.1,0-0.2,0.1-0.3
		L6,15.5l0.1-0.1c0.1,0,0,0.1,0,0.1c0.1-0.1,0.3,0,0.4,0l-0.2-0.3c0.1,0.1,0.4,0.2,0.4,0.1l0.1,0.1c0.3,0.2,0.2-0.1,0.3,0l0.1,0.1
		l-0.1,0c0.1,0.1,0.2,0.1,0.3,0.2c0,0,0,0,0,0c0,0,0,0,0,0l0,0c0-0.1,0.1-0.1,0.2-0.1c0.1,0,0.2-0.1,0.4,0.1l0.1-0.1l0.2,0.1v0.1
		c-0.1,0-0.4,0-0.6,0l0,0c0.1,0,0.2,0,0.3,0c0,0,0.1,0.1,0.1,0.2L8,15.9c0.4,0,0.4,0,0.8,0.1l0,0c0.1,0,0.2-0.1,0.2,0
		c0.2,0,0.5,0.1,0.6,0.2l0-0.1c0.1,0,0.1,0.2,0.1,0l0.1,0c0.1,0,0.1-0.1,0.2,0c0,0,0,0,0,0c0,0,0,0,0,0c0,0,0,0,0,0c0,0,0,0,0,0
		c0.2,0,0-0.1,0.2,0c0.1,0.1,0.1-0.1,0.1-0.1l0.1,0.2c0.2,0.1,0.2-0.1,0.4-0.1c0.1,0.1,0.2,0.2,0.1,0.3c0.1-0.1,0-0.1,0.2-0.2
		c0,0.1,0,0.1,0,0.1c0.1,0.1,0.1-0.1,0.2-0.1c0-0.1,0.1-0.3,0.1-0.3l0,0c0.1-0.1,0.2-0.1,0.3,0l0,0.1l0.1,0l0,0.1l0.2,0l0,0
		c0,0,0.2,0,0.2,0l0,0c0.2,0.1,0.4,0,0.6-0.1l0,0.1c0.1,0.1,0-0.1,0.1-0.1l0,0.1c0.1-0.1,0.1,0,0.2,0.1l0-0.1l0.1,0
		c0.1,0,0.1,0.2,0.1,0.2l0.1-0.1l0,0.1c0.1-0.1,0.1,0,0.2-0.1c0,0,0,0.1,0,0.1l0.2-0.2l-0.1,0.1l0-0.2c0.1-0.1,0.2,0,0.2,0L13.7,16
		c0.1,0,0.1,0,0.2,0.1c0,0-0.1-0.1,0-0.1c0,0,0,0.1,0.1,0.1c0-0.1,0.1-0.2,0.2-0.1c0,0,0,0,0,0c0,0,0,0,0.1,0l0,0.1l0.1-0.1
		c0,0,0.1-0.1,0.1,0l0,0l0.4,0l0,0.1c0-0.1,0.2,0.1,0.2-0.1c0.1,0.1,0.3-0.1,0.2,0.1c0.2,0,0.4-0.2,0.7-0.1c0.1,0.2,0.4,0.1,0.6,0.1
		c0.4-0.1,0.6-0.1,1-0.2c0.2,0.2,0.6-0.1,0.8,0.1l0.1-0.1c0.2,0.1,0.4,0,0.6,0.1C18.9,16,19,16,19,16c0,0,0,0,0-0.1
		c0.1,0,0.2,0,0.2,0.1l0,0c0,0.1,0.2-0.1,0.3,0l0-0.1l0.1,0l0,0c0.5-0.3,0.8,0.1,1.3-0.1c-0.1,0.1,0.1-0.1,0.1,0.1
		c0.1,0.2,0.2,0,0.3-0.1c0,0,0,0,0,0l0.2,0c-0.1,0.2,0.1-0.2,0,0c0.5,0.1,1.1,0,1.6,0.1l0,0c0.1,0,0.3-0.1,0.4,0
		c0.1,0.1,0.2-0.1,0.3-0.1c0.1-0.1,0.2,0.1,0.2,0.1c0,0,0,0,0.1,0c-0.4,0.5-1,1.2-1.6,1.5l-0.1-0.1c-0.2-0.1,0,0.5-0.2,0.4l0,0.2
		c-0.1,0-0.1,0-0.1-0.1c-0.1,0.1-0.1,0.1-0.1,0.2l-0.2,0c-0.5,0.3-0.6,0.8-1.1,1.2c-0.7,0.3-1.4,1.4-1.9,2c-0.5,1-2,1.2-2.5,2.3
		c0,0-0.1,0.1,0,0.1l-0.7,0.7c0,0-3.5,3.4,0.4,2l0,0.1c0.5-0.3,0.7-0.5,0.8-1c0.2,0.2,0.3-0.3,0.5-0.3l0,0c0.1-0.4,0.6-0.4,0.7-0.7
		c0,0,0.1,0.1,0,0.1c0.1-0.2,0.3-0.5,0.5-0.4c0.4-0.4,1-0.9,1-1.4l0,0.1c0-0.3,0.2-0.2,0.3-0.4c0,0,0,0,0,0c0-0.3,0.4-0.5,0.5-0.7
		l0.1,0.1l0.3-0.3l-0.1,0.1c-0.2-0.3,0.4-0.1,0.5-0.5c0.2-0.2,0-0.9,0.3-1c0-0.2,0.1,0.3,0.2,0c0.1,0.1,0,0.1,0.1,0.2
		c0.1-0.2,0.4-0.1,0.5-0.4l0.1,0.1c0.1-0.4,0.6-0.4,0.6-0.7c0.2-0.3,0.4,0.1,0.5-0.3l0.2,0c0.1-0.1-0.1-0.2,0.1-0.3
		c0.1,0.1,0.2-0.1,0.2,0c0.4-0.2,0.4-0.7,1-0.9c-0.1-0.2,0.2-0.3,0.2-0.5c0.1,0.1,0.4-0.4,0.3,0c0,0,0,0.1-0.1,0l0.1,0.1
		c0.4-0.1,0.3-0.5,0.5-0.7c-0.1,0-0.2,0.1-0.2,0l0.3-0.2l0,0.1l0.6-0.5l-0.2,0c0.3-0.2,0.6-0.3,0.7-0.6
		C26.8,15.5,26.4,15.9,26.6,15.6z M23.6,14.1C23.7,14.1,23.7,14.1,23.6,14.1c0.1,0,0.1,0,0.2,0L23.6,14.1z"/>
	<path d="M11.3,16.2C11.3,16.2,11.3,16.2,11.3,16.2C11.3,16.2,11.3,16.2,11.3,16.2L11.3,16.2z"/>
	<path d="M21.2,15.9C21.2,15.9,21.2,15.9,21.2,15.9C21.2,15.9,21.2,15.9,21.2,15.9L21.2,15.9z"/>
	<path d="M21.2,15.9C21.2,15.9,21.2,15.9,21.2,15.9C21.2,15.9,21.2,15.9,21.2,15.9C21.1,15.9,21.2,15.9,21.2,15.9z"/>
	<path d="M9,16C9,16,9,16,9,16C9,16,9,16,9,16L9,16z"/>
	<path d="M3.2,15.1L3.2,15.1C3.3,15.1,3.3,15.1,3.2,15.1C3.2,15.1,3.2,15.1,3.2,15.1z"/>
	<path d="M7.4,15.8C7.4,15.8,7.4,15.8,7.4,15.8c0,0,0.1,0,0.2,0l0-0.1L7.4,15.8z"/>
	<path d="M3.6,14.2L3.6,14.2C3.6,14.2,3.6,14.2,3.6,14.2z"/>
	<polygon points="6.6,15.6 6.5,15.6 6.6,15.7 	"/>
	<path d="M4.7,15.6C4.7,15.6,4.7,15.6,4.7,15.6C4.7,15.7,4.8,15.6,4.7,15.6z"/>
	<path d="M2.9,14.3C2.9,14.3,2.9,14.3,2.9,14.3C2.9,14.4,3,14.4,2.9,14.3C3,14.4,2.9,14.3,2.9,14.3z"/>
</g>
</svg>
