<?xml version="1.0" encoding="utf-8"?>
<!-- Generator: Adobe Illustrator 26.5.0, SVG Export Plug-In . SVG Version: 6.00 Build 0)  -->
<svg version="1.1" id="Ebene_1" xmlns="http://www.w3.org/2000/svg" xmlns:xlink="http://www.w3.org/1999/xlink" x="0px" y="0px"
	 viewBox="0 0 496.1 85" style="enable-background:new 0 0 496.1 85;" xml:space="preserve">
<style type="text/css">
	.st0{fill:#F08823;}
	.st1{fill:#5E5E5E;}
</style>
<path id="XMLID_348_" class="st0" d="M200.7,39.3c-2.1,0-3.8,1.7-3.8,3.8c0,0.5,0.1,0.9,0.3,1.4l-10.4,6.9c-0.7-0.7-1.6-1.1-2.7-1.1
	c-1.8,0-3.4,1.3-3.7,3h-13.9c-0.4-1.7-1.9-3-3.7-3c-2.1,0-3.8,1.7-3.8,3.8c0,2.1,1.7,3.8,3.8,3.8c1.8,0,3.3-1.3,3.7-2.9h13.9
	c0.4,1.7,1.9,2.9,3.7,2.9c1.1,0,2-0.4,2.7-1.2l4.9,3c-0.1,0.4-0.2,0.8-0.2,1.2c0,2.1,1.7,3.8,3.8,3.8c2.1,0,3.8-1.7,3.8-3.8
	c0-2.1-1.7-3.8-3.8-3.8c-1.1,0-2,0.5-2.7,1.2l-4.9-3c0.1-0.4,0.2-0.8,0.2-1.2c0-0.5-0.1-0.9-0.3-1.3l10.4-6.9
	c0.7,0.7,1.6,1.1,2.6,1.1c2.1,0,3.8-1.7,3.8-3.8S202.8,39.3,200.7,39.3"/>
<path id="XMLID_338_" class="st0" d="M183.2,44.7c-0.3,0-0.6,0.1-0.8,0.1c-0.5,0-1,0-1.4-0.1c-0.4-0.1-0.8-0.2-1.1-0.4
	c-0.3-0.2-0.5-0.5-0.7-0.8c-0.2-0.3-0.3-0.8-0.3-1.3V25.9h3.3v15.4c0,0.6,0.3,0.9,1,0.9h0.9v2.2C183.8,44.6,183.5,44.6,183.2,44.7
	 M172.1,38.9h-1.7c-1.1,0-1.8,0.1-2.2,0.4s-0.6,0.8-0.6,1.4c0,1.1,0.6,1.7,1.8,1.7c0.5,0,1-0.1,1.4-0.4c0.4-0.3,0.9-0.6,1.3-1.1
	V38.9z M172.9,44.5l-0.3-1.5c-0.4,0.5-1,0.9-1.6,1.3c-0.6,0.4-1.4,0.5-2.4,0.5c-1.3,0-2.3-0.3-3.1-1c-0.8-0.7-1.2-1.6-1.2-2.7
	c0-1.6,0.5-2.7,1.6-3.3c1.1-0.7,2.7-1,4.8-1h1.4v-0.3c0-0.9-0.2-1.5-0.6-1.9c-0.4-0.4-1-0.5-2-0.5c-0.7,0-1.4,0.1-2,0.2
	c-0.6,0.1-1.2,0.3-1.7,0.5l-0.4-2.4c0.7-0.3,1.4-0.5,2.2-0.6c0.8-0.1,1.6-0.2,2.4-0.2c1,0,1.8,0.1,2.5,0.3c0.7,0.2,1.3,0.5,1.7,0.9
	c0.4,0.4,0.8,0.9,1,1.5c0.2,0.6,0.3,1.3,0.3,2.1v8.3H172.9z M158.2,44.5V34.3h-1.9v-2.6h5.2v12.8H158.2z M161.3,29
	c-0.4,0.4-0.9,0.6-1.4,0.6s-1-0.2-1.4-0.6s-0.6-0.9-0.6-1.4c0-0.6,0.2-1,0.6-1.4s0.9-0.6,1.4-0.6s1,0.2,1.4,0.6s0.6,0.9,0.6,1.4
	C161.9,28.2,161.7,28.7,161.3,29 M152.7,44.5c-0.7,0.1-1.4,0.2-2.1,0.2c-1.9,0-3.4-0.6-4.4-1.7c-1-1.1-1.5-2.7-1.5-4.6
	c0-1.1,0.2-2.1,0.5-3c0.3-0.9,0.7-1.6,1.3-2.2c0.6-0.6,1.2-1,2-1.3c0.8-0.3,1.7-0.5,2.7-0.5c0.5,0,1.1,0,1.6,0.1
	c0.5,0.1,1,0.2,1.5,0.4l-0.7,2.7c-0.3-0.2-0.7-0.3-1.1-0.4c-0.4-0.1-0.8-0.1-1.3-0.1c-1,0-1.8,0.4-2.3,1.1c-0.5,0.7-0.8,1.7-0.8,2.9
	c0,1.2,0.3,2.1,0.8,2.9c0.5,0.7,1.3,1.1,2.3,1.1c0.4,0,0.9,0,1.4-0.1c0.5-0.1,0.9-0.3,1.3-0.5l0.6,2.6
	C154,44.2,153.3,44.4,152.7,44.5 M139,36.6c-0.1-0.5-0.3-1-0.6-1.3c-0.3-0.4-0.6-0.7-1-0.9c-0.4-0.2-0.9-0.3-1.4-0.3
	c-0.5,0-1,0.1-1.4,0.3c-0.4,0.2-0.7,0.5-1,0.9c-0.3,0.4-0.5,0.8-0.6,1.3c-0.1,0.5-0.2,1-0.2,1.5c0,2.8,1.1,4.2,3.3,4.2
	c0.5,0,1-0.1,1.4-0.4c0.4-0.2,0.7-0.5,0.9-0.9c0.2-0.4,0.4-0.8,0.5-1.3c0.1-0.5,0.2-0.9,0.2-1.4C139.2,37.6,139.1,37.1,139,36.6
	 M142.2,40.7c-0.3,0.8-0.7,1.5-1.3,2.2c-0.6,0.6-1.3,1.1-2.1,1.4c-0.8,0.3-1.8,0.5-2.9,0.5c-2.1,0-3.7-0.6-4.8-1.7
	c-1.1-1.1-1.7-2.7-1.7-4.8c0-1,0.1-2,0.4-2.8c0.3-0.8,0.7-1.6,1.3-2.2c0.6-0.6,1.3-1.1,2.1-1.4c0.8-0.3,1.8-0.5,2.9-0.5
	c1.1,0,2,0.2,2.8,0.5c0.8,0.3,1.5,0.8,2,1.4c0.5,0.6,0.9,1.3,1.2,2.1c0.3,0.8,0.4,1.7,0.4,2.7C142.6,39,142.5,39.9,142.2,40.7
	 M126.8,41.9c-0.4,0.7-0.9,1.3-1.5,1.7c-0.6,0.4-1.4,0.7-2.2,0.9c-0.8,0.2-1.7,0.3-2.6,0.3c-0.7,0-1.4-0.1-2.1-0.1
	c-0.7-0.1-1.4-0.3-2.2-0.5l0.4-2.8c0.6,0.2,1.2,0.4,2,0.5c0.7,0.1,1.4,0.2,2.1,0.2c1,0,1.8-0.2,2.3-0.6c0.5-0.4,0.8-0.9,0.8-1.6
	c0-0.4-0.1-0.8-0.3-1.1c-0.2-0.3-0.4-0.6-0.7-0.8c-0.3-0.2-0.6-0.4-1-0.6c-0.4-0.2-0.8-0.3-1.2-0.5c-0.5-0.2-1.1-0.5-1.6-0.7
	c-0.5-0.3-1-0.6-1.4-0.9c-0.4-0.4-0.8-0.8-1-1.4c-0.3-0.5-0.4-1.2-0.4-2c0-0.8,0.2-1.6,0.5-2.2c0.3-0.6,0.7-1.2,1.3-1.6
	c0.5-0.4,1.2-0.7,1.9-0.9c0.7-0.2,1.5-0.3,2.4-0.3c0.7,0,1.5,0.1,2.2,0.2c0.7,0.1,1.4,0.3,2,0.5l-0.6,2.7c-0.5-0.2-1.1-0.4-1.8-0.5
	c-0.7-0.1-1.3-0.2-1.9-0.2c-1.6,0-2.4,0.7-2.4,2.1c0,0.3,0.1,0.6,0.2,0.9c0.2,0.2,0.4,0.5,0.6,0.7c0.3,0.2,0.6,0.4,0.9,0.5
	s0.7,0.3,1.1,0.5c0.5,0.2,1.1,0.5,1.6,0.7c0.6,0.3,1.1,0.6,1.5,1s0.8,0.9,1.1,1.4c0.3,0.6,0.4,1.2,0.4,2.1
	C127.4,40.4,127.2,41.2,126.8,41.9"/>
<path id="XMLID_328_" class="st1" d="M113.7,34.7c-0.2,0-0.4-0.1-0.6-0.1c-0.2,0-0.4,0-0.6,0c-0.2,0-0.5,0.1-0.7,0.2
	c-0.2,0.1-0.5,0.3-0.7,0.5c-0.2,0.2-0.5,0.4-0.7,0.6c-0.2,0.2-0.4,0.5-0.6,0.7v8h-3.3V31.7h2.6l0.4,2.2c0.2-0.3,0.4-0.6,0.6-0.9
	c0.2-0.3,0.5-0.6,0.8-0.8c0.3-0.2,0.6-0.4,1-0.6c0.4-0.2,0.8-0.2,1.2-0.2c0.2,0,0.4,0,0.6,0c0.2,0,0.4,0,0.5,0.1L113.7,34.7z
	 M99.5,44.5V34.3h-1.9v-2.6h5.2v12.8H99.5z M102.6,29c-0.4,0.4-0.9,0.6-1.4,0.6c-0.6,0-1-0.2-1.4-0.6s-0.6-0.9-0.6-1.4
	c0-0.6,0.2-1,0.6-1.4s0.9-0.6,1.4-0.6c0.6,0,1,0.2,1.4,0.6s0.6,0.9,0.6,1.4C103.2,28.2,103,28.7,102.6,29 M92,44.5v-7.6
	c0-1-0.1-1.8-0.4-2.3C91.3,34.2,90.8,34,90,34c-0.6,0-1.1,0.2-1.7,0.5c-0.5,0.4-1,0.8-1.4,1.3v8.6h-3.3V31.7h2.5l0.3,1.6
	c0.7-0.7,1.3-1.1,2-1.4c0.7-0.3,1.4-0.5,2.3-0.5c0.8,0,1.4,0.1,2,0.4c0.6,0.2,1,0.6,1.4,1c0.4,0.4,0.7,1,0.8,1.6
	c0.2,0.6,0.3,1.3,0.3,2v8.1H92z M77.2,35.5c-0.1-0.4-0.2-0.7-0.4-1c-0.2-0.3-0.4-0.5-0.8-0.6c-0.3-0.1-0.7-0.2-1.2-0.2
	c-0.4,0-0.8,0.1-1.2,0.3c-0.3,0.2-0.6,0.4-0.8,0.7c-0.2,0.3-0.4,0.6-0.5,1c-0.1,0.4-0.2,0.7-0.2,1.1h5.1
	C77.3,36.3,77.3,35.9,77.2,35.5 M80.6,38.1c0,0.2,0,0.5,0,0.7h-8.4c0,1.1,0.3,1.9,0.9,2.5c0.6,0.6,1.5,0.8,2.6,0.8
	c0.6,0,1.3,0,2.1-0.1c0.8-0.1,1.5-0.2,2.1-0.4l0.3,2.5c-0.8,0.3-1.7,0.5-2.5,0.6c-0.8,0.1-1.7,0.1-2.5,0.1c-2.2,0-3.8-0.5-4.8-1.6
	c-1-1.1-1.6-2.7-1.6-5c0-1,0.1-2,0.4-2.8c0.3-0.8,0.7-1.6,1.3-2.2c0.6-0.6,1.2-1.1,2-1.4c0.8-0.3,1.7-0.5,2.7-0.5
	c1.9,0,3.3,0.5,4.2,1.6c0.9,1.1,1.3,2.5,1.3,4.4C80.6,37.7,80.6,37.9,80.6,38.1 M65.5,38.1c-0.7,2.1-1.5,4.2-2.4,6.4H59
	c-0.9-2.1-1.7-4.2-2.4-6.3c-0.7-2.1-1.4-4.3-2.1-6.4h3.7c0.4,1.6,0.9,3.1,1.4,4.7c0.5,1.6,1,3.2,1.6,4.7h0c0.6-1.5,1.1-3.1,1.6-4.7
	c0.5-1.6,0.9-3.2,1.3-4.7h3.4C66.9,33.9,66.2,36,65.5,38.1 M47.7,34.3c-0.4-1.2-0.9-2.4-1.3-3.6h0c-0.5,1.2-0.9,2.4-1.3,3.6
	c-0.4,1.2-0.8,2.4-1.2,3.6h5.2C48.5,36.6,48.1,35.4,47.7,34.3 M50.9,44.5c-0.2-0.6-0.4-1.3-0.6-2c-0.2-0.7-0.4-1.3-0.6-2h-6.9
	c-0.2,0.7-0.4,1.3-0.6,2c-0.2,0.7-0.4,1.3-0.6,2H38c1-2.9,2-5.8,3.1-8.7c1-2.9,2.2-5.7,3.3-8.6h3.9c1.2,2.9,2.3,5.8,3.4,8.6
	c1.1,2.9,2.1,5.7,3.1,8.6H50.9z"/>
<g id="XMLID_354_">
	<path id="XMLID_260_" class="st1" d="M451.8,64.9c-0.3,0.3-0.6,0.5-1,0.5c-0.5,0-0.7-0.3-0.7-0.6c0-0.5,0.4-0.7,1.1-0.7h0.6V64.9z
		 M453,66.1v-3.1c0-1-0.5-1.6-1.9-1.6c-0.6,0-1.3,0.1-1.7,0.3l0.2,0.8c0.4-0.2,0.9-0.3,1.4-0.3c0.7,0,1,0.3,1,0.9v0.2h-0.6
		c-1.5,0-2.3,0.4-2.3,1.5c0,0.9,0.6,1.4,1.6,1.4c0.6,0,1-0.2,1.5-0.6l0.1,0.4H453z M448.4,65.3h-0.3c-0.3,0-0.4-0.2-0.4-0.5v-5.5
		h-1.2v5.8c0,0.8,0.5,1.1,1.1,1.1c0.3,0,0.5-0.1,0.7-0.1V65.3z M444.2,64.9c-0.3,0.3-0.6,0.5-1,0.5c-0.5,0-0.7-0.3-0.7-0.6
		c0-0.5,0.4-0.7,1.1-0.7h0.6V64.9z M445.3,66.1v-3.1c0-1-0.5-1.6-1.9-1.6c-0.6,0-1.3,0.1-1.7,0.3l0.2,0.8c0.4-0.2,0.9-0.3,1.4-0.3
		c0.7,0,1,0.3,1,0.9v0.2h-0.6c-1.5,0-2.3,0.4-2.3,1.5c0,0.9,0.6,1.4,1.6,1.4c0.6,0,1-0.2,1.5-0.6l0.1,0.4H445.3z M440.4,66.1v-4.6
		h-1.9v0.9h0.7v3.8H440.4z M440.5,60.1c0-0.4-0.3-0.7-0.7-0.7c-0.4,0-0.7,0.3-0.7,0.7c0,0.4,0.3,0.7,0.7,0.7
		C440.2,60.8,440.5,60.5,440.5,60.1 M437.8,65.1c-0.3,0.1-0.6,0.2-0.9,0.2c-0.8,0-1.2-0.5-1.2-1.5c0-0.9,0.4-1.5,1.2-1.5
		c0.3,0,0.6,0.1,0.8,0.2l0.3-0.9c-0.4-0.2-0.8-0.2-1.2-0.2c-1.4,0-2.3,0.9-2.3,2.5c0,1.4,0.7,2.3,2.2,2.3c0.4,0,0.9-0.1,1.3-0.3
		L437.8,65.1z M432.6,63.8c0,0.9-0.4,1.5-1.2,1.5c-0.8,0-1.2-0.6-1.2-1.6c0-0.9,0.4-1.5,1.2-1.5C432.3,62.2,432.6,62.9,432.6,63.8
		 M433.8,63.7c0-1.5-0.8-2.4-2.3-2.4c-1.6,0-2.4,1-2.4,2.5c0,1.4,0.8,2.4,2.3,2.4C433,66.2,433.8,65.2,433.8,63.7 M428.4,64.7
		c0-0.7-0.4-1.1-1.2-1.4c-0.6-0.2-0.8-0.3-0.8-0.6c0-0.2,0.2-0.5,0.7-0.5c0.3,0,0.7,0.1,1,0.2l0.1-0.9c-0.3-0.1-0.8-0.2-1.2-0.2
		c-1.1,0-1.8,0.6-1.8,1.5c0,0.8,0.5,1.1,1.2,1.4c0.5,0.2,0.8,0.3,0.8,0.6c0,0.4-0.3,0.5-0.7,0.5c-0.4,0-0.8-0.1-1.2-0.2l-0.2,0.9
		c0.4,0.1,0.9,0.2,1.4,0.2C427.7,66.2,428.4,65.6,428.4,64.7 M422.2,61.4c-0.2,0-0.3-0.1-0.5-0.1c-0.5,0-0.8,0.3-1.2,0.9l-0.1-0.8
		h-0.9v4.6h1.2v-2.9c0.4-0.5,0.7-0.8,1-0.8c0.1,0,0.4,0,0.5,0.1L422.2,61.4z M418.2,66.1v-4.6H417v3.2c-0.4,0.4-0.7,0.6-1.1,0.6
		c-0.6,0-0.8-0.4-0.8-1.1v-2.7H414v2.9c0,1.1,0.5,1.8,1.6,1.8c0.7,0,1.1-0.2,1.6-0.7l0.1,0.6H418.2z M412.1,61.5
		c-0.2,0.9-0.5,1.9-0.8,2.9c-0.1,0.2-0.1,0.4-0.2,0.6h0c-0.1-0.2-0.1-0.4-0.2-0.6c-0.3-0.9-0.6-1.9-0.8-2.9h-1.2
		c0.4,1.6,0.9,3.1,1.5,4.6h1.3c0.6-1.5,1.1-3.1,1.5-4.6H412.1z M407.1,64.9c-0.3,0.3-0.6,0.5-1,0.5c-0.5,0-0.7-0.3-0.7-0.6
		c0-0.5,0.4-0.7,1.1-0.7h0.6V64.9z M408.2,66.1v-3.1c0-1-0.5-1.6-1.9-1.6c-0.6,0-1.3,0.1-1.7,0.3l0.2,0.8c0.4-0.2,0.9-0.3,1.4-0.3
		c0.7,0,1,0.3,1,0.9v0.2h-0.6c-1.5,0-2.3,0.4-2.3,1.5c0,0.9,0.6,1.4,1.6,1.4c0.6,0,1-0.2,1.5-0.6l0.1,0.4H408.2z M403.7,65.3h-0.3
		c-0.3,0-0.4-0.2-0.4-0.5v-5.5h-1.1v5.8c0,0.8,0.5,1.1,1.1,1.1c0.3,0,0.5-0.1,0.7-0.1V65.3z M397,64.9c-0.3,0.3-0.6,0.5-1,0.5
		c-0.5,0-0.7-0.3-0.7-0.6c0-0.5,0.4-0.7,1.1-0.7h0.6V64.9z M398.2,66.1v-3.1c0-1-0.5-1.6-1.9-1.6c-0.6,0-1.3,0.1-1.7,0.3l0.2,0.8
		c0.4-0.2,0.9-0.3,1.4-0.3c0.7,0,1,0.3,1,0.9v0.2h-0.6c-1.5,0-2.3,0.4-2.3,1.5c0,0.9,0.6,1.4,1.6,1.4c0.6,0,1-0.2,1.5-0.6l0.1,0.4
		H398.2z M393.7,65.3h-0.3c-0.3,0-0.4-0.2-0.4-0.5v-5.5h-1.2v5.8c0,0.8,0.5,1.1,1.1,1.1c0.3,0,0.5-0.1,0.7-0.1V65.3z M387,64.9
		c-0.3,0.3-0.6,0.5-1,0.5c-0.5,0-0.7-0.3-0.7-0.6c0-0.5,0.4-0.7,1.1-0.7h0.6V64.9z M388.1,66.1v-3.1c0-1-0.5-1.6-1.9-1.6
		c-0.6,0-1.3,0.1-1.7,0.3l0.2,0.8c0.4-0.2,0.9-0.3,1.4-0.3c0.7,0,1,0.3,1,0.9v0.2h-0.6c-1.5,0-2.3,0.4-2.3,1.5
		c0,0.9,0.6,1.4,1.6,1.4c0.6,0,1-0.2,1.5-0.6l0.1,0.4H388.1z M382,64.6c-0.4,0.5-0.7,0.7-1.2,0.7c-0.7,0-0.9-0.6-0.9-1.4
		c0-1,0.4-1.5,1.2-1.5c0.4,0,0.7,0.1,0.9,0.2V64.6z M383.1,66.1v-6.7H382v2.1c-0.3-0.1-0.6-0.1-0.9-0.1c-1.6,0-2.4,1.1-2.4,2.6
		c0,1.3,0.6,2.3,1.9,2.3c0.7,0,1.1-0.3,1.6-0.7l0.1,0.6H383.1z M374.2,64.9c-0.3,0.3-0.6,0.5-1,0.5c-0.5,0-0.7-0.3-0.7-0.6
		c0-0.5,0.4-0.7,1.1-0.7h0.6V64.9z M375.3,66.1v-3.1c0-1-0.5-1.6-1.9-1.6c-0.6,0-1.3,0.1-1.7,0.3l0.2,0.8c0.4-0.2,0.9-0.3,1.4-0.3
		c0.7,0,1,0.3,1,0.9v0.2h-0.6c-1.5,0-2.3,0.4-2.3,1.5c0,0.9,0.6,1.4,1.6,1.4c0.6,0,1-0.2,1.5-0.6l0.1,0.4H375.3z M371.1,61.4
		c-0.2,0-0.3-0.1-0.5-0.1c-0.5,0-0.8,0.3-1.2,0.9l-0.1-0.8h-0.9v4.6h1.2v-2.9c0.4-0.5,0.7-0.8,1-0.8c0.1,0,0.4,0,0.5,0.1L371.1,61.4
		z M367.3,66.1v-0.9h-2.2l2.1-2.8v-0.9h-3.3v0.9h2l-2.1,2.8v0.9H367.3z M362.7,66.1v-4.6h-1.9v0.9h0.7v3.8H362.7z M362.9,60.1
		c0-0.4-0.3-0.7-0.7-0.7s-0.7,0.3-0.7,0.7c0,0.4,0.3,0.7,0.7,0.7S362.9,60.5,362.9,60.1 M359.4,61.5c-0.2,0.9-0.5,1.9-0.8,2.9
		c-0.1,0.2-0.1,0.4-0.2,0.6h0c-0.1-0.2-0.1-0.4-0.2-0.6c-0.3-0.9-0.6-1.9-0.8-2.9h-1.2c0.4,1.6,0.9,3.1,1.5,4.6h1.3
		c0.6-1.5,1.1-3.1,1.5-4.6H359.4z M355.8,64.7c0-0.7-0.4-1.1-1.2-1.4c-0.6-0.2-0.8-0.3-0.8-0.6c0-0.2,0.2-0.5,0.7-0.5
		c0.3,0,0.7,0.1,1,0.2l0.1-0.9c-0.3-0.1-0.8-0.2-1.2-0.2c-1.1,0-1.8,0.6-1.8,1.5c0,0.8,0.5,1.1,1.2,1.4c0.6,0.2,0.8,0.3,0.8,0.6
		c0,0.4-0.3,0.5-0.7,0.5c-0.4,0-0.8-0.1-1.2-0.2l-0.2,0.9c0.4,0.1,0.9,0.2,1.4,0.2C355.1,66.2,355.8,65.6,355.8,64.7 M348,64.9
		c-0.3,0.3-0.6,0.5-1,0.5c-0.5,0-0.7-0.3-0.7-0.6c0-0.5,0.4-0.7,1.1-0.7h0.6V64.9z M349.1,66.1v-3.1c0-1-0.5-1.6-1.9-1.6
		c-0.6,0-1.3,0.1-1.7,0.3l0.2,0.8c0.4-0.2,0.9-0.3,1.4-0.3c0.7,0,1,0.3,1,0.9v0.2h-0.6c-1.5,0-2.3,0.4-2.3,1.5
		c0,0.9,0.6,1.4,1.6,1.4c0.6,0,1-0.2,1.5-0.6l0.1,0.4H349.1z M344.6,65.3h-0.3c-0.3,0-0.4-0.2-0.4-0.5v-5.5h-1.2v5.8
		c0,0.8,0.5,1.1,1.1,1.1c0.3,0,0.5-0.1,0.7-0.1V65.3z M340.3,64.9c-0.3,0.3-0.6,0.5-1,0.5c-0.5,0-0.7-0.3-0.7-0.6
		c0-0.5,0.4-0.7,1.1-0.7h0.6V64.9z M341.5,66.1v-3.1c0-1-0.5-1.6-1.9-1.6c-0.6,0-1.3,0.1-1.7,0.3l0.2,0.8c0.4-0.2,0.9-0.3,1.4-0.3
		c0.7,0,1,0.3,1,0.9v0.2h-0.6c-1.5,0-2.3,0.4-2.3,1.5c0,0.9,0.6,1.4,1.6,1.4c0.6,0,1-0.2,1.5-0.6l0.1,0.4H341.5z M336.5,66.1v-2.9
		c0-1.1-0.5-1.8-1.6-1.8c-0.7,0-1.1,0.2-1.6,0.7l-0.1-0.6h-0.9v4.6h1.2v-3.2c0.4-0.4,0.7-0.6,1.1-0.6c0.6,0,0.8,0.4,0.8,1.1v2.7
		H336.5z M331,66.1v-4.6h-1.2v3.2c-0.4,0.4-0.7,0.6-1.1,0.6c-0.6,0-0.8-0.4-0.8-1.1v-2.7h-1.2v2.9c0,1.1,0.5,1.8,1.6,1.8
		c0.7,0,1.1-0.2,1.6-0.7l0.1,0.6H331z M325.6,66.1v-4.6h-1.9v0.9h0.7v3.8H325.6z M325.7,60.1c0-0.4-0.3-0.7-0.7-0.7
		c-0.4,0-0.7,0.3-0.7,0.7c0,0.4,0.3,0.7,0.7,0.7C325.4,60.8,325.7,60.5,325.7,60.1 M323.3,64.7c0-0.7-0.4-1.1-1.2-1.4
		c-0.6-0.2-0.8-0.3-0.8-0.6c0-0.2,0.2-0.5,0.7-0.5c0.3,0,0.7,0.1,1,0.2l0.1-0.9c-0.3-0.1-0.8-0.2-1.2-0.2c-1.1,0-1.8,0.6-1.8,1.5
		c0,0.8,0.5,1.1,1.2,1.4c0.6,0.2,0.8,0.3,0.8,0.6c0,0.4-0.3,0.5-0.7,0.5c-0.4,0-0.8-0.1-1.2-0.2L320,66c0.4,0.1,0.9,0.2,1.4,0.2
		C322.5,66.2,323.3,65.6,323.3,64.7 M319.3,64.7c0-0.7-0.4-1.1-1.2-1.4c-0.6-0.2-0.8-0.3-0.8-0.6c0-0.2,0.2-0.5,0.7-0.5
		c0.3,0,0.7,0.1,1,0.2l0.1-0.9c-0.3-0.1-0.8-0.2-1.2-0.2c-1.1,0-1.8,0.6-1.8,1.5c0,0.8,0.5,1.1,1.2,1.4c0.5,0.2,0.8,0.3,0.8,0.6
		c0,0.4-0.3,0.5-0.7,0.5c-0.4,0-0.8-0.1-1.2-0.2L316,66c0.4,0.1,0.9,0.2,1.4,0.2C318.6,66.2,319.3,65.6,319.3,64.7 M312.2,63.3
		c0-0.6,0.3-1.1,1-1.1c0.6,0,0.9,0.4,0.9,1.1H312.2z M315.3,63.5c0-1.3-0.6-2.2-2-2.2c-1.5,0-2.3,1-2.3,2.5c0,1.6,0.7,2.4,2.3,2.4
		c0.7,0,1.3-0.1,1.8-0.3l-0.1-0.8c-0.5,0.1-1,0.2-1.5,0.2c-1,0-1.3-0.5-1.3-1.3h3.1C315.3,63.8,315.3,63.6,315.3,63.5 M310.7,60.1
		v-0.8c-0.2,0-0.4-0.1-0.7-0.1c-1.2,0-1.5,0.7-1.5,1.8v0.4h-0.7v0.9h0.7v3.8h1.2v-3.8h1v-0.9h-1V61c0-0.5,0.1-0.9,0.7-0.9H310.7z
		 M306,63.8c0,0.9-0.4,1.5-1.2,1.5c-0.8,0-1.2-0.6-1.2-1.6c0-0.9,0.4-1.5,1.2-1.5C305.7,62.2,306,62.9,306,63.8 M307.2,63.7
		c0-1.5-0.8-2.4-2.3-2.4c-1.6,0-2.4,1-2.4,2.5c0,1.4,0.8,2.4,2.3,2.4C306.4,66.2,307.2,65.2,307.2,63.7 M302.1,61.4
		c-0.2,0-0.3-0.1-0.5-0.1c-0.5,0-0.8,0.3-1.2,0.9l-0.1-0.8h-0.9v4.6h1.2v-2.9c0.4-0.5,0.7-0.8,1-0.8c0.1,0,0.4,0,0.5,0.1L302.1,61.4
		z M297.1,63.7c0,1-0.4,1.5-1.2,1.5c-0.4,0-0.6-0.1-0.9-0.2V63c0.4-0.5,0.7-0.7,1.2-0.7C296.9,62.3,297.1,62.9,297.1,63.7z
		 M298.3,63.6c0-1.3-0.6-2.2-1.9-2.2c-0.7,0-1.2,0.3-1.6,0.7l-0.1-0.6h-0.9v6.5h1.2v-1.8c0.3,0.1,0.6,0.1,0.9,0.1
		C297.6,66.2,298.3,65,298.3,63.6L298.3,63.6z M290.2,66.1v-2.9c0-1.1-0.5-1.8-1.6-1.8c-0.7,0-1.1,0.2-1.6,0.7l-0.1-0.6H286v4.6h1.2
		v-3.2c0.4-0.4,0.7-0.6,1.1-0.6c0.6,0,0.8,0.4,0.8,1.1v2.7H290.2z M284.7,66.1v-4.6h-1.1v3.2c-0.4,0.4-0.7,0.6-1.1,0.6
		c-0.6,0-0.8-0.4-0.8-1.1v-2.7h-1.2v2.9c0,1.1,0.5,1.8,1.6,1.8c0.7,0,1.1-0.2,1.6-0.7l0.1,0.6H284.7z M279.3,66.1v-4.6h-1.9v0.9h0.7
		v3.8H279.3z M279.4,60.1c0-0.4-0.3-0.7-0.7-0.7s-0.7,0.3-0.7,0.7c0,0.4,0.3,0.7,0.7,0.7S279.4,60.5,279.4,60.1 M276.9,66.1v-0.9
		h-2.2l2.1-2.8v-0.9h-3.3v0.9h2l-2.1,2.8v0.9H276.9z M271.2,64.9c-0.3,0.3-0.6,0.5-1,0.5c-0.5,0-0.7-0.3-0.7-0.6
		c0-0.5,0.4-0.7,1.1-0.7h0.6V64.9z M272.4,66.1v-3.1c0-1-0.5-1.6-1.9-1.6c-0.6,0-1.3,0.1-1.7,0.3l0.2,0.8c0.4-0.2,0.9-0.3,1.4-0.3
		c0.7,0,1,0.3,1,0.9v0.2h-0.6c-1.5,0-2.3,0.4-2.3,1.5c0,0.9,0.6,1.4,1.6,1.4c0.6,0,1-0.2,1.5-0.6l0.1,0.4H272.4z M267.4,66.1v-4.6
		h-1.9v0.9h0.7v3.8H267.4z M267.5,60.1c0-0.4-0.3-0.7-0.7-0.7c-0.4,0-0.7,0.3-0.7,0.7c0,0.4,0.3,0.7,0.7,0.7
		C267.2,60.8,267.5,60.5,267.5,60.1 M264.9,65.1c-0.3,0.1-0.6,0.2-0.9,0.2c-0.8,0-1.2-0.5-1.2-1.5c0-0.9,0.4-1.5,1.2-1.5
		c0.3,0,0.6,0.1,0.8,0.2l0.3-0.9c-0.4-0.2-0.8-0.2-1.2-0.2c-1.4,0-2.3,0.9-2.3,2.5c0,1.4,0.7,2.3,2.2,2.3c0.4,0,0.9-0.1,1.3-0.3
		L264.9,65.1z M259.6,63.8c0,0.9-0.4,1.5-1.2,1.5c-0.8,0-1.2-0.6-1.2-1.6c0-0.9,0.4-1.5,1.2-1.5C259.3,62.2,259.6,62.9,259.6,63.8
		 M260.8,63.7c0-1.5-0.8-2.4-2.3-2.4c-1.6,0-2.4,1-2.4,2.5c0,1.4,0.8,2.4,2.3,2.4C260,66.2,260.8,65.2,260.8,63.7 M255.4,64.7
		c0-0.7-0.4-1.1-1.2-1.4c-0.6-0.2-0.8-0.3-0.8-0.6c0-0.2,0.2-0.5,0.7-0.5c0.3,0,0.7,0.1,1,0.2l0.1-0.9c-0.3-0.1-0.8-0.2-1.2-0.2
		c-1.1,0-1.8,0.6-1.8,1.5c0,0.8,0.5,1.1,1.2,1.4c0.6,0.2,0.8,0.3,0.8,0.6c0,0.4-0.3,0.5-0.7,0.5c-0.4,0-0.8-0.1-1.2-0.2l-0.2,0.9
		c0.4,0.1,0.9,0.2,1.4,0.2C254.7,66.2,255.4,65.6,255.4,64.7 M251.4,64.7c0-0.7-0.4-1.1-1.2-1.4c-0.6-0.2-0.8-0.3-0.8-0.6
		c0-0.2,0.2-0.5,0.7-0.5c0.3,0,0.7,0.1,1,0.2l0.1-0.9c-0.3-0.1-0.8-0.2-1.2-0.2c-1.1,0-1.8,0.6-1.8,1.5c0,0.8,0.5,1.1,1.2,1.4
		c0.6,0.2,0.8,0.3,0.8,0.6c0,0.4-0.3,0.5-0.7,0.5c-0.4,0-0.8-0.1-1.2-0.2l-0.2,0.9c0.4,0.1,0.9,0.2,1.4,0.2
		C250.7,66.2,251.4,65.6,251.4,64.7 M243.7,63.7c0.2-0.7,0.5-1.4,0.7-2.2c0.1-0.2,0.1-0.4,0.2-0.6h0c0.1,0.2,0.1,0.4,0.2,0.6
		c0.3,0.7,0.5,1.5,0.7,2.2H243.7z M247.6,66.1c-0.6-2-1.4-4.2-2.2-6.3H244c-0.8,2.1-1.5,4.1-2.2,6.3h1.2c0.1-0.5,0.3-1,0.4-1.5h2.4
		c0.2,0.5,0.3,1,0.4,1.5H247.6z"/>
	<path id="XMLID_189_" class="st1" d="M449.4,54.1c-0.3,0.3-0.6,0.5-1,0.5c-0.5,0-0.7-0.3-0.7-0.6c0-0.5,0.4-0.7,1.1-0.7h0.6V54.1z
		 M450.5,55.3v-3.1c0-1-0.5-1.6-1.9-1.6c-0.6,0-1.3,0.1-1.7,0.3l0.2,0.8c0.4-0.2,0.9-0.3,1.4-0.3c0.7,0,1,0.3,1,0.9v0.2h-0.6
		c-1.5,0-2.3,0.4-2.3,1.5c0,0.9,0.6,1.4,1.6,1.4c0.6,0,1-0.2,1.5-0.6l0.1,0.4H450.5z M446.3,50.6c-0.2,0-0.3-0.1-0.5-0.1
		c-0.5,0-0.8,0.3-1.2,0.9l-0.1-0.8h-0.9v4.6h1.2v-2.9c0.4-0.5,0.7-0.8,1-0.8c0.1,0,0.4,0,0.5,0.1L446.3,50.6z M439.4,52.5
		c0-0.6,0.3-1.1,1-1.1c0.6,0,0.9,0.4,0.9,1.1H439.4z M442.5,52.7c0-1.3-0.6-2.2-2-2.2c-1.5,0-2.3,1-2.3,2.5c0,1.6,0.7,2.4,2.3,2.4
		c0.7,0,1.3-0.1,1.8-0.3l-0.1-0.8c-0.5,0.1-1,0.2-1.5,0.2c-1,0-1.3-0.5-1.3-1.3h3.1C442.5,53,442.5,52.8,442.5,52.7 M437.6,55.3
		v-0.9h-2.2l2.1-2.8v-0.9h-3.3v0.9h2l-2.1,2.8v0.9H437.6z M433.3,55.3v-0.9h-2.2l2.1-2.8v-0.9h-3.3v0.9h2l-2.1,2.8v0.9H433.3z
		 M428.7,55.3v-4.6h-1.9v0.9h0.7v3.8H428.7z M428.8,49.3c0-0.4-0.3-0.7-0.7-0.7c-0.4,0-0.7,0.3-0.7,0.7c0,0.4,0.3,0.7,0.7,0.7
		C428.5,50,428.8,49.7,428.8,49.3 M425.4,50.7c-0.2,0.9-0.5,1.9-0.8,2.9c-0.1,0.2-0.1,0.4-0.2,0.6h0c-0.1-0.2-0.1-0.4-0.2-0.6
		c-0.3-0.9-0.6-1.9-0.8-2.9h-1.2c0.4,1.6,0.9,3.1,1.5,4.6h1.3c0.6-1.5,1.1-3.1,1.5-4.6H425.4z M421.9,53.4c0-1.1-0.8-1.5-1.7-1.9
		c-0.6-0.2-1-0.5-1-1c0-0.4,0.3-0.7,0.9-0.7c0.4,0,0.8,0.1,1.2,0.2l0.2-0.9c-0.4-0.1-0.9-0.2-1.4-0.2c-1.2,0-2.2,0.7-2.2,1.8
		c0,1,0.6,1.5,1.5,1.8c0.7,0.3,1.2,0.5,1.2,1c0,0.5-0.4,0.9-1.1,0.9c-0.5,0-1-0.1-1.4-0.2l-0.1,1c0.5,0.2,1,0.2,1.5,0.2
		C420.8,55.4,421.9,54.7,421.9,53.4 M411.6,52.5c0-0.6,0.3-1.1,1-1.1c0.6,0,0.9,0.4,0.9,1.1H411.6z M414.7,52.7c0-1.3-0.6-2.2-2-2.2
		c-1.5,0-2.3,1-2.3,2.5c0,1.6,0.7,2.4,2.3,2.4c0.7,0,1.3-0.1,1.8-0.3l-0.1-0.8c-0.5,0.1-1,0.2-1.5,0.2c-1,0-1.3-0.5-1.3-1.3h3.1
		C414.6,53,414.7,52.8,414.7,52.7 M409.9,54.5h-0.3c-0.3,0-0.4-0.2-0.4-0.5v-5.5H408v5.8c0,0.8,0.5,1.1,1.1,1.1
		c0.3,0,0.5-0.1,0.7-0.1V54.5z M405.6,54.1c-0.3,0.3-0.6,0.5-1,0.5c-0.5,0-0.7-0.3-0.7-0.6c0-0.5,0.4-0.7,1.1-0.7h0.6V54.1z
		 M406.8,55.3v-3.1c0-1-0.5-1.6-1.9-1.6c-0.6,0-1.3,0.1-1.7,0.3l0.2,0.8c0.4-0.2,0.9-0.3,1.4-0.3c0.7,0,1,0.3,1,0.9v0.2h-0.6
		c-1.5,0-2.3,0.4-2.3,1.5c0,0.9,0.6,1.4,1.6,1.4c0.6,0,1-0.2,1.5-0.6l0.1,0.4H406.8z M401.8,55.3v-4.6h-1.9v0.9h0.7v3.8H401.8z
		 M401.9,49.3c0-0.4-0.3-0.7-0.7-0.7c-0.4,0-0.7,0.3-0.7,0.7c0,0.4,0.3,0.7,0.7,0.7C401.6,50,401.9,49.7,401.9,49.3 M399.3,54.3
		c-0.3,0.1-0.6,0.2-0.9,0.2c-0.8,0-1.2-0.5-1.2-1.5c0-0.9,0.4-1.5,1.2-1.5c0.3,0,0.6,0.1,0.8,0.2l0.3-0.9c-0.4-0.2-0.8-0.2-1.2-0.2
		c-1.4,0-2.3,0.9-2.3,2.5c0,1.4,0.7,2.3,2.2,2.3c0.4,0,0.9-0.1,1.3-0.3L399.3,54.3z M394.1,53c0,0.9-0.4,1.5-1.2,1.5
		c-0.8,0-1.2-0.6-1.2-1.6c0-0.9,0.4-1.5,1.2-1.5C393.7,51.4,394.1,52.1,394.1,53 M395.3,52.9c0-1.5-0.8-2.4-2.3-2.4
		c-1.6,0-2.4,1-2.4,2.5c0,1.4,0.8,2.4,2.3,2.4C394.4,55.4,395.3,54.4,395.3,52.9 M389.8,53.9c0-0.7-0.4-1.1-1.2-1.4
		c-0.6-0.2-0.8-0.3-0.8-0.6c0-0.2,0.2-0.5,0.7-0.5c0.3,0,0.7,0.1,1,0.2l0.1-0.9c-0.3-0.1-0.8-0.2-1.2-0.2c-1.1,0-1.8,0.6-1.8,1.5
		c0,0.8,0.5,1.1,1.2,1.4c0.5,0.2,0.8,0.3,0.8,0.6c0,0.4-0.3,0.5-0.7,0.5c-0.4,0-0.8-0.1-1.2-0.2l-0.2,0.9c0.4,0.1,0.9,0.2,1.4,0.2
		C389.1,55.4,389.8,54.8,389.8,53.9 M382.2,53c0,0.9-0.4,1.5-1.2,1.5c-0.8,0-1.2-0.6-1.2-1.6c0-0.9,0.4-1.5,1.2-1.5
		C381.8,51.4,382.2,52.1,382.2,53 M383.4,52.9c0-1.5-0.8-2.4-2.3-2.4c-1.6,0-2.4,1-2.4,2.5c0,1.4,0.8,2.4,2.3,2.4
		C382.5,55.4,383.4,54.4,383.4,52.9 M378.2,50.6c-0.2,0-0.3-0.1-0.5-0.1c-0.5,0-0.8,0.3-1.2,0.9l-0.1-0.8h-0.9v4.6h1.2v-2.9
		c0.4-0.5,0.7-0.8,1-0.8c0.1,0,0.4,0,0.5,0.1L378.2,50.6z M373.3,53c0,0.9-0.4,1.5-1.2,1.5c-0.8,0-1.2-0.6-1.2-1.6
		c0-0.9,0.4-1.5,1.2-1.5C372.9,51.4,373.3,52.1,373.3,53 M374.5,52.9c0-1.5-0.8-2.4-2.3-2.4c-1.6,0-2.4,1-2.4,2.5
		c0,1.4,0.8,2.4,2.3,2.4C373.6,55.4,374.5,54.4,374.5,52.9 M368.2,50.7c-0.2,0.9-0.5,1.9-0.8,2.9c-0.1,0.2-0.1,0.4-0.2,0.6h0
		c-0.1-0.2-0.1-0.4-0.2-0.6c-0.3-0.9-0.6-1.9-0.8-2.9H365c0.4,1.6,0.9,3.1,1.5,4.6h1.3c0.6-1.5,1.1-3.1,1.5-4.6H368.2z M363.2,54.1
		c-0.3,0.3-0.6,0.5-1,0.5c-0.5,0-0.7-0.3-0.7-0.6c0-0.5,0.4-0.7,1.1-0.7h0.6V54.1z M364.3,55.3v-3.1c0-1-0.5-1.6-1.9-1.6
		c-0.6,0-1.3,0.1-1.7,0.3l0.2,0.8c0.4-0.2,0.9-0.3,1.4-0.3c0.7,0,1,0.3,1,0.9v0.2h-0.6c-1.5,0-2.3,0.4-2.3,1.5
		c0,0.9,0.6,1.4,1.6,1.4c0.6,0,1-0.2,1.5-0.6l0.1,0.4H364.3z M359.8,54.5h-0.3c-0.3,0-0.4-0.2-0.4-0.5v-5.5H358v5.8
		c0,0.8,0.5,1.1,1.1,1.1c0.3,0,0.5-0.1,0.7-0.1V54.5z M351.4,52.5c0-0.6,0.3-1.1,1-1.1c0.6,0,0.9,0.4,0.9,1.1H351.4z M354.5,52.7
		c0-1.3-0.6-2.2-2-2.2c-1.5,0-2.3,1-2.3,2.5c0,1.6,0.7,2.4,2.3,2.4c0.7,0,1.3-0.1,1.8-0.3l-0.1-0.8c-0.5,0.1-1,0.2-1.5,0.2
		c-1,0-1.3-0.5-1.3-1.3h3.1C354.5,53,354.5,52.8,354.5,52.7 M349.7,54.5h-0.3c-0.3,0-0.4-0.2-0.4-0.5v-5.5h-1.2v5.8
		c0,0.8,0.5,1.1,1.1,1.1c0.3,0,0.5-0.1,0.7-0.1V54.5z M345.5,54.1c-0.3,0.3-0.6,0.5-1,0.5c-0.5,0-0.7-0.3-0.7-0.6
		c0-0.5,0.4-0.7,1.1-0.7h0.6V54.1z M346.6,55.3v-3.1c0-1-0.5-1.6-1.9-1.6c-0.6,0-1.3,0.1-1.7,0.3l0.2,0.8c0.4-0.2,0.9-0.3,1.4-0.3
		c0.7,0,1,0.3,1,0.9v0.2h-0.6c-1.5,0-2.3,0.4-2.3,1.5c0,0.9,0.6,1.4,1.6,1.4c0.6,0,1-0.2,1.5-0.6l0.1,0.4H346.6z M341.7,55.3v-2.9
		c0-1.1-0.5-1.8-1.6-1.8c-0.7,0-1.1,0.2-1.6,0.7l-0.1-0.6h-0.9v4.6h1.2v-3.2c0.4-0.4,0.7-0.6,1.1-0.6c0.6,0,0.8,0.4,0.8,1.1v2.7
		H341.7z M335.3,53c0,0.9-0.4,1.5-1.2,1.5c-0.8,0-1.2-0.6-1.2-1.6c0-0.9,0.4-1.5,1.2-1.5C334.9,51.4,335.3,52.1,335.3,53
		 M336.5,52.9c0-1.5-0.8-2.4-2.3-2.4c-1.6,0-2.4,1-2.4,2.5c0,1.4,0.8,2.4,2.3,2.4C335.6,55.4,336.5,54.4,336.5,52.9 M330.7,55.3
		v-4.6h-1.9v0.9h0.7v3.8H330.7z M330.8,49.3c0-0.4-0.3-0.7-0.7-0.7c-0.4,0-0.7,0.3-0.7,0.7c0,0.4,0.3,0.7,0.7,0.7
		C330.5,50,330.8,49.7,330.8,49.3 M328.3,53.9c0-0.7-0.4-1.1-1.2-1.4c-0.6-0.2-0.8-0.3-0.8-0.6c0-0.2,0.2-0.5,0.7-0.5
		c0.3,0,0.7,0.1,1,0.2l0.1-0.9c-0.3-0.1-0.8-0.2-1.2-0.2c-1.1,0-1.8,0.6-1.8,1.5c0,0.8,0.5,1.1,1.2,1.4c0.6,0.2,0.8,0.3,0.8,0.6
		c0,0.4-0.3,0.5-0.7,0.5c-0.4,0-0.8-0.1-1.2-0.2l-0.2,0.9c0.4,0.1,0.9,0.2,1.4,0.2C327.6,55.4,328.3,54.8,328.3,53.9 M324.4,53.9
		c0-0.7-0.4-1.1-1.2-1.4c-0.6-0.2-0.8-0.3-0.8-0.6c0-0.2,0.2-0.5,0.7-0.5c0.3,0,0.7,0.1,1,0.2l0.1-0.9c-0.3-0.1-0.8-0.2-1.2-0.2
		c-1.1,0-1.8,0.6-1.8,1.5c0,0.8,0.5,1.1,1.2,1.4c0.5,0.2,0.8,0.3,0.8,0.6c0,0.4-0.3,0.5-0.7,0.5c-0.4,0-0.8-0.1-1.2-0.2l-0.2,0.9
		c0.4,0.1,0.9,0.2,1.4,0.2C323.7,55.4,324.4,54.8,324.4,53.9 M317.3,52.5c0-0.6,0.3-1.1,1-1.1c0.6,0,0.9,0.4,0.9,1.1H317.3z
		 M320.4,52.7c0-1.3-0.6-2.2-2-2.2c-1.5,0-2.3,1-2.3,2.5c0,1.6,0.7,2.4,2.3,2.4c0.7,0,1.3-0.1,1.8-0.3l-0.1-0.8
		c-0.5,0.1-1,0.2-1.5,0.2c-1,0-1.3-0.5-1.3-1.3h3.1C320.3,53,320.4,52.8,320.4,52.7 M315.8,49.3v-0.8c-0.2,0-0.4-0.1-0.7-0.1
		c-1.2,0-1.5,0.7-1.5,1.8v0.4h-0.7v0.9h0.7v3.8h1.2v-3.8h1v-0.9h-1v-0.5c0-0.5,0.1-0.9,0.7-0.9H315.8z M311.1,53
		c0,0.9-0.4,1.5-1.2,1.5c-0.8,0-1.2-0.6-1.2-1.6c0-0.9,0.4-1.5,1.2-1.5C310.8,51.4,311.1,52.1,311.1,53 M312.3,52.9
		c0-1.5-0.8-2.4-2.3-2.4c-1.6,0-2.4,1-2.4,2.5c0,1.4,0.8,2.4,2.3,2.4C311.5,55.4,312.3,54.4,312.3,52.9 M307.2,50.6
		c-0.2,0-0.3-0.1-0.5-0.1c-0.5,0-0.8,0.3-1.2,0.9l-0.1-0.8h-0.9v4.6h1.2v-2.9c0.4-0.5,0.7-0.8,1-0.8c0.1,0,0.4,0,0.5,0.1L307.2,50.6
		z M302.2,52.9c0,1-0.4,1.5-1.2,1.5c-0.4,0-0.6-0.1-0.9-0.2v-2.1c0.4-0.5,0.7-0.7,1.2-0.7C302,51.5,302.2,52.1,302.2,52.9z
		 M303.4,52.8c0-1.3-0.6-2.2-1.9-2.2c-0.7,0-1.2,0.3-1.6,0.7l-0.1-0.6H299v6.5h1.2v-1.8c0.3,0.1,0.6,0.1,0.9,0.1
		C302.7,55.4,303.4,54.2,303.4,52.8L303.4,52.8z M292.4,52.5c0-0.6,0.3-1.1,1-1.1c0.6,0,0.9,0.4,0.9,1.1H292.4z M295.5,52.7
		c0-1.3-0.6-2.2-2-2.2c-1.5,0-2.3,1-2.3,2.5c0,1.6,0.7,2.4,2.3,2.4c0.7,0,1.3-0.1,1.8-0.3l-0.1-0.8c-0.5,0.1-1,0.2-1.5,0.2
		c-1,0-1.3-0.5-1.3-1.3h3.1C295.5,53,295.5,52.8,295.5,52.7 M290.3,55.3v-2.9c0-1.1-0.5-1.8-1.6-1.8c-0.7,0-1.1,0.2-1.6,0.7
		l-0.1-0.6h-0.9v4.6h1.2v-3.2c0.4-0.4,0.7-0.6,1.1-0.6c0.6,0,0.8,0.4,0.8,1.1v2.7H290.3z M283.9,53c0,0.9-0.4,1.5-1.2,1.5
		c-0.8,0-1.2-0.6-1.2-1.6c0-0.9,0.4-1.5,1.2-1.5C283.5,51.4,283.9,52.1,283.9,53 M285.1,52.9c0-1.5-0.8-2.4-2.3-2.4
		c-1.6,0-2.4,1-2.4,2.5c0,1.4,0.8,2.4,2.3,2.4C284.2,55.4,285.1,54.4,285.1,52.9 M279.3,55.3v-4.6h-1.9v0.9h0.7v3.8H279.3z
		 M279.4,49.3c0-0.4-0.3-0.7-0.7-0.7s-0.7,0.3-0.7,0.7c0,0.4,0.3,0.7,0.7,0.7S279.4,49.7,279.4,49.3 M276.9,55.3v-0.9h-2.2l2.1-2.8
		v-0.9h-3.3v0.9h2l-2.1,2.8v0.9H276.9z M271.2,54.1c-0.3,0.3-0.6,0.5-1,0.5c-0.5,0-0.7-0.3-0.7-0.6c0-0.5,0.4-0.7,1.1-0.7h0.6V54.1z
		 M272.4,55.3v-3.1c0-1-0.5-1.6-1.9-1.6c-0.6,0-1.3,0.1-1.7,0.3l0.2,0.8c0.4-0.2,0.9-0.3,1.4-0.3c0.7,0,1,0.3,1,0.9v0.2h-0.6
		c-1.5,0-2.3,0.4-2.3,1.5c0,0.9,0.6,1.4,1.6,1.4c0.6,0,1-0.2,1.5-0.6l0.1,0.4H272.4z M267.4,55.3v-4.6h-1.9v0.9h0.7v3.8H267.4z
		 M267.5,49.3c0-0.4-0.3-0.7-0.7-0.7c-0.4,0-0.7,0.3-0.7,0.7c0,0.4,0.3,0.7,0.7,0.7C267.2,50,267.5,49.7,267.5,49.3 M264.9,54.3
		c-0.3,0.1-0.6,0.2-0.9,0.2c-0.8,0-1.2-0.5-1.2-1.5c0-0.9,0.4-1.5,1.2-1.5c0.3,0,0.6,0.1,0.8,0.2l0.3-0.9c-0.4-0.2-0.8-0.2-1.2-0.2
		c-1.4,0-2.3,0.9-2.3,2.5c0,1.4,0.7,2.3,2.2,2.3c0.4,0,0.9-0.1,1.3-0.3L264.9,54.3z M259.6,53c0,0.9-0.4,1.5-1.2,1.5
		c-0.8,0-1.2-0.6-1.2-1.6c0-0.9,0.4-1.5,1.2-1.5C259.3,51.4,259.6,52.1,259.6,53 M260.8,52.9c0-1.5-0.8-2.4-2.3-2.4
		c-1.6,0-2.4,1-2.4,2.5c0,1.4,0.8,2.4,2.3,2.4C260,55.4,260.8,54.4,260.8,52.9 M255.4,53.9c0-0.7-0.4-1.1-1.2-1.4
		c-0.6-0.2-0.8-0.3-0.8-0.6c0-0.2,0.2-0.5,0.7-0.5c0.3,0,0.7,0.1,1,0.2l0.1-0.9c-0.3-0.1-0.8-0.2-1.2-0.2c-1.1,0-1.8,0.6-1.8,1.5
		c0,0.8,0.5,1.1,1.2,1.4c0.6,0.2,0.8,0.3,0.8,0.6c0,0.4-0.3,0.5-0.7,0.5c-0.4,0-0.8-0.1-1.2-0.2l-0.2,0.9c0.4,0.1,0.9,0.2,1.4,0.2
		C254.7,55.4,255.4,54.8,255.4,53.9 M251.4,53.9c0-0.7-0.4-1.1-1.2-1.4c-0.6-0.2-0.8-0.3-0.8-0.6c0-0.2,0.2-0.5,0.7-0.5
		c0.3,0,0.7,0.1,1,0.2l0.1-0.9c-0.3-0.1-0.8-0.2-1.2-0.2c-1.1,0-1.8,0.6-1.8,1.5c0,0.8,0.5,1.1,1.2,1.4c0.6,0.2,0.8,0.3,0.8,0.6
		c0,0.4-0.3,0.5-0.7,0.5c-0.4,0-0.8-0.1-1.2-0.2l-0.2,0.9c0.4,0.1,0.9,0.2,1.4,0.2C250.7,55.4,251.4,54.8,251.4,53.9 M243.7,52.9
		c0.2-0.7,0.5-1.4,0.7-2.2c0.1-0.2,0.1-0.4,0.2-0.6h0c0.1,0.2,0.1,0.4,0.2,0.6c0.3,0.7,0.5,1.5,0.7,2.2H243.7z M247.6,55.3
		c-0.6-2-1.4-4.2-2.2-6.3H244c-0.8,2.1-1.5,4.1-2.2,6.3h1.2c0.1-0.5,0.3-1,0.4-1.5h2.4c0.2,0.5,0.3,1,0.4,1.5H247.6z"/>
	<path id="XMLID_78_" class="st1" d="M452.5,43.7h-0.3c-0.3,0-0.4-0.2-0.4-0.5v-5.5h-1.2v5.8c0,0.8,0.5,1.1,1.1,1.1
		c0.3,0,0.5-0.1,0.7-0.1V43.7z M448.3,43.3c-0.3,0.3-0.6,0.5-1,0.5c-0.5,0-0.7-0.3-0.7-0.6c0-0.5,0.4-0.7,1.1-0.7h0.6V43.3z
		 M449.4,44.5v-3.1c0-1-0.5-1.6-1.9-1.6c-0.6,0-1.3,0.1-1.7,0.3l0.2,0.8c0.4-0.2,0.9-0.3,1.4-0.3c0.7,0,1,0.3,1,0.9v0.2h-0.6
		c-1.5,0-2.3,0.4-2.3,1.5c0,0.9,0.6,1.4,1.6,1.4c0.6,0,1-0.2,1.5-0.6l0.1,0.4H449.4z M444.4,44.5v-4.6h-1.9v0.9h0.7v3.8H444.4z
		 M444.5,38.5c0-0.4-0.3-0.7-0.7-0.7c-0.4,0-0.7,0.3-0.7,0.7c0,0.4,0.3,0.7,0.7,0.7C444.2,39.2,444.5,38.9,444.5,38.5 M441.9,43.5
		c-0.3,0.1-0.6,0.2-0.9,0.2c-0.8,0-1.2-0.5-1.2-1.5c0-0.9,0.4-1.5,1.2-1.5c0.3,0,0.6,0.1,0.8,0.2l0.3-0.9c-0.4-0.2-0.8-0.2-1.2-0.2
		c-1.4,0-2.3,0.9-2.3,2.5c0,1.4,0.7,2.3,2.2,2.3c0.5,0,0.9-0.1,1.3-0.3L441.9,43.5z M436.7,42.2c0,0.9-0.4,1.5-1.2,1.5
		c-0.8,0-1.2-0.6-1.2-1.6c0-0.9,0.4-1.5,1.2-1.5C436.3,40.6,436.7,41.3,436.7,42.2 M437.9,42.1c0-1.5-0.8-2.4-2.3-2.4
		c-1.6,0-2.4,1-2.4,2.5c0,1.4,0.8,2.4,2.3,2.4C437,44.6,437.9,43.6,437.9,42.1 M432.4,43.1c0-0.7-0.4-1.1-1.2-1.4
		c-0.6-0.2-0.8-0.3-0.8-0.6c0-0.2,0.2-0.5,0.7-0.5c0.3,0,0.7,0.1,1,0.2l0.1-0.9c-0.3-0.1-0.8-0.2-1.2-0.2c-1.1,0-1.8,0.6-1.8,1.5
		c0,0.8,0.5,1.1,1.2,1.4c0.5,0.2,0.8,0.3,0.8,0.6c0,0.4-0.3,0.5-0.7,0.5c-0.4,0-0.8-0.1-1.2-0.2l-0.2,0.9c0.4,0.1,0.9,0.2,1.4,0.2
		C431.7,44.6,432.4,44,432.4,43.1 M426.2,43.7h-0.3c-0.3,0-0.4-0.2-0.4-0.5v-5.5h-1.1v5.8c0,0.8,0.5,1.1,1.1,1.1
		c0.3,0,0.5-0.1,0.7-0.1V43.7z M423.1,44.5v-4.6h-1.9v0.9h0.7v3.8H423.1z M423.2,38.5c0-0.4-0.3-0.7-0.7-0.7s-0.7,0.3-0.7,0.7
		c0,0.4,0.3,0.7,0.7,0.7S423.2,38.9,423.2,38.5 M419.3,43.3c-0.3,0.3-0.6,0.5-1,0.5c-0.5,0-0.7-0.3-0.7-0.6c0-0.5,0.4-0.7,1.1-0.7
		h0.6V43.3z M420.5,44.5v-3.1c0-1-0.5-1.6-1.9-1.6c-0.6,0-1.3,0.1-1.7,0.3l0.2,0.8c0.4-0.2,0.9-0.3,1.4-0.3c0.7,0,1,0.3,1,0.9v0.2
		h-0.6c-1.5,0-2.3,0.4-2.3,1.5c0,0.9,0.6,1.4,1.6,1.4c0.6,0,1-0.2,1.5-0.6l0.1,0.4H420.5z M415,39.9c-0.2,0.9-0.5,1.9-0.8,2.9
		c-0.1,0.2-0.1,0.4-0.2,0.6h0c-0.1-0.2-0.1-0.4-0.2-0.6c-0.3-0.9-0.6-1.9-0.8-2.9h-1.2c0.4,1.6,0.9,3.1,1.5,4.6h1.3
		c0.6-1.5,1.1-3.1,1.5-4.6H415z M410,43.3c-0.3,0.3-0.6,0.5-1,0.5c-0.5,0-0.7-0.3-0.7-0.6c0-0.5,0.4-0.7,1.1-0.7h0.6V43.3z
		 M411.2,44.5v-3.1c0-1-0.5-1.6-1.9-1.6c-0.6,0-1.3,0.1-1.7,0.3l0.2,0.8c0.4-0.2,0.9-0.3,1.4-0.3c0.7,0,1,0.3,1,0.9v0.2h-0.6
		c-1.5,0-2.3,0.4-2.3,1.5c0,0.9,0.6,1.4,1.6,1.4c0.6,0,1-0.2,1.5-0.6l0.1,0.4H411.2z M406.9,39.8c-0.2,0-0.3-0.1-0.5-0.1
		c-0.5,0-0.8,0.3-1.2,0.9l-0.1-0.8h-0.9v4.6h1.2v-2.9c0.4-0.5,0.7-0.8,1-0.8c0.1,0,0.4,0,0.5,0.1L406.9,39.8z M403.2,43.7h-0.4
		c-0.5,0-0.6-0.1-0.6-0.7v-2.2h1v-0.9h-1v-1.3h-0.9l-0.3,1.3h-0.7v0.9h0.7v2.5c0,1,0.5,1.3,1.3,1.3c0.3,0,0.7,0,0.9-0.1V43.7z
		 M397.1,44.5v-4.6H396V43c-0.4,0.4-0.7,0.6-1.1,0.6c-0.6,0-0.8-0.4-0.8-1.1v-2.7h-1.2v2.9c0,1.1,0.5,1.8,1.6,1.8
		c0.7,0,1.1-0.2,1.6-0.7l0.1,0.6H397.1z M390.5,43c-0.4,0.5-0.7,0.7-1.2,0.7c-0.7,0-0.9-0.6-0.9-1.4c0-1,0.4-1.5,1.2-1.5
		c0.4,0,0.7,0.1,0.9,0.2V43z M391.7,44.5v-6.7h-1.2v2.1c-0.3-0.1-0.6-0.1-0.9-0.1c-1.6,0-2.4,1.1-2.4,2.6c0,1.3,0.6,2.2,1.9,2.2
		c0.7,0,1.1-0.3,1.6-0.7l0.1,0.6H391.7z M381,41.7c0-0.6,0.3-1.1,1-1.1c0.6,0,0.9,0.4,0.9,1.1H381z M384,41.9c0-1.3-0.6-2.2-2-2.2
		c-1.5,0-2.3,1-2.3,2.5c0,1.6,0.7,2.4,2.3,2.4c0.7,0,1.3-0.1,1.8-0.3l-0.1-0.8c-0.5,0.1-1,0.2-1.5,0.2c-1,0-1.3-0.5-1.3-1.3h3.1
		C384,42.2,384,42,384,41.9 M379.1,43.1c0-0.7-0.4-1.1-1.2-1.4c-0.6-0.2-0.8-0.3-0.8-0.6c0-0.2,0.2-0.5,0.7-0.5c0.3,0,0.7,0.1,1,0.2
		l0.1-0.9c-0.3-0.1-0.8-0.2-1.2-0.2c-1.1,0-1.8,0.6-1.8,1.5c0,0.8,0.5,1.1,1.2,1.4c0.6,0.2,0.8,0.3,0.8,0.6c0,0.4-0.3,0.5-0.7,0.5
		c-0.4,0-0.8-0.1-1.2-0.2l-0.2,0.9c0.4,0.1,0.9,0.2,1.4,0.2C378.4,44.6,379.1,44,379.1,43.1 M375.1,43.1c0-0.7-0.4-1.1-1.2-1.4
		c-0.6-0.2-0.8-0.3-0.8-0.6c0-0.2,0.2-0.5,0.7-0.5c0.3,0,0.7,0.1,1,0.2l0.1-0.9c-0.3-0.1-0.8-0.2-1.2-0.2c-1.1,0-1.8,0.6-1.8,1.5
		c0,0.8,0.5,1.1,1.2,1.4c0.5,0.2,0.8,0.3,0.8,0.6c0,0.4-0.3,0.5-0.7,0.5c-0.4,0-0.8-0.1-1.2-0.2l-0.2,0.9c0.4,0.1,0.9,0.2,1.4,0.2
		C374.4,44.6,375.1,44,375.1,43.1 M370.9,44.5v-4.6H369v0.9h0.7v3.8H370.9z M371,38.5c0-0.4-0.3-0.7-0.7-0.7c-0.4,0-0.7,0.3-0.7,0.7
		c0,0.4,0.3,0.7,0.7,0.7C370.7,39.2,371,38.9,371,38.5 M368.2,44.5v-4.6h-1.2V43c-0.4,0.4-0.7,0.6-1.1,0.6c-0.6,0-0.8-0.4-0.8-1.1
		v-2.7H364v2.9c0,1.1,0.5,1.8,1.6,1.8c0.7,0,1.1-0.2,1.6-0.7l0.1,0.6H368.2z M363.1,43.1c0-0.7-0.4-1.1-1.2-1.4
		c-0.6-0.2-0.8-0.3-0.8-0.6c0-0.2,0.2-0.5,0.7-0.5c0.3,0,0.7,0.1,1,0.2l0.1-0.9c-0.3-0.1-0.8-0.2-1.2-0.2c-1.1,0-1.8,0.6-1.8,1.5
		c0,0.8,0.5,1.1,1.2,1.4c0.5,0.2,0.8,0.3,0.8,0.6c0,0.4-0.3,0.5-0.7,0.5c-0.4,0-0.8-0.1-1.2-0.2l-0.2,0.9c0.4,0.1,0.9,0.2,1.4,0.2
		C362.4,44.6,363.1,44,363.1,43.1 M353.5,41.7c0-0.6,0.3-1.1,1-1.1c0.6,0,0.9,0.4,0.9,1.1H353.5z M356.6,41.9c0-1.3-0.6-2.2-2-2.2
		c-1.5,0-2.3,1-2.3,2.5c0,1.6,0.7,2.4,2.3,2.4c0.7,0,1.3-0.1,1.8-0.3l-0.1-0.8c-0.5,0.1-1,0.2-1.5,0.2c-1,0-1.3-0.5-1.3-1.3h3.1
		C356.6,42.2,356.6,42,356.6,41.9 M351.8,43.7h-0.3c-0.3,0-0.4-0.2-0.4-0.5v-5.5H350v5.8c0,0.8,0.5,1.1,1.1,1.1
		c0.3,0,0.5-0.1,0.7-0.1V43.7z M349.2,43.7h-0.3c-0.3,0-0.4-0.2-0.4-0.5v-5.5h-1.2v5.8c0,0.8,0.5,1.1,1.1,1.1c0.3,0,0.5-0.1,0.7-0.1
		V43.7z M343.3,41.7c0-0.6,0.3-1.1,1-1.1c0.6,0,0.9,0.4,0.9,1.1H343.3z M346.3,41.9c0-1.3-0.6-2.2-2-2.2c-1.5,0-2.3,1-2.3,2.5
		c0,1.6,0.7,2.4,2.3,2.4c0.7,0,1.3-0.1,1.8-0.3l-0.1-0.8c-0.5,0.1-1,0.2-1.5,0.2c-1,0-1.3-0.5-1.3-1.3h3.1
		C346.3,42.2,346.3,42,346.3,41.9 M341.1,44.5v-2.9c0-1.1-0.5-1.8-1.6-1.8c-0.7,0-1.1,0.2-1.6,0.7l-0.1-0.6h-0.9v4.6h1.2v-3.2
		c0.4-0.4,0.7-0.6,1.1-0.6c0.6,0,0.8,0.4,0.8,1.1v2.7H341.1z M335.6,44.5v-2.9c0-1.1-0.5-1.8-1.6-1.8c-0.7,0-1.1,0.2-1.6,0.7
		l-0.1-0.6h-0.9v4.6h1.2v-3.2c0.4-0.4,0.7-0.6,1.1-0.6c0.6,0,0.8,0.4,0.8,1.1v2.7H335.6z M329.2,42.2c0,0.9-0.4,1.5-1.2,1.5
		c-0.8,0-1.2-0.6-1.2-1.6c0-0.9,0.4-1.5,1.2-1.5C328.9,40.6,329.2,41.3,329.2,42.2 M330.5,42.1c0-1.5-0.8-2.4-2.3-2.4
		c-1.6,0-2.4,1-2.4,2.5c0,1.4,0.8,2.4,2.3,2.4C329.6,44.6,330.5,43.6,330.5,42.1 M324.7,44.5v-4.6h-1.9v0.9h0.7v3.8H324.7z
		 M324.8,38.5c0-0.4-0.3-0.7-0.7-0.7c-0.4,0-0.7,0.3-0.7,0.7c0,0.4,0.3,0.7,0.7,0.7C324.5,39.2,324.8,38.9,324.8,38.5 M322.3,43.1
		c0-0.7-0.4-1.1-1.2-1.4c-0.6-0.2-0.8-0.3-0.8-0.6c0-0.2,0.2-0.5,0.7-0.5c0.3,0,0.7,0.1,1,0.2l0.1-0.9c-0.3-0.1-0.8-0.2-1.2-0.2
		c-1.1,0-1.8,0.6-1.8,1.5c0,0.8,0.5,1.1,1.2,1.4c0.6,0.2,0.8,0.3,0.8,0.6c0,0.4-0.3,0.5-0.7,0.5c-0.4,0-0.8-0.1-1.2-0.2l-0.2,0.9
		c0.4,0.1,0.9,0.2,1.4,0.2C321.6,44.6,322.3,44,322.3,43.1 M318.4,43.1c0-0.7-0.4-1.1-1.2-1.4c-0.6-0.2-0.8-0.3-0.8-0.6
		c0-0.2,0.2-0.5,0.7-0.5c0.3,0,0.7,0.1,1,0.2l0.1-0.9c-0.3-0.1-0.8-0.2-1.2-0.2c-1.1,0-1.8,0.6-1.8,1.5c0,0.8,0.5,1.1,1.2,1.4
		c0.5,0.2,0.8,0.3,0.8,0.6c0,0.4-0.3,0.5-0.7,0.5c-0.4,0-0.8-0.1-1.2-0.2l-0.2,0.9c0.4,0.1,0.9,0.2,1.4,0.2
		C317.7,44.6,318.4,44,318.4,43.1 M311.3,41.7c0-0.6,0.3-1.1,1-1.1c0.6,0,0.9,0.4,0.9,1.1H311.3z M314.3,41.9c0-1.3-0.6-2.2-2-2.2
		c-1.5,0-2.3,1-2.3,2.5c0,1.6,0.7,2.4,2.3,2.4c0.7,0,1.3-0.1,1.8-0.3l-0.1-0.8c-0.5,0.1-1,0.2-1.5,0.2c-1,0-1.3-0.5-1.3-1.3h3.1
		C314.3,42.2,314.3,42,314.3,41.9 M309.8,38.5v-0.8c-0.2,0-0.4-0.1-0.7-0.1c-1.2,0-1.5,0.7-1.5,1.8v0.4h-0.7v0.9h0.7v3.8h1.2v-3.8h1
		v-0.9h-1v-0.5c0-0.5,0.1-0.9,0.7-0.9H309.8z M305.1,42.2c0,0.9-0.4,1.5-1.2,1.5c-0.8,0-1.2-0.6-1.2-1.6c0-0.9,0.4-1.5,1.2-1.5
		C304.8,40.6,305.1,41.3,305.1,42.2 M306.3,42.1c0-1.5-0.8-2.4-2.3-2.4c-1.6,0-2.4,1-2.4,2.5c0,1.4,0.8,2.4,2.3,2.4
		C305.5,44.6,306.3,43.6,306.3,42.1 M301.2,39.8c-0.2,0-0.3-0.1-0.5-0.1c-0.5,0-0.8,0.3-1.2,0.9l-0.1-0.8h-0.9v4.6h1.2v-2.9
		c0.4-0.5,0.7-0.8,1-0.8c0.1,0,0.4,0,0.5,0.1L301.2,39.8z M296.2,42.1c0,1-0.4,1.5-1.2,1.5c-0.4,0-0.6-0.1-0.9-0.2v-2.1
		c0.4-0.5,0.7-0.7,1.2-0.7C296,40.7,296.2,41.3,296.2,42.1z M297.4,42c0-1.3-0.6-2.2-1.9-2.2c-0.7,0-1.2,0.3-1.6,0.7l-0.1-0.6H293
		v6.5h1.2v-1.8c0.3,0.1,0.6,0.1,0.9,0.1C296.7,44.6,297.4,43.4,297.4,42L297.4,42z M289.3,44.5v-2.9c0-1.1-0.5-1.8-1.6-1.8
		c-0.7,0-1.1,0.2-1.6,0.7l-0.1-0.6h-0.9v4.6h1.2v-3.2c0.4-0.4,0.7-0.6,1.1-0.6c0.6,0,0.8,0.4,0.8,1.1v2.7H289.3z M282.9,42.2
		c0,0.9-0.4,1.5-1.2,1.5c-0.8,0-1.2-0.6-1.2-1.6c0-0.9,0.4-1.5,1.2-1.5C282.5,40.6,282.9,41.3,282.9,42.2 M284.1,42.1
		c0-1.5-0.8-2.4-2.3-2.4c-1.6,0-2.4,1-2.4,2.5c0,1.4,0.8,2.4,2.3,2.4C283.2,44.6,284.1,43.6,284.1,42.1 M278.3,44.5v-4.6h-1.9v0.9
		h0.7v3.8H278.3z M278.4,38.5c0-0.4-0.3-0.7-0.7-0.7s-0.7,0.3-0.7,0.7c0,0.4,0.3,0.7,0.7,0.7S278.4,38.9,278.4,38.5 M275.9,43.7
		h-0.4c-0.5,0-0.6-0.1-0.6-0.7v-2.2h1v-0.9h-1v-1.3h-0.9l-0.3,1.3h-0.7v0.9h0.7v2.5c0,1,0.5,1.3,1.3,1.3c0.3,0,0.7,0,0.9-0.1V43.7z
		 M271.2,43.3c-0.3,0.3-0.6,0.5-1,0.5c-0.5,0-0.7-0.3-0.7-0.6c0-0.5,0.4-0.7,1.1-0.7h0.6V43.3z M272.4,44.5v-3.1
		c0-1-0.5-1.6-1.9-1.6c-0.6,0-1.3,0.1-1.7,0.3l0.2,0.8c0.4-0.2,0.9-0.3,1.4-0.3c0.7,0,1,0.3,1,0.9v0.2h-0.6c-1.5,0-2.3,0.4-2.3,1.5
		c0,0.9,0.6,1.4,1.6,1.4c0.6,0,1-0.2,1.5-0.6l0.1,0.4H272.4z M267.4,44.5v-4.6h-1.9v0.9h0.7v3.8H267.4z M267.5,38.5
		c0-0.4-0.3-0.7-0.7-0.7c-0.4,0-0.7,0.3-0.7,0.7c0,0.4,0.3,0.7,0.7,0.7C267.2,39.2,267.5,38.9,267.5,38.5 M264.9,43.5
		c-0.3,0.1-0.6,0.2-0.9,0.2c-0.8,0-1.2-0.5-1.2-1.5c0-0.9,0.4-1.5,1.2-1.5c0.3,0,0.6,0.1,0.8,0.2L265,40c-0.4-0.2-0.8-0.2-1.2-0.2
		c-1.4,0-2.3,0.9-2.3,2.5c0,1.4,0.7,2.3,2.2,2.3c0.4,0,0.9-0.1,1.3-0.3L264.9,43.5z M259.6,42.2c0,0.9-0.4,1.5-1.2,1.5
		c-0.8,0-1.2-0.6-1.2-1.6c0-0.9,0.4-1.5,1.2-1.5C259.3,40.6,259.6,41.3,259.6,42.2 M260.8,42.1c0-1.5-0.8-2.4-2.3-2.4
		c-1.6,0-2.4,1-2.4,2.5c0,1.4,0.8,2.4,2.3,2.4C260,44.6,260.8,43.6,260.8,42.1 M255.4,43.1c0-0.7-0.4-1.1-1.2-1.4
		c-0.6-0.2-0.8-0.3-0.8-0.6c0-0.2,0.2-0.5,0.7-0.5c0.3,0,0.7,0.1,1,0.2l0.1-0.9c-0.3-0.1-0.8-0.2-1.2-0.2c-1.1,0-1.8,0.6-1.8,1.5
		c0,0.8,0.5,1.1,1.2,1.4c0.6,0.2,0.8,0.3,0.8,0.6c0,0.4-0.3,0.5-0.7,0.5c-0.4,0-0.8-0.1-1.2-0.2l-0.2,0.9c0.4,0.1,0.9,0.2,1.4,0.2
		C254.7,44.6,255.4,44,255.4,43.1 M251.4,43.1c0-0.7-0.4-1.1-1.2-1.4c-0.6-0.2-0.8-0.3-0.8-0.6c0-0.2,0.2-0.5,0.7-0.5
		c0.3,0,0.7,0.1,1,0.2l0.1-0.9c-0.3-0.1-0.8-0.2-1.2-0.2c-1.1,0-1.8,0.6-1.8,1.5c0,0.8,0.5,1.1,1.2,1.4c0.6,0.2,0.8,0.3,0.8,0.6
		c0,0.4-0.3,0.5-0.7,0.5c-0.4,0-0.8-0.1-1.2-0.2l-0.2,0.9c0.4,0.1,0.9,0.2,1.4,0.2C250.7,44.6,251.4,44,251.4,43.1 M243.7,42.1
		c0.2-0.7,0.5-1.4,0.7-2.2c0.1-0.2,0.1-0.4,0.2-0.6h0c0.1,0.2,0.1,0.4,0.2,0.6c0.3,0.7,0.5,1.5,0.7,2.2H243.7z M247.6,44.5
		c-0.6-2-1.4-4.2-2.2-6.3H244c-0.8,2.1-1.5,4.1-2.2,6.3h1.2c0.1-0.5,0.3-1,0.4-1.5h2.4c0.2,0.5,0.3,1,0.4,1.5H247.6z"/>
	<path id="XMLID_14_" class="st1" d="M398.8,33.7v-0.9h-2.2l2.1-2.8v-0.9h-3.3V30h2l-2.1,2.8v0.9H398.8z M394.2,33.7v-4.6h-1.9v0.9
		h0.7v3.8H394.2z M394.3,27.7c0-0.4-0.3-0.7-0.7-0.7c-0.4,0-0.7,0.3-0.7,0.7c0,0.4,0.3,0.7,0.7,0.7C394,28.4,394.3,28.1,394.3,27.7
		 M388.7,30.9c0-0.6,0.3-1.1,1-1.1c0.6,0,0.9,0.4,0.9,1.1H388.7z M391.8,31.1c0-1.3-0.6-2.1-2-2.1c-1.5,0-2.3,1-2.3,2.5
		c0,1.6,0.7,2.4,2.3,2.4c0.7,0,1.3-0.1,1.8-0.3l-0.1-0.8c-0.5,0.1-1,0.2-1.5,0.2c-1,0-1.3-0.5-1.3-1.3h3.1
		C391.7,31.4,391.8,31.2,391.8,31.1 M385.9,29.1c-0.2,0.9-0.4,1.9-0.6,2.8c-0.1,0.2-0.1,0.5-0.2,0.7h0l-0.2-0.7l-0.8-2.8h-1.2
		l-0.7,2.8l-0.2,0.7h0c-0.1-0.2-0.1-0.5-0.2-0.7c-0.2-0.9-0.5-1.8-0.7-2.8H380c0.3,1.5,0.8,3.1,1.3,4.6h1.3l0.7-2.7l0.1-0.5h0
		l0.1,0.5l0.7,2.7h1.3c0.6-1.5,1-3.1,1.4-4.6H385.9z M379.2,33.7v-2.9c0-1.1-0.5-1.8-1.6-1.8c-0.6,0-1,0.2-1.4,0.6v-2.6H375v6.7h1.2
		v-3.2c0.4-0.4,0.7-0.6,1.1-0.6c0.6,0,0.8,0.4,0.8,1.1v2.7H379.2z M374,32.7c-0.3,0.1-0.6,0.2-0.9,0.2c-0.8,0-1.2-0.5-1.2-1.5
		c0-0.9,0.4-1.5,1.2-1.5c0.3,0,0.6,0.1,0.8,0.2l0.3-0.9c-0.4-0.2-0.8-0.2-1.2-0.2c-1.4,0-2.3,0.9-2.3,2.5c0,1.4,0.7,2.3,2.2,2.3
		c0.5,0,0.9-0.1,1.3-0.3L374,32.7z M370,31.8c0-1.1-0.8-1.5-1.7-1.9c-0.6-0.2-1-0.5-1-1c0-0.4,0.3-0.7,0.9-0.7
		c0.4,0,0.8,0.1,1.2,0.2l0.2-0.9c-0.4-0.1-0.9-0.2-1.4-0.2c-1.2,0-2.2,0.7-2.2,1.8c0,1,0.6,1.5,1.5,1.8c0.7,0.3,1.2,0.5,1.2,1
		c0,0.5-0.4,0.9-1.1,0.9c-0.5,0-1-0.1-1.4-0.2l-0.1,1c0.5,0.2,1,0.2,1.5,0.2C368.9,33.8,370,33.1,370,31.8 M362.8,32.9h-0.4
		c-0.5,0-0.6-0.1-0.6-0.7v-2.2h1v-0.9h-1v-1.3h-0.9l-0.3,1.3H360v0.9h0.7v2.5c0,1,0.5,1.3,1.3,1.3c0.3,0,0.7,0,0.9-0.1V32.9z
		 M359.2,33.7v-4.6h-1.9v0.9h0.7v3.8H359.2z M359.3,27.7c0-0.4-0.3-0.7-0.7-0.7s-0.7,0.3-0.7,0.7c0,0.4,0.3,0.7,0.7,0.7
		S359.3,28.1,359.3,27.7 M353.7,30.9c0-0.6,0.3-1.1,1-1.1c0.6,0,0.9,0.4,0.9,1.1H353.7z M356.8,31.1c0-1.3-0.6-2.1-2-2.1
		c-1.5,0-2.3,1-2.3,2.5c0,1.6,0.7,2.4,2.3,2.4c0.7,0,1.3-0.1,1.8-0.3l-0.1-0.8c-0.5,0.1-1,0.2-1.5,0.2c-1,0-1.3-0.5-1.3-1.3h3.1
		C356.8,31.4,356.8,31.2,356.8,31.1 M350.5,31.3c0,1-0.4,1.5-1.2,1.5c-0.3,0-0.6-0.1-0.9-0.2v-2.1c0.4-0.5,0.8-0.7,1.2-0.7
		C350.3,29.9,350.5,30.5,350.5,31.3 M351.7,31.2c0-1.2-0.6-2.2-1.9-2.2c-0.6,0-1.1,0.2-1.4,0.6v-2.6h-1.2v6.5
		c0.6,0.2,1.3,0.3,1.9,0.3C351,33.8,351.7,32.7,351.7,31.2 M346.6,29c-0.2,0-0.3-0.1-0.5-0.1c-0.5,0-0.8,0.3-1.2,0.9l-0.1-0.8h-0.9
		v4.6h1.2v-2.9c0.4-0.5,0.7-0.8,1-0.8c0.1,0,0.4,0,0.5,0.1L346.6,29z M339.1,31.3c0.2-0.7,0.5-1.4,0.7-2.2c0.1-0.2,0.1-0.4,0.2-0.6
		h0c0.1,0.2,0.1,0.4,0.2,0.6c0.3,0.7,0.5,1.5,0.7,2.2H339.1z M343,33.7c-0.6-2-1.4-4.2-2.2-6.3h-1.4c-0.8,2.1-1.5,4.1-2.2,6.3h1.2
		c0.1-0.5,0.3-1,0.4-1.5h2.4c0.2,0.5,0.3,1,0.4,1.5H343z M331.1,30.9c0-0.6,0.3-1.1,1-1.1c0.6,0,0.9,0.4,0.9,1.1H331.1z M334.2,31.1
		c0-1.3-0.6-2.1-2-2.1c-1.5,0-2.3,1-2.3,2.5c0,1.6,0.7,2.4,2.3,2.4c0.7,0,1.3-0.1,1.8-0.3l-0.1-0.8c-0.5,0.1-1,0.2-1.5,0.2
		c-1,0-1.3-0.5-1.3-1.3h3.1C334.2,31.4,334.2,31.2,334.2,31.1 M329.4,32.9h-0.3c-0.3,0-0.4-0.2-0.4-0.5v-5.5h-1.2v5.8
		c0,0.8,0.5,1.1,1.1,1.1c0.3,0,0.5-0.1,0.7-0.1V32.9z M325.2,32.5c-0.3,0.3-0.6,0.5-1,0.5c-0.5,0-0.7-0.3-0.7-0.6
		c0-0.5,0.4-0.7,1.1-0.7h0.6V32.5z M326.3,33.7v-3.1c0-1-0.5-1.6-1.9-1.6c-0.6,0-1.3,0.1-1.7,0.3l0.2,0.8c0.4-0.2,0.9-0.3,1.4-0.3
		c0.7,0,1,0.3,1,0.9v0.2h-0.6c-1.5,0-2.3,0.4-2.3,1.5c0,0.9,0.6,1.4,1.6,1.4c0.6,0,1-0.2,1.5-0.6l0.1,0.4H326.3z M321.3,33.7v-4.6
		h-1.9v0.9h0.7v3.8H321.3z M321.4,27.7c0-0.4-0.3-0.7-0.7-0.7c-0.4,0-0.7,0.3-0.7,0.7c0,0.4,0.3,0.7,0.7,0.7
		C321.1,28.4,321.4,28.1,321.4,27.7 M319,33.7v-0.9h-2.2l2.1-2.8v-0.9h-3.3V30h2l-2.1,2.8v0.9H319z M313.5,31.4
		c0,0.9-0.4,1.5-1.2,1.5c-0.8,0-1.2-0.6-1.2-1.6c0-0.9,0.4-1.5,1.2-1.5C313.2,29.8,313.5,30.5,313.5,31.4 M314.7,31.3
		c0-1.5-0.8-2.4-2.3-2.4c-1.6,0-2.4,1-2.4,2.5c0,1.4,0.8,2.4,2.3,2.4C313.9,33.8,314.7,32.8,314.7,31.3 M309.3,31.8
		c0-1.1-0.8-1.5-1.7-1.9c-0.6-0.2-1-0.5-1-1c0-0.4,0.3-0.7,0.9-0.7c0.4,0,0.8,0.1,1.2,0.2l0.2-0.9c-0.4-0.1-0.9-0.2-1.4-0.2
		c-1.2,0-2.2,0.7-2.2,1.8c0,1,0.6,1.5,1.5,1.8c0.7,0.3,1.2,0.5,1.2,1c0,0.5-0.4,0.9-1.1,0.9c-0.5,0-1-0.1-1.4-0.2l-0.1,1
		c0.5,0.2,1,0.2,1.5,0.2C308.2,33.8,309.3,33.1,309.3,31.8 M300.7,32.2c-0.4,0.5-0.7,0.7-1.2,0.7c-0.7,0-0.9-0.6-0.9-1.4
		c0-1,0.4-1.5,1.2-1.5c0.4,0,0.7,0.1,0.9,0.2V32.2z M301.8,33.7v-6.7h-1.2v2.1c-0.3-0.1-0.6-0.1-0.9-0.1c-1.6,0-2.4,1.1-2.4,2.6
		c0,1.3,0.6,2.2,1.9,2.2c0.7,0,1.1-0.3,1.6-0.7l0.1,0.6H301.8z M296.4,33.7v-2.9c0-1.1-0.5-1.8-1.6-1.8c-0.7,0-1.1,0.2-1.6,0.7
		l-0.1-0.6h-0.9v4.6h1.1v-3.2c0.4-0.4,0.7-0.6,1.1-0.6c0.6,0,0.8,0.4,0.8,1.1v2.7H296.4z M289.8,32.5c-0.3,0.3-0.6,0.5-1,0.5
		c-0.5,0-0.7-0.3-0.7-0.6c0-0.5,0.4-0.7,1.1-0.7h0.6V32.5z M291,33.7v-3.1c0-1-0.5-1.6-1.9-1.6c-0.6,0-1.3,0.1-1.7,0.3l0.2,0.8
		c0.4-0.2,0.9-0.3,1.4-0.3c0.7,0,1,0.3,1,0.9v0.2h-0.6c-1.5,0-2.3,0.4-2.3,1.5c0,0.9,0.6,1.4,1.6,1.4c0.6,0,1-0.2,1.5-0.6l0.1,0.4
		H291z M285,31.3c0,1-0.4,1.5-1.2,1.5c-0.3,0-0.6-0.1-0.9-0.2v-2.1c0.4-0.5,0.8-0.7,1.2-0.7C284.8,29.9,285,30.5,285,31.3
		 M286.2,31.2c0-1.2-0.6-2.2-1.9-2.2c-0.6,0-1.1,0.2-1.4,0.6v-2.6h-1.2v6.5c0.6,0.2,1.3,0.3,1.9,0.3
		C285.5,33.8,286.2,32.7,286.2,31.2 M281.1,29c-0.2,0-0.3-0.1-0.5-0.1c-0.5,0-0.8,0.3-1.2,0.9l-0.1-0.8h-0.9v4.6h1.2v-2.9
		c0.4-0.5,0.7-0.8,1-0.8c0.1,0,0.4,0,0.5,0.1L281.1,29z M274.2,30.9c0-0.6,0.3-1.1,1-1.1c0.6,0,0.9,0.4,0.9,1.1H274.2z M277.3,31.1
		c0-1.3-0.6-2.1-2-2.1c-1.5,0-2.3,1-2.3,2.5c0,1.6,0.7,2.4,2.3,2.4c0.7,0,1.3-0.1,1.8-0.3l-0.1-0.8c-0.5,0.1-1,0.2-1.5,0.2
		c-1,0-1.3-0.5-1.3-1.3h3.1C277.3,31.4,277.3,31.2,277.3,31.1 M271.4,29.1c-0.2,0.9-0.5,1.9-0.8,2.9c-0.1,0.2-0.1,0.4-0.2,0.6h0
		c-0.1-0.2-0.1-0.4-0.2-0.6c-0.3-0.9-0.6-1.9-0.8-2.9h-1.2c0.4,1.6,0.9,3.1,1.5,4.6h1.3c0.6-1.5,1.1-3.1,1.5-4.6H271.4z M267.8,32.3
		c0-0.7-0.4-1.1-1.2-1.4c-0.6-0.2-0.8-0.3-0.8-0.6c0-0.2,0.2-0.5,0.7-0.5c0.3,0,0.7,0.1,1,0.2l0.1-0.9c-0.3-0.1-0.8-0.2-1.2-0.2
		c-1.1,0-1.8,0.6-1.8,1.5c0,0.8,0.5,1.1,1.2,1.4c0.5,0.2,0.8,0.3,0.8,0.6c0,0.4-0.3,0.5-0.7,0.5c-0.4,0-0.8-0.1-1.2-0.2l-0.2,0.9
		c0.4,0.1,0.9,0.2,1.4,0.2C267.1,33.8,267.8,33.2,267.8,32.3 M264.2,27.7v-0.8c-0.2,0-0.4-0.1-0.7-0.1c-1.2,0-1.5,0.7-1.5,1.8v0.4
		h-0.7v0.9h0.7v3.8h1.2v-3.8h1v-0.9h-1v-0.5c0-0.5,0.1-0.9,0.7-0.9H264.2z M260.5,33.7v-4.6h-1.2v3.2c-0.4,0.4-0.7,0.6-1.1,0.6
		c-0.6,0-0.8-0.4-0.8-1.1v-2.7h-1.2V32c0,1.1,0.5,1.8,1.6,1.8c0.7,0,1.1-0.2,1.6-0.7l0.1,0.6H260.5z M255.5,29
		c-0.2,0-0.3-0.1-0.5-0.1c-0.5,0-0.8,0.3-1.2,0.9l-0.1-0.8h-0.9v4.6h1.2v-2.9c0.4-0.5,0.7-0.8,1-0.8c0.1,0,0.4,0,0.5,0.1L255.5,29z
		 M248.7,30.9c0-0.6,0.3-1.1,1-1.1c0.6,0,0.9,0.4,0.9,1.1H248.7z M251.7,31.1c0-1.3-0.6-2.1-2-2.1c-1.5,0-2.3,1-2.3,2.5
		c0,1.6,0.7,2.4,2.3,2.4c0.7,0,1.3-0.1,1.8-0.3l-0.1-0.8c-0.5,0.1-1,0.2-1.5,0.2c-1,0-1.3-0.5-1.3-1.3h3.1
		C251.7,31.4,251.7,31.2,251.7,31.1 M245.5,31.9c0,0.6-0.4,0.9-1,0.9h-0.9v-1.9h0.8C245.1,30.9,245.5,31.3,245.5,31.9 M245.2,29.1
		c0,0.5-0.3,0.9-0.9,0.9h-0.8v-1.7h0.6C244.9,28.3,245.2,28.6,245.2,29.1 M246.8,31.8c0-0.8-0.5-1.3-1.2-1.5
		c0.5-0.2,0.8-0.7,0.8-1.3c0-1.1-0.8-1.6-2.1-1.6h-1.9v6.3h2C245.6,33.7,246.8,33.1,246.8,31.8"/>
</g>
</svg>
