<?xml version="1.0" standalone="no"?>
<!DOCTYPE svg PUBLIC "-//W3C//DTD SVG 1.1//EN" "http://www.w3.org/Graphics/SVG/1.1/DTD/svg11.dtd">
<!--Generator: Xara Designer (www.xara.com), SVG filter version: 6.6.0.8-->
<svg fill="none" fill-rule="evenodd" stroke="black" stroke-width="0.501" stroke-linejoin="bevel" stroke-miterlimit="10" font-family="Times New Roman" font-size="16" style="font-variant-ligatures:none" xmlns:xlink="http://www.w3.org/1999/xlink" xmlns="http://www.w3.org/2000/svg" version="1.1" overflow="visible" width="501.915pt" height="51.28pt" viewBox="45.958 -71.839 501.915 51.28">
 <defs>
	</defs>
 <g id="Layer 1" transform="scale(1 -1)">
  <path d="M 242.733,55.27 C 240.193,55.27 238.137,53.214 238.137,50.674 C 238.137,50.069 238.258,49.585 238.5,48.981 L 225.922,40.636 C 225.075,41.482 223.987,41.966 222.656,41.966 C 220.479,41.966 218.544,40.394 218.181,38.338 L 201.37,38.338 C 200.886,40.394 199.072,41.966 196.895,41.966 C 194.356,41.966 192.299,39.91 192.299,37.37 C 192.299,34.83 194.356,32.774 196.895,32.774 C 199.072,32.774 200.886,34.347 201.37,36.282 L 218.181,36.282 C 218.665,34.226 220.479,32.774 222.656,32.774 C 223.987,32.774 225.075,33.258 225.922,34.226 L 231.848,30.597 C 231.727,30.114 231.606,29.63 231.606,29.146 C 231.606,26.606 233.662,24.55 236.202,24.55 C 238.742,24.55 240.798,26.606 240.798,29.146 C 240.798,31.686 238.742,33.742 236.202,33.742 C 234.872,33.742 233.783,33.137 232.936,32.291 L 227.01,35.919 C 227.131,36.403 227.252,36.886 227.252,37.37 C 227.252,37.975 227.131,38.459 226.889,38.942 L 239.467,47.288 C 240.314,46.441 241.402,45.957 242.612,45.957 C 245.152,45.957 247.208,48.013 247.208,50.553 C 247.208,53.093 245.273,55.27 242.733,55.27" fill="#f08823" stroke-linejoin="miter" fill-rule="nonzero" stroke-width="1.209" stroke="none"/>
  <path d="M 221.568,48.739 C 221.205,48.739 220.842,48.618 220.6,48.618 C 219.995,48.618 219.391,48.618 218.907,48.739 C 218.423,48.86 217.939,48.981 217.577,49.223 C 217.214,49.464 216.972,49.827 216.73,50.19 C 216.488,50.553 216.367,51.158 216.367,51.762 L 216.367,71.476 L 220.358,71.476 L 220.358,52.851 C 220.358,52.125 220.721,51.762 221.568,51.762 L 222.656,51.762 L 222.656,49.102 C 222.293,48.86 221.931,48.86 221.568,48.739 M 208.143,55.754 L 206.087,55.754 C 204.757,55.754 203.91,55.633 203.426,55.27 C 202.943,54.907 202.701,54.302 202.701,53.577 C 202.701,52.246 203.426,51.521 204.878,51.521 C 205.482,51.521 206.087,51.641 206.571,52.004 C 207.055,52.367 207.659,52.73 208.143,53.335 L 208.143,55.754 Z M 209.111,48.981 L 208.748,50.795 C 208.264,50.19 207.538,49.706 206.813,49.223 C 206.087,48.739 205.119,48.618 203.91,48.618 C 202.338,48.618 201.128,48.981 200.161,49.827 C 199.193,50.674 198.709,51.762 198.709,53.093 C 198.709,55.028 199.314,56.358 200.645,57.084 C 201.975,57.931 203.91,58.293 206.45,58.293 L 208.143,58.293 L 208.143,58.656 C 208.143,59.745 207.901,60.47 207.417,60.954 C 206.934,61.438 206.208,61.559 204.999,61.559 C 204.152,61.559 203.305,61.438 202.58,61.317 C 201.854,61.196 201.128,60.954 200.524,60.712 L 200.04,63.615 C 200.886,63.978 201.733,64.22 202.701,64.341 C 203.668,64.461 204.636,64.582 205.603,64.582 C 206.813,64.582 207.78,64.461 208.627,64.22 C 209.473,63.978 210.199,63.615 210.683,63.131 C 211.167,62.647 211.65,62.043 211.892,61.317 C 212.134,60.591 212.255,59.745 212.255,58.777 L 212.255,48.739 L 209.111,48.739 Z M 191.332,48.981 L 191.332,61.317 L 189.034,61.317 L 189.034,64.461 L 195.323,64.461 L 195.323,48.981 L 191.332,48.981 Z M 195.081,67.727 C 194.597,67.243 193.993,67.001 193.388,67.001 C 192.783,67.001 192.179,67.243 191.695,67.727 C 191.211,68.211 190.969,68.815 190.969,69.42 C 190.969,70.146 191.211,70.63 191.695,71.113 C 192.179,71.597 192.783,71.839 193.388,71.839 C 193.993,71.839 194.597,71.597 195.081,71.113 C 195.565,70.63 195.807,70.025 195.807,69.42 C 195.807,68.694 195.565,68.09 195.081,67.727 M 184.68,48.981 C 183.833,48.86 182.987,48.739 182.14,48.739 C 179.842,48.739 178.028,49.464 176.819,50.795 C 175.609,52.125 175.005,54.06 175.005,56.358 C 175.005,57.689 175.246,58.898 175.609,59.987 C 175.972,61.075 176.456,61.922 177.182,62.647 C 177.907,63.373 178.633,63.857 179.6,64.22 C 180.568,64.582 181.656,64.824 182.866,64.824 C 183.471,64.824 184.196,64.824 184.801,64.703 C 185.406,64.582 186.01,64.461 186.615,64.22 L 185.769,60.954 C 185.406,61.196 184.922,61.317 184.438,61.438 C 183.954,61.559 183.471,61.559 182.866,61.559 C 181.656,61.559 180.689,61.075 180.084,60.228 C 179.479,59.382 179.117,58.172 179.117,56.721 C 179.117,55.27 179.479,54.181 180.084,53.214 C 180.689,52.367 181.656,51.883 182.866,51.883 C 183.35,51.883 183.954,51.883 184.559,52.004 C 185.164,52.125 185.648,52.367 186.131,52.609 L 186.857,49.464 C 186.252,49.344 185.406,49.102 184.68,48.981 M 168.111,58.535 C 167.99,59.14 167.748,59.745 167.385,60.108 C 167.022,60.591 166.659,60.954 166.176,61.196 C 165.692,61.438 165.087,61.559 164.483,61.559 C 163.878,61.559 163.273,61.438 162.789,61.196 C 162.306,60.954 161.943,60.591 161.58,60.108 C 161.217,59.624 160.975,59.14 160.854,58.535 C 160.733,57.931 160.612,57.326 160.612,56.721 C 160.612,53.335 161.943,51.641 164.603,51.641 C 165.208,51.641 165.813,51.762 166.297,52.125 C 166.78,52.367 167.143,52.73 167.385,53.214 C 167.627,53.698 167.869,54.181 167.99,54.786 C 168.111,55.391 168.232,55.874 168.232,56.479 C 168.353,57.326 168.232,57.931 168.111,58.535 M 171.981,53.577 C 171.618,52.609 171.134,51.762 170.409,50.916 C 169.683,50.19 168.836,49.585 167.869,49.223 C 166.901,48.86 165.692,48.618 164.362,48.618 C 161.822,48.618 159.887,49.344 158.556,50.674 C 157.226,52.004 156.5,53.939 156.5,56.479 C 156.5,57.689 156.621,58.898 156.984,59.866 C 157.347,60.833 157.831,61.801 158.556,62.526 C 159.282,63.252 160.129,63.857 161.096,64.22 C 162.064,64.582 163.273,64.824 164.603,64.824 C 165.934,64.824 167.022,64.582 167.99,64.22 C 168.957,63.857 169.804,63.252 170.409,62.526 C 171.013,61.801 171.497,60.954 171.86,59.987 C 172.223,59.019 172.344,57.931 172.344,56.721 C 172.465,55.633 172.344,54.544 171.981,53.577 M 153.356,52.125 C 152.872,51.279 152.267,50.553 151.542,50.069 C 150.816,49.585 149.848,49.223 148.881,48.981 C 147.913,48.739 146.825,48.618 145.736,48.618 C 144.89,48.618 144.043,48.739 143.196,48.739 C 142.35,48.86 141.503,49.102 140.536,49.344 L 141.02,52.73 C 141.745,52.488 142.471,52.246 143.438,52.125 C 144.285,52.004 145.132,51.883 145.978,51.883 C 147.188,51.883 148.155,52.125 148.76,52.609 C 149.365,53.093 149.727,53.698 149.727,54.544 C 149.727,55.028 149.606,55.512 149.365,55.874 C 149.123,56.237 148.881,56.6 148.518,56.842 C 148.155,57.084 147.792,57.326 147.309,57.568 C 146.825,57.81 146.341,57.931 145.857,58.172 C 145.253,58.414 144.527,58.777 143.922,59.019 C 143.317,59.382 142.713,59.745 142.229,60.107 C 141.745,60.591 141.261,61.075 141.02,61.801 C 140.657,62.405 140.536,63.252 140.536,64.22 C 140.536,65.187 140.778,66.155 141.14,66.88 C 141.503,67.606 141.987,68.332 142.713,68.815 C 143.317,69.299 144.164,69.662 145.011,69.904 C 145.857,70.146 146.825,70.267 147.913,70.267 C 148.76,70.267 149.727,70.146 150.574,70.025 C 151.421,69.904 152.267,69.662 152.993,69.42 L 152.267,66.155 C 151.663,66.397 150.937,66.638 150.09,66.759 C 149.244,66.88 148.518,67.001 147.792,67.001 C 145.857,67.001 144.89,66.155 144.89,64.461 C 144.89,64.099 145.011,63.736 145.132,63.373 C 145.373,63.131 145.615,62.768 145.857,62.526 C 146.22,62.284 146.583,62.043 146.946,61.922 C 147.309,61.801 147.792,61.559 148.276,61.317 C 148.881,61.075 149.606,60.712 150.211,60.47 C 150.937,60.107 151.542,59.745 152.025,59.261 C 152.509,58.777 152.993,58.172 153.356,57.568 C 153.719,56.842 153.84,56.116 153.84,55.028 C 154.081,53.939 153.839,52.972 153.356,52.125" fill="#f08823" stroke-linejoin="miter" fill-rule="nonzero" stroke-width="1.209" stroke="none"/>
  <path d="M 137.512,60.833 C 137.27,60.833 137.028,60.954 136.786,60.954 C 136.545,60.954 136.303,60.954 136.061,60.954 C 135.819,60.954 135.456,60.833 135.214,60.712 C 134.972,60.591 134.61,60.349 134.368,60.108 C 134.126,59.866 133.763,59.624 133.521,59.382 C 133.279,59.14 133.037,58.777 132.795,58.535 L 132.795,48.86 L 128.804,48.86 L 128.804,64.461 L 131.949,64.461 L 132.433,61.801 C 132.674,62.164 132.916,62.526 133.158,62.889 C 133.4,63.252 133.763,63.615 134.126,63.857 C 134.489,64.099 134.851,64.341 135.335,64.582 C 135.819,64.824 136.303,64.824 136.786,64.824 C 137.028,64.824 137.27,64.824 137.512,64.824 C 137.754,64.824 137.996,64.824 138.117,64.703 L 137.512,60.833 Z M 120.338,48.981 L 120.338,61.317 L 118.04,61.317 L 118.04,64.461 L 124.329,64.461 L 124.329,48.981 L 120.338,48.981 Z M 124.087,67.727 C 123.604,67.243 122.999,67.001 122.394,67.001 C 121.669,67.001 121.185,67.243 120.701,67.727 C 120.217,68.211 119.975,68.815 119.975,69.42 C 119.975,70.146 120.217,70.63 120.701,71.113 C 121.185,71.597 121.79,71.839 122.394,71.839 C 123.12,71.839 123.604,71.597 124.087,71.113 C 124.571,70.63 124.813,70.025 124.813,69.42 C 124.813,68.694 124.571,68.09 124.087,67.727 M 111.267,48.981 L 111.267,58.172 C 111.267,59.382 111.146,60.349 110.784,60.954 C 110.421,61.438 109.816,61.68 108.849,61.68 C 108.123,61.68 107.518,61.438 106.793,61.075 C 106.188,60.591 105.583,60.108 105.099,59.503 L 105.099,49.102 L 101.108,49.102 L 101.108,64.461 L 104.132,64.461 L 104.495,62.526 C 105.341,63.373 106.067,63.857 106.913,64.22 C 107.76,64.582 108.607,64.824 109.695,64.824 C 110.663,64.824 111.388,64.703 112.114,64.341 C 112.84,64.099 113.323,63.615 113.807,63.131 C 114.291,62.647 114.654,61.922 114.775,61.196 C 115.017,60.47 115.138,59.624 115.138,58.777 L 115.138,48.981 L 111.267,48.981 Z M 93.368,59.866 C 93.247,60.349 93.126,60.712 92.884,61.075 C 92.642,61.438 92.4,61.68 91.916,61.801 C 91.554,61.922 91.07,62.043 90.465,62.043 C 89.981,62.043 89.498,61.922 89.014,61.68 C 88.651,61.438 88.288,61.196 88.046,60.833 C 87.804,60.47 87.563,60.108 87.442,59.624 C 87.321,59.14 87.2,58.777 87.2,58.293 L 93.368,58.293 C 93.489,58.898 93.489,59.382 93.368,59.866 M 97.48,56.721 C 97.48,56.479 97.48,56.116 97.48,55.874 L 87.321,55.874 C 87.321,54.544 87.683,53.577 88.409,52.851 C 89.135,52.125 90.223,51.883 91.554,51.883 C 92.279,51.883 93.126,51.883 94.093,52.004 C 95.061,52.125 95.908,52.246 96.633,52.488 L 96.996,49.464 C 96.029,49.102 94.94,48.86 93.973,48.739 C 93.005,48.618 91.917,48.618 90.949,48.618 C 88.288,48.618 86.353,49.223 85.144,50.553 C 83.934,51.883 83.209,53.818 83.209,56.6 C 83.209,57.81 83.33,59.019 83.692,59.987 C 84.055,60.954 84.539,61.922 85.265,62.647 C 85.99,63.373 86.716,63.978 87.683,64.341 C 88.651,64.703 89.74,64.945 90.949,64.945 C 93.247,64.945 94.94,64.341 96.029,63.01 C 97.117,61.68 97.601,59.987 97.601,57.689 C 97.48,57.205 97.48,56.963 97.48,56.721 M 79.217,56.721 C 78.371,54.181 77.403,51.641 76.315,48.981 L 71.356,48.981 C 70.268,51.521 69.3,54.06 68.453,56.6 C 67.607,59.14 66.76,61.801 65.914,64.341 L 70.389,64.341 C 70.872,62.405 71.477,60.591 72.082,58.656 C 72.687,56.721 73.291,54.786 74.017,52.972 L 74.017,52.972 C 74.743,54.786 75.347,56.721 75.952,58.656 C 76.557,60.591 77.04,62.526 77.524,64.341 L 81.636,64.341 C 80.911,61.801 80.064,59.261 79.217,56.721 M 57.69,61.317 C 57.206,62.768 56.601,64.22 56.117,65.671 L 56.117,65.671 C 55.513,64.22 55.029,62.768 54.545,61.317 C 54.061,59.866 53.577,58.414 53.094,56.963 L 59.383,56.963 C 58.657,58.535 58.173,59.987 57.69,61.317 M 61.56,48.981 C 61.318,49.706 61.076,50.553 60.834,51.4 C 60.592,52.246 60.35,52.972 60.108,53.818 L 51.763,53.818 C 51.521,52.972 51.28,52.246 51.038,51.4 C 50.796,50.553 50.554,49.827 50.312,48.981 L 45.958,48.981 C 47.167,52.488 48.377,55.995 49.707,59.503 C 50.917,63.01 52.368,66.397 53.698,69.904 L 58.415,69.904 C 59.867,66.397 61.197,62.889 62.527,59.503 C 63.858,55.995 65.067,52.609 66.277,49.102 L 61.56,49.102 Z" stroke-linejoin="miter" fill-rule="nonzero" stroke-width="1.209" fill="#5e5e5e" stroke="none" marker-start="none" marker-end="none"/>
  <g id="Group" fill-rule="nonzero" stroke-linejoin="miter" stroke="none" stroke-width="1.209" fill="#5e5e5e">
   <path d="M 546.422,24.308 C 546.059,23.945 545.696,23.704 545.212,23.704 C 544.607,23.704 544.365,24.066 544.365,24.429 C 544.365,25.034 544.849,25.276 545.696,25.276 L 546.422,25.276 L 546.422,24.308 Z M 547.873,22.857 L 547.873,26.606 C 547.873,27.816 547.268,28.541 545.575,28.541 C 544.849,28.541 544.003,28.42 543.519,28.178 L 543.761,27.211 C 544.245,27.453 544.849,27.574 545.454,27.574 C 546.301,27.574 546.663,27.211 546.663,26.485 L 546.663,26.243 L 545.938,26.243 C 544.124,26.243 543.156,25.76 543.156,24.429 C 543.156,23.341 543.882,22.736 545.091,22.736 C 545.817,22.736 546.301,22.978 546.905,23.462 L 547.026,22.978 L 547.873,22.978 Z M 542.309,23.825 L 541.947,23.825 C 541.584,23.825 541.463,24.066 541.463,24.429 L 541.463,31.081 L 540.012,31.081 L 540.012,24.066 C 540.012,23.099 540.616,22.736 541.342,22.736 C 541.705,22.736 541.947,22.857 542.189,22.857 L 542.189,23.825 Z M 537.23,24.308 C 536.867,23.945 536.504,23.704 536.02,23.704 C 535.416,23.704 535.174,24.066 535.174,24.429 C 535.174,25.034 535.658,25.276 536.504,25.276 L 537.23,25.276 L 537.23,24.308 Z M 538.56,22.857 L 538.56,26.606 C 538.56,27.816 537.956,28.541 536.262,28.541 C 535.537,28.541 534.69,28.42 534.206,28.178 L 534.448,27.211 C 534.932,27.453 535.537,27.574 536.141,27.574 C 536.988,27.574 537.351,27.211 537.351,26.485 L 537.351,26.243 L 536.625,26.243 C 534.811,26.243 533.843,25.76 533.843,24.429 C 533.843,23.341 534.569,22.736 535.779,22.736 C 536.504,22.736 536.988,22.978 537.593,23.462 L 537.714,22.978 L 538.56,22.978 Z M 532.634,22.857 L 532.634,28.42 L 530.336,28.42 L 530.336,27.332 L 531.183,27.332 L 531.183,22.736 L 532.634,22.736 Z M 532.755,30.114 C 532.755,30.597 532.392,30.96 531.908,30.96 C 531.425,30.96 531.062,30.597 531.062,30.114 C 531.062,29.63 531.425,29.267 531.908,29.267 C 532.392,29.267 532.755,29.63 532.755,30.114 M 529.489,24.066 C 529.127,23.945 528.764,23.825 528.401,23.825 C 527.433,23.825 526.95,24.429 526.95,25.639 C 526.95,26.727 527.433,27.453 528.401,27.453 C 528.764,27.453 529.127,27.332 529.369,27.211 L 529.731,28.299 C 529.248,28.541 528.764,28.541 528.28,28.541 C 526.587,28.541 525.498,27.453 525.498,25.518 C 525.498,23.825 526.345,22.736 528.159,22.736 C 528.643,22.736 529.248,22.857 529.731,23.099 L 529.489,24.066 Z M 523.2,25.639 C 523.2,24.55 522.717,23.825 521.749,23.825 C 520.782,23.825 520.298,24.55 520.298,25.76 C 520.298,26.848 520.782,27.574 521.749,27.574 C 522.838,27.574 523.2,26.727 523.2,25.639 M 524.652,25.76 C 524.652,27.574 523.684,28.662 521.87,28.662 C 519.935,28.662 518.967,27.453 518.967,25.639 C 518.967,23.945 519.935,22.736 521.749,22.736 C 523.684,22.736 524.652,23.945 524.652,25.76 M 518.121,24.55 C 518.121,25.397 517.637,25.881 516.669,26.243 C 515.944,26.485 515.702,26.606 515.702,26.969 C 515.702,27.211 515.944,27.574 516.549,27.574 C 516.911,27.574 517.395,27.453 517.758,27.332 L 517.879,28.42 C 517.516,28.541 516.911,28.662 516.428,28.662 C 515.097,28.662 514.251,27.937 514.251,26.848 C 514.251,25.881 514.855,25.518 515.702,25.155 C 516.307,24.913 516.67,24.792 516.67,24.429 C 516.67,23.945 516.307,23.825 515.823,23.825 C 515.339,23.825 514.855,23.945 514.372,24.066 L 514.13,22.978 C 514.613,22.857 515.218,22.736 515.823,22.736 C 517.274,22.736 518.121,23.462 518.121,24.55 M 510.622,28.541 C 510.38,28.541 510.26,28.662 510.018,28.662 C 509.413,28.662 509.05,28.299 508.566,27.574 L 508.445,28.541 L 507.357,28.541 L 507.357,22.978 L 508.808,22.978 L 508.808,26.485 C 509.292,27.09 509.655,27.453 510.018,27.453 C 510.139,27.453 510.501,27.453 510.622,27.332 L 510.622,28.541 Z M 505.785,22.857 L 505.785,28.42 L 504.333,28.42 L 504.333,24.55 C 503.85,24.066 503.487,23.825 503.003,23.825 C 502.277,23.825 502.035,24.308 502.035,25.155 L 502.035,28.42 L 500.705,28.42 L 500.705,24.913 C 500.705,23.583 501.31,22.736 502.64,22.736 C 503.487,22.736 503.97,22.978 504.575,23.583 L 504.696,22.857 L 505.785,22.857 Z M 498.407,28.42 C 498.165,27.332 497.802,26.122 497.44,24.913 C 497.319,24.671 497.319,24.429 497.198,24.187 L 497.198,24.187 C 497.077,24.429 497.077,24.671 496.956,24.913 C 496.593,26.001 496.23,27.211 495.988,28.42 L 494.537,28.42 C 495.021,26.485 495.625,24.671 496.351,22.857 L 497.923,22.857 C 498.649,24.671 499.254,26.606 499.737,28.42 L 498.407,28.42 Z M 492.36,24.308 C 491.997,23.945 491.634,23.704 491.15,23.704 C 490.546,23.704 490.304,24.066 490.304,24.429 C 490.304,25.034 490.788,25.276 491.634,25.276 L 492.36,25.276 L 492.36,24.308 Z M 493.69,22.857 L 493.69,26.606 C 493.69,27.816 493.086,28.541 491.392,28.541 C 490.667,28.541 489.82,28.42 489.336,28.178 L 489.578,27.211 C 490.062,27.453 490.667,27.574 491.271,27.574 C 492.118,27.574 492.481,27.211 492.481,26.485 L 492.481,26.243 L 491.755,26.243 C 489.941,26.243 488.973,25.76 488.973,24.429 C 488.973,23.341 489.699,22.736 490.909,22.736 C 491.634,22.736 492.118,22.978 492.723,23.462 L 492.844,22.978 L 493.69,22.978 Z M 488.248,23.825 L 487.885,23.825 C 487.522,23.825 487.401,24.066 487.401,24.429 L 487.401,31.081 L 486.071,31.081 L 486.071,24.066 C 486.071,23.099 486.676,22.736 487.401,22.736 C 487.764,22.736 488.006,22.857 488.248,22.857 L 488.248,23.825 Z M 480.145,24.308 C 479.782,23.945 479.419,23.704 478.935,23.704 C 478.33,23.704 478.089,24.066 478.089,24.429 C 478.089,25.034 478.572,25.276 479.419,25.276 L 480.145,25.276 L 480.145,24.308 Z M 481.596,22.857 L 481.596,26.606 C 481.596,27.816 480.991,28.541 479.298,28.541 C 478.572,28.541 477.726,28.42 477.242,28.178 L 477.484,27.211 C 477.968,27.453 478.572,27.574 479.177,27.574 C 480.024,27.574 480.387,27.211 480.387,26.485 L 480.387,26.243 L 479.661,26.243 C 477.847,26.243 476.879,25.76 476.879,24.429 C 476.879,23.341 477.605,22.736 478.814,22.736 C 479.54,22.736 480.024,22.978 480.628,23.462 L 480.749,22.978 L 481.596,22.978 Z M 476.153,23.825 L 475.791,23.825 C 475.428,23.825 475.307,24.066 475.307,24.429 L 475.307,31.081 L 473.856,31.081 L 473.856,24.066 C 473.856,23.099 474.46,22.736 475.186,22.736 C 475.549,22.736 475.791,22.857 476.033,22.857 L 476.033,23.825 Z M 468.05,24.308 C 467.687,23.945 467.325,23.704 466.841,23.704 C 466.236,23.704 465.994,24.066 465.994,24.429 C 465.994,25.034 466.478,25.276 467.325,25.276 L 468.05,25.276 L 468.05,24.308 Z M 469.381,22.857 L 469.381,26.606 C 469.381,27.816 468.776,28.541 467.083,28.541 C 466.357,28.541 465.51,28.42 465.027,28.178 L 465.269,27.211 C 465.752,27.453 466.357,27.574 466.962,27.574 C 467.808,27.574 468.171,27.211 468.171,26.485 L 468.171,26.243 L 467.446,26.243 C 465.631,26.243 464.664,25.76 464.664,24.429 C 464.664,23.341 465.39,22.736 466.599,22.736 C 467.325,22.736 467.808,22.978 468.413,23.462 L 468.534,22.978 L 469.381,22.978 Z M 462.003,24.671 C 461.519,24.066 461.156,23.825 460.552,23.825 C 459.705,23.825 459.463,24.55 459.463,25.518 C 459.463,26.727 459.947,27.332 460.915,27.332 C 461.398,27.332 461.761,27.211 462.003,27.09 L 462.003,24.671 Z M 463.333,22.857 L 463.333,30.96 L 462.003,30.96 L 462.003,28.42 C 461.64,28.541 461.277,28.541 460.915,28.541 C 458.98,28.541 458.012,27.211 458.012,25.397 C 458.012,23.825 458.738,22.615 460.31,22.615 C 461.157,22.615 461.64,22.978 462.245,23.462 L 462.366,22.736 L 463.333,22.736 Z M 452.57,24.308 C 452.207,23.945 451.844,23.704 451.36,23.704 C 450.755,23.704 450.513,24.066 450.513,24.429 C 450.513,25.034 450.997,25.276 451.844,25.276 L 452.57,25.276 L 452.57,24.308 Z M 453.9,22.857 L 453.9,26.606 C 453.9,27.816 453.295,28.541 451.602,28.541 C 450.876,28.541 450.03,28.42 449.546,28.178 L 449.788,27.211 C 450.272,27.453 450.876,27.574 451.481,27.574 C 452.328,27.574 452.69,27.211 452.69,26.485 L 452.69,26.243 L 451.965,26.243 C 450.151,26.243 449.183,25.76 449.183,24.429 C 449.183,23.341 449.909,22.736 451.118,22.736 C 451.844,22.736 452.328,22.978 452.932,23.462 L 453.053,22.978 L 453.9,22.978 Z M 448.82,28.541 C 448.578,28.541 448.457,28.662 448.216,28.662 C 447.611,28.662 447.248,28.299 446.764,27.574 L 446.643,28.541 L 445.555,28.541 L 445.555,22.978 L 447.006,22.978 L 447.006,26.485 C 447.49,27.09 447.853,27.453 448.216,27.453 C 448.337,27.453 448.699,27.453 448.82,27.332 L 448.82,28.541 Z M 444.224,22.857 L 444.224,23.945 L 441.564,23.945 L 444.103,27.332 L 444.103,28.42 L 440.112,28.42 L 440.112,27.332 L 442.531,27.332 L 439.991,23.945 L 439.991,22.857 L 444.224,22.857 Z M 438.661,22.857 L 438.661,28.42 L 436.363,28.42 L 436.363,27.332 L 437.21,27.332 L 437.21,22.736 L 438.661,22.736 Z M 438.903,30.114 C 438.903,30.597 438.54,30.96 438.056,30.96 C 437.572,30.96 437.21,30.597 437.21,30.114 C 437.21,29.63 437.572,29.267 438.056,29.267 C 438.54,29.267 438.903,29.63 438.903,30.114 M 434.67,28.42 C 434.428,27.332 434.065,26.122 433.702,24.913 C 433.581,24.671 433.581,24.429 433.46,24.187 L 433.46,24.187 C 433.34,24.429 433.34,24.671 433.219,24.913 C 432.856,26.001 432.493,27.211 432.251,28.42 L 430.8,28.42 C 431.283,26.485 431.888,24.671 432.614,22.857 L 434.186,22.857 C 434.912,24.671 435.516,26.606 436,28.42 L 434.67,28.42 Z M 430.316,24.55 C 430.316,25.397 429.832,25.881 428.865,26.243 C 428.139,26.485 427.897,26.606 427.897,26.969 C 427.897,27.211 428.139,27.574 428.744,27.574 C 429.107,27.574 429.59,27.453 429.953,27.332 L 430.074,28.42 C 429.711,28.541 429.107,28.662 428.623,28.662 C 427.292,28.662 426.446,27.937 426.446,26.848 C 426.446,25.881 427.05,25.518 427.897,25.155 C 428.623,24.913 428.865,24.792 428.865,24.429 C 428.865,23.945 428.502,23.825 428.018,23.825 C 427.534,23.825 427.05,23.945 426.567,24.066 L 426.325,22.978 C 426.809,22.857 427.413,22.736 428.018,22.736 C 429.469,22.736 430.316,23.462 430.316,24.55 M 420.882,24.308 C 420.52,23.945 420.157,23.704 419.673,23.704 C 419.068,23.704 418.826,24.066 418.826,24.429 C 418.826,25.034 419.31,25.276 420.157,25.276 L 420.882,25.276 L 420.882,24.308 Z M 422.213,22.857 L 422.213,26.606 C 422.213,27.816 421.608,28.541 419.915,28.541 C 419.189,28.541 418.343,28.42 417.859,28.178 L 418.101,27.211 C 418.584,27.453 419.189,27.574 419.794,27.574 C 420.641,27.574 421.003,27.211 421.003,26.485 L 421.003,26.243 L 420.278,26.243 C 418.464,26.243 417.496,25.76 417.496,24.429 C 417.496,23.341 418.222,22.736 419.431,22.736 C 420.157,22.736 420.641,22.978 421.245,23.462 L 421.366,22.978 L 422.213,22.978 Z M 416.77,23.825 L 416.407,23.825 C 416.045,23.825 415.924,24.066 415.924,24.429 L 415.924,31.081 L 414.472,31.081 L 414.472,24.066 C 414.472,23.099 415.077,22.736 415.803,22.736 C 416.166,22.736 416.407,22.857 416.649,22.857 L 416.649,23.825 Z M 411.57,24.308 C 411.207,23.945 410.844,23.704 410.36,23.704 C 409.756,23.704 409.514,24.066 409.514,24.429 C 409.514,25.034 409.997,25.276 410.844,25.276 L 411.57,25.276 L 411.57,24.308 Z M 413.021,22.857 L 413.021,26.606 C 413.021,27.816 412.416,28.541 410.723,28.541 C 409.997,28.541 409.151,28.42 408.667,28.178 L 408.909,27.211 C 409.393,27.453 409.997,27.574 410.602,27.574 C 411.449,27.574 411.812,27.211 411.812,26.485 L 411.812,26.243 L 411.086,26.243 C 409.272,26.243 408.304,25.76 408.304,24.429 C 408.304,23.341 409.03,22.736 410.239,22.736 C 410.965,22.736 411.449,22.978 412.054,23.462 L 412.174,22.978 L 413.021,22.978 Z M 406.974,22.857 L 406.974,26.364 C 406.974,27.695 406.369,28.541 405.039,28.541 C 404.192,28.541 403.708,28.299 403.104,27.695 L 402.983,28.42 L 401.894,28.42 L 401.894,22.857 L 403.346,22.857 L 403.346,26.727 C 403.829,27.211 404.192,27.453 404.676,27.453 C 405.402,27.453 405.644,26.969 405.644,26.122 L 405.644,22.857 L 406.974,22.857 Z M 400.322,22.857 L 400.322,28.42 L 398.871,28.42 L 398.871,24.55 C 398.387,24.066 398.024,23.825 397.54,23.825 C 396.815,23.825 396.573,24.308 396.573,25.155 L 396.573,28.42 L 395.121,28.42 L 395.121,24.913 C 395.121,23.583 395.726,22.736 397.057,22.736 C 397.903,22.736 398.387,22.978 398.992,23.583 L 399.113,22.857 L 400.322,22.857 Z M 393.791,22.857 L 393.791,28.42 L 391.493,28.42 L 391.493,27.332 L 392.34,27.332 L 392.34,22.736 L 393.791,22.736 Z M 393.912,30.114 C 393.912,30.597 393.549,30.96 393.065,30.96 C 392.582,30.96 392.219,30.597 392.219,30.114 C 392.219,29.63 392.582,29.267 393.065,29.267 C 393.549,29.267 393.912,29.63 393.912,30.114 M 391.009,24.55 C 391.009,25.397 390.526,25.881 389.558,26.243 C 388.832,26.485 388.59,26.606 388.59,26.969 C 388.59,27.211 388.832,27.574 389.437,27.574 C 389.8,27.574 390.284,27.453 390.647,27.332 L 390.767,28.42 C 390.405,28.541 389.8,28.662 389.316,28.662 C 387.986,28.662 387.139,27.937 387.139,26.848 C 387.139,25.881 387.744,25.518 388.591,25.155 C 389.316,24.913 389.558,24.792 389.558,24.429 C 389.558,23.945 389.195,23.825 388.711,23.825 C 388.228,23.825 387.744,23.945 387.26,24.066 L 387.018,22.978 C 387.502,22.857 388.107,22.736 388.711,22.736 C 390.042,22.736 391.009,23.462 391.009,24.55 M 386.172,24.55 C 386.172,25.397 385.688,25.881 384.72,26.243 C 383.995,26.485 383.753,26.606 383.753,26.969 C 383.753,27.211 383.995,27.574 384.599,27.574 C 384.962,27.574 385.446,27.453 385.809,27.332 L 385.93,28.42 C 385.567,28.541 384.962,28.662 384.478,28.662 C 383.148,28.662 382.301,27.937 382.301,26.848 C 382.301,25.881 382.906,25.518 383.753,25.155 C 384.358,24.913 384.72,24.792 384.72,24.429 C 384.72,23.945 384.358,23.825 383.874,23.825 C 383.39,23.825 382.906,23.945 382.422,24.066 L 382.181,22.978 C 382.664,22.857 383.269,22.736 383.874,22.736 C 385.325,22.736 386.172,23.462 386.172,24.55 M 377.585,26.243 C 377.585,26.969 377.947,27.574 378.794,27.574 C 379.52,27.574 379.883,27.09 379.883,26.243 L 377.585,26.243 Z M 381.334,26.001 C 381.334,27.574 380.608,28.662 378.915,28.662 C 377.101,28.662 376.133,27.453 376.133,25.639 C 376.133,23.704 376.98,22.736 378.915,22.736 C 379.762,22.736 380.487,22.857 381.092,23.099 L 380.971,24.066 C 380.366,23.945 379.762,23.825 379.157,23.825 C 377.947,23.825 377.585,24.429 377.585,25.397 L 381.334,25.397 C 381.334,25.639 381.334,25.881 381.334,26.001 M 375.771,30.114 L 375.771,31.081 C 375.529,31.081 375.287,31.202 374.924,31.202 C 373.473,31.202 373.11,30.355 373.11,29.025 L 373.11,28.541 L 372.263,28.541 L 372.263,27.453 L 373.11,27.453 L 373.11,22.857 L 374.561,22.857 L 374.561,27.453 L 375.771,27.453 L 375.771,28.541 L 374.561,28.541 L 374.561,29.025 C 374.561,29.63 374.682,30.114 375.408,30.114 L 375.771,30.114 Z M 370.086,25.639 C 370.086,24.55 369.602,23.825 368.635,23.825 C 367.667,23.825 367.184,24.55 367.184,25.76 C 367.184,26.848 367.667,27.574 368.635,27.574 C 369.723,27.574 370.086,26.727 370.086,25.639 M 371.538,25.76 C 371.538,27.574 370.57,28.662 368.756,28.662 C 366.821,28.662 365.853,27.453 365.853,25.639 C 365.853,23.945 366.821,22.736 368.635,22.736 C 370.57,22.736 371.538,23.945 371.538,25.76 M 365.369,28.541 C 365.127,28.541 365.007,28.662 364.765,28.662 C 364.16,28.662 363.797,28.299 363.313,27.574 L 363.192,28.541 L 362.104,28.541 L 362.104,22.978 L 363.555,22.978 L 363.555,26.485 C 364.039,27.09 364.402,27.453 364.765,27.453 C 364.886,27.453 365.248,27.453 365.369,27.332 L 365.369,28.541 Z M 359.322,25.76 C 359.322,24.55 358.838,23.945 357.871,23.945 C 357.387,23.945 357.145,24.066 356.782,24.187 L 356.782,26.606 C 357.266,27.211 357.629,27.453 358.234,27.453 C 359.08,27.453 359.322,26.727 359.322,25.76 Z M 360.774,25.881 C 360.774,27.453 360.048,28.541 358.476,28.541 C 357.629,28.541 357.024,28.178 356.541,27.695 L 356.42,28.42 L 355.331,28.42 L 355.331,20.559 L 356.782,20.559 L 356.782,22.736 C 357.145,22.615 357.508,22.615 357.871,22.615 C 359.927,22.736 360.774,24.187 360.774,25.881 L 360.774,25.881 Z M 350.977,22.857 L 350.977,26.364 C 350.977,27.695 350.372,28.541 349.042,28.541 C 348.195,28.541 347.712,28.299 347.107,27.695 L 346.986,28.42 L 345.898,28.42 L 345.898,22.857 L 347.349,22.857 L 347.349,26.727 C 347.833,27.211 348.195,27.453 348.679,27.453 C 349.405,27.453 349.647,26.969 349.647,26.122 L 349.647,22.857 L 350.977,22.857 Z M 344.325,22.857 L 344.325,28.42 L 342.995,28.42 L 342.995,24.55 C 342.511,24.066 342.148,23.825 341.664,23.825 C 340.939,23.825 340.697,24.308 340.697,25.155 L 340.697,28.42 L 339.246,28.42 L 339.246,24.913 C 339.246,23.583 339.85,22.736 341.181,22.736 C 342.027,22.736 342.511,22.978 343.116,23.583 L 343.237,22.857 L 344.325,22.857 Z M 337.794,22.857 L 337.794,28.42 L 335.496,28.42 L 335.496,27.332 L 336.343,27.332 L 336.343,22.736 L 337.794,22.736 Z M 337.915,30.114 C 337.915,30.597 337.552,30.96 337.069,30.96 C 336.585,30.96 336.222,30.597 336.222,30.114 C 336.222,29.63 336.585,29.267 337.069,29.267 C 337.552,29.267 337.915,29.63 337.915,30.114 M 334.892,22.857 L 334.892,23.945 L 332.231,23.945 L 334.771,27.332 L 334.771,28.42 L 330.78,28.42 L 330.78,27.332 L 333.198,27.332 L 330.659,23.945 L 330.659,22.857 L 334.892,22.857 Z M 327.998,24.308 C 327.635,23.945 327.272,23.704 326.788,23.704 C 326.184,23.704 325.942,24.066 325.942,24.429 C 325.942,25.034 326.426,25.276 327.272,25.276 L 327.998,25.276 L 327.998,24.308 Z M 329.449,22.857 L 329.449,26.606 C 329.449,27.816 328.844,28.541 327.151,28.541 C 326.426,28.541 325.579,28.42 325.095,28.178 L 325.337,27.211 C 325.821,27.453 326.426,27.574 327.03,27.574 C 327.877,27.574 328.24,27.211 328.24,26.485 L 328.24,26.243 L 327.514,26.243 C 325.7,26.243 324.732,25.76 324.732,24.429 C 324.732,23.341 325.458,22.736 326.668,22.736 C 327.393,22.736 327.877,22.978 328.482,23.462 L 328.603,22.978 L 329.449,22.978 Z M 323.402,22.857 L 323.402,28.42 L 321.104,28.42 L 321.104,27.332 L 321.951,27.332 L 321.951,22.736 L 323.402,22.736 Z M 323.523,30.114 C 323.523,30.597 323.16,30.96 322.676,30.96 C 322.193,30.96 321.83,30.597 321.83,30.114 C 321.83,29.63 322.193,29.267 322.676,29.267 C 323.16,29.267 323.523,29.63 323.523,30.114 M 320.378,24.066 C 320.016,23.945 319.653,23.825 319.29,23.825 C 318.322,23.825 317.839,24.429 317.839,25.639 C 317.839,26.727 318.322,27.453 319.29,27.453 C 319.653,27.453 320.016,27.332 320.258,27.211 L 320.62,28.299 C 320.137,28.541 319.653,28.541 319.169,28.541 C 317.476,28.541 316.387,27.453 316.387,25.518 C 316.387,23.825 317.234,22.736 319.048,22.736 C 319.532,22.736 320.137,22.857 320.62,23.099 L 320.378,24.066 Z M 313.968,25.639 C 313.968,24.55 313.485,23.825 312.517,23.825 C 311.55,23.825 311.066,24.55 311.066,25.76 C 311.066,26.848 311.55,27.574 312.517,27.574 C 313.606,27.574 313.968,26.727 313.968,25.639 M 315.42,25.76 C 315.42,27.574 314.452,28.662 312.638,28.662 C 310.703,28.662 309.735,27.453 309.735,25.639 C 309.735,23.945 310.703,22.736 312.517,22.736 C 314.452,22.736 315.42,23.945 315.42,25.76 M 308.889,24.55 C 308.889,25.397 308.405,25.881 307.438,26.243 C 306.712,26.485 306.47,26.606 306.47,26.969 C 306.47,27.211 306.712,27.574 307.317,27.574 C 307.679,27.574 308.163,27.453 308.526,27.332 L 308.647,28.42 C 308.284,28.541 307.679,28.662 307.196,28.662 C 305.865,28.662 305.019,27.937 305.019,26.848 C 305.019,25.881 305.623,25.518 306.47,25.155 C 307.196,24.913 307.438,24.792 307.438,24.429 C 307.438,23.945 307.075,23.825 306.591,23.825 C 306.107,23.825 305.623,23.945 305.14,24.066 L 304.898,22.978 C 305.381,22.857 305.986,22.736 306.591,22.736 C 308.042,22.736 308.889,23.462 308.889,24.55 M 304.051,24.55 C 304.051,25.397 303.567,25.881 302.6,26.243 C 301.874,26.485 301.632,26.606 301.632,26.969 C 301.632,27.211 301.874,27.574 302.479,27.574 C 302.842,27.574 303.325,27.453 303.688,27.332 L 303.809,28.42 C 303.446,28.541 302.842,28.662 302.358,28.662 C 301.028,28.662 300.181,27.937 300.181,26.848 C 300.181,25.881 300.786,25.518 301.632,25.155 C 302.358,24.913 302.6,24.792 302.6,24.429 C 302.6,23.945 302.237,23.825 301.753,23.825 C 301.269,23.825 300.786,23.945 300.302,24.066 L 300.06,22.978 C 300.544,22.857 301.148,22.736 301.753,22.736 C 303.205,22.736 304.051,23.462 304.051,24.55 M 294.738,25.76 C 294.98,26.606 295.343,27.453 295.585,28.42 C 295.706,28.662 295.706,28.904 295.827,29.146 L 295.827,29.146 C 295.948,28.904 295.948,28.662 296.069,28.42 C 296.432,27.574 296.674,26.606 296.915,25.76 L 294.738,25.76 Z M 299.455,22.857 C 298.73,25.276 297.762,27.937 296.795,30.476 L 295.101,30.476 C 294.134,27.937 293.287,25.518 292.441,22.857 L 293.892,22.857 C 294.013,23.462 294.255,24.066 294.376,24.671 L 297.278,24.671 C 297.52,24.066 297.641,23.462 297.762,22.857 L 299.455,22.857 Z" marker-start="none" marker-end="none"/>
   <path d="M 543.519,37.37 C 543.156,37.007 542.793,36.765 542.309,36.765 C 541.705,36.765 541.463,37.128 541.463,37.491 C 541.463,38.096 541.947,38.338 542.793,38.338 L 543.519,38.338 L 543.519,37.37 Z M 544.849,35.919 L 544.849,39.668 C 544.849,40.878 544.245,41.603 542.551,41.603 C 541.826,41.603 540.979,41.482 540.495,41.24 L 540.737,40.273 C 541.221,40.515 541.826,40.636 542.43,40.636 C 543.277,40.636 543.64,40.273 543.64,39.547 L 543.64,39.305 L 542.914,39.305 C 541.1,39.305 540.133,38.821 540.133,37.491 C 540.133,36.403 540.858,35.798 542.068,35.798 C 542.793,35.798 543.277,36.04 543.882,36.524 L 544.003,36.04 L 544.849,36.04 Z M 539.77,41.603 C 539.528,41.603 539.407,41.724 539.165,41.724 C 538.56,41.724 538.197,41.361 537.714,40.636 L 537.593,41.603 L 536.504,41.603 L 536.504,36.04 L 537.956,36.04 L 537.956,39.547 C 538.439,40.152 538.802,40.515 539.165,40.515 C 539.286,40.515 539.649,40.515 539.77,40.394 L 539.77,41.603 Z M 531.425,39.305 C 531.425,40.031 531.787,40.636 532.634,40.636 C 533.36,40.636 533.722,40.152 533.722,39.305 L 531.425,39.305 Z M 535.174,39.063 C 535.174,40.636 534.448,41.724 532.755,41.724 C 530.941,41.724 529.973,40.515 529.973,38.701 C 529.973,36.765 530.82,35.798 532.755,35.798 C 533.602,35.798 534.327,35.919 534.932,36.161 L 534.811,37.128 C 534.206,37.007 533.602,36.886 532.997,36.886 C 531.787,36.886 531.425,37.491 531.425,38.459 L 535.174,38.459 C 535.174,38.701 535.174,38.942 535.174,39.063 M 529.248,35.919 L 529.248,37.007 L 526.587,37.007 L 529.127,40.394 L 529.127,41.482 L 525.136,41.482 L 525.136,40.394 L 527.554,40.394 L 525.015,37.007 L 525.015,35.919 L 529.248,35.919 Z M 524.047,35.919 L 524.047,37.007 L 521.386,37.007 L 523.926,40.394 L 523.926,41.482 L 519.935,41.482 L 519.935,40.394 L 522.354,40.394 L 519.814,37.007 L 519.814,35.919 L 524.047,35.919 Z M 518.484,35.919 L 518.484,41.482 L 516.186,41.482 L 516.186,40.394 L 517.032,40.394 L 517.032,35.798 L 518.484,35.798 Z M 518.605,43.175 C 518.605,43.659 518.242,44.022 517.758,44.022 C 517.274,44.022 516.911,43.659 516.911,43.175 C 516.911,42.692 517.274,42.329 517.758,42.329 C 518.242,42.329 518.605,42.692 518.605,43.175 M 514.492,41.482 C 514.251,40.394 513.888,39.184 513.525,37.975 C 513.404,37.733 513.404,37.491 513.283,37.249 L 513.283,37.249 C 513.162,37.491 513.162,37.733 513.041,37.975 C 512.678,39.063 512.315,40.273 512.074,41.482 L 510.622,41.482 C 511.106,39.547 511.711,37.733 512.436,35.919 L 514.009,35.919 C 514.734,37.733 515.339,39.668 515.823,41.482 L 514.492,41.482 Z M 510.259,38.217 C 510.259,39.547 509.292,40.031 508.203,40.515 C 507.478,40.757 506.994,41.119 506.994,41.724 C 506.994,42.208 507.357,42.571 508.082,42.571 C 508.566,42.571 509.05,42.45 509.534,42.329 L 509.776,43.417 C 509.292,43.538 508.687,43.659 508.083,43.659 C 506.631,43.659 505.422,42.813 505.422,41.482 C 505.422,40.273 506.147,39.668 507.236,39.305 C 508.083,38.942 508.687,38.701 508.687,38.096 C 508.687,37.491 508.203,37.007 507.357,37.007 C 506.752,37.007 506.147,37.128 505.664,37.249 L 505.543,36.04 C 506.147,35.798 506.752,35.798 507.357,35.798 C 508.929,35.798 510.259,36.644 510.259,38.217 M 497.802,39.305 C 497.802,40.031 498.165,40.636 499.012,40.636 C 499.737,40.636 500.1,40.152 500.1,39.305 L 497.802,39.305 Z M 501.552,39.063 C 501.552,40.636 500.826,41.724 499.133,41.724 C 497.319,41.724 496.351,40.515 496.351,38.701 C 496.351,36.765 497.198,35.798 499.133,35.798 C 499.979,35.798 500.705,35.919 501.31,36.161 L 501.189,37.128 C 500.584,37.007 499.979,36.886 499.375,36.886 C 498.165,36.886 497.802,37.491 497.802,38.459 L 501.552,38.459 C 501.431,38.701 501.552,38.942 501.552,39.063 M 495.746,36.886 L 495.383,36.886 C 495.021,36.886 494.9,37.128 494.9,37.491 L 494.9,44.143 L 493.448,44.143 L 493.448,37.128 C 493.448,36.161 494.053,35.798 494.779,35.798 C 495.142,35.798 495.383,35.919 495.625,35.919 L 495.625,36.886 Z M 490.546,37.37 C 490.183,37.007 489.82,36.765 489.336,36.765 C 488.732,36.765 488.49,37.128 488.49,37.491 C 488.49,38.096 488.973,38.338 489.82,38.338 L 490.546,38.338 L 490.546,37.37 Z M 491.997,35.919 L 491.997,39.668 C 491.997,40.878 491.392,41.603 489.699,41.603 C 488.973,41.603 488.127,41.482 487.643,41.24 L 487.885,40.273 C 488.369,40.515 488.973,40.636 489.578,40.636 C 490.425,40.636 490.788,40.273 490.788,39.547 L 490.788,39.305 L 490.062,39.305 C 488.248,39.305 487.28,38.821 487.28,37.491 C 487.28,36.403 488.006,35.798 489.215,35.798 C 489.941,35.798 490.425,36.04 491.03,36.524 L 491.15,36.04 L 491.997,36.04 Z M 485.95,35.919 L 485.95,41.482 L 483.652,41.482 L 483.652,40.394 L 484.499,40.394 L 484.499,35.798 L 485.95,35.798 Z M 486.071,43.175 C 486.071,43.659 485.708,44.022 485.224,44.022 C 484.74,44.022 484.378,43.659 484.378,43.175 C 484.378,42.692 484.74,42.329 485.224,42.329 C 485.708,42.329 486.071,42.692 486.071,43.175 M 482.926,37.128 C 482.563,37.007 482.201,36.886 481.838,36.886 C 480.87,36.886 480.386,37.491 480.386,38.701 C 480.386,39.789 480.87,40.515 481.838,40.515 C 482.201,40.515 482.563,40.394 482.805,40.273 L 483.168,41.361 C 482.684,41.603 482.201,41.603 481.717,41.603 C 480.024,41.603 478.935,40.515 478.935,38.58 C 478.935,36.886 479.782,35.798 481.596,35.798 C 482.08,35.798 482.684,35.919 483.168,36.161 L 482.926,37.128 Z M 476.637,38.701 C 476.637,37.612 476.153,36.886 475.186,36.886 C 474.218,36.886 473.735,37.612 473.735,38.821 C 473.735,39.91 474.218,40.636 475.186,40.636 C 476.153,40.636 476.637,39.789 476.637,38.701 M 478.089,38.821 C 478.089,40.636 477.121,41.724 475.307,41.724 C 473.372,41.724 472.404,40.515 472.404,38.701 C 472.404,37.007 473.372,35.798 475.186,35.798 C 477,35.798 478.089,37.007 478.089,38.821 M 471.437,37.612 C 471.437,38.459 470.953,38.942 469.985,39.305 C 469.26,39.547 469.018,39.668 469.018,40.031 C 469.018,40.273 469.26,40.636 469.864,40.636 C 470.227,40.636 470.711,40.515 471.074,40.394 L 471.195,41.482 C 470.832,41.603 470.227,41.724 469.743,41.724 C 468.413,41.724 467.567,40.998 467.567,39.91 C 467.567,38.942 468.171,38.58 469.018,38.217 C 469.623,37.975 469.985,37.854 469.985,37.491 C 469.985,37.007 469.623,36.886 469.139,36.886 C 468.655,36.886 468.171,37.007 467.687,37.128 L 467.446,36.04 C 467.929,35.919 468.534,35.798 469.139,35.798 C 470.59,35.798 471.437,36.524 471.437,37.612 M 462.245,38.701 C 462.245,37.612 461.761,36.886 460.794,36.886 C 459.826,36.886 459.342,37.612 459.342,38.821 C 459.342,39.91 459.826,40.636 460.794,40.636 C 461.761,40.636 462.245,39.789 462.245,38.701 M 463.696,38.821 C 463.696,40.636 462.729,41.724 460.915,41.724 C 458.98,41.724 458.012,40.515 458.012,38.701 C 458.012,37.007 458.98,35.798 460.794,35.798 C 462.608,35.798 463.696,37.007 463.696,38.821 M 457.407,41.603 C 457.165,41.603 457.044,41.724 456.803,41.724 C 456.198,41.724 455.835,41.361 455.351,40.636 L 455.23,41.603 L 454.142,41.603 L 454.142,36.04 L 455.593,36.04 L 455.593,39.547 C 456.077,40.152 456.44,40.515 456.803,40.515 C 456.924,40.515 457.286,40.515 457.407,40.394 L 457.407,41.603 Z M 451.481,38.701 C 451.481,37.612 450.997,36.886 450.03,36.886 C 449.062,36.886 448.578,37.612 448.578,38.821 C 448.578,39.91 449.062,40.636 450.03,40.636 C 450.997,40.636 451.481,39.789 451.481,38.701 M 452.932,38.821 C 452.932,40.636 451.965,41.724 450.151,41.724 C 448.216,41.724 447.248,40.515 447.248,38.701 C 447.248,37.007 448.216,35.798 450.03,35.798 C 451.844,35.798 452.932,37.007 452.932,38.821 M 445.313,41.482 C 445.071,40.394 444.708,39.184 444.345,37.975 C 444.224,37.733 444.224,37.491 444.104,37.249 L 444.104,37.249 C 443.983,37.491 443.983,37.733 443.862,37.975 C 443.499,39.063 443.136,40.273 442.894,41.482 L 441.443,41.482 C 441.927,39.547 442.531,37.733 443.257,35.919 L 444.829,35.919 C 445.555,37.733 446.16,39.668 446.643,41.482 L 445.313,41.482 Z M 439.266,37.37 C 438.903,37.007 438.54,36.765 438.056,36.765 C 437.452,36.765 437.21,37.128 437.21,37.491 C 437.21,38.096 437.693,38.338 438.54,38.338 L 439.266,38.338 L 439.266,37.37 Z M 440.596,35.919 L 440.596,39.668 C 440.596,40.878 439.991,41.603 438.298,41.603 C 437.573,41.603 436.726,41.482 436.242,41.24 L 436.484,40.273 C 436.968,40.515 437.573,40.636 438.177,40.636 C 439.024,40.636 439.387,40.273 439.387,39.547 L 439.387,39.305 L 438.661,39.305 C 436.847,39.305 435.879,38.821 435.879,37.491 C 435.879,36.403 436.605,35.798 437.814,35.798 C 438.54,35.798 439.024,36.04 439.629,36.524 L 439.75,36.04 L 440.596,36.04 Z M 435.154,36.886 L 434.791,36.886 C 434.428,36.886 434.307,37.128 434.307,37.491 L 434.307,44.143 L 432.977,44.143 L 432.977,37.128 C 432.977,36.161 433.581,35.798 434.307,35.798 C 434.67,35.798 434.912,35.919 435.154,35.919 L 435.154,36.886 Z M 424.994,39.305 C 424.994,40.031 425.357,40.636 426.204,40.636 C 426.93,40.636 427.292,40.152 427.292,39.305 L 424.994,39.305 Z M 428.744,39.063 C 428.744,40.636 428.018,41.724 426.325,41.724 C 424.511,41.724 423.543,40.515 423.543,38.701 C 423.543,36.765 424.39,35.798 426.325,35.798 C 427.171,35.798 427.897,35.919 428.502,36.161 L 428.381,37.128 C 427.776,37.007 427.171,36.886 426.567,36.886 C 425.357,36.886 424.994,37.491 424.994,38.459 L 428.744,38.459 C 428.744,38.701 428.744,38.942 428.744,39.063 M 422.938,36.886 L 422.576,36.886 C 422.213,36.886 422.092,37.128 422.092,37.491 L 422.092,44.143 L 420.641,44.143 L 420.641,37.128 C 420.641,36.161 421.245,35.798 421.971,35.798 C 422.334,35.798 422.576,35.919 422.818,35.919 L 422.818,36.886 Z M 417.859,37.37 C 417.496,37.007 417.133,36.765 416.649,36.765 C 416.045,36.765 415.803,37.128 415.803,37.491 C 415.803,38.096 416.287,38.338 417.133,38.338 L 417.859,38.338 L 417.859,37.37 Z M 419.189,35.919 L 419.189,39.668 C 419.189,40.878 418.584,41.603 416.891,41.603 C 416.166,41.603 415.319,41.482 414.835,41.24 L 415.077,40.273 C 415.561,40.515 416.166,40.636 416.77,40.636 C 417.617,40.636 417.98,40.273 417.98,39.547 L 417.98,39.305 L 417.254,39.305 C 415.44,39.305 414.472,38.821 414.472,37.491 C 414.472,36.403 415.198,35.798 416.407,35.798 C 417.133,35.798 417.617,36.04 418.222,36.524 L 418.343,36.04 L 419.189,36.04 Z M 413.263,35.919 L 413.263,39.426 C 413.263,40.757 412.658,41.603 411.328,41.603 C 410.481,41.603 409.997,41.361 409.393,40.757 L 409.272,41.482 L 408.183,41.482 L 408.183,35.919 L 409.635,35.919 L 409.635,39.789 C 410.118,40.273 410.481,40.515 410.965,40.515 C 411.691,40.515 411.933,40.031 411.933,39.184 L 411.933,35.919 L 413.263,35.919 Z M 405.523,38.701 C 405.523,37.612 405.039,36.886 404.071,36.886 C 403.104,36.886 402.62,37.612 402.62,38.821 C 402.62,39.91 403.104,40.636 404.071,40.636 C 405.039,40.636 405.523,39.789 405.523,38.701 M 406.974,38.821 C 406.974,40.636 406.006,41.724 404.192,41.724 C 402.257,41.724 401.29,40.515 401.29,38.701 C 401.29,37.007 402.257,35.798 404.071,35.798 C 405.885,35.798 406.974,37.007 406.974,38.821 M 399.959,35.919 L 399.959,41.482 L 397.661,41.482 L 397.661,40.394 L 398.508,40.394 L 398.508,35.798 L 399.959,35.798 Z M 400.08,43.175 C 400.08,43.659 399.717,44.022 399.233,44.022 C 398.75,44.022 398.387,43.659 398.387,43.175 C 398.387,42.692 398.75,42.329 399.233,42.329 C 399.717,42.329 400.08,42.692 400.08,43.175 M 397.057,37.612 C 397.057,38.459 396.573,38.942 395.605,39.305 C 394.88,39.547 394.638,39.668 394.638,40.031 C 394.638,40.273 394.88,40.636 395.484,40.636 C 395.847,40.636 396.331,40.515 396.694,40.394 L 396.815,41.482 C 396.452,41.603 395.847,41.724 395.363,41.724 C 394.033,41.724 393.186,40.998 393.186,39.91 C 393.186,38.942 393.791,38.58 394.638,38.217 C 395.363,37.975 395.605,37.854 395.605,37.491 C 395.605,37.007 395.242,36.886 394.759,36.886 C 394.275,36.886 393.791,37.007 393.307,37.128 L 393.065,36.04 C 393.549,35.919 394.154,35.798 394.759,35.798 C 396.21,35.798 397.057,36.524 397.057,37.612 M 392.34,37.612 C 392.34,38.459 391.856,38.942 390.888,39.305 C 390.163,39.547 389.921,39.668 389.921,40.031 C 389.921,40.273 390.163,40.636 390.767,40.636 C 391.13,40.636 391.614,40.515 391.977,40.394 L 392.098,41.482 C 391.735,41.603 391.13,41.724 390.647,41.724 C 389.316,41.724 388.47,40.998 388.47,39.91 C 388.47,38.942 389.074,38.58 389.921,38.217 C 390.526,37.975 390.888,37.854 390.888,37.491 C 390.888,37.007 390.526,36.886 390.042,36.886 C 389.558,36.886 389.074,37.007 388.59,37.128 L 388.349,36.04 C 388.832,35.919 389.437,35.798 390.042,35.798 C 391.493,35.798 392.34,36.524 392.34,37.612 M 383.753,39.305 C 383.753,40.031 384.116,40.636 384.962,40.636 C 385.688,40.636 386.051,40.152 386.051,39.305 L 383.753,39.305 Z M 387.502,39.063 C 387.502,40.636 386.776,41.724 385.083,41.724 C 383.269,41.724 382.301,40.515 382.301,38.701 C 382.301,36.765 383.148,35.798 385.083,35.798 C 385.93,35.798 386.655,35.919 387.26,36.161 L 387.139,37.128 C 386.534,37.007 385.93,36.886 385.325,36.886 C 384.116,36.886 383.753,37.491 383.753,38.459 L 387.502,38.459 C 387.381,38.701 387.502,38.942 387.502,39.063 M 381.939,43.175 L 381.939,44.143 C 381.697,44.143 381.455,44.264 381.092,44.264 C 379.641,44.264 379.278,43.417 379.278,42.087 L 379.278,41.603 L 378.431,41.603 L 378.431,40.515 L 379.278,40.515 L 379.278,35.919 L 380.729,35.919 L 380.729,40.515 L 381.939,40.515 L 381.939,41.603 L 380.729,41.603 L 380.729,42.208 C 380.729,42.813 380.85,43.296 381.576,43.296 L 381.939,43.296 Z M 376.254,38.701 C 376.254,37.612 375.771,36.886 374.803,36.886 C 373.835,36.886 373.352,37.612 373.352,38.821 C 373.352,39.91 373.835,40.636 374.803,40.636 C 375.891,40.636 376.254,39.789 376.254,38.701 M 377.706,38.821 C 377.706,40.636 376.738,41.724 374.924,41.724 C 372.989,41.724 372.021,40.515 372.021,38.701 C 372.021,37.007 372.989,35.798 374.803,35.798 C 376.738,35.798 377.706,37.007 377.706,38.821 M 371.538,41.603 C 371.296,41.603 371.175,41.724 370.933,41.724 C 370.328,41.724 369.965,41.361 369.481,40.636 L 369.361,41.603 L 368.272,41.603 L 368.272,36.04 L 369.723,36.04 L 369.723,39.547 C 370.207,40.152 370.57,40.515 370.933,40.515 C 371.054,40.515 371.417,40.515 371.538,40.394 L 371.538,41.603 Z M 365.49,38.821 C 365.49,37.612 365.007,37.007 364.039,37.007 C 363.555,37.007 363.313,37.128 362.951,37.249 L 362.951,39.789 C 363.434,40.394 363.797,40.636 364.402,40.636 C 365.248,40.515 365.49,39.789 365.49,38.821 Z M 366.942,38.942 C 366.942,40.515 366.216,41.603 364.644,41.603 C 363.797,41.603 363.192,41.24 362.709,40.757 L 362.588,41.482 L 361.62,41.482 L 361.62,33.621 L 363.071,33.621 L 363.071,35.798 C 363.434,35.677 363.797,35.677 364.16,35.677 C 366.095,35.798 366.942,37.249 366.942,38.942 L 366.942,38.942 Z M 353.638,39.305 C 353.638,40.031 354.001,40.636 354.847,40.636 C 355.573,40.636 355.936,40.152 355.936,39.305 L 353.638,39.305 Z M 357.387,39.063 C 357.387,40.636 356.661,41.724 354.968,41.724 C 353.154,41.724 352.187,40.515 352.187,38.701 C 352.187,36.765 353.033,35.798 354.968,35.798 C 355.815,35.798 356.541,35.919 357.145,36.161 L 357.024,37.128 C 356.42,37.007 355.815,36.886 355.21,36.886 C 354.001,36.886 353.638,37.491 353.638,38.459 L 357.387,38.459 C 357.387,38.701 357.387,38.942 357.387,39.063 M 351.098,35.919 L 351.098,39.426 C 351.098,40.757 350.493,41.603 349.163,41.603 C 348.316,41.603 347.833,41.361 347.228,40.757 L 347.107,41.482 L 346.018,41.482 L 346.018,35.919 L 347.47,35.919 L 347.47,39.789 C 347.954,40.273 348.316,40.515 348.8,40.515 C 349.526,40.515 349.768,40.031 349.768,39.184 L 349.768,35.919 L 351.098,35.919 Z M 343.358,38.701 C 343.358,37.612 342.874,36.886 341.906,36.886 C 340.939,36.886 340.455,37.612 340.455,38.821 C 340.455,39.91 340.939,40.636 341.906,40.636 C 342.874,40.636 343.358,39.789 343.358,38.701 M 344.809,38.821 C 344.809,40.636 343.841,41.724 342.027,41.724 C 340.092,41.724 339.125,40.515 339.125,38.701 C 339.125,37.007 340.092,35.798 341.906,35.798 C 343.721,35.798 344.809,37.007 344.809,38.821 M 337.794,35.919 L 337.794,41.482 L 335.496,41.482 L 335.496,40.394 L 336.343,40.394 L 336.343,35.798 L 337.794,35.798 Z M 337.915,43.175 C 337.915,43.659 337.552,44.022 337.069,44.022 C 336.585,44.022 336.222,43.659 336.222,43.175 C 336.222,42.692 336.585,42.329 337.069,42.329 C 337.552,42.329 337.915,42.692 337.915,43.175 M 334.892,35.919 L 334.892,37.007 L 332.231,37.007 L 334.771,40.394 L 334.771,41.482 L 330.78,41.482 L 330.78,40.394 L 333.198,40.394 L 330.659,37.007 L 330.659,35.919 L 334.892,35.919 Z M 327.998,37.37 C 327.635,37.007 327.272,36.765 326.788,36.765 C 326.184,36.765 325.942,37.128 325.942,37.491 C 325.942,38.096 326.426,38.338 327.272,38.338 L 327.998,38.338 L 327.998,37.37 Z M 329.449,35.919 L 329.449,39.668 C 329.449,40.878 328.844,41.603 327.151,41.603 C 326.426,41.603 325.579,41.482 325.095,41.24 L 325.337,40.273 C 325.821,40.515 326.426,40.636 327.03,40.636 C 327.877,40.636 328.24,40.273 328.24,39.547 L 328.24,39.305 L 327.514,39.305 C 325.7,39.305 324.732,38.821 324.732,37.491 C 324.732,36.403 325.458,35.798 326.668,35.798 C 327.393,35.798 327.877,36.04 328.482,36.524 L 328.603,36.04 L 329.449,36.04 Z M 323.402,35.919 L 323.402,41.482 L 321.104,41.482 L 321.104,40.394 L 321.951,40.394 L 321.951,35.798 L 323.402,35.798 Z M 323.523,43.175 C 323.523,43.659 323.16,44.022 322.676,44.022 C 322.193,44.022 321.83,43.659 321.83,43.175 C 321.83,42.692 322.193,42.329 322.676,42.329 C 323.16,42.329 323.523,42.692 323.523,43.175 M 320.378,37.128 C 320.016,37.007 319.653,36.886 319.29,36.886 C 318.322,36.886 317.839,37.491 317.839,38.701 C 317.839,39.789 318.322,40.515 319.29,40.515 C 319.653,40.515 320.016,40.394 320.258,40.273 L 320.62,41.361 C 320.137,41.603 319.653,41.603 319.169,41.603 C 317.476,41.603 316.387,40.515 316.387,38.58 C 316.387,36.886 317.234,35.798 319.048,35.798 C 319.532,35.798 320.137,35.919 320.62,36.161 L 320.378,37.128 Z M 313.968,38.701 C 313.968,37.612 313.485,36.886 312.517,36.886 C 311.55,36.886 311.066,37.612 311.066,38.821 C 311.066,39.91 311.55,40.636 312.517,40.636 C 313.606,40.636 313.968,39.789 313.968,38.701 M 315.42,38.821 C 315.42,40.636 314.452,41.724 312.638,41.724 C 310.703,41.724 309.735,40.515 309.735,38.701 C 309.735,37.007 310.703,35.798 312.517,35.798 C 314.452,35.798 315.42,37.007 315.42,38.821 M 308.889,37.612 C 308.889,38.459 308.405,38.942 307.438,39.305 C 306.712,39.547 306.47,39.668 306.47,40.031 C 306.47,40.273 306.712,40.636 307.317,40.636 C 307.679,40.636 308.163,40.515 308.526,40.394 L 308.647,41.482 C 308.284,41.603 307.679,41.724 307.196,41.724 C 305.865,41.724 305.019,40.998 305.019,39.91 C 305.019,38.942 305.623,38.58 306.47,38.217 C 307.196,37.975 307.438,37.854 307.438,37.491 C 307.438,37.007 307.075,36.886 306.591,36.886 C 306.107,36.886 305.623,37.007 305.14,37.128 L 304.898,36.04 C 305.381,35.919 305.986,35.798 306.591,35.798 C 308.042,35.798 308.889,36.524 308.889,37.612 M 304.051,37.612 C 304.051,38.459 303.567,38.942 302.6,39.305 C 301.874,39.547 301.632,39.668 301.632,40.031 C 301.632,40.273 301.874,40.636 302.479,40.636 C 302.842,40.636 303.325,40.515 303.688,40.394 L 303.809,41.482 C 303.446,41.603 302.842,41.724 302.358,41.724 C 301.028,41.724 300.181,40.998 300.181,39.91 C 300.181,38.942 300.786,38.58 301.632,38.217 C 302.358,37.975 302.6,37.854 302.6,37.491 C 302.6,37.007 302.237,36.886 301.753,36.886 C 301.269,36.886 300.786,37.007 300.302,37.128 L 300.06,36.04 C 300.544,35.919 301.148,35.798 301.753,35.798 C 303.205,35.798 304.051,36.524 304.051,37.612 M 294.738,38.821 C 294.98,39.668 295.343,40.515 295.585,41.482 C 295.706,41.724 295.706,41.966 295.827,42.208 L 295.827,42.208 C 295.948,41.966 295.948,41.724 296.069,41.482 C 296.432,40.636 296.674,39.668 296.915,38.821 L 294.738,38.821 Z M 299.455,35.919 C 298.73,38.338 297.762,40.998 296.795,43.538 L 295.101,43.538 C 294.134,40.998 293.287,38.58 292.441,35.919 L 293.892,35.919 C 294.013,36.524 294.255,37.128 294.376,37.733 L 297.278,37.733 C 297.52,37.128 297.641,36.524 297.762,35.919 L 299.455,35.919 Z" marker-start="none" marker-end="none"/>
   <path d="M 547.268,49.948 L 546.905,49.948 C 546.543,49.948 546.422,50.19 546.422,50.553 L 546.422,57.205 L 544.97,57.205 L 544.97,50.19 C 544.97,49.223 545.575,48.86 546.301,48.86 C 546.663,48.86 546.905,48.981 547.147,48.981 L 547.147,49.948 Z M 542.189,50.432 C 541.826,50.069 541.463,49.827 540.979,49.827 C 540.374,49.827 540.132,50.19 540.132,50.553 C 540.132,51.158 540.616,51.4 541.463,51.4 L 542.189,51.4 L 542.189,50.432 Z M 543.519,48.981 L 543.519,52.73 C 543.519,53.939 542.914,54.665 541.221,54.665 C 540.495,54.665 539.649,54.544 539.165,54.302 L 539.407,53.335 C 539.891,53.577 540.495,53.698 541.1,53.698 C 541.947,53.698 542.309,53.335 542.309,52.609 L 542.309,52.367 L 541.584,52.367 C 539.77,52.367 538.802,51.883 538.802,50.553 C 538.802,49.464 539.528,48.86 540.737,48.86 C 541.463,48.86 541.947,49.102 542.551,49.585 L 542.672,49.102 L 543.519,49.102 Z M 537.472,48.981 L 537.472,54.544 L 535.174,54.544 L 535.174,53.456 L 536.02,53.456 L 536.02,48.86 L 537.472,48.86 Z M 537.593,56.237 C 537.593,56.721 537.23,57.084 536.746,57.084 C 536.262,57.084 535.899,56.721 535.899,56.237 C 535.899,55.754 536.262,55.391 536.746,55.391 C 537.23,55.391 537.593,55.754 537.593,56.237 M 534.448,50.19 C 534.085,50.069 533.722,49.948 533.36,49.948 C 532.392,49.948 531.908,50.553 531.908,51.762 C 531.908,52.851 532.392,53.577 533.36,53.577 C 533.722,53.577 534.085,53.456 534.327,53.335 L 534.69,54.423 C 534.206,54.665 533.722,54.665 533.239,54.665 C 531.545,54.665 530.457,53.577 530.457,51.641 C 530.457,49.948 531.304,48.86 533.118,48.86 C 533.722,48.86 534.206,48.981 534.69,49.223 L 534.448,50.19 Z M 528.159,51.762 C 528.159,50.674 527.675,49.948 526.708,49.948 C 525.74,49.948 525.256,50.674 525.256,51.883 C 525.256,52.972 525.74,53.698 526.708,53.698 C 527.675,53.698 528.159,52.851 528.159,51.762 M 529.61,51.883 C 529.61,53.698 528.643,54.786 526.829,54.786 C 524.894,54.786 523.926,53.577 523.926,51.762 C 523.926,50.069 524.894,48.86 526.708,48.86 C 528.522,48.86 529.61,50.069 529.61,51.883 M 522.959,50.674 C 522.959,51.521 522.475,52.004 521.507,52.367 C 520.782,52.609 520.54,52.73 520.54,53.093 C 520.54,53.335 520.782,53.698 521.386,53.698 C 521.749,53.698 522.233,53.577 522.596,53.456 L 522.717,54.544 C 522.354,54.665 521.749,54.786 521.265,54.786 C 519.935,54.786 519.088,54.06 519.088,52.972 C 519.088,52.004 519.693,51.641 520.54,51.279 C 521.144,51.037 521.507,50.916 521.507,50.553 C 521.507,50.069 521.144,49.948 520.661,49.948 C 520.177,49.948 519.693,50.069 519.209,50.19 L 518.967,49.102 C 519.451,48.981 520.056,48.86 520.661,48.86 C 522.112,48.86 522.959,49.585 522.959,50.674 M 515.46,49.948 L 515.097,49.948 C 514.734,49.948 514.613,50.19 514.613,50.553 L 514.613,57.205 L 513.283,57.205 L 513.283,50.19 C 513.283,49.223 513.888,48.86 514.613,48.86 C 514.976,48.86 515.218,48.981 515.46,48.981 L 515.46,49.948 Z M 511.711,48.981 L 511.711,54.544 L 509.413,54.544 L 509.413,53.456 L 510.26,53.456 L 510.26,48.86 L 511.711,48.86 Z M 511.832,56.237 C 511.832,56.721 511.469,57.084 510.985,57.084 C 510.501,57.084 510.139,56.721 510.139,56.237 C 510.139,55.754 510.501,55.391 510.985,55.391 C 511.469,55.391 511.832,55.754 511.832,56.237 M 507.115,50.432 C 506.752,50.069 506.389,49.827 505.906,49.827 C 505.301,49.827 505.059,50.19 505.059,50.553 C 505.059,51.158 505.543,51.4 506.389,51.4 L 507.115,51.4 L 507.115,50.432 Z M 508.566,48.981 L 508.566,52.73 C 508.566,53.939 507.962,54.665 506.268,54.665 C 505.543,54.665 504.696,54.544 504.212,54.302 L 504.454,53.335 C 504.938,53.577 505.543,53.698 506.147,53.698 C 506.994,53.698 507.357,53.335 507.357,52.609 L 507.357,52.367 L 506.631,52.367 C 504.817,52.367 503.85,51.883 503.85,50.553 C 503.85,49.464 504.575,48.86 505.785,48.86 C 506.51,48.86 506.994,49.102 507.599,49.585 L 507.72,49.102 L 508.566,49.102 Z M 501.914,54.544 C 501.672,53.456 501.31,52.246 500.947,51.037 C 500.826,50.795 500.826,50.553 500.705,50.311 L 500.705,50.311 C 500.584,50.553 500.584,50.795 500.463,51.037 C 500.1,52.125 499.737,53.335 499.496,54.544 L 498.044,54.544 C 498.528,52.609 499.133,50.795 499.858,48.981 L 501.431,48.981 C 502.156,50.795 502.761,52.73 503.245,54.544 L 501.914,54.544 Z M 495.867,50.432 C 495.504,50.069 495.142,49.827 494.658,49.827 C 494.053,49.827 493.811,50.19 493.811,50.553 C 493.811,51.158 494.295,51.4 495.142,51.4 L 495.867,51.4 L 495.867,50.432 Z M 497.319,48.981 L 497.319,52.73 C 497.319,53.939 496.714,54.665 495.021,54.665 C 494.295,54.665 493.448,54.544 492.965,54.302 L 493.207,53.335 C 493.69,53.577 494.295,53.698 494.9,53.698 C 495.746,53.698 496.109,53.335 496.109,52.609 L 496.109,52.367 L 495.383,52.367 C 493.569,52.367 492.602,51.883 492.602,50.553 C 492.602,49.464 493.327,48.86 494.537,48.86 C 495.263,48.86 495.746,49.102 496.351,49.585 L 496.472,49.102 L 497.319,49.102 Z M 492.118,54.665 C 491.876,54.665 491.755,54.786 491.513,54.786 C 490.909,54.786 490.546,54.423 490.062,53.698 L 489.941,54.665 L 488.852,54.665 L 488.852,49.102 L 490.304,49.102 L 490.304,52.609 C 490.788,53.214 491.15,53.577 491.513,53.577 C 491.634,53.577 491.997,53.577 492.118,53.456 L 492.118,54.665 Z M 487.643,49.948 L 487.159,49.948 C 486.555,49.948 486.434,50.069 486.434,50.795 L 486.434,53.456 L 487.643,53.456 L 487.643,54.544 L 486.434,54.544 L 486.434,56.116 L 485.345,56.116 L 484.982,54.544 L 484.136,54.544 L 484.136,53.456 L 484.982,53.456 L 484.982,50.432 C 484.982,49.223 485.587,48.86 486.555,48.86 C 486.917,48.86 487.401,48.86 487.643,48.981 L 487.643,49.948 Z M 480.266,48.981 L 480.266,54.544 L 478.935,54.544 L 478.935,50.795 C 478.451,50.311 478.089,50.069 477.605,50.069 C 476.879,50.069 476.637,50.553 476.637,51.4 L 476.637,54.665 L 475.186,54.665 L 475.186,51.158 C 475.186,49.827 475.791,48.981 477.121,48.981 C 477.968,48.981 478.451,49.223 479.056,49.827 L 479.177,49.102 L 480.266,49.102 Z M 472.283,50.795 C 471.8,50.19 471.437,49.948 470.832,49.948 C 469.985,49.948 469.743,50.674 469.743,51.641 C 469.743,52.851 470.227,53.456 471.195,53.456 C 471.679,53.456 472.041,53.335 472.283,53.214 L 472.283,50.795 Z M 473.735,48.981 L 473.735,57.084 L 472.283,57.084 L 472.283,54.544 C 471.92,54.665 471.558,54.665 471.195,54.665 C 469.26,54.665 468.292,53.335 468.292,51.521 C 468.292,49.948 469.018,48.86 470.59,48.86 C 471.437,48.86 471.92,49.223 472.525,49.706 L 472.646,48.981 L 473.735,48.981 Z M 460.794,52.367 C 460.794,53.093 461.156,53.698 462.003,53.698 C 462.729,53.698 463.092,53.214 463.092,52.367 L 460.794,52.367 Z M 464.422,52.125 C 464.422,53.698 463.696,54.786 462.003,54.786 C 460.189,54.786 459.221,53.577 459.221,51.762 C 459.221,49.827 460.068,48.86 462.003,48.86 C 462.85,48.86 463.575,48.981 464.18,49.223 L 464.059,50.19 C 463.454,50.069 462.85,49.948 462.245,49.948 C 461.036,49.948 460.673,50.553 460.673,51.521 L 464.422,51.521 C 464.422,51.762 464.422,52.004 464.422,52.125 M 458.496,50.674 C 458.496,51.521 458.012,52.004 457.044,52.367 C 456.319,52.609 456.077,52.73 456.077,53.093 C 456.077,53.335 456.319,53.698 456.924,53.698 C 457.286,53.698 457.77,53.577 458.133,53.456 L 458.254,54.544 C 457.891,54.665 457.286,54.786 456.803,54.786 C 455.472,54.786 454.626,54.06 454.626,52.972 C 454.626,52.004 455.23,51.641 456.077,51.279 C 456.803,51.037 457.044,50.916 457.044,50.553 C 457.044,50.069 456.682,49.948 456.198,49.948 C 455.714,49.948 455.23,50.069 454.747,50.19 L 454.505,49.102 C 454.988,48.981 455.593,48.86 456.198,48.86 C 457.649,48.86 458.496,49.585 458.496,50.674 M 453.658,50.674 C 453.658,51.521 453.174,52.004 452.207,52.367 C 451.481,52.609 451.239,52.73 451.239,53.093 C 451.239,53.335 451.481,53.698 452.086,53.698 C 452.449,53.698 452.932,53.577 453.295,53.456 L 453.416,54.544 C 453.053,54.665 452.449,54.786 451.965,54.786 C 450.634,54.786 449.788,54.06 449.788,52.972 C 449.788,52.004 450.393,51.641 451.239,51.279 C 451.844,51.037 452.207,50.916 452.207,50.553 C 452.207,50.069 451.844,49.948 451.36,49.948 C 450.876,49.948 450.393,50.069 449.909,50.19 L 449.667,49.102 C 450.151,48.981 450.755,48.86 451.36,48.86 C 452.811,48.86 453.658,49.585 453.658,50.674 M 448.578,48.981 L 448.578,54.544 L 446.28,54.544 L 446.28,53.456 L 447.127,53.456 L 447.127,48.86 L 448.578,48.86 Z M 448.699,56.237 C 448.699,56.721 448.337,57.084 447.853,57.084 C 447.369,57.084 447.006,56.721 447.006,56.237 C 447.006,55.754 447.369,55.391 447.853,55.391 C 448.337,55.391 448.699,55.754 448.699,56.237 M 445.313,48.981 L 445.313,54.544 L 443.862,54.544 L 443.862,50.795 C 443.378,50.311 443.015,50.069 442.531,50.069 C 441.806,50.069 441.564,50.553 441.564,51.4 L 441.564,54.665 L 440.233,54.665 L 440.233,51.158 C 440.233,49.827 440.838,48.981 442.168,48.981 C 443.015,48.981 443.499,49.223 444.104,49.827 L 444.224,49.102 L 445.313,49.102 Z M 439.145,50.674 C 439.145,51.521 438.661,52.004 437.693,52.367 C 436.968,52.609 436.726,52.73 436.726,53.093 C 436.726,53.335 436.968,53.698 437.573,53.698 C 437.935,53.698 438.419,53.577 438.782,53.456 L 438.903,54.544 C 438.54,54.665 437.935,54.786 437.452,54.786 C 436.121,54.786 435.275,54.06 435.275,52.972 C 435.275,52.004 435.879,51.641 436.726,51.279 C 437.331,51.037 437.694,50.916 437.694,50.553 C 437.694,50.069 437.331,49.948 436.847,49.948 C 436.363,49.948 435.879,50.069 435.396,50.19 L 435.154,49.102 C 435.637,48.981 436.242,48.86 436.847,48.86 C 438.298,48.86 439.145,49.585 439.145,50.674 M 427.534,52.367 C 427.534,53.093 427.897,53.698 428.744,53.698 C 429.469,53.698 429.832,53.214 429.832,52.367 L 427.534,52.367 Z M 431.284,52.125 C 431.284,53.698 430.558,54.786 428.865,54.786 C 427.05,54.786 426.083,53.577 426.083,51.762 C 426.083,49.827 426.93,48.86 428.865,48.86 C 429.711,48.86 430.437,48.981 431.042,49.223 L 430.921,50.19 C 430.316,50.069 429.711,49.948 429.107,49.948 C 427.897,49.948 427.534,50.553 427.534,51.521 L 431.284,51.521 C 431.284,51.762 431.284,52.004 431.284,52.125 M 425.478,49.948 L 425.115,49.948 C 424.753,49.948 424.632,50.19 424.632,50.553 L 424.632,57.205 L 423.301,57.205 L 423.301,50.19 C 423.301,49.223 423.906,48.86 424.632,48.86 C 424.994,48.86 425.236,48.981 425.478,48.981 L 425.478,49.948 Z M 422.334,49.948 L 421.971,49.948 C 421.608,49.948 421.487,50.19 421.487,50.553 L 421.487,57.205 L 420.036,57.205 L 420.036,50.19 C 420.036,49.223 420.641,48.86 421.366,48.86 C 421.729,48.86 421.971,48.981 422.213,48.981 L 422.213,49.948 Z M 415.198,52.367 C 415.198,53.093 415.561,53.698 416.407,53.698 C 417.133,53.698 417.496,53.214 417.496,52.367 L 415.198,52.367 Z M 418.826,52.125 C 418.826,53.698 418.101,54.786 416.407,54.786 C 414.593,54.786 413.626,53.577 413.626,51.762 C 413.626,49.827 414.472,48.86 416.407,48.86 C 417.254,48.86 417.98,48.981 418.584,49.223 L 418.463,50.19 C 417.859,50.069 417.254,49.948 416.649,49.948 C 415.44,49.948 415.077,50.553 415.077,51.521 L 418.826,51.521 C 418.826,51.762 418.826,52.004 418.826,52.125 M 412.537,48.981 L 412.537,52.488 C 412.537,53.818 411.933,54.665 410.602,54.665 C 409.756,54.665 409.272,54.423 408.667,53.818 L 408.546,54.544 L 407.458,54.544 L 407.458,48.981 L 408.909,48.981 L 408.909,52.851 C 409.393,53.335 409.756,53.577 410.239,53.577 C 410.965,53.577 411.207,53.093 411.207,52.246 L 411.207,48.981 L 412.537,48.981 Z M 405.885,48.981 L 405.885,52.488 C 405.885,53.818 405.281,54.665 403.95,54.665 C 403.104,54.665 402.62,54.423 402.015,53.818 L 401.894,54.544 L 400.806,54.544 L 400.806,48.981 L 402.257,48.981 L 402.257,52.851 C 402.741,53.335 403.104,53.577 403.587,53.577 C 404.313,53.577 404.555,53.093 404.555,52.246 L 404.555,48.981 L 405.885,48.981 Z M 398.145,51.762 C 398.145,50.674 397.661,49.948 396.694,49.948 C 395.726,49.948 395.242,50.674 395.242,51.883 C 395.242,52.972 395.726,53.698 396.694,53.698 C 397.782,53.698 398.145,52.851 398.145,51.762 M 399.717,51.883 C 399.717,53.698 398.75,54.786 396.936,54.786 C 395.001,54.786 394.033,53.577 394.033,51.762 C 394.033,50.069 395.001,48.86 396.815,48.86 C 398.629,48.86 399.717,50.069 399.717,51.883 M 392.703,48.981 L 392.703,54.544 L 390.405,54.544 L 390.405,53.456 L 391.251,53.456 L 391.251,48.86 L 392.703,48.86 Z M 392.824,56.237 C 392.824,56.721 392.461,57.084 391.977,57.084 C 391.493,57.084 391.13,56.721 391.13,56.237 C 391.13,55.754 391.493,55.391 391.977,55.391 C 392.461,55.391 392.824,55.754 392.824,56.237 M 389.8,50.674 C 389.8,51.521 389.316,52.004 388.349,52.367 C 387.623,52.609 387.381,52.73 387.381,53.093 C 387.381,53.335 387.623,53.698 388.228,53.698 C 388.59,53.698 389.074,53.577 389.437,53.456 L 389.558,54.544 C 389.195,54.665 388.591,54.786 388.107,54.786 C 386.776,54.786 385.93,54.06 385.93,52.972 C 385.93,52.004 386.534,51.641 387.381,51.279 C 388.107,51.037 388.349,50.916 388.349,50.553 C 388.349,50.069 387.986,49.948 387.502,49.948 C 387.018,49.948 386.534,50.069 386.051,50.19 L 385.809,49.102 C 386.293,48.981 386.897,48.86 387.502,48.86 C 388.953,48.86 389.8,49.585 389.8,50.674 M 385.083,50.674 C 385.083,51.521 384.599,52.004 383.632,52.367 C 382.906,52.609 382.664,52.73 382.664,53.093 C 382.664,53.335 382.906,53.698 383.511,53.698 C 383.874,53.698 384.358,53.577 384.72,53.456 L 384.841,54.544 C 384.478,54.665 383.874,54.786 383.39,54.786 C 382.06,54.786 381.213,54.06 381.213,52.972 C 381.213,52.004 381.818,51.641 382.664,51.279 C 383.269,51.037 383.632,50.916 383.632,50.553 C 383.632,50.069 383.269,49.948 382.785,49.948 C 382.301,49.948 381.818,50.069 381.334,50.19 L 381.092,49.102 C 381.576,48.981 382.18,48.86 382.785,48.86 C 384.237,48.86 385.083,49.585 385.083,50.674 M 376.496,52.367 C 376.496,53.093 376.859,53.698 377.706,53.698 C 378.431,53.698 378.794,53.214 378.794,52.367 L 376.496,52.367 Z M 380.124,52.125 C 380.124,53.698 379.399,54.786 377.706,54.786 C 375.891,54.786 374.924,53.577 374.924,51.762 C 374.924,49.827 375.771,48.86 377.706,48.86 C 378.552,48.86 379.278,48.981 379.883,49.223 L 379.762,50.19 C 379.157,50.069 378.552,49.948 377.947,49.948 C 376.738,49.948 376.375,50.553 376.375,51.521 L 380.124,51.521 C 380.124,51.762 380.124,52.004 380.124,52.125 M 374.682,56.237 L 374.682,57.205 C 374.44,57.205 374.198,57.326 373.835,57.326 C 372.384,57.326 372.021,56.479 372.021,55.149 L 372.021,54.665 L 371.175,54.665 L 371.175,53.577 L 372.021,53.577 L 372.021,48.981 L 373.473,48.981 L 373.473,53.577 L 374.682,53.577 L 374.682,54.665 L 373.473,54.665 L 373.473,55.27 C 373.473,55.874 373.594,56.358 374.319,56.358 L 374.682,56.358 Z M 368.998,51.762 C 368.998,50.674 368.514,49.948 367.546,49.948 C 366.579,49.948 366.095,50.674 366.095,51.883 C 366.095,52.972 366.579,53.698 367.546,53.698 C 368.635,53.698 368.998,52.851 368.998,51.762 M 370.449,51.883 C 370.449,53.698 369.481,54.786 367.667,54.786 C 365.732,54.786 364.765,53.577 364.765,51.762 C 364.765,50.069 365.732,48.86 367.546,48.86 C 369.481,48.86 370.449,50.069 370.449,51.883 M 364.281,54.665 C 364.039,54.665 363.918,54.786 363.676,54.786 C 363.071,54.786 362.709,54.423 362.225,53.698 L 362.104,54.665 L 361.015,54.665 L 361.015,49.102 L 362.467,49.102 L 362.467,52.609 C 362.951,53.214 363.313,53.577 363.676,53.577 C 363.797,53.577 364.16,53.577 364.281,53.456 L 364.281,54.665 Z M 358.234,51.883 C 358.234,50.674 357.75,50.069 356.782,50.069 C 356.299,50.069 356.057,50.19 355.694,50.311 L 355.694,52.851 C 356.178,53.456 356.541,53.698 357.145,53.698 C 357.992,53.577 358.234,52.851 358.234,51.883 Z M 359.685,52.004 C 359.685,53.577 358.959,54.665 357.387,54.665 C 356.541,54.665 355.936,54.302 355.452,53.818 L 355.331,54.544 L 354.364,54.544 L 354.364,46.683 L 355.815,46.683 L 355.815,48.86 C 356.178,48.739 356.541,48.739 356.903,48.739 C 358.838,48.86 359.685,50.311 359.685,52.004 L 359.685,52.004 Z M 349.889,48.981 L 349.889,52.488 C 349.889,53.818 349.284,54.665 347.954,54.665 C 347.107,54.665 346.623,54.423 346.018,53.818 L 345.897,54.544 L 344.809,54.544 L 344.809,48.981 L 346.26,48.981 L 346.26,52.851 C 346.744,53.335 347.107,53.577 347.591,53.577 C 348.316,53.577 348.558,53.093 348.558,52.246 L 348.558,48.981 L 349.889,48.981 Z M 342.148,51.762 C 342.148,50.674 341.664,49.948 340.697,49.948 C 339.729,49.948 339.246,50.674 339.246,51.883 C 339.246,52.972 339.729,53.698 340.697,53.698 C 341.664,53.698 342.148,52.851 342.148,51.762 M 343.6,51.883 C 343.6,53.698 342.632,54.786 340.818,54.786 C 338.883,54.786 337.915,53.577 337.915,51.762 C 337.915,50.069 338.883,48.86 340.697,48.86 C 342.511,48.86 343.6,50.069 343.6,51.883 M 336.585,48.981 L 336.585,54.544 L 334.287,54.544 L 334.287,53.456 L 335.134,53.456 L 335.134,48.86 L 336.585,48.86 Z M 336.706,56.237 C 336.706,56.721 336.343,57.084 335.859,57.084 C 335.375,57.084 335.013,56.721 335.013,56.237 C 335.013,55.754 335.375,55.391 335.859,55.391 C 336.343,55.391 336.706,55.754 336.706,56.237 M 333.682,49.948 L 333.198,49.948 C 332.594,49.948 332.473,50.069 332.473,50.795 L 332.473,53.456 L 333.682,53.456 L 333.682,54.544 L 332.473,54.544 L 332.473,56.116 L 331.384,56.116 L 331.021,54.544 L 330.175,54.544 L 330.175,53.456 L 331.021,53.456 L 331.021,50.432 C 331.021,49.223 331.626,48.86 332.594,48.86 C 332.957,48.86 333.44,48.86 333.682,48.981 L 333.682,49.948 Z M 327.998,50.432 C 327.635,50.069 327.272,49.827 326.788,49.827 C 326.184,49.827 325.942,50.19 325.942,50.553 C 325.942,51.158 326.426,51.4 327.272,51.4 L 327.998,51.4 L 327.998,50.432 Z M 329.449,48.981 L 329.449,52.73 C 329.449,53.939 328.844,54.665 327.151,54.665 C 326.426,54.665 325.579,54.544 325.095,54.302 L 325.337,53.335 C 325.821,53.577 326.426,53.698 327.03,53.698 C 327.877,53.698 328.24,53.335 328.24,52.609 L 328.24,52.367 L 327.514,52.367 C 325.7,52.367 324.732,51.883 324.732,50.553 C 324.732,49.464 325.458,48.86 326.668,48.86 C 327.393,48.86 327.877,49.102 328.482,49.585 L 328.603,49.102 L 329.449,49.102 Z M 323.402,48.981 L 323.402,54.544 L 321.104,54.544 L 321.104,53.456 L 321.951,53.456 L 321.951,48.86 L 323.402,48.86 Z M 323.523,56.237 C 323.523,56.721 323.16,57.084 322.676,57.084 C 322.193,57.084 321.83,56.721 321.83,56.237 C 321.83,55.754 322.193,55.391 322.676,55.391 C 323.16,55.391 323.523,55.754 323.523,56.237 M 320.378,50.19 C 320.016,50.069 319.653,49.948 319.29,49.948 C 318.322,49.948 317.839,50.553 317.839,51.762 C 317.839,52.851 318.322,53.577 319.29,53.577 C 319.653,53.577 320.016,53.456 320.258,53.335 L 320.499,54.423 C 320.016,54.665 319.532,54.665 319.048,54.665 C 317.355,54.665 316.266,53.577 316.266,51.641 C 316.266,49.948 317.113,48.86 318.927,48.86 C 319.411,48.86 320.016,48.981 320.499,49.223 L 320.378,50.19 Z M 313.968,51.762 C 313.968,50.674 313.485,49.948 312.517,49.948 C 311.55,49.948 311.066,50.674 311.066,51.883 C 311.066,52.972 311.55,53.698 312.517,53.698 C 313.606,53.698 313.968,52.851 313.968,51.762 M 315.42,51.883 C 315.42,53.698 314.452,54.786 312.638,54.786 C 310.703,54.786 309.735,53.577 309.735,51.762 C 309.735,50.069 310.703,48.86 312.517,48.86 C 314.452,48.86 315.42,50.069 315.42,51.883 M 308.889,50.674 C 308.889,51.521 308.405,52.004 307.438,52.367 C 306.712,52.609 306.47,52.73 306.47,53.093 C 306.47,53.335 306.712,53.698 307.317,53.698 C 307.679,53.698 308.163,53.577 308.526,53.456 L 308.647,54.544 C 308.284,54.665 307.679,54.786 307.196,54.786 C 305.865,54.786 305.019,54.06 305.019,52.972 C 305.019,52.004 305.623,51.641 306.47,51.279 C 307.196,51.037 307.438,50.916 307.438,50.553 C 307.438,50.069 307.075,49.948 306.591,49.948 C 306.107,49.948 305.623,50.069 305.14,50.19 L 304.898,49.102 C 305.381,48.981 305.986,48.86 306.591,48.86 C 308.042,48.86 308.889,49.585 308.889,50.674 M 304.051,50.674 C 304.051,51.521 303.567,52.004 302.6,52.367 C 301.874,52.609 301.632,52.73 301.632,53.093 C 301.632,53.335 301.874,53.698 302.479,53.698 C 302.842,53.698 303.325,53.577 303.688,53.456 L 303.809,54.544 C 303.446,54.665 302.842,54.786 302.358,54.786 C 301.028,54.786 300.181,54.06 300.181,52.972 C 300.181,52.004 300.786,51.641 301.632,51.279 C 302.358,51.037 302.6,50.916 302.6,50.553 C 302.6,50.069 302.237,49.948 301.753,49.948 C 301.269,49.948 300.786,50.069 300.302,50.19 L 300.06,49.102 C 300.544,48.981 301.148,48.86 301.753,48.86 C 303.205,48.86 304.051,49.585 304.051,50.674 M 294.738,51.883 C 294.98,52.73 295.343,53.577 295.585,54.544 C 295.706,54.786 295.706,55.028 295.827,55.27 L 295.827,55.27 C 295.948,55.028 295.948,54.786 296.069,54.544 C 296.432,53.698 296.674,52.73 296.915,51.883 L 294.738,51.883 Z M 299.455,48.981 C 298.73,51.4 297.762,54.06 296.795,56.6 L 295.101,56.6 C 294.134,54.06 293.287,51.641 292.441,48.981 L 293.892,48.981 C 294.013,49.585 294.255,50.19 294.376,50.795 L 297.278,50.795 C 297.52,50.19 297.641,49.585 297.762,48.981 L 299.455,48.981 Z" marker-start="none" marker-end="none"/>
   <path d="M 482.322,62.043 L 482.322,63.131 L 479.661,63.131 L 482.201,66.518 L 482.201,67.606 L 478.21,67.606 L 478.21,66.518 L 480.628,66.518 L 478.089,63.131 L 478.089,62.043 L 482.322,62.043 Z M 476.758,62.043 L 476.758,67.606 L 474.46,67.606 L 474.46,66.518 L 475.307,66.518 L 475.307,61.922 L 476.758,61.922 Z M 476.879,69.299 C 476.879,69.783 476.516,70.146 476.032,70.146 C 475.549,70.146 475.186,69.783 475.186,69.299 C 475.186,68.815 475.549,68.453 476.032,68.453 C 476.516,68.453 476.879,68.815 476.879,69.299 M 470.106,65.429 C 470.106,66.155 470.469,66.759 471.316,66.759 C 472.041,66.759 472.404,66.276 472.404,65.429 L 470.106,65.429 Z M 473.856,65.187 C 473.856,66.759 473.13,67.727 471.437,67.727 C 469.623,67.727 468.655,66.518 468.655,64.703 C 468.655,62.768 469.502,61.801 471.437,61.801 C 472.283,61.801 473.009,61.922 473.614,62.164 L 473.493,63.131 C 472.888,63.01 472.283,62.889 471.679,62.889 C 470.469,62.889 470.106,63.494 470.106,64.461 L 473.856,64.461 C 473.735,64.824 473.856,65.066 473.856,65.187 M 466.72,67.606 C 466.478,66.518 466.236,65.308 465.994,64.22 C 465.873,63.978 465.873,63.615 465.752,63.373 L 465.752,63.373 L 465.51,64.22 L 464.543,67.606 L 463.092,67.606 L 462.245,64.22 L 462.003,63.373 L 462.003,63.373 C 461.882,63.615 461.882,63.978 461.761,64.22 C 461.519,65.308 461.156,66.397 460.915,67.606 L 459.584,67.606 C 459.947,65.792 460.552,63.857 461.156,62.043 L 462.729,62.043 L 463.575,65.308 L 463.696,65.913 L 463.696,65.913 L 463.817,65.308 L 464.664,62.043 L 466.236,62.043 C 466.962,63.857 467.446,65.792 467.929,67.606 L 466.72,67.606 Z M 458.617,62.043 L 458.617,65.55 C 458.617,66.88 458.012,67.727 456.682,67.727 C 455.956,67.727 455.472,67.485 454.988,67.001 L 454.988,70.146 L 453.537,70.146 L 453.537,62.043 L 454.988,62.043 L 454.988,65.913 C 455.472,66.397 455.835,66.638 456.319,66.638 C 457.044,66.638 457.286,66.155 457.286,65.308 L 457.286,62.043 L 458.617,62.043 Z M 452.328,63.252 C 451.965,63.131 451.602,63.01 451.239,63.01 C 450.272,63.01 449.788,63.615 449.788,64.824 C 449.788,65.913 450.272,66.638 451.239,66.638 C 451.602,66.638 451.965,66.518 452.207,66.397 L 452.57,67.485 C 452.086,67.727 451.602,67.727 451.118,67.727 C 449.425,67.727 448.336,66.638 448.336,64.703 C 448.336,63.01 449.183,61.922 450.997,61.922 C 451.602,61.922 452.086,62.043 452.57,62.284 L 452.328,63.252 Z M 447.49,64.341 C 447.49,65.671 446.522,66.155 445.434,66.638 C 444.708,66.88 444.224,67.243 444.224,67.848 C 444.224,68.332 444.587,68.694 445.313,68.694 C 445.797,68.694 446.28,68.574 446.764,68.453 L 447.006,69.541 C 446.522,69.662 445.918,69.783 445.313,69.783 C 443.862,69.783 442.652,68.936 442.652,67.606 C 442.652,66.397 443.378,65.792 444.466,65.429 C 445.313,65.066 445.918,64.824 445.918,64.22 C 445.918,63.615 445.434,63.131 444.587,63.131 C 443.983,63.131 443.378,63.252 442.894,63.373 L 442.773,62.164 C 443.378,61.922 443.983,61.922 444.587,61.922 C 446.16,61.922 447.49,62.768 447.49,64.341 M 438.782,63.01 L 438.298,63.01 C 437.693,63.01 437.573,63.131 437.573,63.857 L 437.573,66.518 L 438.782,66.518 L 438.782,67.606 L 437.573,67.606 L 437.573,69.178 L 436.484,69.178 L 436.121,67.606 L 435.396,67.606 L 435.396,66.518 L 436.242,66.518 L 436.242,63.494 C 436.242,62.284 436.847,61.922 437.814,61.922 C 438.177,61.922 438.661,61.922 438.903,62.043 L 438.903,63.01 Z M 434.428,62.043 L 434.428,67.606 L 432.13,67.606 L 432.13,66.518 L 432.977,66.518 L 432.977,61.922 L 434.428,61.922 Z M 434.549,69.299 C 434.549,69.783 434.186,70.146 433.702,70.146 C 433.219,70.146 432.856,69.783 432.856,69.299 C 432.856,68.815 433.219,68.453 433.702,68.453 C 434.186,68.453 434.549,68.815 434.549,69.299 M 427.776,65.429 C 427.776,66.155 428.139,66.759 428.986,66.759 C 429.711,66.759 430.074,66.276 430.074,65.429 L 427.776,65.429 Z M 431.525,65.187 C 431.525,66.759 430.8,67.727 429.107,67.727 C 427.292,67.727 426.325,66.518 426.325,64.703 C 426.325,62.768 427.171,61.801 429.107,61.801 C 429.953,61.801 430.679,61.922 431.283,62.164 L 431.163,63.131 C 430.558,63.01 429.953,62.889 429.348,62.889 C 428.139,62.889 427.776,63.494 427.776,64.461 L 431.525,64.461 C 431.525,64.824 431.525,65.066 431.525,65.187 M 423.906,64.945 C 423.906,63.736 423.422,63.131 422.455,63.131 C 422.092,63.131 421.729,63.252 421.366,63.373 L 421.366,65.913 C 421.85,66.518 422.334,66.759 422.817,66.759 C 423.664,66.638 423.906,65.913 423.906,64.945 M 425.357,65.066 C 425.357,66.518 424.632,67.727 423.059,67.727 C 422.334,67.727 421.729,67.485 421.366,67.001 L 421.366,70.146 L 419.915,70.146 L 419.915,62.284 C 420.641,62.043 421.487,61.922 422.213,61.922 C 424.511,61.922 425.357,63.252 425.357,65.066 M 419.189,67.727 C 418.947,67.727 418.826,67.848 418.584,67.848 C 417.98,67.848 417.617,67.485 417.133,66.759 L 417.012,67.727 L 415.924,67.727 L 415.924,62.164 L 417.375,62.164 L 417.375,65.671 C 417.859,66.276 418.222,66.638 418.584,66.638 C 418.705,66.638 419.068,66.638 419.189,66.518 L 419.189,67.727 Z M 410.118,64.945 C 410.36,65.792 410.723,66.638 410.965,67.606 C 411.086,67.848 411.086,68.09 411.207,68.332 L 411.207,68.332 C 411.328,68.09 411.328,67.848 411.449,67.606 C 411.812,66.759 412.054,65.792 412.295,64.945 L 410.118,64.945 Z M 414.835,62.043 C 414.11,64.461 413.142,67.122 412.174,69.662 L 410.481,69.662 C 409.514,67.122 408.667,64.703 407.82,62.043 L 409.272,62.043 C 409.393,62.647 409.635,63.252 409.756,63.857 L 412.658,63.857 C 412.9,63.252 413.021,62.647 413.142,62.043 L 414.835,62.043 Z M 400.443,65.429 C 400.443,66.155 400.806,66.759 401.652,66.759 C 402.378,66.759 402.741,66.276 402.741,65.429 L 400.443,65.429 Z M 404.192,65.187 C 404.192,66.759 403.467,67.727 401.773,67.727 C 399.959,67.727 398.992,66.518 398.992,64.703 C 398.992,62.768 399.838,61.801 401.773,61.801 C 402.62,61.801 403.346,61.922 403.95,62.164 L 403.829,63.131 C 403.225,63.01 402.62,62.889 402.015,62.889 C 400.806,62.889 400.443,63.494 400.443,64.461 L 404.192,64.461 C 404.192,64.824 404.192,65.066 404.192,65.187 M 398.387,63.01 L 398.024,63.01 C 397.661,63.01 397.54,63.252 397.54,63.615 L 397.54,70.267 L 396.089,70.267 L 396.089,63.252 C 396.089,62.284 396.694,61.922 397.419,61.922 C 397.782,61.922 398.024,62.043 398.266,62.043 L 398.266,63.01 Z M 393.307,63.494 C 392.944,63.131 392.582,62.889 392.098,62.889 C 391.493,62.889 391.251,63.252 391.251,63.615 C 391.251,64.22 391.735,64.461 392.582,64.461 L 393.307,64.461 L 393.307,63.494 Z M 394.638,62.043 L 394.638,65.792 C 394.638,67.001 394.033,67.727 392.34,67.727 C 391.614,67.727 390.767,67.606 390.284,67.364 L 390.526,66.397 C 391.009,66.638 391.614,66.759 392.219,66.759 C 393.065,66.759 393.428,66.397 393.428,65.671 L 393.428,65.429 L 392.703,65.429 C 390.888,65.429 389.921,64.945 389.921,63.615 C 389.921,62.526 390.647,61.922 391.856,61.922 C 392.582,61.922 393.065,62.164 393.67,62.647 L 393.791,62.164 L 394.638,62.164 Z M 388.59,62.043 L 388.59,67.606 L 386.293,67.606 L 386.293,66.518 L 387.139,66.518 L 387.139,61.922 L 388.59,61.922 Z M 388.711,69.299 C 388.711,69.783 388.349,70.146 387.865,70.146 C 387.381,70.146 387.018,69.783 387.018,69.299 C 387.018,68.815 387.381,68.453 387.865,68.453 C 388.349,68.453 388.711,68.815 388.711,69.299 M 385.809,62.043 L 385.809,63.131 L 383.148,63.131 L 385.688,66.518 L 385.688,67.606 L 381.697,67.606 L 381.697,66.518 L 384.116,66.518 L 381.576,63.131 L 381.576,62.043 L 385.809,62.043 Z M 379.157,64.824 C 379.157,63.736 378.673,63.01 377.706,63.01 C 376.738,63.01 376.254,63.736 376.254,64.945 C 376.254,66.034 376.738,66.759 377.706,66.759 C 378.794,66.759 379.157,65.913 379.157,64.824 M 380.608,64.945 C 380.608,66.759 379.641,67.848 377.827,67.848 C 375.891,67.848 374.924,66.638 374.924,64.824 C 374.924,63.131 375.891,61.922 377.706,61.922 C 379.641,61.922 380.608,63.131 380.608,64.945 M 374.077,64.341 C 374.077,65.671 373.11,66.155 372.021,66.638 C 371.296,66.88 370.812,67.243 370.812,67.848 C 370.812,68.332 371.175,68.694 371.9,68.694 C 372.384,68.694 372.868,68.574 373.352,68.453 L 373.594,69.541 C 373.11,69.662 372.505,69.783 371.9,69.783 C 370.449,69.783 369.24,68.936 369.24,67.606 C 369.24,66.397 369.965,65.792 371.054,65.429 C 371.9,65.066 372.505,64.824 372.505,64.22 C 372.505,63.615 372.021,63.131 371.175,63.131 C 370.57,63.131 369.965,63.252 369.481,63.373 L 369.361,62.164 C 369.965,61.922 370.57,61.922 371.175,61.922 C 372.747,61.922 374.077,62.768 374.077,64.341 M 363.676,63.857 C 363.192,63.252 362.83,63.01 362.225,63.01 C 361.378,63.01 361.136,63.736 361.136,64.703 C 361.136,65.913 361.62,66.518 362.588,66.518 C 363.071,66.518 363.434,66.397 363.676,66.276 L 363.676,63.857 Z M 365.007,62.043 L 365.007,70.146 L 363.555,70.146 L 363.555,67.606 C 363.192,67.727 362.83,67.727 362.467,67.727 C 360.532,67.727 359.564,66.397 359.564,64.582 C 359.564,63.01 360.29,61.922 361.862,61.922 C 362.709,61.922 363.192,62.284 363.797,62.768 L 363.918,62.043 L 365.007,62.043 Z M 358.476,62.043 L 358.476,65.55 C 358.476,66.88 357.871,67.727 356.541,67.727 C 355.694,67.727 355.21,67.485 354.605,66.88 L 354.484,67.606 L 353.396,67.606 L 353.396,62.043 L 354.726,62.043 L 354.726,65.913 C 355.21,66.397 355.573,66.638 356.057,66.638 C 356.782,66.638 357.024,66.155 357.024,65.308 L 357.024,62.043 L 358.476,62.043 Z M 350.493,63.494 C 350.131,63.131 349.768,62.889 349.284,62.889 C 348.679,62.889 348.437,63.252 348.437,63.615 C 348.437,64.22 348.921,64.461 349.768,64.461 L 350.493,64.461 L 350.493,63.494 Z M 351.945,62.043 L 351.945,65.792 C 351.945,67.001 351.34,67.727 349.647,67.727 C 348.921,67.727 348.075,67.606 347.591,67.364 L 347.833,66.397 C 348.316,66.638 348.921,66.759 349.526,66.759 C 350.372,66.759 350.735,66.397 350.735,65.671 L 350.735,65.429 L 350.01,65.429 C 348.195,65.429 347.228,64.945 347.228,63.615 C 347.228,62.526 347.954,61.922 349.163,61.922 C 349.889,61.922 350.372,62.164 350.977,62.647 L 351.098,62.164 L 351.945,62.164 Z M 344.688,64.945 C 344.688,63.736 344.204,63.131 343.237,63.131 C 342.874,63.131 342.511,63.252 342.148,63.373 L 342.148,65.913 C 342.632,66.518 343.116,66.759 343.6,66.759 C 344.446,66.638 344.688,65.913 344.688,64.945 M 346.139,65.066 C 346.139,66.518 345.414,67.727 343.841,67.727 C 343.116,67.727 342.511,67.485 342.148,67.001 L 342.148,70.146 L 340.697,70.146 L 340.697,62.284 C 341.423,62.043 342.269,61.922 342.995,61.922 C 345.293,61.922 346.139,63.252 346.139,65.066 M 339.971,67.727 C 339.729,67.727 339.608,67.848 339.367,67.848 C 338.762,67.848 338.399,67.485 337.915,66.759 L 337.794,67.727 L 336.706,67.727 L 336.706,62.164 L 338.157,62.164 L 338.157,65.671 C 338.641,66.276 339.004,66.638 339.367,66.638 C 339.488,66.638 339.85,66.638 339.971,66.518 L 339.971,67.727 Z M 331.626,65.429 C 331.626,66.155 331.989,66.759 332.836,66.759 C 333.561,66.759 333.924,66.276 333.924,65.429 L 331.626,65.429 Z M 335.375,65.187 C 335.375,66.759 334.65,67.727 332.957,67.727 C 331.142,67.727 330.175,66.518 330.175,64.703 C 330.175,62.768 331.021,61.801 332.957,61.801 C 333.803,61.801 334.529,61.922 335.134,62.164 L 335.013,63.131 C 334.408,63.01 333.803,62.889 333.198,62.889 C 331.989,62.889 331.626,63.494 331.626,64.461 L 335.375,64.461 C 335.375,64.824 335.375,65.066 335.375,65.187 M 328.24,67.606 C 327.998,66.518 327.635,65.308 327.272,64.099 C 327.151,63.857 327.151,63.615 327.03,63.373 L 327.03,63.373 C 326.909,63.615 326.909,63.857 326.788,64.099 C 326.426,65.187 326.063,66.397 325.821,67.606 L 324.37,67.606 C 324.853,65.671 325.458,63.857 326.184,62.043 L 327.756,62.043 C 328.482,63.857 329.086,65.792 329.57,67.606 L 328.24,67.606 Z M 323.886,63.736 C 323.886,64.582 323.402,65.066 322.434,65.429 C 321.709,65.671 321.467,65.792 321.467,66.155 C 321.467,66.397 321.709,66.759 322.314,66.759 C 322.676,66.759 323.16,66.638 323.523,66.518 L 323.644,67.606 C 323.281,67.727 322.676,67.848 322.193,67.848 C 320.862,67.848 320.016,67.122 320.016,66.034 C 320.016,65.066 320.62,64.703 321.467,64.341 C 322.072,64.099 322.435,63.978 322.435,63.615 C 322.435,63.131 322.072,63.01 321.588,63.01 C 321.104,63.01 320.62,63.131 320.137,63.252 L 319.895,62.164 C 320.378,62.043 320.983,61.922 321.588,61.922 C 323.039,61.922 323.886,62.647 323.886,63.736 M 319.532,69.299 L 319.532,70.267 C 319.29,70.267 319.048,70.388 318.685,70.388 C 317.234,70.388 316.871,69.541 316.871,68.211 L 316.871,67.727 L 316.024,67.727 L 316.024,66.638 L 316.871,66.638 L 316.871,62.043 L 318.322,62.043 L 318.322,66.638 L 319.532,66.638 L 319.532,67.727 L 318.322,67.727 L 318.322,68.332 C 318.322,68.936 318.443,69.42 319.169,69.42 L 319.532,69.42 Z M 315.057,62.043 L 315.057,67.606 L 313.606,67.606 L 313.606,63.736 C 313.122,63.252 312.759,63.01 312.275,63.01 C 311.55,63.01 311.308,63.494 311.308,64.341 L 311.308,67.606 L 309.856,67.606 L 309.856,64.099 C 309.856,62.768 310.461,61.922 311.791,61.922 C 312.638,61.922 313.122,62.164 313.727,62.768 L 313.848,62.043 L 315.057,62.043 Z M 309.01,67.727 C 308.768,67.727 308.647,67.848 308.405,67.848 C 307.8,67.848 307.438,67.485 306.954,66.759 L 306.833,67.727 L 305.744,67.727 L 305.744,62.164 L 307.196,62.164 L 307.196,65.671 C 307.679,66.276 308.042,66.638 308.405,66.638 C 308.526,66.638 308.889,66.638 309.01,66.518 L 309.01,67.727 Z M 300.786,65.429 C 300.786,66.155 301.148,66.759 301.995,66.759 C 302.721,66.759 303.084,66.276 303.084,65.429 L 300.786,65.429 Z M 304.414,65.187 C 304.414,66.759 303.688,67.727 301.995,67.727 C 300.181,67.727 299.213,66.518 299.213,64.703 C 299.213,62.768 300.06,61.801 301.995,61.801 C 302.842,61.801 303.567,61.922 304.172,62.164 L 304.051,63.131 C 303.446,63.01 302.842,62.889 302.237,62.889 C 301.028,62.889 300.665,63.494 300.665,64.461 L 304.414,64.461 C 304.414,64.824 304.414,65.066 304.414,65.187 M 296.915,64.22 C 296.915,63.494 296.432,63.131 295.706,63.131 L 294.618,63.131 L 294.618,65.429 L 295.585,65.429 C 296.432,65.429 296.915,64.945 296.915,64.22 M 296.553,67.606 C 296.553,67.001 296.19,66.518 295.464,66.518 L 294.497,66.518 L 294.497,68.574 L 295.222,68.574 C 296.19,68.574 296.553,68.211 296.553,67.606 M 298.488,64.341 C 298.488,65.308 297.883,65.913 297.036,66.155 C 297.641,66.397 298.004,67.001 298.004,67.727 C 298.004,69.057 297.036,69.662 295.464,69.662 L 293.166,69.662 L 293.166,62.043 L 295.585,62.043 C 297.036,62.043 298.488,62.768 298.488,64.341"/>
  </g>
 </g>
</svg>
