<?xml version="1.0" encoding="utf-8"?>
<!-- Generator: Adobe Illustrator 27.0.0, SVG Export Plug-In . SVG Version: 6.00 Build 0)  -->
<svg version="1.1" id="Pinselstrich_x5F_Sections_x5F_Mobile"
	 xmlns="http://www.w3.org/2000/svg" xmlns:xlink="http://www.w3.org/1999/xlink" x="0px" y="0px" viewBox="0 0 390 13.8"
	 style="enable-background:new 0 0 390 13.8;" xml:space="preserve">
<style type="text/css">
	.st0{fill:#FFFFFF;}
</style>
<g>
	<polygon class="st0" points="5.3,2.8 5.3,2.8 5.3,2.8 	"/>
	<path class="st0" d="M31.3,10.2c7,1.4,22.2,1.4,34.6,1.3c-0.1-0.3,0.9-0.6-0.6-0.9l7.5,0.7l-1-0.4c13.4-0.3,27.9,1.5,36.7,0.7
		c-5.5-0.2-5.5-0.5-6-1.1l2.2,0c4.3,1.1,12.8,0.6,19.9,0.3c2.5,0.1,5,0.2,7.6,0.3c-0.6-0.1-1-0.2-1-0.3c1.2-0.1,2.5,0,3.8,0
		c0.5,0,0.9,0.2,1.3,0.5c-1.4-0.1-2.7-0.1-4.1-0.2c1.5,0.2,3,0.3,4.5,0.2l-0.3,0l0.7-0.3c1.2,0.1,2.4,0.2,3.6,0.3l0.3-0.5
		c1.8,0.3,3.1,0.6,0.9,0.8l14.3-0.6l-2-0.3c2.3,0,4.6,0.1,6.9,0.4c-0.4,0.1-0.5,0.3-0.5,0.5l1.5-0.4c-0.3,0-0.7-0.1-1-0.1
		c2.7-0.9,16.5,0.8,24.3,0.4c2.3,0.1-2.6-0.5-1.5-0.7c1.1,0,2.2-0.1,3.4-0.1c1.2,1.7,10.9,0,11.6,1.9l7.4-0.7l1.6,0.9
		c6.3-1.7,9.5,0.8,18.8,0.2c-0.5-0.2-1.5-0.3-1-0.4c3,0.2,10,0.3,4.6,0.8c5,0,21.9,0.4,14.3-0.6c0.5,0.5-6.4,0.1-9.4-0.1
		c0.4-0.8,7.9-0.5,9.7-1.4c0.2,0.1,1.2,0.2,1.9,0.4l1.1-0.5c9.3,0.9,18.8,0.2,25.6,1.4c0.4-0.2,2-0.4,5.2-0.4l0.1,1l9.9,0l-4.6-1.4
		c10.9-0.3,18.5,1.4,27.5,1.6c2.3-1.7,17.4,0.6,25.2-0.8l-7-0.5c14.9,0.3,17.3-0.7,31.2-0.1c-11.8,0.6-11.9,0.2-29.1,1.6
		c17.3-0.7,29.8,0.9,45.6,0c-1.1-0.4-5-0.7-1.2-1.1c3.1,0.9,14.9,0,12.5,1c0.4,0,0.8-0.1,1.2-0.1V4.4c-4.6,0.1-12.8,0.2-11.5,0.1v0
		C379.3,4,386.4,4,390,4.2V2.7c-3.6-0.1-7-0.3-10.3-0.6c6.5,0.6,0.4,1,0.9,1.4c-7-1.4-22.2-1.4-34.6-1.3c0.1,0.3-0.9,0.6,0.6,0.9
		l-7.5-0.7l1,0.4c-13.4,0.3-27.9-1.5-36.7-0.7c5.5,0.2,5.5,0.5,6,1.1l-2.2,0c-4.3-1.1-12.8-0.6-19.9-0.3c-2.5-0.1-5-0.2-7.6-0.3
		c0.6,0.1,1,0.2,1,0.3c-1.2,0.1-2.5,0-3.8,0c-0.5,0-0.9-0.2-1.3-0.5c1.4,0.1,2.7,0.1,4.1,0.2c-1.5-0.2-3-0.3-4.5-0.2l0.3,0l-0.7,0.3
		c-1.2-0.1-2.4-0.2-3.6-0.3L270.9,3c-1.8-0.3-3.1-0.6-0.9-0.8l-14.3,0.6l2,0.3c-2.3,0-4.6-0.1-6.9-0.4c0.4-0.1,0.5-0.3,0.5-0.5
		l-1.5,0.4c0.3,0,0.7,0.1,1,0.1c-2.7,0.9-16.5-0.8-24.3-0.4c-2.3-0.1,2.6,0.5,1.5,0.7c-1.1,0-2.2,0.1-3.4,0.1
		c-1.2-1.7-10.9,0-11.6-1.9L205.7,2L204.1,1c-6.3,1.7-9.5-0.8-18.8-0.2c0.5,0.2,1.5,0.3,1,0.4c-3-0.2-10-0.3-4.6-0.8
		c-5,0-21.9-0.4-14.3,0.6c-0.5-0.5,6.4-0.1,9.4,0.1c-0.4,0.8-7.9,0.5-9.7,1.3c-0.2-0.1-1.2-0.2-1.9-0.4l-1.1,0.5
		c-9.3-0.9-18.8-0.2-25.6-1.4c-0.4,0.2-2,0.4-5.2,0.4l-0.1-1l-9.9,0l4.6,1.4c-10.9,0.3-18.5-1.4-27.5-1.6C98.1,2.1,83-0.2,75.2,1.3
		l7,0.5C67.3,1.4,64.9,2.4,51,1.9c11.8-0.6,11.9-0.2,29.1-1.6C62.8,1,50.2-0.7,34.4,0.3c1.1,0.4,5,0.7,1.2,1.1
		c-3.1-0.9-14.9,0-12.6-1c-4.9,0.3-5.8,1.3-8.8,1.4L0,0.8V2c2.1,0.1,3.7,0.6,5.3,0.8c0,0,0,0,0,0C5.7,2.9,6,2.9,6.5,3
		c-0.4,0-0.8-0.1-1.2-0.1l0,0c0,0,0,0,0,0C3.1,2.6,1.5,2.8,0,2.8v7.9c11.1,0.1,22.6,0.2,32.1,1C25.7,11.1,31.7,10.6,31.3,10.2z
		 M371.8,6.1c0.2,0,0.5,0,0.7,0c-0.3,0-0.5,0.1-0.8,0.1C371.7,6.2,371.7,6.1,371.8,6.1z M346.3,9l0.4,0l-0.2,0
		c1.5-0.3,3-0.4,4.5-0.3c2.4,0.3,4.4,0.6,6.1,0.8l-0.2,0c-4.1-0.3-11.4-1.2-10.1,0.1l-0.1,0l-1.2-0.5C345.6,9.1,345.9,9.1,346.3,9z
		 M336.5,5.6L336.5,5.6l-0.3,0.2c-0.3,0-0.6,0-0.9,0C335.7,5.7,336.1,5.6,336.5,5.6z M329.3,5.5L329.3,5.5c-1.2,0-2.4,0-3.6-0.1
		c-1.6-0.3-3.1-0.6-5.7-1.1C326.3,4,328.9,4.8,329.3,5.5z M323,3.5c1.1-0.1,2.2-0.2,3.3-0.2L323,3.5c-3.9,0.5-4.7,1.8-10.1,0.5
		L323,3.5z M297.3,2.9c0.2,0.1,0.4,0.2,0.6,0.2c-0.9,0-1.8,0-2.7,0C295.8,3,296.4,2.9,297.3,2.9z M300.3,11L300.3,11
		c-1.5-0.1-3-0.2-4.5-0.1c1,0.4,5.1,1,2.1,1.1c-2.1-0.5-9-0.6-9.1-1.2C294.9,11.4,299.1,9.6,300.3,11z M274.9,12
		c2.2-0.1,3.8-0.6,4.3,0.1L274.9,12c-0.9,0.1-1.8,0-2.7,0L274.9,12z M137,1.8c0.9-0.1,1.8,0,2.7,0L137,1.8c-2.2,0.1-3.8,0.6-4.3-0.1
		L137,1.8z M114.5,10.9L114.5,10.9c-0.2-0.1-0.4-0.2-0.6-0.2c0.9,0,1.8,0,2.7,0C116.1,10.8,115.4,10.8,114.5,10.9z M113.9,1.8
		c2.1,0.5,9,0.6,9.1,1.2c-6-0.7-10.3,1.2-11.4-0.2c1.5,0.1,3,0.2,4.5,0.1C115,2.5,111,1.9,113.9,1.8z M98.9,9.9l-10.1,0.5
		c-1.1,0.1-2.2,0.2-3.3,0.2l3.3-0.2C92.7,9.9,93.5,8.6,98.9,9.9z M86.2,8.3c1.6,0.3,3.1,0.6,5.7,1.1c-6.3,0.4-9-0.5-9.3-1.1
		C83.8,8.3,85,8.3,86.2,8.3z M75.7,8l0.9,0c-0.4,0.1-0.8,0.1-1.2,0.1h0L75.7,8z M55.1,4.3c4.1,0.3,11.4,1.2,10.1-0.1l0.1,0l1.2,0.4
		c-0.2,0-0.5,0.1-0.8,0.1l-0.4,0l0.2,0c-1.5,0.3-3,0.4-4.5,0.3c-2.4-0.3-4.4-0.6-6.1-0.8L55.1,4.3z M40.2,7.6c0,0.1,0,0.1-0.1,0.2v0
		c-0.2,0-0.5,0-0.7,0C39.7,7.6,39.9,7.6,40.2,7.6z M18.3,10.4l-2.7-0.3C22.7,9.7,19.1,10.1,18.3,10.4l3.3,0.4
		C18.4,10.8,18,10.6,18.3,10.4z M20.5,9.4c4-0.1,14.4-0.2,12.9-0.2l0,0C32.4,9.9,23,9.7,20.5,9.4z"/>
</g>
</svg>
