<?xml version="1.0" encoding="utf-8"?>
<!-- Generator: Adobe Illustrator 27.1.1, SVG Export Plug-In . SVG Version: 6.00 Build 0)  -->
<svg version="1.1" id="Pinselstrich_x5F_Sections" xmlns="http://www.w3.org/2000/svg" xmlns:xlink="http://www.w3.org/1999/xlink"
	 x="0px" y="0px" viewBox="0 0 1271.7 21.7" style="enable-background:new 0 0 1271.7 21.7;" xml:space="preserve">
<style type="text/css">
	.st0{fill:#FFFFFF;}
</style>
<g>
	<path class="st0" d="M790.7,2.1l0.6,0.1c0.1,0,0.1,0,0.2,0C791.3,2.2,791,2.1,790.7,2.1z"/>
	<path class="st0" d="M1022.4,18.6l0.5,0.1L1022.4,18.6c-0.6,0.1-1.1,0.2-1.7,0.3l3.7,0.1C1024.1,18.2,1023.4,18.3,1022.4,18.6z"/>
	<path class="st0" d="M232,18.6C232,18.6,232,18.6,232,18.6C232,18.6,232,18.6,232,18.6C232,18.6,232,18.6,232,18.6z"/>
	<path class="st0" d="M369.4,3.5l0.3,0c1.2,0.1,2.3,0.2,3.5,0.3C371.9,3.3,370.6,3.2,369.4,3.5z"/>
	<path class="st0" d="M650.3,18.5c0.2,0.1,0.7,0.1,1.6,0.1C651.2,18.6,650.6,18.6,650.3,18.5z"/>
	<path class="st0" d="M1020.7,18.9l-2.3-0.1C1019.2,19,1019.9,19,1020.7,18.9z"/>
	<path class="st0" d="M250.7,19.1l-0.3,0c-1.2-0.1-2.3-0.2-3.5-0.3C248.2,19.2,249.5,19.3,250.7,19.1z"/>
	<path class="st0" d="M766,19.2l3.6,0.1C769.3,18.3,767.9,19,766,19.2z"/>
	<path class="st0" d="M668.6,18.3c0,0,3,0,8.4-0.1c0,0,0,0,0,0L668.6,18.3C668.6,18.3,668.6,18.3,668.6,18.3z"/>
	<path class="st0" d="M1018.2,2.6c-0.2-0.1-0.7-0.1-1.6-0.1C1017.4,2.5,1017.9,2.5,1018.2,2.6z"/>
	<path class="st0" d="M766,19.2l-1.5-0.1c0,0-0.1,0.1-0.1,0.1C765,19.3,765.5,19.3,766,19.2z"/>
	<path class="st0" d="M644.6,18.6c0.9,0.1,1.8,0.2,2.9,0.2c-0.2-0.3-0.4-0.4-0.6-0.6c-0.7,0-1.5,0-2.2-0.1L644.6,18.6z"/>
	<path class="st0" d="M369.6,19.5l2.5,0.1l0-0.2C371.1,19.3,370.3,19.4,369.6,19.5z"/>
	<path class="st0" d="M1271.7,2.2c-7.8-0.9-4.2,1.5-9.4,1.2c2,1.1,7.2,0.7,8.4,1.4c-3-0.5-4.6-0.5-4.2-0.2c0.7-0.2,1.4,0,2.1,0.6
		c-0.4,0.1-0.8,0.1-1.2,0.2c-5.9-0.6-12.9-0.6-17.7-1.3c-0.4-0.1-0.8-0.1-1.3-0.2c-2.4-0.4-4-1-4.4-2c-18.2,1.4-40.8-0.4-56.1-0.6
		c-2.1,0.6,1.3,0.5,0.5,0.9c-6-1.9-20.3,1.5-20.4-0.2c-1.7,0.2-3.4,1-4.9,2.2c-1.1-0.2-2.3-0.4-3.5-0.6c1.9-0.2,4.2-0.2,4.6-0.4
		c-1.7,0.1-3.4,0.2-5.2,0.4c-2.9-0.4-6-0.6-9.3-0.7l3.6,0.5l-0.4,0.2l-5.1-0.7L1148,3c-12.3-0.4-26.5,0.1-37.6-1.6
		c5.5,1,0.4,1.8,0.7,2.4c-6-2.4-19-2.4-29.6-2c0.1,0.6-0.8,1,0.5,1.5l-6.4-1.1l0.8,0.7c-11.4,0.6-23.9-2.3-31.4-1
		c4.7,0.3,4.7,0.9,5.2,1.8l-1.9,0c-3.7-1.9-10.9-0.9-17-0.3c-2-0.1-4-0.3-6.1-0.4l-1-0.3l0,0.2c-0.1,0-0.2,0-0.2,0l-0.1,0.5
		c-0.5,0-1-0.1-1.6-0.1c-0.3-0.1-0.7-0.2-0.9-0.6l-0.6,0.6c-0.5-0.1-1-0.2-1.6-0.2c-0.1-0.3-0.2-0.5-0.9-0.7
		c0.3,0.1,0.3,0.3,0.5,0.5c-1.1-0.2-2-0.3-2.7-0.4c0.2,0,0.4-0.1,0.6-0.1l-1.1,0.1c-2.1-0.2-3,0-3.6,0.3l-7.5,0.7l1.7,0.5
		c-2-0.1-4-0.2-5.9-0.6c0.3-0.2,0.5-0.5,0.4-0.8l-11.1,0.1c0-0.1-0.1-0.1-0.1-0.2c-1.1,0.1-2.2,0.1-3.3,0.2l-2.5,0
		c-1.4-0.1-2.7-0.1-3.9,0l-0.5,0c-0.2,0-0.3,0-0.3,0l-4.6,0c-2.7-0.1-6,0.2-6.4-1.8l-6.3,1.2l-1.4-1.6c-5.4,3-8.2-1.2-16.1-0.3
		c0.4,0.3,1.3,0.5,0.9,0.7c-2.6-0.3-8.5-0.4-3.9-1.3c-4.2,0-18.7-0.6-12.2,1.1l-1.6,0.9c-3,0.1-6.3,0.4-9,0.7
		c-1.7-0.1-3.4-0.2-5-0.2l0-0.1c-0.2,0-0.3,0.1-0.5,0.1c-3.3-0.2-6.3-0.4-8.9-1.2c-0.3,0.4-1.7,0.7-4.5,0.7l-4.6,0.8
		c-9.3,0.6-15.9-2.2-23.5-2.5c-2,2.9-14.9-1-21.5,1.7l6,0.8c-2.3-0.1-4.3-0.1-6-0.1c-2.6-0.3-5.5-0.6-8.5-0.6
		c2.9-0.3,6.4-0.7,12.7-1.8c-14.8,1.3-25.5-1.4-39,0.3c0.9,0.7-11.7,2-9.7,0.3c-2.1,0.3-3.3,0.8-4.3,1.3c-3.6-0.2-6.8-0.4-9.5-0.1
		c1.2,0.1,2,0.3,2.5,0.4l-2.7-0.4c-0.3,0-0.5,0.1-0.8,0.1l-6.8-0.9l0.4,0.3c-5.3,0.9-10.4,1.3-15.5,1.4c-0.8-0.1-1.6-0.1-2.3,0
		c-1.7,0-3.5-0.1-5.3-0.1c0.2-0.1,0.4-0.2,0.8-0.2l-2.2-0.1c-14.6-0.6-28.8-2.9-44.4-1.7l0.5,0.9L713,1.4c0-0.1,0-0.1,0-0.2
		l-0.4,0.1l-2-0.4c1.9,0.5-0.5,0.8-2.1,1.2l-1.8,0.3l-1.4-1.6c-1.3,0.7-2.5,1-3.6,1.1l-3.2-0.4c-2.4-0.6-5.2-1.5-9.4-0.9
		c0.4,0.3,1.3,0.5,0.9,0.7c-2.6-0.3-8.5-0.4-3.9-1.3c-4.2,0-10.3,2.3-10.3,2.3s-1.3,0.7-1.7,1c-0.4,0-0.7,0.1-1,0.1
		c-0.3-0.1-0.8-0.2-1.1-0.4l-0.3,0.3c-1.5,0-2.9,0-4.4,0c-4.6-0.5-9.2-0.3-13.2-0.7c-0.1-0.1-0.3-0.1-0.4-0.2l0.1,0.2
		c-1.7-0.2-3.2-0.5-4.6-1c-0.3,0.4-1.7,0.7-4.5,0.7l-0.1-1.7l-8.5,0.1l4,2.5c-9.3,0.6-15.9-2.2-23.5-2.5c-2,2.8-18.9-1-25.5,1.7
		l9.9,0.7c-3.4-0.1-9.9,0-12.2,0.1c-0.1-0.1-0.2-0.3-0.3-0.4c-4.9,0.4-10.2,0.6-15.5,0.5c7.6-0.7,12.9-0.5,26.2-2.7
		c-14.8,1.3-29.5-1.4-43,0.3c0.9,0.7,4.3,1.1,1,1.8c-2.6-1.5-12.7,0.2-10.7-1.6c-1.9,0.3-3,0.7-4,1.2c-3.6-0.2-6.9-0.2-10-0.2
		c-0.5,0.2-0.7,0.3-0.7,0.3l-2.9-0.8l0.4,0.3c-4,0.7-7.9,1.1-11.8,1.3c-0.4,0-0.7-0.1-0.8-0.2c-0.1-0.1-0.3-0.2-0.5-0.2
		c-0.5,0.1-1.1,0.3-1.6,0.5c-0.1,0-0.1,0-0.2,0c-18,0.3-34.9-3.3-53.8-1.8l0.4,0.8c-0.6-0.1-1.2-0.2-1.8-0.3L456,1.6
		c2.4,0.7-2.1,0.9-3.2,1.5c-1.8-0.2-3.7-0.4-5.7-0.5l-10-1.2c-0.1,0.3-0.1,0.7,0.2,1c-2.5,0-5,0-7.4,0.2c0,0.2-0.1,0.4-0.1,0.6
		c-1.8-0.3-3.6-0.5-5.3-0.5l1.4,0.7L424,3.1l0.3,0.2L421.1,3l0,0.9c-10.3-0.1-21-2.2-27.7-1.1c4.7,0.3-8,0.9-13.8,1.4
		c-2.1-0.1-4.3-0.3-6.5-0.5c0.5,0.2,0.8,0.4,0.9,0.6c-1,0.1-2.1,0-3.2-0.1c-0.4-0.1-0.8-0.3-1.1-0.8l-0.6,0.6
		c-1-0.2-2.1-0.3-3.1-0.5l-0.2,0.9c-1.5-0.4-2.7-1-0.7-1.3l-12.3,1.1c0.5,0.1,1.1,0.3,1.7,0.5c-2-0.1-4-0.2-5.9-0.6
		c0.3-0.2,0.5-0.5,0.4-0.8l-1.3,0.7c0.3,0.1,0.6,0.1,0.9,0.2c-2.3,1.5-14.1-1.3-20.8-0.6c-1.9-0.2,2.2,0.8,1.3,1.3
		c-0.9,0.1-1.9,0.1-2.9,0.2c-1.1-2.9-9.3,0-9.9-3.1L310,3.3l-1.4-1.6c-5.4,3-8.2-1.2-16.1-0.3c0.4,0.3,1.3,0.5,0.9,0.7
		c-2.6-0.3-8.5-0.4-3.9-1.3c-4.2,0-18.7-0.6-12.2,1.1c-0.5-0.9,5.5-0.1,8,0.1C285,3.5,278.6,3,277,4.5c-0.2-0.2-1-0.4-1.7-0.6
		l-1,0.1c-8-1.4-11.8-1.9-17.6-3.9c-0.3,0.4-8.8,0.6-8.8,0.6l-8.5,0.1l4,2.5c-9.3,0.6-15.9-2.2-23.5-2.5c-2,2.8-32.1,2.3-17.4-0.2
		c-14.8,1.3-50.8,2.3-48.8,0.6c-4.2,0.6-4.9,2.2-7.5,2.5l-14.1-2l0.4,0.3c-24,4.2-44.7-2.4-68.8-0.5l0.5,0.9l-5.1-1.1
		c2.6,0.7-3,1-3.4,1.7L40.4,1.3c-0.3,0.8,0.6,2.6,4.3,2.3c-5.9,0.9-11.9-0.9-17-1l1.8,0.8l-5.2-0.7l0.1,1.1
		c-8.5-0.4-19,0.8-22.1-0.9l1,1.8L0,4.2v15.3c7.8,0.9,4.2-1.5,9.4-1.2c-2-1.1-7.2-0.7-8.4-1.4c3,0.5,4.6,0.5,4.2,0.2
		c-0.7,0.2-1.4,0-2.1-0.6c0.4-0.1,0.8-0.1,1.2-0.2c5.9,0.6,12.9,0.6,17.7,1.3c0.4,0.1,0.8,0.1,1.3,0.2c2.4,0.4,4,1,4.4,2
		c18.2-1.4,40.8,0.4,56.1,0.6c2.1-0.6-1.3-0.5-0.5-0.9c6,1.9,20.3-1.5,20.4,0.2c1.7-0.2,3.4-1,4.9-2.2c1.1,0.2,2.3,0.4,3.5,0.6
		c-1.9,0.2-4.2,0.2-4.6,0.4c1.7-0.1,3.4-0.2,5.2-0.4c2.9,0.4,6,0.6,9.3,0.7l-3.6-0.5l0.4-0.2l5.1,0.7l-0.2,0.1
		c12.3,0.4,26.5-0.1,37.6,1.6c-5.5-1-0.4-1.8-0.7-2.4c6,2.4,19,2.4,29.6,2c0-0.6,0.8-1-0.5-1.5l6.4,1.1l-0.8-0.7
		c8.4-0.4,25.8-0.1,36.7-0.2c-0.2-0.2-0.3-0.3-0.5-0.4c0.8,0,1.5,0,2.3,0.1c-0.4,0-1,0.2-1.8,0.3c3.8,0,6.9-0.1,8.5-0.3
		c2.1,0.1,4.3,0.3,6.5,0.5c-0.5-0.2-0.8-0.4-0.9-0.6c1-0.1,2.1,0,3.2,0.1c0.4,0.1,0.8,0.3,1.1,0.8l0.6-0.6c1,0.2,2.1,0.3,3.1,0.5
		l0.2-0.9c1.5,0.4,2.7,1,0.7,1.3l12.3-1.1l-1.7-0.5c2,0.1,4,0.2,5.9,0.6c-0.3,0.2-0.5,0.5-0.4,0.8l1.3-0.7c-0.3-0.1-0.6-0.1-0.9-0.2
		c2.3-1.5,14.1,1.3,20.8,0.6c1.9,0.3-2.2-0.8-1.3-1.3c0.9-0.1,1.9-0.1,2.9-0.2c1.1,2.9,9.3,0,9.9,3.1l6.3-1.2l1.4,1.6
		c5.4-3,8.2,1.2,16.1,0.3c-0.4-0.3-1.3-0.5-0.9-0.7c2.6,0.3,8.5,0.4,3.9,1.3c4.2,0,10.9-2.1,12.5-3.6c0.2,0.1,1,0.4,1.7,0.6l0.9-0.8
		c8,1.4,16.1,0.3,21.9,2.2c0.2-0.3,0.8-0.5,2-0.6l-0.4,0c-0.8,0.1-1.5,0.1-2.3-0.1l2.3,0.1c1.9-0.2,3.3-0.9,3.6,0.1l-0.7,0l0.1,1.5
		l8.5-0.1l-4-2.5c9.3-0.6,15.9,2.2,23.5,2.5c2-2.9,14.9,1,21.5-1.7l-6-0.8c3.4,0.1,6,0.1,8.3-0.1c0.1,0.1,0.2,0.3,0.3,0.4
		c4.9-0.4,6.6-0.2-6.7,2.1c14.8-1.3,25.5,1.4,39-0.3c-0.9-0.7-4.3-1.1-1-1.8c2.6,1.5,12.7-0.2,10.7,1.6c1.9-0.3,3-0.7,4-1.2
		c3.6,0.2,6.9,0.2,10,0.2c1.7-0.5-0.2-0.5-0.6-0.7l8.2,1.1l-0.4-0.3c4-0.7,7.9-1.1,11.8-1.3c0.6,0.1,1,0.2,1,0.5
		c0.7-0.1,1.4-0.3,2.1-0.6c18.1-0.4,35,3.3,53.9,1.8l-0.4-0.8c0.6,0.1,1.2,0.2,1.8,0.3l3.2,0.7c-2.4-0.7,2.1-0.9,3.2-1.5
		c1.8,0.2,3.7,0.4,5.7,0.5l9.9,1.2c0.1-0.3,0.1-0.7-0.2-1c2.5,0,5,0,7.4-0.2c0-0.2,0.1-0.4,0.1-0.6c1.8,0.3,3.6,0.5,5.3,0.5
		l-1.4-0.7l1.9,0.3l-0.3-0.2l3.2,0.4l0-0.9c10.3,0.1,21,2.2,27.7,1.1c-4.7-0.3-4.7-0.9-5.2-1.8l0.9,0l1.6,0.3
		c3.8,1.6,10.7,0.7,16.5,0.1c2,0.1,4,0.2,6.1,0.4l1,0.3l0-0.2c0.2,0,0.3,0,0.5,0.1l0-0.2c0.5,0,1,0.1,1.6,0.1c0.2,0,0.4,0.1,0.5,0.2
		c0.2,0,0.4,0,0.6,0l-0.3,0l0.6-0.6c0.5,0.1,1,0.2,1.6,0.2c0.1,0.3,0.2,0.5,0.9,0.7c-0.3-0.1-0.3-0.3-0.5-0.5c1.1,0.2,2,0.3,2.7,0.4
		c-0.2,0-0.4,0.1-0.6,0.1l1.1-0.1c2.1,0.2,3,0,3.6-0.3l7.5-0.7l-1.7-0.5c2,0.1,4,0.2,5.9,0.6c-0.3,0.2-0.5,0.5-0.4,0.8l0.7,0
		c1.1-0.7,4.5-0.4,8.4-0.1l2,0c0,0.1,0.1,0.1,0.1,0.2c1.1-0.1,2.2-0.1,3.3-0.2l2.5,0c1.4,0.1,2.7,0.1,3.9,0l0.5,0c0.2,0,0.3,0,0.3,0
		l4.6,0c2.7,0.1,6-0.2,6.4,1.8l6.3-1.2l1.4,1.6c5.4-3,8.2,1.2,16.1,0.3c-0.4-0.3-1.3-0.5-0.9-0.7c2.6,0.3,8.5,0.4,3.9,1.3
		c4.2,0,18.7,0.6,12.2-1.1l1.3-1.3c3-0.1,6.3-0.4,9-0.7c1.7,0.1,3.4,0.2,5,0.2l0,0.1c0.2,0,0.3-0.1,0.5-0.1c3.3,0.2,6.3,0.4,8.9,1.2
		c0,0,0.1-0.1,0.1-0.1c-0.2,0-0.5-0.1-0.7-0.1l0.8,0c0.5-0.3,1.9-0.5,4.3-0.6l8.6,1.6l-4-2.5c9.3-0.6,47.1,1.6,40.9,2.7
		c14.8-1.3,25.5,1.4,39-0.3c-0.9-0.7-4.3-1.1-1-1.8c2.6,1.5,12.7-0.2,10.7,1.6c2.1-0.3,3.3-0.8,4.3-1.3c4,0.3,7.6,0.4,10.5-0.1
		l6.8,0.9l-0.4-0.3c5.3-0.9,10.4-1.3,15.5-1.4c0.8,0.1,1.6,0.1,2.3,0c1.7,0,3.5,0.1,5.3,0.1c-0.1,0.1-0.3,0.1-0.5,0.2l1.8-0.2
		c14.6,0.6,28.8,2.9,44.4,1.7l-0.5-0.9l2.7,0.6c0,0.1,0,0.1,0,0.2l0.4-0.1l2,0.4c-1.9-0.5,0.5-0.8,2.1-1.2l1.8-0.3l1.4,1.6
		c1.3-0.7,2.5-1,3.6-1.1l3.2,0.4c2.4,0.6,5.2,1.5,9.4,0.9c-0.4-0.3-1.3-0.5-0.9-0.7c2.6,0.3,8.5,0.4,3.9,1.3
		c4.2,0,18.7,0.6,12.2-1.1c0.5,0.9-5.5,0.1-8-0.1c0.1-0.5,1-0.7,2.1-0.9c0.2,0,0.4,0,0.6,0l-0.2-0.1c0.6-0.1,1.3-0.2,2-0.3l1.6,0.2
		l0-0.4c0.7-0.1,1.3-0.3,1.7-0.5c0.4,0,0.7-0.1,1-0.1c0.3,0.1,0.8,0.2,1.1,0.4l0.3-0.3c1.5,0,2.9,0,4.4,0c4.6,0.5,9.2,0.3,13.2,0.7
		c0.1,0.1,0.3,0.1,0.4,0.2l-0.1-0.2c1.7,0.2,3.2,0.5,4.6,1c0.3-0.4,1.7-0.7,4.5-0.7l4.6-0.8c9.3-0.6,15.9,2.2,23.5,2.5
		c2-2.9,14.9,1,21.5-1.7l-6-0.8c12.8,0.4,14.8-1.3,26.7-0.4c-10.1,1.1-10.2,0.5-24.9,2.9c14.8-1.3,25.5,1.4,39-0.3
		c-0.9-0.7-4.3-1.1-1-1.8c2.6,1.5,12.7-0.2,10.7,1.6c4.2-0.6,4.9-2.2,7.5-2.5l14.1,2l-0.4-0.3c24-4.2,44.7,2.4,68.8,0.5l-0.5-0.9
		l5.1,1.1c-2.6-0.7,3-1,3.4-1.7l15.4,1.9c0.3-0.8-0.6-2.6-4.3-2.3c5.9-0.9,11.9,0.9,17,1l-1.7-0.8l5.1,0.7l-0.1-1.1
		c8.5,0.4,19-0.7,22.1,1l-1-1.8l3.6,0.5V6.4l-0.2,0c0.1,0,0.2,0,0.2,0V2.2z M1,16.3c0.1-0.2,0.2-0.3,0.4-0.4C1.6,15.9,1.8,16,2,16
		L1,16.3z M149.8,18.3l-2.3-0.6C153.5,17.1,150.4,17.8,149.8,18.3l2.8,0.7C149.8,18.9,149.5,18.7,149.8,18.3z M162.6,16.3
		c-0.8,1-8.9,0.9-11,0.4C155,16.5,163.8,16.1,162.6,16.3z M204.7,14.3c1,0,2.1,0.1,3.1,0.1c1.3,0.5,2.7,1.1,4.9,1.9
		C207.3,16.9,205,15.4,204.7,14.3z M210,17.8c-0.9,0.2-1.9,0.3-2.8,0.3L210,17.8c3.3-0.8,4-3,8.6-0.9L210,17.8z M229.4,4.7
		c1.3,0.2,2.6,0.3,3.8,0.2c-0.9-0.7-4.4-1.7-1.8-1.9c1.8,0.8,7.7,0.9,7.8,2C234,3.9,230.4,7.1,229.4,4.7z M388.3,3.6
		c0.2,0.2,0.3,0.3,0.5,0.4c-0.8,0-1.5,0-2.3-0.1C387,3.9,387.5,3.8,388.3,3.6z M388.9,19.2c-1.8-0.8-7.7-0.9-7.8-2
		c5.2,1.2,8.8-2.1,9.8,0.3c-1.3-0.2-2.6-0.3-3.8-0.2C388,18,391.5,19,388.9,19.2z M532.8,2.9c0.1,0,0.2,0.1,0.3,0.1L532.8,2.9z
		 M628.8,18.4c-0.2-0.2-0.3-0.3-0.5-0.4c0.8,0,1.5,0,2.3,0.1C630.2,18.1,629.6,18.3,628.8,18.4z M632.5,4.5l-4.9-1.7
		c0.1,0,0.3-0.1,0.6-0.1c0.9,0.4,2.9,0.7,4.6,1l0,0.8h0C632.7,4.5,632.6,4.5,632.5,4.5z M647.9,2.6c-0.6,0.1-1.1,0.2-1.6,0.3
		l-0.6-0.1l0.5,0.1c-1,0.2-1.7,0.3-2-0.4L647.9,2.6c0.8-0.1,1.5-0.1,2.3,0.1L647.9,2.6z M902.7,2.3c0.8-0.1,1.5-0.1,2.3,0.1
		L902.7,2.3z M991.6,3.3c5.4,0,8.4-0.1,8.4-0.1C999,3.9,995.6,3.7,991.6,3.3z M1270.5,5.8c-0.2,0-0.4-0.1-0.6-0.1l1-0.3
		C1270.8,5.5,1270.6,5.7,1270.5,5.8z"/>
	<path class="st0" d="M786.5,18.5c-1.1-0.1-2.2-0.1-3.2-0.1c1,0.2,1.9,0.4,2.4,0.6C786.6,18.9,786.8,18.7,786.5,18.5z"/>
	<path class="st0" d="M1021.3,2.9C1021.3,2.9,1021.3,2.9,1021.3,2.9L1021.3,2.9L1021.3,2.9z"/>
	<path class="st0" d="M877.9,19.4l-3.3-0.5C875.3,19.1,876.3,19.2,877.9,19.4z"/>
	<path class="st0" d="M1024,3l0-0.2c-0.9-0.1-1.8-0.2-2.9-0.2c0,0.1,0.1,0.1,0.1,0.2C1022.2,2.8,1023,2.9,1024,3z"/>
	<path class="st0" d="M1021,2.9l0.3,0c0,0,0,0,0,0C1021.2,2.9,1021.1,2.9,1021,2.9z"/>
</g>
</svg>
