<?xml version="1.0" standalone="no"?>
<!DOCTYPE svg PUBLIC "-//W3C//DTD SVG 1.1//EN" "http://www.w3.org/Graphics/SVG/1.1/DTD/svg11.dtd">
<!--Generator: Xara Designer (www.xara.com), SVG filter version: 6.6.0.8-->
<svg fill="none" fill-rule="evenodd" stroke="black" stroke-width="0.501" stroke-linejoin="bevel" stroke-miterlimit="10" font-family="Times New Roman" font-size="16" style="font-variant-ligatures:none" xmlns:xlink="http://www.w3.org/1999/xlink" xmlns="http://www.w3.org/2000/svg" version="1.1" overflow="visible" width="600pt" height="21.394pt" viewBox="0 -21.312 600 21.394">
 <defs>
	</defs>
 <g id="Layer 1" transform="scale(1 -1)">
  <path d="M 48.153,5.583 C 58.923,3.429 82.307,3.429 101.384,3.583 C 101.23,4.045 102.769,4.506 100.461,4.968 L 112,3.891 L 110.461,4.506 C 131.076,4.968 153.384,2.199 166.923,3.429 C 158.461,3.737 158.461,4.199 157.692,5.122 L 161.076,5.122 C 167.692,3.429 180.769,4.199 191.692,4.66 C 195.538,4.506 199.384,4.352 203.384,4.199 C 202.461,4.352 201.846,4.506 201.846,4.66 C 203.692,4.814 205.692,4.66 207.692,4.66 C 208.461,4.66 209.076,4.352 209.692,3.891 C 207.538,4.045 205.538,4.045 203.384,4.199 C 205.692,3.891 208,3.737 210.307,3.891 L 209.846,3.891 L 210.923,4.352 C 212.769,4.199 214.615,4.045 216.461,3.891 L 216.923,4.66 C 219.692,4.199 221.692,3.737 218.307,3.429 L 240.307,4.352 L 237.23,4.814 C 240.769,4.814 244.307,4.66 247.846,4.199 C 247.23,4.045 247.076,3.737 247.076,3.429 L 249.384,4.045 C 248.923,4.045 248.307,4.199 247.846,4.199 C 251.999,5.583 273.23,2.968 285.23,3.583 C 288.769,3.429 281.23,4.352 282.923,4.66 C 284.615,4.66 286.307,4.814 288.153,4.814 C 289.999,2.199 304.923,4.814 306,1.891 L 317.384,2.968 L 319.846,1.583 C 329.538,4.199 334.461,0.352 348.769,1.276 C 348,1.583 346.461,1.737 347.23,1.891 C 351.846,1.583 362.615,1.429 354.307,0.66 C 362,0.66 388,0.046 376.307,1.583 C 377.076,0.814 366.461,1.429 361.846,1.737 C 362.461,2.968 374,2.506 376.769,3.891 C 377.076,3.737 378.615,3.583 379.692,3.276 L 381.384,4.045 C 395.692,2.66 410.307,3.737 420.769,1.891 C 421.384,2.199 423.846,2.506 428.769,2.506 L 428.923,0.968 L 444.153,0.968 L 437.076,3.122 C 453.846,3.583 465.538,0.968 479.384,0.66 C 482.923,3.276 506.153,-0.262 518.153,1.891 L 507.384,2.66 C 530.307,2.199 534,3.737 555.384,2.814 C 537.23,1.891 537.076,2.506 510.615,0.352 C 537.23,1.429 556.461,-1.031 580.769,0.352 C 579.076,0.968 573.076,1.429 578.923,2.045 C 583.692,0.66 601.846,2.045 598.153,0.506 C 598.769,0.506 599.384,0.66 600,0.66 L 600,14.506 C 592.923,14.352 580.307,14.199 582.307,14.352 L 582.307,14.352 C 583.538,15.122 594.461,15.122 599.999,14.814 L 599.999,17.122 C 594.461,17.276 589.23,17.583 584.153,18.045 C 594.153,17.122 584.769,16.506 585.538,15.891 C 574.769,18.045 551.384,18.045 532.307,17.891 C 532.461,17.429 530.923,16.968 533.23,16.506 L 521.692,17.583 L 523.23,16.968 C 502.615,16.506 480.307,19.276 466.769,18.045 C 475.23,17.737 475.23,17.276 475.999,16.352 L 472.615,16.352 C 465.999,18.045 452.923,17.276 441.999,16.814 C 438.153,16.968 434.307,17.122 430.307,17.276 C 431.23,17.122 431.846,16.968 431.846,16.814 C 429.999,16.66 427.999,16.814 425.999,16.814 C 425.23,16.814 424.615,17.122 424,17.583 C 426.153,17.429 428.153,17.429 430.307,17.276 C 428,17.583 425.692,17.737 423.384,17.583 L 423.846,17.583 L 422.769,17.122 C 420.923,17.276 419.076,17.429 417.23,17.583 L 416.769,16.66 C 414,17.122 411.999,17.583 415.384,17.891 L 393.384,16.968 L 396.461,16.506 C 392.923,16.506 389.384,16.66 385.846,17.122 C 386.461,17.276 386.615,17.583 386.615,17.891 L 384.307,17.276 C 384.769,17.276 385.384,17.122 385.846,17.122 C 381.692,15.737 360.461,18.352 348.461,17.737 C 344.923,17.891 352.461,16.968 350.769,16.66 C 349.076,16.66 347.384,16.506 345.538,16.506 C 343.692,19.122 328.769,16.506 327.692,19.429 L 316.461,18.199 L 314,19.737 C 304.307,17.122 299.384,20.968 285.076,20.045 C 285.846,19.737 287.384,19.583 286.615,19.429 C 282,19.737 271.23,19.891 279.538,20.66 C 271.846,20.66 245.846,21.276 257.538,19.737 C 256.769,20.506 267.384,19.891 271.999,19.583 C 271.384,18.352 259.846,18.814 257.076,17.583 C 256.769,17.737 255.23,17.891 254.153,18.199 L 252.461,17.429 C 238.153,18.814 223.538,17.737 213.076,19.583 C 212.461,19.276 209.999,18.968 205.076,18.968 L 204.923,20.506 L 189.692,20.506 L 196.769,18.352 C 179.999,17.891 168.307,20.506 154.461,20.814 C 150.923,18.045 127.692,21.583 115.692,19.276 L 126.461,18.506 C 103.538,19.122 99.846,17.583 78.461,18.352 C 96.615,19.276 96.769,18.66 123.23,20.814 C 96.615,19.737 77.23,22.352 52.923,20.814 C 54.615,20.199 60.615,19.737 54.769,19.122 C 50,20.506 31.846,19.122 35.384,20.66 C 27.846,20.199 26.461,18.66 21.846,18.506 L 0,20.045 L 0,18.199 C 3.23,18.045 5.692,17.276 8.153,16.968 C 8.153,16.968 8.153,16.968 8.153,16.968 C 8.769,16.814 9.23,16.814 10,16.66 C 9.384,16.66 8.769,16.814 8.153,16.814 L 8.153,16.814 C 8.153,16.814 8.153,16.814 8.153,16.814 C 4.769,17.276 2.307,16.968 0,16.968 L 0,4.814 C 17.076,4.66 34.769,4.506 49.384,3.276 C 39.538,4.199 48.769,4.968 48.153,5.583 Z M 571.999,11.891 C 572.307,11.891 572.769,11.891 573.076,11.891 C 572.615,11.891 572.307,11.737 571.846,11.737 C 571.846,11.737 571.846,11.891 571.999,11.891 Z M 532.769,7.429 L 533.384,7.429 L 533.076,7.429 C 535.384,7.891 537.692,8.045 539.999,7.891 C 543.692,7.429 546.769,6.968 549.384,6.66 L 549.076,6.66 C 542.769,7.122 531.538,8.506 533.538,6.506 L 533.384,6.506 L 531.538,7.276 C 531.692,7.276 532.153,7.276 532.769,7.429 Z M 517.692,12.66 L 517.692,12.66 L 517.23,12.352 C 516.769,12.352 516.307,12.352 515.846,12.352 C 516.461,12.506 517.076,12.66 517.692,12.66 Z M 506.615,12.814 L 506.615,12.814 C 504.769,12.814 502.923,12.814 501.076,12.968 C 498.615,13.429 496.307,13.891 492.307,14.66 C 501.999,15.122 505.999,13.891 506.615,12.814 Z M 496.923,15.891 C 498.615,16.045 500.307,16.199 501.999,16.199 L 496.923,15.891 C 490.923,15.122 489.692,13.122 481.384,15.122 L 496.923,15.891 Z M 457.384,16.814 C 457.692,16.66 457.999,16.506 458.307,16.506 C 456.923,16.506 455.538,16.506 454.153,16.506 C 455.076,16.66 455.999,16.814 457.384,16.814 Z M 461.999,4.352 L 461.999,4.352 C 459.692,4.506 457.384,4.66 455.076,4.506 C 456.615,3.891 462.923,2.968 458.307,2.814 C 455.076,3.583 444.461,3.737 444.307,4.66 C 453.692,3.737 460.153,6.506 461.999,4.352 Z M 422.923,2.814 C 426.307,2.968 428.769,3.737 429.538,2.66 L 422.923,2.814 C 421.538,2.66 420.153,2.814 418.769,2.814 L 422.923,2.814 Z M 210.769,18.506 C 212.153,18.66 213.538,18.506 214.923,18.506 L 210.769,18.506 C 207.384,18.352 204.923,17.583 204.153,18.66 L 210.769,18.506 Z M 176.153,4.506 L 176.153,4.506 C 175.846,4.66 175.538,4.814 175.23,4.814 C 176.615,4.814 178,4.814 179.384,4.814 C 178.615,4.66 177.538,4.66 176.153,4.506 Z M 175.23,18.506 C 178.461,17.737 189.076,17.583 189.23,16.66 C 180,17.737 173.384,14.814 171.692,16.968 C 174,16.814 176.307,16.66 178.615,16.814 C 176.923,17.429 170.769,18.352 175.23,18.506 Z M 152.153,6.045 L 136.615,5.276 C 134.923,5.122 133.23,4.968 131.538,4.968 L 136.615,5.276 C 142.615,6.045 143.846,8.045 152.153,6.045 Z M 132.615,8.506 C 135.076,8.045 137.384,7.583 141.384,6.814 C 131.692,6.199 127.538,7.583 127.076,8.506 C 128.923,8.506 130.769,8.506 132.615,8.506 Z M 116.461,8.968 L 117.846,8.968 C 117.23,8.814 116.615,8.814 116,8.814 L 116,8.814 L 116.461,8.968 Z M 84.769,14.66 C 91.076,14.199 102.307,12.814 100.307,14.814 L 100.461,14.814 L 102.307,14.199 C 102,14.199 101.538,14.045 101.076,14.045 L 100.461,14.045 L 100.769,14.045 C 98.461,13.583 96.153,13.429 93.846,13.583 C 90.153,14.045 87.076,14.506 84.461,14.814 L 84.769,14.66 Z M 61.846,9.583 C 61.846,9.429 61.846,9.429 61.692,9.276 L 61.692,9.276 C 61.384,9.276 60.923,9.276 60.615,9.276 C 61.076,9.583 61.384,9.583 61.846,9.583 Z M 28.153,5.276 L 24,5.737 C 34.923,6.352 29.384,5.737 28.153,5.276 L 33.23,4.66 C 28.307,4.66 27.692,4.968 28.153,5.276 Z M 31.538,6.814 C 37.692,6.968 53.692,7.122 51.384,7.122 L 51.384,7.122 C 49.846,6.045 35.384,6.352 31.538,6.814 Z" fill-rule="nonzero" stroke-linejoin="miter" stroke="none" stroke-width="1.538" fill="#ffffff" marker-start="none" marker-end="none"/>
 </g>
</svg>
