<?xml version="1.0" encoding="utf-8"?>
<!-- Generator: Adobe Illustrator 26.5.0, SVG Export Plug-In . SVG Version: 6.00 Build 0)  -->
<svg version="1.1" id="Ebene_1" xmlns="http://www.w3.org/2000/svg" xmlns:xlink="http://www.w3.org/1999/xlink" x="0px" y="0px"
	 viewBox="0 0 30 30" style="enable-background:new 0 0 30 30;" xml:space="preserve">
<style type="text/css">
	.st0{display:none;}
	.st1{display:inline;}
	.st2{fill:#1D1D1B;}
	.st3{fill:#FFFFFF;}
	.st4{fill:#1D1D1D;}
</style>
<g>
	<g>
		<path d="M16.7,2.1l0.1,0.1C16.9,2.1,16.8,2.1,16.7,2.1z"/>
		<polygon points="21.1,4.1 21.1,4.1 21.1,4.1 		"/>
		<polygon points="0,10.3 0,10.3 -0.1,10.3 		"/>
		<path d="M29.9,12.7c0-0.7,0-1.5,0-2.3c0-0.2,0-0.4,0-0.6c0-0.3-0.1-0.6-0.1-0.8c-0.2-0.5-0.5-0.8-0.8-1l0.1,0
			c-0.3-0.2-0.5-0.3-0.7-0.4c-0.2-0.1-0.5-0.2-0.9-0.2c0,0-0.1,0-0.1,0c-0.6,0.2-1.7,0-2.1,0.1l0-0.1l-1.1,0l0.4,0
			c-0.1,0.2-0.4,0.1-0.7,0c0,0,0,0,0,0c-0.1,0-0.1-0.4-0.3-0.3c-0.2-0.8,0.4-1.4-0.2-1.7c0-0.3,0.1-0.4,0.2-0.6l0,0.1
			c0-0.2,0-0.3,0-0.4c0-0.1,0-0.3,0-0.4c0-0.3-0.1-0.5-0.3-0.8c-0.2-0.3-0.5-0.2-0.8-0.6c0.2,0,0-0.1-0.2-0.2c0.1,0.1,0.2,0.1,0-0.2
			c-0.1,0-0.1,0-0.2,0c0,0,0,0,0,0c-0.4-0.1-0.3,0-0.2,0c0,0,0,0,0,0.1c-0.3-0.3-1.1-0.2-1-0.4c-0.8,0-1.4,0.2-2.1,0.3
			c-0.1-0.1,0.1-0.2,0.3-0.2l-0.5,0C18.5,2,18.7,2,18.9,2c-0.6-0.2-1.2,0.2-1.8,0l-0.1,0.1l0,0c0,0.1-0.1,0.1-0.2,0.2
			c-0.1-0.1,0-0.3-0.3-0.3c-0.3-0.1-0.7,0.1-1.1,0.1c0.2,0,0.1,0.1,0,0.1c-0.2,0-0.3-0.1-0.4-0.1l0-0.2c0.1,0.1-0.4,0.2-0.5,0.2
			c-0.1-0.1,0.3-0.1,0.3-0.2c-0.7,0-0.3,0-1,0c-0.4,0.1,0.1,0.1-0.1,0.3c-0.3,0-0.6,0.1-1,0l0.1,0.1c-0.6,0.1-0.9,0.1-1.3,0
			c-0.4,0.1-0.7,0.2-0.9,0.3c-2.8,0.9,0,1.3,0,1.3c1.7,0.3,2.6-0.1,4.6-0.2c1.8,0.1,2.3,0.3,4.1,0.2c0.4,0,0.9,0,1.4,0l0.3,0
			c0,0,0.1,0,0.1,0c0.1,0,0.1,0,0.2,0c0.1-0.1,0.2,0,0.2,0.1c0,0.1,0.1,0.2,0.1,0.3l-0.1,0.2c0.1,0.2,0.1,0.4,0,0.5l0,0
			c0.1,0.3,0,0.5,0.1,0.7l0,0l0,0.3l0-0.1c0.1,0.4,0.1,0.9,0.1,1.3l0.1,0c0,0.1,0,0.2,0,0.3c-0.4,0.1-0.7,0.2-1.1,0.2
			c-0.4,0.1,0.3-0.2-0.2-0.1c0-0.2,0.3-0.1,0.1-0.2c-0.5,0.1-0.9-0.2-1.6-0.1l0-0.1c-0.9,0.2-1.7-0.2-2.3,0.1
			C15.6,7.5,15.9,7,15,7.3l-0.4-0.2c-0.4,0-0.3,0.2-0.7,0.1c0-0.1-0.6-0.1-0.3-0.2c-1-0.2-2.1,0.2-3.4,0C9.9,7.2,9.2,7.1,9,7.2
			c0,0-0.2,0-0.5-0.1l0-0.1c0,0,0,0,0,0l0.1-0.1c0,0-0.1,0-0.1,0l0-1.1c0,0,0-0.5,0-1.1c0-0.1,0-0.1,0-0.2c0,0,0-0.1,0-0.1
			c0-0.1,0-0.2,0-0.2C8.6,4,8.7,3.8,8.8,3.7C9,3.4,9.4,3.3,9.3,3.1C9.3,3,9.2,2.9,9,2.8c-0.1,0-0.2-0.1-0.4-0.1
			c-0.4,0-1.2,0.1-1.7,1l0-0.1C6.8,4,6.7,4.3,6.7,4.5c0,0.2,0,0.3,0,0.5c0,0.3,0.1,0.6,0.2,0.9C6.6,6,6.9,6.7,6.8,6.9l0,0
			c0,0.1,0,0.1,0,0.2C6.7,7,6.6,7,6.5,7c0.1,0,0.2,0,0.3,0c0,0,0,0,0,0.1l-0.7,0L6.2,7L5.2,7l0.1,0.1C4.8,7,4.7,6.8,4.1,7
			C3.8,7.1,4.6,7.2,4,7.2c-0.2,0-0.4,0-0.6-0.1c-0.1,0-0.2,0-0.3,0L3,7.1l-0.3,0c-0.7,0-1.5,0.4-2,1c0.2,0-0.1,0.3-0.2,0.6l-0.1,0
			c-0.2,0.7-0.2,0.9-0.3,1C0,9.8,0,9.9,0,10.3l0.2,0.2c0.2,0.8-0.3,0.4,0.1,1.4c0-0.4,0.3-0.2,0.2,0.3L0.4,12c0,0.2,0.1,0.3,0.1,0.5
			c-0.1-0.1-0.2-0.1-0.2,0.3l-0.2-0.2l0.2,0.7c-0.1,0.5,0,1.4-0.1,1.6c0,0-0.1,1.1,0.1,1.4c-0.1-0.2-0.2,0.4-0.3,0.2
			c0.1,0.3,0.2,1.2,0.1,1.5l0-0.1c-0.1,1.3,0.2,2.2,0,3.4c0.1-0.1,0.1,0.6,0.3,0.4c0.1,0.9,0.5,1.7,1.1,2.1C2,24.4,2.7,24.4,3,24.1
			c0.6,0,0.7,0.1,0.9,0.2l-0.1,0c1,0,1.3-0.1,2.1,0c0.3,0,0.4-0.2,0.8-0.3c-0.1,0.4-0.2,0.7,0.2,0.9c0,0.3-0.1,0.4-0.2,0.6l0-0.1
			c0,0.2,0,0.3,0,0.4c0,0.1,0,0.3,0,0.4c0,0.3,0.1,0.5,0.3,0.8c0.2,0.3,0.5,0.2,0.8,0.6c-0.2,0,0,0.1,0.2,0.2
			c-0.1-0.1-0.2-0.1,0,0.2c0.1,0,0.1,0,0.2,0c0,0,0,0,0,0c0.4,0.1,0.3,0,0.2,0c0,0,0,0,0-0.1c0.3,0.3,1.1,0.2,1,0.4
			c0.8,0,1.4-0.2,2.1-0.3c0.1,0.1-0.1,0.2-0.3,0.2l0.5,0c0,0.1-0.3,0.1-0.4,0.1c0.6,0.2,1.2-0.2,1.8,0l0.1-0.1l0,0
			c0-0.1,0.1-0.1,0.2-0.2c0.1,0.1,0,0.3,0.3,0.3c0.3,0.1,0.7-0.1,1.1-0.1c-0.2,0-0.1-0.1,0-0.1c0.2,0,0.3,0.1,0.4,0.1l0,0.2
			c-0.1-0.1,0.4-0.2,0.5-0.2c0.1,0.1-0.3,0.1-0.3,0.2c0.7,0,0.3,0,1,0c0.4-0.1-0.1-0.1,0.1-0.3c0.3,0,0.6-0.1,1,0l-0.1-0.1
			c0.6-0.1,0.9-0.1,1.3,0c0.4-0.1,0.7-0.2,0.9-0.3c2.8-0.9,0-1.3,0-1.3C18,26,17.1,26.4,15,26.5c-1.8-0.1-2.3-0.3-4.1-0.2
			c-0.4,0-0.9,0-1.4,0l-0.3,0c0,0-0.1,0-0.1,0c-0.1,0-0.1,0-0.2,0c-0.1,0.1-0.2,0-0.2-0.1c0-0.1-0.1-0.2-0.1-0.3l0.1-0.2
			c-0.1-0.2-0.1-0.4,0-0.5l0,0c-0.1-0.3,0-0.5-0.1-0.7l0,0l0-0.3l0,0.1c0,0,0-0.1,0-0.1c0-0.2-0.1-0.5-0.1-0.7c0-0.2,0-0.3,0-0.5
			l-0.1,0c0.1-0.4,0.1-0.6,0-0.8c0-0.3-0.1-0.6,0-1.1l0,0c-0.4-1,0.3-1.5-0.1-2.5c0,0.1,0.1-0.1,0.1,0c0-0.5-0.1-0.9-0.3-1
			c0-0.3,0.1-0.3,0.2-0.3c-0.1,0-0.1-0.1-0.1-0.1c0,0,0-0.1,0-0.2l0,0.1l0-0.4c-0.1,0-0.2-0.1-0.2-0.1c0.1-0.2,0.3,0.1,0.2-0.1l0,0
			l-0.2-0.2c0.2,0,0.4,0.1,0.5,0.2c0.2,0.1,0.2,0.2,0.4,0.3c2.2,0.1,4.6-0.4,6.6-0.1l0.1,0.1c0,0.2,0.6-0.3,0.6-0.1l0.2-0.1
			c0.1,0,0.2,0.1,0.1,0.1c0.2,0,0.2,0,0.4-0.1l0.2,0.1c0.9,0.1,1.6-0.2,2.5-0.1c0.3,0.1,0.8,0.1,1.2,0.1c0.2,0,0.1,0,0.2,0l0.1,0
			l0.2,0c0,0.1,0.1,0.2,0.1,0.2c0,0,0,0.1,0,0.1c0,0.1,0,0.2,0,0.3c0.3,1.5-0.3,3.1-0.3,4.7c0,0.2,0,0.5,0.1,0.7
			c0,0.1,0,0.2,0.1,0.2l0,0.4l0,0.3l0,0.8c0,0,0,0.5,0,1.1c0,0.1,0,0.1,0,0.2c0,0,0,0.1,0,0.1c0,0.1,0,0.2,0,0.2
			c-0.1,0.2-0.2,0.3-0.3,0.4c-0.2,0.3-0.6,0.4-0.5,0.6c0,0.1,0.1,0.2,0.3,0.2c0.1,0,0.2,0.1,0.4,0.1c0.4,0,1.2-0.1,1.7-1l0,0.1
			c0.1-0.3,0.2-0.6,0.2-0.8c0-0.2,0-0.3,0-0.5c0-0.3-0.1-0.6-0.2-0.9c0.3-0.1,0.1-0.6,0.1-0.8c0.2,0,0.3,0,0.5,0.1
			c0.6-0.1,1.1-0.2,1.5-0.3c4.5-0.9,0-1.3,0-1.3c-0.7-0.1-1.3-0.1-1.8-0.1c0-0.4-0.1-0.8,0.1-0.8c0-0.9,0-2.1-0.2-2.7l0,0
			c-0.2-0.3,0-0.4-0.1-0.8c0,0,0,0,0,0c-0.1-0.2-0.1-0.4-0.1-0.7c0-0.4,0-0.7,0-0.9l0.1-0.1l0-0.3l0-0.7l0,0l0,0l0,0.4
			c-0.1,0-0.1-0.1-0.1-0.3c-0.2-0.1-0.6-0.2-1.1-0.1c-0.3,0-0.8,0.1-1,0.3c-0.2,0.1-0.5,0.3-0.7,0.2c0,0,0,0,0,0
			c-0.1,0.1-0.1,0-0.1,0c0-0.1,0.1-0.2-0.1-0.1c0-0.2,0.2-0.1,0.1-0.2c-0.3,0.1-0.6-0.2-1-0.1l0-0.1c-0.6,0.2-1-0.2-1.4,0.1
			c-0.6,0.1-0.4-0.4-1-0.1l-0.2-0.2c-0.3,0-0.2,0.2-0.5,0.1c0-0.1-0.4-0.1-0.2-0.2c-0.6-0.2-1.3,0.2-2.1,0c-0.2,0.2-0.6,0.1-0.7,0.2
			c0-0.1-0.8,0-0.4-0.2c0,0,0.1,0,0.1,0l0-0.1l0,0c-0.3-0.2-0.6,0-0.9,0c-0.1,0-0.3,0.1-0.5,0.1c0.1,0,0.3,0,0.2,0.1l-0.4,0l0.1-0.1
			l-0.6-0.1l0,0l0,0l0.1,0.1c-0.1,0-0.2-0.1-0.3-0.1c-0.1,0-0.2-0.1-0.4,0c0,0,0,0-0.1,0c-0.2,0.1,0.3,0.2,0,0.2c0,0,0,0-0.1,0
			c0,0,0,0-0.1,0c-0.2,0-0.4-0.1-0.6-0.1l-0.2,0c-0.1,0-0.3,0-0.4,0c-0.1,0-0.3,0-0.4,0c-0.1,0-0.3,0-0.4,0c0,0,0,0,0,0
			c0.1,0.1-0.1,0.1-0.4,0.1l-0.1-0.1c-0.2,0-0.4,0-0.5,0c-0.2,0-0.3-0.1-0.5-0.2c0,0.1,0,0.2,0,0.6l0.2,0.3c0.1,0.5,0.1,0.6,0,0.7
			c-0.1,0.1-0.1,0.3,0.1,0.8c0-0.4,0.3-0.1,0.2,0.2l-0.1-0.1c0,0.2,0.1,0.2,0.1,0.3c-0.1-0.1-0.2,0-0.2,0.2l-0.2-0.2l0.2,0.4
			c-0.1,0.3,0,0.9-0.1,1c0,0-0.1,0.7,0.1,0.9c-0.1-0.1-0.2,0.3-0.3,0.1c0.1,0.2,0.2,0.7,0.1,1l0,0c-0.1,0.5,0,1,0.1,1.4
			c-0.6,0-1.4,0-2,0.1l-0.3-0.1c-0.3,0.1-0.6,0.1-0.8,0l0,0c-0.5,0.1-0.5,0-0.6,0l0,0c-0.1,0-0.1,0-0.2-0.1l0.1,0
			c-0.1,0-0.2-0.1-0.3-0.2c0-0.1,0-0.1,0-0.2c0-0.2,0-0.3,0-0.4l-0.1,0.1c0.2-1.3-0.1-1.8,0.1-3.1l0,0c-0.4-1.5,0.3-2.4-0.1-4
			c0,0.2,0.1-0.1,0.1-0.1c0-0.7-0.1-1.5-0.3-1.5c0-0.5,0.1-0.4,0.2-0.5c-0.1,0-0.2-0.5-0.2-0.9l0,0.2l0-1.2l-0.2,0.2
			C1.8,9.9,2,10.4,2,9.8l-0.2,0c0.1-0.6,0.7-0.7,1-0.7c0.1,0,0.6,0,1.1,0c0.4,0,0.9,0,1.3,0c0.5,0,1,0,1.5-0.1C7,9,7.3,9,7.6,9
			c0.1,0,0.2,0,0.3,0c0.3,0,0.5,0,0.7,0c1.5-0.1,3-0.1,4.4,0.1l0.1,0.1c0.1,0.2,0.9-0.3,1-0.1l0.4-0.1C14.7,9,15,9,14.8,9.1
			c0.4,0,0.4,0,0.6-0.1l0.4,0.1c1.4,0.1,2.6-0.2,4-0.1c0.5,0.1,1.1,0.1,1.8,0.1c0.3,0,0.6,0,1,0c0.4,0,0.8,0,1.2,0
			c1.1-0.1,2.2-0.1,3-0.2c0.2,0,0.3,0,0.5,0c0.1,0,0.2,0,0.3,0c0.2,0.1,0.4,0.2,0.5,0.4c0.1,0.2,0.1,0.3,0.1,0.6
			c0,0.4-0.1,0.7-0.1,1.1c-0.1,1.5-0.2,2.9-0.1,4.3c0,0.1,0,0.3,0.1,0.3l0,2.5c0,0,0,0.8,0,1.8c0,0.5,0,1,0.1,1.6l0,0.4
			c0,0.1,0,0.1,0,0.2c0,0.1-0.1,0.3-0.1,0.4c-0.3,0.5-0.8,0.6-0.7,0.8c0,0.1,0.2,0.2,0.4,0.2c0.1,0,0.3,0,0.5,0
			c0.3-0.1,0.7-0.3,1-0.7c0.2-0.2,0.3-0.5,0.3-0.8c0.1-0.3,0.1-0.5,0.2-0.8l0,0.1c0.1-1.4,0.1-2.2-0.1-3.2c0.3-0.1,0-1.1,0.1-1.4
			l0,0c-0.2-0.8,0.2-1.7,0-2.5c0,0,0.1,0,0.1,0.2C29.8,13.6,29.7,12.8,29.9,12.7z M23.5,22C23.5,22,23.4,22,23.5,22
			C23.4,22,23.4,22,23.5,22C23.4,22,23.4,22,23.5,22z"/>
		<path d="M13.4,28.3l-0.1-0.1C13.3,28.3,13.3,28.3,13.4,28.3z"/>
		<polygon points="9,26.3 9,26.3 9,26.3 		"/>
		<polygon points="6.3,15.1 6.3,15.1 6.3,15 		"/>
		<path d="M12.3,20.8C12.3,20.8,12.3,20.8,12.3,20.8C12.3,20.8,12.3,20.8,12.3,20.8L12.3,20.8z"/>
		<path d="M19.8,19.6c-0.1-0.2-0.2-0.5-0.4-0.8l0,0c-0.2-0.1-0.3-0.1-0.4,0.1c0-0.3-0.1,0-0.2-0.1l0,0c-0.1,0.2-0.2-0.2-0.3,0
			c0,0,0-0.1,0-0.1c-0.1,0-0.2,0.1-0.2-0.1c-0.2,0-0.4,0-0.5,0.2l0,0c-0.1,0.2-0.1,0-0.1,0.1c0,0,0,0,0,0c-0.1,0.2-0.2,0-0.2,0.1
			l0-0.1l-0.1,0l0,0c0,0.3-0.1-0.2-0.2,0c-0.1,0-0.2,0.6-0.3,0.5c0,0.1,0-0.2,0-0.1c0-0.2,0-0.1,0-0.2c-0.1,0.1-0.1-0.2-0.2-0.1
			l0-0.1c-0.1,0.2-0.2-0.2-0.3,0.1c-0.1,0.1-0.1-0.4-0.2-0.1l0-0.2c0,0,0,0.2-0.1,0.1c0-0.1-0.1-0.1,0-0.2c-0.1-0.2-0.2,0.2-0.4,0
			c0,0.2-0.1,0.1-0.1,0.2c0-0.1-0.2,0-0.1-0.2c0,0,0,0,0,0l0-0.1c-0.1-0.2-0.2,0.1-0.3,0.1c0,0,0.1,0,0,0.1l-0.1,0l0-0.1l-0.1-0.1
			l0,0.1c-0.1-0.1-0.1-0.3-0.2-0.1c0,0.1,0.1,0.2,0,0.2c-0.1-0.1-0.2-0.2-0.3-0.3c0,0.1,0,0.1,0,0.2l0-0.1c-0.1,0.2,0-0.3-0.2-0.1
			l0-0.1l0,0.3c-0.1,0.2-0.1-0.3-0.2,0.1c0,0,0,0.3,0,0.2l0-0.1c0,0,0,0.1-0.1,0.1c0-0.1,0-0.2,0-0.2l0-0.2l-0.1,0.2
			c-0.1-0.1-0.2,0-0.2-0.1c0,0-0.1-0.1-0.2,0.1c0-0.1,0-0.2,0-0.3c0,0.1-0.1,0.2-0.2,0.1l0,0c-0.2-0.1-0.3,0.2-0.4,0
			c0,0.1-0.1,0.1,0,0.3c-0.1,0.2-0.3-0.4-0.3,0.2c-0.1,0-0.1-0.1-0.1-0.2l0,0c-0.1,0-0.2,0.1-0.3,0c0,0.1-0.1,0.3-0.1,0.3
			c0-0.1,0-0.1,0-0.1c0,0,0-0.1,0-0.1c0,0,0,0.1,0,0.1c0,0,0,0,0,0c-0.1,0,0,0.1,0,0.1c0,0,0,0,0,0.1c-0.1-0.1-0.1,0-0.2-0.2
			c-0.2,0-0.3,0.2-0.4,0.3c0-0.1,0-0.2,0.1-0.2l-0.1,0c0-0.1,0.1-0.1,0.1-0.1c-0.1-0.2-0.2,0.2-0.3,0l0,0.1l0,0c0,0.1,0,0.1,0,0.2
			c0-0.1,0-0.3-0.1-0.3c0-0.1-0.1,0.1-0.2,0.1c0,0,0,0.1,0,0.1c0,0,0-0.1-0.1-0.1l0-0.2c0,0.1-0.1,0.2-0.1,0.2c0-0.1,0-0.1,0.1-0.2
			c-0.1,0-0.1,0-0.2,0c-0.1,0.1,0,0.1,0,0.3c-0.1,0-0.1,0.1-0.2,0l0,0.1c-0.1,0.1-0.2,0.1-0.3,0c-0.1,0.1-0.1,0.2-0.2,0.3
			c-0.5,0.9,0,1.3,0,1.3c0.3,0.3,0.5-0.1,0.9-0.2c0.3,0.1,0.4,0.3,0.8,0.2c0.2,0,0.3,0,0.5-0.1c0.1-0.2,0.2,0,0.3-0.2l0,0.1
			c0-0.1,0.1-0.1,0.1,0l0,0c0-0.1,0.1,0,0.1-0.1l0,0l0.1,0l0,0c0.1-0.1,0.2-0.1,0.2-0.1l0-0.1c0.2,0.2,0.2-0.1,0.4,0.1l0,0
			c0.2-0.4,0.3,0.3,0.5-0.1c0,0,0,0.1,0,0.1c0.1,0,0.2-0.1,0.2-0.3c0.1,0,0.1,0.1,0.1,0.2c0-0.1,0.1-0.2,0.1-0.2l0,0l0.1,0l0-0.2
			c0.1,0.1,0,0.3,0.1,0.2l0-0.2c0.1,0,0.2,0.3,0.3,0.5c0.4,0.1,0.9-0.4,1.3-0.1l0,0.1c0,0.2,0.1-0.3,0.1-0.1l0-0.1c0,0,0,0.1,0,0.1
			c0,0,0,0,0.1-0.1l0,0.1c0.2,0.1,0.3-0.2,0.5-0.1c0.2,0.3,0.6,0,0.8-0.1c0.3-0.3,0.7,0.5,1,0.2c0,0,0,0,0-0.1l0.3,0
			C19.1,20.5,20.1,20.6,19.8,19.6z"/>
		<path d="M12.3,24.7C12.3,24.7,12.3,24.7,12.3,24.7C12.3,24.7,12.3,24.7,12.3,24.7L12.3,24.7z"/>
		<path d="M16.4,24.3l0,0.1c0.2,0.1,0.3-0.2,0.5-0.1c0.2,0.3,0.6,0,0.8-0.1c0.3-0.3,0.7,0.5,1,0.2c0,0,0,0,0-0.1l0.3,0
			c0,0,0.4,0,0.6-0.2c0.1-0.1,0.2-0.4,0.1-0.7c-0.1-0.2-0.2-0.5-0.4-0.8l0,0c-0.2-0.1-0.3-0.1-0.4,0.1c0-0.3-0.1,0-0.2-0.1l0,0
			c-0.1,0.2-0.2-0.2-0.3,0c0,0,0-0.1,0-0.1c-0.1,0-0.2,0.1-0.2-0.1c-0.2,0-0.4,0-0.5,0.2l0,0c-0.1,0.2-0.1,0-0.1,0.1c0,0,0,0,0,0
			c-0.1,0.2-0.2,0-0.2,0.1l0-0.1l-0.1,0l0,0c0,0.3-0.1-0.2-0.2,0c-0.1,0-0.2,0.6-0.3,0.5c0,0.1,0-0.2,0-0.1c0-0.2,0-0.1,0-0.2
			c-0.1,0.1-0.1-0.2-0.2-0.1l0-0.1c-0.1,0.2-0.2-0.2-0.3,0.1c-0.1,0.1-0.1-0.4-0.2-0.1l0-0.2c0,0,0,0.2-0.1,0.1c0-0.1-0.1-0.1,0-0.2
			c-0.1-0.2-0.2,0.2-0.4,0c0,0.2-0.1,0.1-0.1,0.2c0-0.1-0.2,0-0.1-0.2c0,0,0,0,0,0l0-0.1c0,0,0,0,0,0c0,0-0.1,0-0.1,0
			c0,0.1-0.1,0.2-0.1,0.1c0,0,0.1,0,0,0.1l-0.1,0l0-0.1l-0.1-0.1l0,0.1c-0.1-0.1-0.1-0.3-0.2-0.1c0,0.1,0.1,0.2,0,0.2
			c-0.1-0.1-0.2-0.2-0.3-0.3c0,0.1,0,0.1,0,0.2l0-0.1c-0.1,0.1-0.1-0.1-0.1-0.2c0,0,0,0,0,0c0,0,0,0,0,0l0,0.2
			c-0.1,0.2-0.1-0.3-0.2,0.1c0,0,0,0.3,0,0.2l0-0.1c0,0,0,0.1-0.1,0.1c0-0.1,0-0.2,0-0.2l0-0.2l-0.1,0.2c-0.1-0.1-0.2,0-0.2-0.1
			c0,0-0.1-0.1-0.2,0.1c0-0.1,0-0.2,0-0.3c0,0.1-0.1,0.2-0.2,0.1l0,0c-0.2-0.1-0.3,0.2-0.4,0c0,0.1-0.1,0.1,0,0.3
			c-0.1,0.2-0.3-0.4-0.3,0.2c-0.1,0-0.1-0.1-0.1-0.2l0,0c-0.1,0-0.2,0.1-0.3,0c0,0.1-0.1,0.3-0.1,0.3c0-0.1,0-0.1,0-0.1
			c0,0,0-0.1,0-0.1c0,0,0,0.1,0,0.1c0,0,0,0,0,0c-0.1,0,0,0.1,0,0.1c0,0,0,0,0,0.1c-0.1-0.1-0.1,0-0.2-0.2c-0.2,0-0.3,0.2-0.4,0.3
			c0-0.1,0-0.2,0.1-0.2l-0.1,0c0-0.1,0.1-0.1,0.1-0.1c-0.1-0.2-0.2,0.2-0.3,0l0,0.1l0,0c0,0.1,0,0.1,0,0.2c0-0.1,0-0.3-0.1-0.3
			c0-0.1-0.1,0.1-0.2,0.1c0,0,0,0.1,0,0.1c0,0,0-0.1-0.1-0.1l0-0.2c0,0.1-0.1,0.2-0.1,0.2c0-0.1,0-0.1,0.1-0.2c-0.1,0-0.1,0-0.2,0
			c-0.1,0.1,0,0.1,0,0.3c-0.1,0-0.1,0.1-0.2,0l0,0.1c-0.1,0.1-0.2,0.1-0.3,0c-0.1,0.1-0.1,0.2-0.2,0.3C10,23.7,9.9,24,9.9,24.2
			c0,0.4,0.2,0.5,0.2,0.5c0.3,0.3,0.5-0.1,0.9-0.2c0.3,0.1,0.4,0.3,0.8,0.2c0.2,0,0.3,0,0.5-0.1c0.1-0.2,0.2,0,0.3-0.2l0,0.1
			c0-0.1,0.1-0.1,0.1,0l0,0c0-0.1,0.1,0,0.1-0.1l0,0l0.1,0l0,0c0.1-0.1,0.2-0.1,0.2-0.1l0-0.1c0.2,0.2,0.2-0.1,0.4,0.1l0,0
			c0.2-0.4,0.3,0.3,0.5-0.1c0,0,0,0.1,0,0.1c0.1,0,0.2-0.1,0.2-0.3c0,0,0,0,0,0c0,0,0,0,0,0c0.1,0,0,0.1,0.1,0.2
			c0-0.1,0.1-0.2,0.1-0.2l0,0l0.1,0l0,0l0-0.2c0.1,0.1,0,0.3,0.1,0.2l0-0.2c0.1,0,0.1,0.1,0.1,0.2c0,0.1,0.1,0.2,0.1,0.3
			c0.4,0.1,0.9-0.4,1.3-0.1l0,0.1c0,0.2,0.1-0.3,0.1-0.1L16.4,24.3C16.3,24.3,16.3,24.4,16.4,24.3C16.4,24.4,16.4,24.4,16.4,24.3z"
			/>
		<polygon points="14.5,22.2 14.5,22.2 14.5,22.2 		"/>
	</g>
</g>
</svg>
