<?xml version="1.0" encoding="utf-8"?>
<!-- Generator: Adobe Illustrator 26.5.0, SVG Export Plug-In . SVG Version: 6.00 Build 0)  -->
<svg version="1.1" xmlns="http://www.w3.org/2000/svg" xmlns:xlink="http://www.w3.org/1999/xlink" x="0px" y="0px"
	 viewBox="0 0 422 55" style="enable-background:new 0 0 422 55;" xml:space="preserve">
<style type="text/css">
	.st0{fill:#F26253;}
	.st1{fill:#696B59;}
	.st2{display:none;}
	.st3{display:inline;}
</style>
<g id="Ebene_1">
	<path class="st0" d="M24.7,11c-6,0-11,3.3-11,9.4c0,10.1,13.8,9.9,13.8,15c0,1.7-1.3,3.1-4.4,3.1c-3,0-4.8-1.1-6.3-2.2
		c-0.6-0.4-1.2-0.6-1.8,0.2l-2.3,3.3c-0.2,0.3-0.3,0.6-0.3,0.9c0,0.3,0.1,0.6,0.4,0.9c1.2,1.2,4.6,3.4,10.4,3.4
		c7.4,0,12.1-3.6,12.1-9.9c0-10.4-14.2-10-14.2-15.2c0-1.5,1.3-2.8,3.7-2.8c2.1,0,3.4,0.8,4.4,1.5c0.8,0.5,1.5,0.3,1.8-0.1l2.1-3
		c0.2-0.3,0.3-0.6,0.3-0.9c0-0.2,0-0.5-0.4-0.9C32.1,12.7,29,11,24.7,11L24.7,11z M51.3,11.5H40.8c-0.8,0-1.3,0.5-1.3,1.3v30.6
		c0,0.8,0.5,1.3,1.3,1.3h4.8c0.8,0,1.3-0.5,1.3-1.3v-9.7h4.4c6.2,0,11.2-4.6,11.2-11.1C62.5,16.1,57.5,11.5,51.3,11.5L51.3,11.5z
		 M50.5,27.1h-3.6v-9h3.6c2.5,0,4.8,1.7,4.8,4.5C55.2,25.4,52.9,27.1,50.5,27.1L50.5,27.1z M86,11.5H67.7c-0.8,0-1.3,0.5-1.3,1.3
		v30.6c0,0.8,0.5,1.3,1.3,1.3h4.8c0.8,0,1.3-0.5,1.3-1.3V31.7h9.8c0.8,0,1.3-0.5,1.3-1.3v-3.7c0-0.8-0.5-1.3-1.3-1.3h-9.8v-7.5H86
		c0.8,0,1.3-0.5,1.3-1.3v-3.7C87.3,11.9,86.8,11.5,86,11.5L86,11.5z"/>
	<path class="st1" d="M105.5,33.7h-6c-0.3,0-0.4,0.2-0.4,0.4v10.1c0,0.3,0.2,0.4,0.4,0.4h1.6c0.3,0,0.4-0.2,0.4-0.4v-3.9h3.2
		c0.3,0,0.4-0.2,0.4-0.4v-1.2c0-0.3-0.2-0.4-0.4-0.4h-3.2v-2.5h4c0.3,0,0.4-0.2,0.4-0.4v-1.2C106,33.9,105.8,33.7,105.5,33.7
		L105.5,33.7z M112.3,37.3c-0.7-0.4-1.6-0.7-2.9-0.7c-0.8,0-1.9,0.2-2.4,0.3c-0.2,0-0.3,0.2-0.3,0.3c0,0.1,0,0.1,0,0.3l0.2,0.8
		c0,0.2,0.2,0.3,0.4,0.3c0,0,0.1,0,0.3-0.1c0.2,0,0.9-0.2,1.7-0.2c0.8,0,1.2,0.2,1.5,0.4c0.2,0.2,0.3,0.3,0.4,0.5l-2.3,0.4
		c-2,0.3-2.7,1.5-2.7,2.6c0,1.3,0.9,2.6,3,2.6c1.1,0,2-0.3,2.6-0.8l1.1,0.6c0.3,0.2,0.4,0.2,0.5,0.2c0.2,0,0.3-0.1,0.3-0.4v-4.6
		C113.5,38.9,113.1,37.9,112.3,37.3L112.3,37.3z M108.4,42.2c0-0.3,0.1-0.8,1.2-1.1l1.6-0.4v1.7c-0.6,0.4-1.1,0.6-1.6,0.6
		C108.9,43.1,108.4,42.7,108.4,42.2L108.4,42.2z M119.4,36.7c-2.3,0-4.2,1.5-4.2,4.1c0,2.6,1.9,4.1,4.2,4.1c1.1,0,2-0.4,2.7-0.8
		c0.1-0.1,0.2-0.2,0.2-0.3c0-0.1,0-0.2-0.1-0.3l-0.8-1c-0.2-0.2-0.4-0.2-0.6-0.1c-0.3,0.2-0.8,0.4-1.4,0.4c-0.8,0-1.8-0.6-1.8-2
		c0-1.4,0.9-2,1.8-2c0.6,0,1.1,0.2,1.4,0.4c0.2,0.1,0.4,0.1,0.6-0.1l0.8-1c0.1-0.1,0.1-0.2,0.1-0.3c0-0.1,0-0.2-0.2-0.3
		C121.4,37,120.5,36.7,119.4,36.7L119.4,36.7z M128.3,36.7c-0.8,0-1.5,0.2-2.1,0.6v-3.1c0-0.3-0.2-0.4-0.4-0.4h-1.6
		c-0.3,0-0.4,0.1-0.4,0.4v10.1c0,0.3,0.2,0.4,0.4,0.4h1.6c0.3,0,0.4-0.1,0.4-0.4v-4.7c0.4-0.5,1.1-0.7,1.6-0.7
		c0.8,0,1.2,0.5,1.2,1.2v4.2c0,0.3,0.2,0.4,0.4,0.4h1.6c0.3,0,0.4-0.2,0.4-0.4v-4.6C131.4,38,130.3,36.7,128.3,36.7L128.3,36.7z
		 M134.3,36.8h-1.7c-0.3,0-0.4,0.1-0.4,0.3c0,0.1,0,0.2,0.1,0.3l3.5,7.1c0.1,0.2,0.3,0.3,0.4,0.3c0.2,0,0.3-0.1,0.4-0.3l3.5-7.1
		c0.1-0.1,0.1-0.2,0.1-0.3c0-0.1-0.1-0.3-0.4-0.3h-1.7c-0.2,0-0.4,0.1-0.5,0.3l-1.5,3.8l-1.5-3.8C134.6,36.9,134.5,36.8,134.3,36.8
		L134.3,36.8z M144.7,36.7c-2.7,0-4,1.9-4,4.1c0,2.4,1.5,4.1,4.2,4.1c1.6,0,2.5-0.5,3-0.8c0.2-0.2,0.2-0.4,0.1-0.6l-0.6-0.8
		c-0.2-0.2-0.4-0.2-0.6-0.1c-0.3,0.2-0.9,0.5-1.7,0.5c-1.2,0-1.9-0.6-2-1.4h5.2c0.3,0,0.5-0.2,0.5-0.4v-0.4
		C148.7,38.6,147.3,36.7,144.7,36.7L144.7,36.7z M144.7,38.5c1.1,0,1.6,0.8,1.6,1.5h-3.3C143.1,39.4,143.6,38.5,144.7,38.5
		L144.7,38.5z M155.9,36.9c-0.3-0.2-0.7-0.3-1.1-0.3c-0.9,0-1.7,0.4-2.3,0.9l-1.2-0.7c-0.3-0.2-0.4-0.2-0.5-0.2
		c-0.2,0-0.3,0.1-0.3,0.4v7.2c0,0.3,0.2,0.4,0.4,0.4h1.6c0.3,0,0.4-0.1,0.4-0.4v-4.8c0.4-0.4,1-0.5,1.2-0.5c0.2,0,0.5,0,0.6,0.1
		c0.2,0.1,0.4,0.1,0.6-0.1l0.8-1.3c0-0.1,0.1-0.2,0.1-0.3C156.1,37.2,156,37,155.9,36.9L155.9,36.9z M161.5,36.7
		c-0.8,0-1.4,0.2-2,0.6v-3.1c0-0.3-0.1-0.4-0.4-0.4h-1.5c-0.3,0-0.4,0.2-0.4,0.4v10.3c0,0.3,0.1,0.4,0.3,0.4c0.1,0,0.3-0.1,0.5-0.2
		l1.1-0.7c0.5,0.5,1.3,0.9,2.4,0.9c2,0,3.8-1.6,3.8-4.1C165.3,38.3,163.6,36.7,161.5,36.7L161.5,36.7z M161.1,42.8
		c-0.6,0-1.2-0.4-1.5-0.8v-2.7c0.4-0.4,1-0.7,1.5-0.7c1,0,1.8,0.7,1.8,2.1C162.9,42.1,162,42.8,161.1,42.8L161.1,42.8z M172.7,37.3
		c-0.7-0.4-1.6-0.7-2.9-0.7c-0.8,0-1.9,0.2-2.4,0.3c-0.2,0-0.3,0.2-0.3,0.3c0,0.1,0,0.1,0,0.3l0.2,0.8c0,0.2,0.2,0.3,0.4,0.3
		c0,0,0.1,0,0.3-0.1c0.2,0,0.9-0.2,1.7-0.2c0.8,0,1.2,0.2,1.5,0.4c0.2,0.2,0.3,0.3,0.4,0.5l-2.3,0.4c-2,0.3-2.7,1.5-2.7,2.6
		c0,1.3,0.9,2.6,3,2.6c1.1,0,2-0.3,2.6-0.8l1.1,0.6c0.3,0.2,0.4,0.2,0.5,0.2c0.2,0,0.3-0.1,0.3-0.4v-4.6
		C174,38.9,173.6,37.9,172.7,37.3L172.7,37.3z M168.9,42.2c0-0.3,0.1-0.8,1.2-1.1l1.6-0.4v1.7c-0.6,0.4-1.1,0.6-1.6,0.6
		C169.4,43.1,168.9,42.7,168.9,42.2L168.9,42.2z M180.6,36.7c-1,0-1.9,0.4-2.6,0.9l-1.1-0.7c-0.3-0.2-0.4-0.2-0.5-0.2
		c-0.2,0-0.3,0.1-0.3,0.4v7.2c0,0.3,0.2,0.4,0.4,0.4h1.6c0.3,0,0.4-0.1,0.4-0.4v-4.7c0.4-0.5,1.1-0.7,1.6-0.7c0.8,0,1.2,0.5,1.2,1.2
		v4.2c0,0.3,0.2,0.4,0.4,0.4h1.6c0.3,0,0.4-0.2,0.4-0.4v-4.6C183.7,38,182.6,36.7,180.6,36.7L180.6,36.7z M193.1,33.7h-1.5
		c-0.3,0-0.4,0.1-0.4,0.4v3.1c-0.5-0.4-1.2-0.6-2-0.6c-2,0-3.8,1.6-3.8,4.1c0,2.5,1.8,4.1,3.8,4.1c1.1,0,1.9-0.4,2.4-0.9l1.1,0.7
		c0.3,0.2,0.4,0.2,0.5,0.2c0.2,0,0.3-0.1,0.3-0.4V34.1C193.6,33.9,193.4,33.7,193.1,33.7L193.1,33.7z M189.7,42.8
		c-1,0-1.8-0.7-1.8-2.1c0-1.3,0.8-2.1,1.8-2.1c0.5,0,1.1,0.2,1.5,0.6V42C190.8,42.5,190.3,42.8,189.7,42.8L189.7,42.8z M203.2,33.6
		c-2,0-3.6,1.1-3.6,3.1c0,3.3,4.6,3.3,4.6,4.9c0,0.6-0.4,1-1.4,1c-1,0-1.6-0.4-2.1-0.7c-0.2-0.1-0.4-0.2-0.6,0.1l-0.8,1.1
		c-0.1,0.1-0.1,0.2-0.1,0.3c0,0.1,0,0.2,0.1,0.3c0.4,0.4,1.5,1.1,3.4,1.1c2.5,0,4-1.2,4-3.3c0-3.4-4.7-3.3-4.7-5
		c0-0.5,0.4-0.9,1.2-0.9c0.7,0,1.1,0.3,1.4,0.5c0.3,0.2,0.5,0.1,0.6,0l0.7-1c0.1-0.1,0.1-0.2,0.1-0.3c0-0.1,0-0.2-0.1-0.3
		C205.6,34.1,204.6,33.6,203.2,33.6L203.2,33.6z M212.3,36.7c-2.3,0-4.2,1.5-4.2,4.1c0,2.6,1.9,4.1,4.2,4.1c1.1,0,2-0.4,2.7-0.8
		c0.1-0.1,0.2-0.2,0.2-0.3c0-0.1,0-0.2-0.1-0.3l-0.8-1c-0.2-0.2-0.4-0.2-0.6-0.1c-0.3,0.2-0.8,0.4-1.4,0.4c-0.8,0-1.8-0.6-1.8-2
		c0-1.4,0.9-2,1.8-2c0.6,0,1.1,0.2,1.4,0.4c0.2,0.1,0.4,0.1,0.6-0.1l0.8-1c0.1-0.1,0.1-0.2,0.1-0.3c0-0.1,0-0.2-0.2-0.3
		C214.3,37,213.4,36.7,212.3,36.7L212.3,36.7z M221.2,36.7c-0.8,0-1.5,0.2-2.1,0.6v-3.1c0-0.3-0.2-0.4-0.4-0.4h-1.6
		c-0.3,0-0.4,0.1-0.4,0.4v10.1c0,0.3,0.2,0.4,0.4,0.4h1.6c0.3,0,0.4-0.1,0.4-0.4v-4.7c0.4-0.5,1.1-0.7,1.6-0.7
		c0.8,0,1.2,0.5,1.2,1.2v4.2c0,0.3,0.2,0.4,0.4,0.4h1.6c0.3,0,0.4-0.2,0.4-0.4v-4.6C224.3,38,223.2,36.7,221.2,36.7L221.2,36.7z
		 M225.4,36.8c-0.3,0-0.4,0.2-0.4,0.3c0,0.1,0,0.2,0.1,0.4l3.2,7c0.1,0.2,0.2,0.3,0.4,0.3c0.2,0,0.3-0.1,0.4-0.3l1.8-3.7l1.8,3.7
		c0.1,0.2,0.2,0.3,0.4,0.3c0.2,0,0.3-0.1,0.4-0.3l3.2-7c0-0.1,0.1-0.3,0.1-0.4c0-0.1-0.1-0.3-0.4-0.3h-1.5c-0.2,0-0.4,0.1-0.5,0.3
		l-1.5,3.7l-1.7-3.8c-0.1-0.2-0.2-0.3-0.4-0.3c-0.1,0-0.3,0.1-0.4,0.3l-1.7,3.8l-1.5-3.7c-0.1-0.2-0.2-0.3-0.5-0.3H225.4L225.4,36.8
		z M241.4,36.7c-2.7,0-4,1.9-4,4.1c0,2.4,1.5,4.1,4.2,4.1c1.6,0,2.5-0.5,3-0.8c0.2-0.2,0.2-0.4,0.1-0.6l-0.6-0.8
		c-0.2-0.2-0.4-0.2-0.6-0.1c-0.3,0.2-0.9,0.5-1.7,0.5c-1.2,0-1.9-0.6-2-1.4h5.2c0.3,0,0.5-0.2,0.5-0.4v-0.4
		C245.3,38.6,243.9,36.7,241.4,36.7L241.4,36.7z M241.4,38.5c1.1,0,1.6,0.8,1.6,1.5h-3.3C239.7,39.4,240.2,38.5,241.4,38.5
		L241.4,38.5z M249.1,33.7h-1.6c-0.3,0-0.4,0.2-0.4,0.4v1.3c0,0.3,0.2,0.4,0.4,0.4h1.6c0.3,0,0.4-0.2,0.4-0.4v-1.3
		C249.5,33.9,249.4,33.7,249.1,33.7L249.1,33.7z M249.1,36.8h-2.4c-0.3,0-0.4,0.1-0.4,0.3c0,0.1,0.1,0.3,0.2,0.5l0.5,0.9v5.8
		c0,0.3,0.2,0.4,0.4,0.4h1.6c0.3,0,0.4-0.2,0.4-0.4v-7C249.5,37,249.4,36.8,249.1,36.8L249.1,36.8z M251.6,36.8
		c-0.3,0-0.4,0.2-0.4,0.4v1c0,0.3,0.2,0.4,0.4,0.4h2.9l-3.4,5.3c-0.1,0.1-0.1,0.2-0.1,0.3c0,0.2,0.2,0.4,0.4,0.4h6.2
		c0.3,0,0.4-0.2,0.4-0.4v-1c0-0.3-0.2-0.4-0.4-0.4h-3.2l3.3-5.2c0.1-0.1,0.1-0.2,0.1-0.3c0-0.2-0.2-0.4-0.4-0.4H251.6L251.6,36.8z"
		/>
	<path class="st0" d="M102.5,11.5c-2,0-3.6,1.1-3.6,3.1c0,3.3,4.6,3.3,4.6,4.9c0,0.6-0.4,1-1.4,1c-1,0-1.6-0.4-2.1-0.7
		c-0.2-0.1-0.4-0.2-0.6,0.1L98.6,21c-0.1,0.1-0.1,0.2-0.1,0.3c0,0.1,0,0.2,0.1,0.3c0.4,0.4,1.5,1.1,3.4,1.1c2.5,0,4-1.2,4-3.3
		c0-3.4-4.7-3.3-4.7-5c0-0.5,0.4-0.9,1.2-0.9c0.7,0,1.1,0.3,1.4,0.5c0.3,0.2,0.5,0.1,0.6,0l0.7-1c0.1-0.1,0.1-0.2,0.1-0.3
		c0-0.1,0-0.2-0.1-0.3C104.9,12,103.9,11.5,102.5,11.5L102.5,11.5z M115.7,18.7c0-2.6-1.9-4.1-4.2-4.1c-2.2,0-4.2,1.5-4.2,4.1
		s1.9,4.1,4.2,4.1C113.8,22.7,115.7,21.2,115.7,18.7L115.7,18.7z M111.6,20.7c-1,0-1.7-0.7-1.7-2c0-1.3,0.8-2,1.7-2
		c1,0,1.7,0.7,1.7,2C113.3,20,112.5,20.7,111.6,20.7L111.6,20.7z M117.3,14.8c-0.3,0-0.4,0.2-0.4,0.4v1c0,0.3,0.2,0.4,0.4,0.4h2.9
		l-3.4,5.3c-0.1,0.1-0.1,0.2-0.1,0.3c0,0.2,0.2,0.4,0.4,0.4h6.2c0.3,0,0.4-0.2,0.4-0.4v-1c0-0.3-0.2-0.4-0.4-0.4h-3.2l3.3-5.2
		c0.1-0.1,0.1-0.2,0.1-0.3c0-0.2-0.2-0.4-0.4-0.4H117.3L117.3,14.8z M127.3,11.6h-1.6c-0.3,0-0.4,0.2-0.4,0.4v1.3
		c0,0.3,0.2,0.4,0.4,0.4h1.6c0.3,0,0.4-0.2,0.4-0.4V12C127.7,11.8,127.6,11.6,127.3,11.6L127.3,11.6z M127.3,14.8h-2.4
		c-0.3,0-0.4,0.1-0.4,0.3c0,0.1,0.1,0.3,0.2,0.5l0.5,0.9v5.8c0,0.3,0.2,0.4,0.4,0.4h1.6c0.3,0,0.4-0.2,0.4-0.4v-7
		C127.7,14.9,127.6,14.8,127.3,14.8L127.3,14.8z M135.4,15.3c-0.7-0.4-1.6-0.7-2.9-0.7c-0.8,0-1.9,0.2-2.4,0.3
		c-0.2,0-0.3,0.2-0.3,0.3c0,0.1,0,0.1,0,0.3l0.2,0.8c0,0.2,0.2,0.3,0.4,0.3c0,0,0.1,0,0.3-0.1c0.2,0,0.9-0.2,1.7-0.2
		c0.8,0,1.2,0.2,1.5,0.4c0.2,0.2,0.3,0.3,0.4,0.5l-2.3,0.4c-2,0.3-2.7,1.5-2.7,2.6c0,1.3,0.9,2.6,3,2.6c1.1,0,2-0.3,2.6-0.8l1.1,0.6
		c0.3,0.2,0.4,0.2,0.5,0.2c0.2,0,0.2-0.1,0.2-0.4v-4.6C136.7,16.8,136.3,15.8,135.4,15.3L135.4,15.3z M131.6,20.1
		c0-0.3,0.1-0.8,1.2-1.1l1.6-0.4v1.7c-0.6,0.4-1.1,0.6-1.6,0.6C132.1,21,131.6,20.7,131.6,20.1L131.6,20.1z M140.7,11.6h-1.6
		c-0.3,0-0.4,0.2-0.4,0.4v8.4c0,1.7,1.2,2.3,2.4,2.3c0.8,0,1.4-0.2,1.9-0.5c0.1-0.1,0.2-0.2,0.2-0.3c0-0.1,0-0.2-0.1-0.2l-0.4-0.9
		c-0.1-0.2-0.2-0.2-0.3-0.2c-0.2,0-0.3,0.1-0.6,0.1c-0.3,0-0.6-0.2-0.6-0.7V12C141.1,11.8,141,11.6,140.7,11.6L140.7,11.6z
		 M148.9,14.6c-1.1,0-1.8,0.4-2.4,0.9l-1.1-0.7c-0.3-0.2-0.4-0.2-0.5-0.2c-0.2,0-0.3,0.1-0.3,0.4v10.3c0,0.3,0.2,0.4,0.4,0.4h1.5
		c0.3,0,0.4-0.1,0.4-0.4v-3.1c0.5,0.4,1.2,0.6,2,0.6c2,0,3.8-1.6,3.8-4.1C152.7,16.2,150.9,14.6,148.9,14.6L148.9,14.6z M148.4,20.7
		c-0.5,0-1.1-0.2-1.5-0.7v-2.7c0.4-0.4,0.9-0.8,1.5-0.8c1,0,1.8,0.7,1.8,2.1C150.2,20,149.4,20.7,148.4,20.7L148.4,20.7z
		 M155.3,13.8h1.3c0.3,0,0.4-0.2,0.4-0.4v-1.1c0-0.3-0.2-0.4-0.4-0.4h-1.3c-0.3,0-0.4,0.2-0.4,0.4v1.1
		C154.9,13.6,155,13.8,155.3,13.8L155.3,13.8z M158.8,13.8h1.3c0.3,0,0.4-0.2,0.4-0.4v-1.1c0-0.3-0.2-0.4-0.4-0.4h-1.3
		c-0.3,0-0.4,0.2-0.4,0.4v1.1C158.3,13.6,158.5,13.8,158.8,13.8L158.8,13.8z M160.1,15.3c-0.7-0.4-1.6-0.7-2.9-0.7
		c-0.8,0-1.9,0.2-2.4,0.3c-0.2,0-0.3,0.2-0.3,0.3c0,0.1,0,0.1,0,0.3l0.2,0.8c0,0.2,0.2,0.3,0.4,0.3c0,0,0.1,0,0.3-0.1
		c0.2,0,0.9-0.2,1.7-0.2c0.8,0,1.2,0.2,1.5,0.4c0.2,0.2,0.3,0.3,0.4,0.5l-2.3,0.4c-2,0.3-2.7,1.5-2.7,2.6c0,1.3,0.9,2.6,3,2.6
		c1.1,0,2-0.3,2.6-0.8l1.1,0.6c0.3,0.2,0.4,0.2,0.5,0.2c0.2,0,0.3-0.1,0.3-0.4v-4.6C161.4,16.8,161,15.8,160.1,15.3L160.1,15.3z
		 M156.3,20.1c0-0.3,0.1-0.8,1.2-1.1l1.6-0.4v1.7c-0.6,0.4-1.1,0.6-1.6,0.6C156.7,21,156.3,20.7,156.3,20.1L156.3,20.1z M170.8,11.6
		h-1.5c-0.3,0-0.4,0.1-0.4,0.4v3.1c-0.5-0.4-1.2-0.6-2-0.6c-2,0-3.8,1.6-3.8,4.1c0,2.5,1.8,4.1,3.8,4.1c1.1,0,1.9-0.4,2.4-0.9
		l1.1,0.7c0.3,0.2,0.4,0.2,0.5,0.2c0.2,0,0.3-0.1,0.3-0.4V12C171.2,11.8,171.1,11.6,170.8,11.6L170.8,11.6z M167.3,20.7
		c-1,0-1.8-0.7-1.8-2.1c0-1.3,0.8-2.1,1.8-2.1c0.5,0,1.1,0.2,1.5,0.6v2.7C168.4,20.4,167.9,20.7,167.3,20.7L167.3,20.7z M179,15.3
		c-0.7-0.4-1.6-0.7-2.9-0.7c-0.8,0-1.9,0.2-2.4,0.3c-0.2,0-0.3,0.2-0.3,0.3c0,0.1,0,0.1,0,0.3l0.2,0.8c0,0.2,0.2,0.3,0.4,0.3
		c0,0,0.1,0,0.3-0.1c0.2,0,0.9-0.2,1.7-0.2c0.8,0,1.2,0.2,1.5,0.4c0.2,0.2,0.3,0.3,0.4,0.5l-2.3,0.4c-2,0.3-2.7,1.5-2.7,2.6
		c0,1.3,0.9,2.6,3,2.6c1.1,0,2-0.3,2.6-0.8l1.1,0.6c0.3,0.2,0.4,0.2,0.5,0.2c0.2,0,0.3-0.1,0.3-0.4v-4.6
		C180.2,16.8,179.8,15.8,179,15.3L179,15.3z M175.2,20.1c0-0.3,0.1-0.8,1.2-1.1l1.6-0.4v1.7c-0.6,0.4-1.1,0.6-1.6,0.6
		C175.6,21,175.2,20.7,175.2,20.1L175.2,20.1z M189.8,14.6c-0.1,0-0.2,0.1-0.4,0.1l-1.3,0.7c-0.6-0.5-1.3-0.9-2.4-0.9
		c-2,0-3.9,1.6-3.9,4.1c0,2.4,1.8,4.1,3.9,4.1c0.7,0,1.4-0.2,1.9-0.5v0.3c0,0.6-0.5,1.4-1.8,1.4c-1,0-1.7-0.3-2.1-0.5
		c-0.2-0.1-0.4-0.1-0.6,0.1l-0.6,0.9c-0.1,0.1-0.1,0.2-0.1,0.3c0,0.1,0.1,0.2,0.2,0.3c0.5,0.3,1.7,0.8,3.3,0.8
		c2.8,0,4.1-1.5,4.1-3.3V15C190.1,14.7,190,14.6,189.8,14.6L189.8,14.6z M186.2,20.8c-1,0-1.8-0.8-1.8-2.1c0-1.3,0.8-2.1,1.8-2.1
		c0.6,0,1.1,0.3,1.5,0.7v2.8C187.3,20.5,186.8,20.8,186.2,20.8L186.2,20.8z M200.2,18.7c0-2.6-1.9-4.1-4.2-4.1
		c-2.2,0-4.2,1.5-4.2,4.1s1.9,4.1,4.2,4.1C198.2,22.7,200.2,21.2,200.2,18.7L200.2,18.7z M196,20.7c-1,0-1.7-0.7-1.7-2
		c0-1.3,0.8-2,1.7-2c1,0,1.7,0.7,1.7,2C197.7,20,197,20.7,196,20.7L196,20.7z M209.6,14.6c-0.1,0-0.3,0.1-0.4,0.1l-1.3,0.7
		c-0.6-0.5-1.3-0.9-2.4-0.9c-2,0-3.9,1.6-3.9,4.1c0,2.4,1.8,4.1,3.9,4.1c0.7,0,1.4-0.2,1.9-0.5v0.3c0,0.6-0.5,1.4-1.8,1.4
		c-1,0-1.7-0.3-2.1-0.5c-0.2-0.1-0.4-0.1-0.6,0.1l-0.6,0.9c-0.1,0.1-0.1,0.2-0.1,0.3c0,0.1,0.1,0.2,0.2,0.3c0.5,0.3,1.7,0.8,3.3,0.8
		c2.8,0,4.1-1.5,4.1-3.3V15C209.8,14.7,209.7,14.6,209.6,14.6L209.6,14.6z M205.9,20.8c-1,0-1.8-0.8-1.8-2.1c0-1.3,0.8-2.1,1.8-2.1
		c0.6,0,1.1,0.3,1.5,0.7v2.8C207,20.5,206.5,20.8,205.9,20.8L205.9,20.8z M214.1,11.6h-1.6c-0.3,0-0.4,0.2-0.4,0.4v1.3
		c0,0.3,0.2,0.4,0.4,0.4h1.6c0.3,0,0.4-0.2,0.4-0.4V12C214.6,11.8,214.4,11.6,214.1,11.6L214.1,11.6z M214.1,14.8h-2.4
		c-0.3,0-0.4,0.1-0.4,0.3c0,0.1,0.1,0.3,0.2,0.5l0.5,0.9v5.8c0,0.3,0.2,0.4,0.4,0.4h1.6c0.3,0,0.4-0.2,0.4-0.4v-7
		C214.6,14.9,214.4,14.8,214.1,14.8L214.1,14.8z M219.3,14.6c-1.8,0-2.9,0.9-2.9,2.3c0,1.5,1.4,2.1,2.5,2.6c0.6,0.3,0.9,0.5,0.9,0.8
		c0,0.4-0.4,0.5-0.9,0.5c-0.6,0-1.1-0.3-1.4-0.5c-0.1-0.1-0.2-0.1-0.3-0.1c-0.1,0-0.2,0.1-0.3,0.2l-0.6,0.8
		c-0.1,0.1-0.1,0.2-0.1,0.3s0.1,0.2,0.2,0.3c0.6,0.5,1.6,0.8,2.8,0.8c1.7,0,3-0.7,3-2.4c0-1.1-0.8-1.9-1.8-2.3
		c-1.2-0.5-1.6-0.7-1.6-1.1c0-0.3,0.3-0.5,0.7-0.5c0.5,0,0.8,0.1,1.2,0.4c0.1,0.1,0.2,0.1,0.3,0.1c0.1,0,0.3-0.1,0.3-0.2l0.5-0.7
		c0.1-0.1,0.1-0.2,0.1-0.3c0-0.1-0.1-0.3-0.2-0.3C221.1,14.9,220.3,14.6,219.3,14.6L219.3,14.6z M227.4,14.6c-2.3,0-4.2,1.5-4.2,4.1
		c0,2.6,1.9,4.1,4.2,4.1c1.1,0,2.1-0.4,2.7-0.8c0.1-0.1,0.2-0.2,0.2-0.3c0-0.1,0-0.2-0.1-0.3l-0.8-1c-0.2-0.2-0.4-0.2-0.6-0.1
		c-0.3,0.2-0.8,0.4-1.4,0.4c-0.8,0-1.8-0.6-1.8-2c0-1.4,0.9-2,1.8-2c0.6,0,1.1,0.2,1.4,0.4c0.2,0.1,0.4,0.1,0.6-0.1l0.8-1
		c0.1-0.1,0.1-0.2,0.1-0.3c0-0.1,0-0.2-0.2-0.3C229.5,14.9,228.5,14.6,227.4,14.6L227.4,14.6z M236.3,14.6c-0.8,0-1.5,0.2-2.1,0.6
		V12c0-0.3-0.2-0.4-0.4-0.4h-1.6c-0.3,0-0.4,0.1-0.4,0.4v10.1c0,0.3,0.2,0.4,0.4,0.4h1.6c0.3,0,0.4-0.1,0.4-0.4v-4.7
		c0.4-0.5,1.1-0.7,1.6-0.7c0.8,0,1.2,0.5,1.2,1.2v4.2c0,0.3,0.2,0.4,0.4,0.4h1.6c0.3,0,0.4-0.2,0.4-0.4v-4.6
		C239.4,16,238.3,14.6,236.3,14.6L236.3,14.6z M245.2,14.6c-2.7,0-4,1.9-4,4.1c0,2.4,1.5,4.1,4.2,4.1c1.6,0,2.5-0.5,3-0.8
		c0.2-0.2,0.2-0.4,0.1-0.6l-0.6-0.8c-0.2-0.2-0.4-0.2-0.6-0.1c-0.3,0.2-0.9,0.5-1.7,0.5c-1.2,0-1.9-0.6-2-1.4h5.2
		c0.3,0,0.5-0.2,0.5-0.4v-0.4C249.1,16.5,247.7,14.6,245.2,14.6L245.2,14.6z M245.2,16.5c1.1,0,1.6,0.8,1.6,1.5h-3.3
		C243.5,17.3,244,16.5,245.2,16.5L245.2,16.5z M261.4,11.6h-6c-0.3,0-0.4,0.2-0.4,0.4v10.1c0,0.3,0.2,0.4,0.4,0.4h1.6
		c0.3,0,0.4-0.2,0.4-0.4v-3.9h3.2c0.3,0,0.4-0.2,0.4-0.4v-1.2c0-0.3-0.2-0.4-0.4-0.4h-3.2v-2.5h4c0.3,0,0.4-0.2,0.4-0.4V12
		C261.8,11.8,261.6,11.6,261.4,11.6L261.4,11.6z M268.1,15.3c-0.7-0.4-1.6-0.7-2.9-0.7c-0.8,0-1.9,0.2-2.4,0.3
		c-0.2,0-0.3,0.2-0.3,0.3c0,0.1,0,0.1,0,0.3l0.2,0.8c0,0.2,0.2,0.3,0.4,0.3c0,0,0.1,0,0.3-0.1c0.2,0,0.9-0.2,1.7-0.2
		c0.8,0,1.2,0.2,1.5,0.4c0.2,0.2,0.3,0.3,0.4,0.5l-2.3,0.4c-2,0.3-2.7,1.5-2.7,2.6c0,1.3,0.9,2.6,3,2.6c1.1,0,2-0.3,2.6-0.8l1.1,0.6
		c0.3,0.2,0.4,0.2,0.5,0.2c0.2,0,0.3-0.1,0.3-0.4v-4.6C269.3,16.8,268.9,15.8,268.1,15.3L268.1,15.3z M264.2,20.1
		c0-0.3,0.1-0.8,1.2-1.1l1.6-0.4v1.7c-0.6,0.4-1.1,0.6-1.6,0.6C264.7,21,264.2,20.7,264.2,20.1L264.2,20.1z M280.8,14.6
		c-1.1,0-2,0.4-2.7,1c-0.5-0.6-1.2-1-2.3-1c-1,0-1.9,0.4-2.5,0.9l-1.1-0.7c-0.3-0.2-0.4-0.2-0.5-0.2c-0.2,0-0.3,0.1-0.3,0.4v7.2
		c0,0.3,0.2,0.4,0.4,0.4h1.5c0.3,0,0.4-0.1,0.4-0.4v-4.7c0.4-0.5,1-0.7,1.5-0.7c0.7,0,1,0.5,1,1.2v4.2c0,0.3,0.2,0.4,0.4,0.4h1.5
		c0.3,0,0.4-0.2,0.4-0.4v-4.7c0.4-0.5,1-0.8,1.5-0.8c0.7,0,1,0.5,1,1.2v4.2c0,0.3,0.2,0.4,0.4,0.4h1.5c0.3,0,0.4-0.2,0.4-0.4v-4.6
		C283.7,16,282.6,14.6,280.8,14.6L280.8,14.6z M287.8,11.6h-1.6c-0.3,0-0.4,0.2-0.4,0.4v1.3c0,0.3,0.2,0.4,0.4,0.4h1.6
		c0.3,0,0.4-0.2,0.4-0.4V12C288.2,11.8,288.1,11.6,287.8,11.6L287.8,11.6z M287.8,14.8h-2.4c-0.3,0-0.4,0.1-0.4,0.3
		c0,0.1,0.1,0.3,0.2,0.5l0.5,0.9v5.8c0,0.3,0.2,0.4,0.4,0.4h1.6c0.3,0,0.4-0.2,0.4-0.4v-7C288.2,14.9,288.1,14.8,287.8,14.8
		L287.8,14.8z M292.3,11.6h-1.6c-0.3,0-0.4,0.2-0.4,0.4v8.4c0,1.7,1.2,2.3,2.4,2.3c0.8,0,1.4-0.2,1.9-0.5c0.1-0.1,0.2-0.2,0.2-0.3
		c0-0.1,0-0.2-0.1-0.2l-0.4-0.9c-0.1-0.2-0.2-0.2-0.3-0.2c-0.2,0-0.3,0.1-0.6,0.1c-0.3,0-0.6-0.2-0.6-0.7V12
		C292.8,11.8,292.6,11.6,292.3,11.6L292.3,11.6z M298,11.6h-1.6c-0.3,0-0.4,0.2-0.4,0.4v1.3c0,0.3,0.2,0.4,0.4,0.4h1.6
		c0.3,0,0.4-0.2,0.4-0.4V12C298.4,11.8,298.2,11.6,298,11.6L298,11.6z M298,14.8h-2.4c-0.3,0-0.4,0.1-0.4,0.3c0,0.1,0.1,0.3,0.2,0.5
		l0.5,0.9v5.8c0,0.3,0.2,0.4,0.4,0.4h1.6c0.3,0,0.4-0.2,0.4-0.4v-7C298.4,14.9,298.2,14.8,298,14.8L298,14.8z M304.2,14.6
		c-2.7,0-4,1.9-4,4.1c0,2.4,1.5,4.1,4.2,4.1c1.6,0,2.5-0.5,3-0.8c0.2-0.2,0.2-0.4,0.1-0.6l-0.6-0.8c-0.2-0.2-0.4-0.2-0.6-0.1
		c-0.3,0.2-0.9,0.5-1.7,0.5c-1.2,0-1.9-0.6-2-1.4h5.2c0.3,0,0.5-0.2,0.5-0.4v-0.4C308.1,16.5,306.7,14.6,304.2,14.6L304.2,14.6z
		 M304.2,16.5c1.1,0,1.6,0.8,1.6,1.5h-3.3C302.5,17.3,303,16.5,304.2,16.5L304.2,16.5z M314.4,14.6c-1,0-1.9,0.4-2.6,0.9l-1.1-0.7
		c-0.3-0.2-0.4-0.2-0.5-0.2c-0.2,0-0.3,0.1-0.3,0.4v7.2c0,0.3,0.2,0.4,0.4,0.4h1.6c0.3,0,0.4-0.1,0.4-0.4v-4.7
		c0.4-0.5,1.1-0.7,1.6-0.7c0.8,0,1.2,0.5,1.2,1.2v4.2c0,0.3,0.2,0.4,0.4,0.4h1.6c0.3,0,0.4-0.2,0.4-0.4v-4.6
		C317.5,16,316.4,14.6,314.4,14.6L314.4,14.6z M323.9,14.6c-0.8,0-1.4,0.2-2,0.6V12c0-0.3-0.1-0.4-0.4-0.4H320
		c-0.3,0-0.4,0.2-0.4,0.4v10.3c0,0.3,0.1,0.4,0.3,0.4c0.1,0,0.3-0.1,0.5-0.2l1.1-0.7c0.5,0.5,1.3,0.9,2.4,0.9c2,0,3.8-1.6,3.8-4.1
		C327.7,16.2,326,14.6,323.9,14.6L323.9,14.6z M323.5,20.7c-0.6,0-1.2-0.4-1.5-0.8v-2.7c0.4-0.4,1-0.7,1.5-0.7c1,0,1.8,0.7,1.8,2.1
		C325.3,20,324.5,20.7,323.5,20.7L323.5,20.7z M333.1,14.6c-2.7,0-4,1.9-4,4.1c0,2.4,1.5,4.1,4.2,4.1c1.6,0,2.5-0.5,3-0.8
		c0.2-0.2,0.2-0.4,0.1-0.6l-0.6-0.8c-0.2-0.2-0.4-0.2-0.6-0.1c-0.3,0.2-0.9,0.5-1.7,0.5c-1.2,0-1.9-0.6-2-1.4h5.2
		c0.3,0,0.5-0.2,0.5-0.4v-0.4C337.1,16.5,335.7,14.6,333.1,14.6L333.1,14.6z M333.1,16.5c1.1,0,1.6,0.8,1.6,1.5h-3.3
		C331.5,17.3,332,16.5,333.1,16.5L333.1,16.5z M346.4,14.6c-0.1,0-0.3,0.1-0.4,0.1l-1.3,0.7c-0.6-0.5-1.3-0.9-2.4-0.9
		c-2.1,0-3.9,1.6-3.9,4.1c0,2.4,1.8,4.1,3.9,4.1c0.7,0,1.4-0.2,1.9-0.5v0.3c0,0.6-0.5,1.4-1.8,1.4c-1,0-1.7-0.3-2.1-0.5
		c-0.2-0.1-0.4-0.1-0.6,0.1l-0.6,0.9c-0.1,0.1-0.1,0.2-0.1,0.3c0,0.1,0.1,0.2,0.2,0.3c0.5,0.3,1.7,0.8,3.3,0.8
		c2.8,0,4.1-1.5,4.1-3.3V15C346.7,14.7,346.6,14.6,346.4,14.6L346.4,14.6z M342.8,20.8c-1,0-1.8-0.8-1.8-2.1c0-1.3,0.8-2.1,1.8-2.1
		c0.6,0,1.1,0.3,1.5,0.7v2.8C343.9,20.5,343.4,20.8,342.8,20.8L342.8,20.8z M350.8,11.6h-1.6c-0.3,0-0.4,0.2-0.4,0.4v8.4
		c0,1.7,1.2,2.3,2.4,2.3c0.8,0,1.4-0.2,1.9-0.5c0.1-0.1,0.2-0.2,0.2-0.3c0-0.1,0-0.2-0.1-0.2l-0.4-0.9c-0.1-0.2-0.2-0.2-0.3-0.2
		c-0.2,0-0.3,0.1-0.6,0.1c-0.3,0-0.6-0.2-0.6-0.7V12C351.2,11.8,351.1,11.6,350.8,11.6L350.8,11.6z M357.9,14.6c-2.7,0-4,1.9-4,4.1
		c0,2.4,1.5,4.1,4.2,4.1c1.6,0,2.5-0.5,3-0.8c0.2-0.2,0.2-0.4,0.1-0.6l-0.6-0.8c-0.2-0.2-0.4-0.2-0.6-0.1c-0.3,0.2-0.9,0.5-1.7,0.5
		c-1.2,0-1.9-0.6-2-1.4h5.2c0.3,0,0.5-0.2,0.5-0.4v-0.4C361.9,16.5,360.5,14.6,357.9,14.6L357.9,14.6z M357.9,16.5
		c1.1,0,1.6,0.8,1.6,1.5h-3.3C356.3,17.3,356.8,16.5,357.9,16.5L357.9,16.5z M365.7,11.6H364c-0.3,0-0.4,0.2-0.4,0.4v1.3
		c0,0.3,0.2,0.4,0.4,0.4h1.6c0.3,0,0.4-0.2,0.4-0.4V12C366.1,11.8,365.9,11.6,365.7,11.6L365.7,11.6z M365.7,14.8h-2.4
		c-0.3,0-0.4,0.1-0.4,0.3c0,0.1,0.1,0.3,0.2,0.5l0.5,0.9v5.8c0,0.3,0.2,0.4,0.4,0.4h1.6c0.3,0,0.4-0.2,0.4-0.4v-7
		C366.1,14.9,365.9,14.8,365.7,14.8L365.7,14.8z M372.8,20.8c-0.1-0.2-0.3-0.2-0.5-0.2c-0.2,0-0.3,0.1-0.6,0.1
		c-0.4,0-0.7-0.2-0.7-0.7v-3.3h1.1c0.2,0,0.4-0.1,0.5-0.3l0.5-0.8c0.1-0.2,0.2-0.4,0.2-0.5c0-0.2-0.1-0.3-0.4-0.3H371v-1.4
		c0-0.3-0.2-0.4-0.4-0.4h-1.5c-0.3,0-0.4,0.2-0.4,0.4v1.4h-0.7c-0.3,0-0.4,0.2-0.4,0.4v1c0,0.3,0.2,0.4,0.4,0.4h0.7v3.8
		c0,1.7,1.2,2.3,2.4,2.3c0.8,0,1.5-0.2,2-0.5c0.2-0.1,0.3-0.2,0.3-0.3c0-0.1,0-0.2-0.1-0.3L372.8,20.8L372.8,20.8z M381.5,14.8h-1.6
		c-0.3,0-0.4,0.1-0.4,0.4v4.8c-0.4,0.4-1,0.7-1.5,0.7c-0.8,0-1.1-0.5-1.1-1.1v-4.3c0-0.3-0.2-0.4-0.4-0.4h-1.6
		c-0.3,0-0.4,0.2-0.4,0.4v4.6c0,1.6,1.1,2.9,3.1,3c1,0,1.8-0.3,2.5-0.9l1.1,0.6c0.3,0.2,0.4,0.2,0.5,0.2c0.2,0,0.3-0.1,0.3-0.4v-7.2
		C381.9,14.9,381.8,14.8,381.5,14.8L381.5,14.8z M388.5,14.6c-1,0-1.9,0.4-2.6,0.9l-1.1-0.7c-0.3-0.2-0.4-0.2-0.5-0.2
		c-0.2,0-0.3,0.1-0.3,0.4v7.2c0,0.3,0.2,0.4,0.4,0.4h1.6c0.3,0,0.4-0.1,0.4-0.4v-4.7c0.4-0.5,1.1-0.7,1.6-0.7c0.8,0,1.2,0.5,1.2,1.2
		v4.2c0,0.3,0.2,0.4,0.4,0.4h1.6c0.3,0,0.4-0.2,0.4-0.4v-4.6C391.6,16,390.5,14.6,388.5,14.6L388.5,14.6z M401.2,14.6
		c-0.1,0-0.2,0.1-0.4,0.1l-1.3,0.7c-0.6-0.5-1.3-0.9-2.4-0.9c-2,0-3.9,1.6-3.9,4.1c0,2.4,1.8,4.1,3.9,4.1c0.7,0,1.4-0.2,1.9-0.5v0.3
		c0,0.6-0.5,1.4-1.8,1.4c-1,0-1.7-0.3-2.1-0.5c-0.2-0.1-0.4-0.1-0.6,0.1l-0.6,0.9c-0.1,0.1-0.1,0.2-0.1,0.3c0,0.1,0.1,0.2,0.2,0.3
		c0.5,0.3,1.7,0.8,3.3,0.8c2.8,0,4.1-1.5,4.1-3.3V15C401.5,14.7,401.4,14.6,401.2,14.6L401.2,14.6z M397.6,20.8
		c-1,0-1.8-0.8-1.8-2.1c0-1.3,0.8-2.1,1.8-2.1c0.6,0,1.1,0.3,1.5,0.7v2.8C398.7,20.5,398.2,20.8,397.6,20.8L397.6,20.8z"/>
</g>
<g id="Ebene_2" class="st2">
	
		<rect x="85" y="25" transform="matrix(2.422970e-04 -1 1 2.422970e-04 62.3768 123.4235)" class="st3" width="15.7" height="11.1"/>
</g>
</svg>
