<?xml version="1.0" standalone="no"?>
<!DOCTYPE svg PUBLIC "-//W3C//DTD SVG 1.1//EN" "http://www.w3.org/Graphics/SVG/1.1/DTD/svg11.dtd">
<!--Generator: Xara Designer (www.xara.com), SVG filter version: 6.6.0.8-->
<svg fill="none" fill-rule="evenodd" stroke="black" stroke-width="0.501" stroke-linejoin="bevel" stroke-miterlimit="10" font-family="Times New Roman" font-size="16" style="font-variant-ligatures:none" xmlns:xlink="http://www.w3.org/1999/xlink" xmlns="http://www.w3.org/2000/svg" version="1.1" overflow="visible" width="553.136pt" height="48.342pt" viewBox="17.63 -62.559 553.136 48.342">
 <defs>
	</defs>
 <g id="Layer 1" transform="scale(1 -1)">
  <g id="Group" fill-rule="nonzero" stroke-linejoin="miter" stroke="none" stroke-width="1.422">
   <path d="M 35.118,62.559 C 26.587,62.559 19.478,57.867 19.478,49.194 C 19.478,34.834 39.099,35.118 39.099,27.867 C 39.099,25.45 37.251,23.459 32.843,23.459 C 28.578,23.459 26.018,25.023 23.886,26.587 C 23.033,27.156 22.18,27.44 21.327,26.303 L 18.056,21.611 C 17.772,21.184 17.63,20.758 17.63,20.331 C 17.63,19.905 17.772,19.478 18.199,19.052 C 19.905,17.345 24.739,14.217 32.985,14.217 C 43.507,14.217 50.189,19.336 50.189,28.293 C 50.189,43.08 29.999,42.511 29.999,49.905 C 29.999,52.037 31.848,53.886 35.26,53.886 C 38.246,53.886 40.094,52.748 41.516,51.753 C 42.654,51.042 43.649,51.326 44.075,51.895 L 47.061,56.161 C 47.345,56.587 47.488,57.014 47.488,57.44 C 47.488,57.725 47.488,58.151 46.919,58.72 C 45.639,60.142 41.232,62.559 35.118,62.559 L 35.118,62.559 Z M 72.938,61.848 L 58.009,61.848 C 56.872,61.848 56.161,61.137 56.161,59.999 L 56.161,16.492 C 56.161,15.355 56.872,14.644 58.009,14.644 L 64.834,14.644 C 65.971,14.644 66.682,15.355 66.682,16.492 L 66.682,30.284 L 72.938,30.284 C 81.753,30.284 88.862,36.824 88.862,46.066 C 88.862,55.308 81.753,61.848 72.938,61.848 L 72.938,61.848 Z M 71.8,39.668 L 66.682,39.668 L 66.682,52.464 L 71.8,52.464 C 75.355,52.464 78.625,50.047 78.625,46.066 C 78.483,42.085 75.213,39.668 71.8,39.668 L 71.8,39.668 Z M 122.274,61.848 L 96.255,61.848 C 95.118,61.848 94.407,61.137 94.407,59.999 L 94.407,16.492 C 94.407,15.355 95.118,14.644 96.255,14.644 L 103.08,14.644 C 104.218,14.644 104.928,15.355 104.928,16.492 L 104.928,33.127 L 118.862,33.127 C 120,33.127 120.71,33.838 120.71,34.976 L 120.71,40.236 C 120.71,41.374 120,42.085 118.862,42.085 L 104.928,42.085 L 104.928,52.748 L 122.274,52.748 C 123.412,52.748 124.123,53.459 124.123,54.597 L 124.123,59.857 C 124.123,61.279 123.412,61.848 122.274,61.848 L 122.274,61.848 Z" fill="#f26253" marker-start="none" marker-end="none"/>
   <path d="M 150,30.284 L 141.469,30.284 C 141.042,30.284 140.9,29.999 140.9,29.715 L 140.9,15.355 C 140.9,14.928 141.184,14.786 141.469,14.786 L 143.744,14.786 C 144.17,14.786 144.312,15.071 144.312,15.355 L 144.312,20.9 L 148.862,20.9 C 149.289,20.9 149.431,21.184 149.431,21.469 L 149.431,23.175 C 149.431,23.601 149.146,23.744 148.862,23.744 L 144.312,23.744 L 144.312,27.298 L 150,27.298 C 150.426,27.298 150.568,27.582 150.568,27.867 L 150.568,29.573 C 150.71,29.999 150.426,30.284 150,30.284 L 150,30.284 Z M 159.668,25.165 C 158.673,25.734 157.393,26.161 155.545,26.161 C 154.407,26.161 152.843,25.876 152.132,25.734 C 151.848,25.734 151.706,25.45 151.706,25.308 C 151.706,25.165 151.706,25.165 151.706,24.881 L 151.99,23.744 C 151.99,23.459 152.274,23.317 152.559,23.317 C 152.559,23.317 152.701,23.317 152.985,23.459 C 153.27,23.459 154.265,23.744 155.402,23.744 C 156.54,23.744 157.109,23.459 157.535,23.175 C 157.819,22.89 157.962,22.748 158.104,22.464 L 154.834,21.895 C 151.99,21.469 150.995,19.762 150.995,18.199 C 150.995,16.35 152.274,14.502 155.26,14.502 C 156.824,14.502 158.104,14.928 158.957,15.639 L 160.521,14.786 C 160.947,14.502 161.09,14.502 161.232,14.502 C 161.516,14.502 161.658,14.644 161.658,15.071 L 161.658,21.611 C 161.374,22.89 160.805,24.312 159.668,25.165 L 159.668,25.165 Z M 154.123,18.198 C 154.123,18.625 154.265,19.336 155.829,19.762 L 158.104,20.331 L 158.104,17.914 C 157.251,17.345 156.54,17.061 155.829,17.061 C 154.834,16.919 154.123,17.488 154.123,18.198 L 154.123,18.198 Z M 169.763,26.018 C 166.492,26.018 163.791,23.886 163.791,20.189 C 163.791,16.492 166.492,14.36 169.763,14.36 C 171.327,14.36 172.606,14.928 173.601,15.497 C 173.744,15.639 173.886,15.781 173.886,15.924 C 173.886,16.066 173.886,16.208 173.744,16.35 L 172.606,17.772 C 172.322,18.056 172.037,18.056 171.753,17.914 C 171.327,17.63 170.616,17.345 169.763,17.345 C 168.625,17.345 167.203,18.198 167.203,20.189 C 167.203,22.18 168.483,23.033 169.763,23.033 C 170.616,23.033 171.327,22.748 171.753,22.464 C 172.037,22.322 172.322,22.322 172.606,22.606 L 173.744,24.028 C 173.886,24.17 173.886,24.312 173.886,24.454 C 173.886,24.597 173.886,24.739 173.601,24.881 C 172.606,25.592 171.327,26.018 169.763,26.018 L 169.763,26.018 Z M 182.417,26.018 C 181.279,26.018 180.284,25.734 179.431,25.165 L 179.431,29.573 C 179.431,29.999 179.146,30.142 178.862,30.142 L 176.587,30.142 C 176.161,30.142 176.018,29.999 176.018,29.573 L 176.018,15.213 C 176.018,14.786 176.303,14.644 176.587,14.644 L 178.862,14.644 C 179.289,14.644 179.431,14.786 179.431,15.213 L 179.431,21.895 C 180,22.606 180.995,22.89 181.706,22.89 C 182.843,22.89 183.412,22.18 183.412,21.184 L 183.412,15.213 C 183.412,14.786 183.696,14.644 183.981,14.644 L 186.255,14.644 C 186.682,14.644 186.824,14.928 186.824,15.213 L 186.824,21.753 C 186.824,24.17 185.26,26.018 182.417,26.018 L 182.417,26.018 Z M 190.947,25.876 L 188.53,25.876 C 188.104,25.876 187.962,25.734 187.962,25.45 C 187.962,25.308 187.962,25.165 188.104,25.023 L 193.08,14.928 C 193.222,14.644 193.507,14.502 193.649,14.502 C 193.933,14.502 194.075,14.644 194.218,14.928 L 199.194,25.023 C 199.336,25.165 199.336,25.308 199.336,25.45 C 199.336,25.592 199.194,25.876 198.767,25.876 L 196.35,25.876 C 196.066,25.876 195.782,25.734 195.639,25.45 L 193.507,20.047 L 191.374,25.45 C 191.374,25.734 191.232,25.876 190.947,25.876 L 190.947,25.876 Z M 205.734,26.018 C 201.895,26.018 200.047,23.317 200.047,20.189 C 200.047,16.777 202.18,14.36 206.018,14.36 C 208.293,14.36 209.573,15.071 210.284,15.497 C 210.568,15.781 210.568,16.066 210.426,16.35 L 209.573,17.488 C 209.289,17.772 209.004,17.772 208.72,17.63 C 208.293,17.345 207.44,16.919 206.303,16.919 C 204.597,16.919 203.601,17.772 203.459,18.909 L 210.853,18.909 C 211.279,18.909 211.563,19.194 211.563,19.478 L 211.563,20.047 C 211.421,23.317 209.431,26.018 205.734,26.018 L 205.734,26.018 Z M 205.734,23.459 C 207.298,23.459 208.009,22.322 208.009,21.326 L 203.317,21.326 C 203.459,22.18 204.17,23.459 205.734,23.459 L 205.734,23.459 Z M 221.658,25.734 C 221.232,26.018 220.663,26.161 220.094,26.161 C 218.815,26.161 217.677,25.592 216.824,24.881 L 215.118,25.876 C 214.691,26.161 214.549,26.161 214.407,26.161 C 214.123,26.161 213.981,26.018 213.981,25.592 L 213.981,15.355 C 213.981,14.928 214.265,14.786 214.549,14.786 L 216.824,14.786 C 217.251,14.786 217.393,14.928 217.393,15.355 L 217.393,22.18 C 217.962,22.748 218.815,22.89 219.099,22.89 C 219.383,22.89 219.81,22.89 219.952,22.748 C 220.236,22.606 220.521,22.606 220.805,22.89 L 221.943,24.739 C 221.943,24.881 222.085,25.023 222.085,25.165 C 221.943,25.308 221.8,25.592 221.658,25.734 L 221.658,25.734 Z M 229.62,26.018 C 228.483,26.018 227.63,25.734 226.777,25.165 L 226.777,29.573 C 226.777,29.999 226.635,30.142 226.208,30.142 L 224.075,30.142 C 223.649,30.142 223.507,29.857 223.507,29.573 L 223.507,14.928 C 223.507,14.502 223.649,14.36 223.933,14.36 C 224.075,14.36 224.36,14.502 224.644,14.644 L 226.208,15.639 C 226.919,14.928 228.056,14.36 229.62,14.36 C 232.464,14.36 235.023,16.635 235.023,20.189 C 235.023,23.744 232.606,26.018 229.62,26.018 L 229.62,26.018 Z M 229.052,17.345 C 228.199,17.345 227.345,17.914 226.919,18.483 L 226.919,22.322 C 227.488,22.89 228.341,23.317 229.052,23.317 C 230.473,23.317 231.611,22.322 231.611,20.331 C 231.611,18.341 230.331,17.345 229.052,17.345 L 229.052,17.345 Z M 245.545,25.165 C 244.549,25.734 243.27,26.161 241.421,26.161 C 240.284,26.161 238.72,25.876 238.009,25.734 C 237.725,25.734 237.582,25.45 237.582,25.308 C 237.582,25.165 237.582,25.165 237.582,24.881 L 237.867,23.744 C 237.867,23.459 238.151,23.317 238.436,23.317 C 238.436,23.317 238.578,23.317 238.862,23.459 C 239.146,23.459 240.142,23.744 241.279,23.744 C 242.417,23.744 242.985,23.459 243.412,23.175 C 243.696,22.89 243.838,22.748 243.981,22.464 L 240.71,21.895 C 237.867,21.469 236.872,19.762 236.872,18.199 C 236.872,16.35 238.151,14.502 241.137,14.502 C 242.701,14.502 243.981,14.928 244.834,15.639 L 246.398,14.786 C 246.824,14.502 246.966,14.502 247.109,14.502 C 247.393,14.502 247.535,14.644 247.535,15.071 L 247.535,21.611 C 247.393,22.89 246.824,24.312 245.545,25.165 L 245.545,25.165 Z M 240.142,18.198 C 240.142,18.625 240.284,19.336 241.848,19.762 L 244.123,20.331 L 244.123,17.914 C 243.27,17.345 242.559,17.061 241.848,17.061 C 240.853,16.919 240.142,17.488 240.142,18.198 L 240.142,18.198 Z M 256.777,26.018 C 255.355,26.018 254.075,25.45 253.08,24.739 L 251.516,25.734 C 251.09,26.018 250.947,26.018 250.805,26.018 C 250.521,26.018 250.379,25.876 250.379,25.45 L 250.379,15.213 C 250.379,14.786 250.663,14.644 250.947,14.644 L 253.222,14.644 C 253.649,14.644 253.791,14.786 253.791,15.213 L 253.791,21.895 C 254.36,22.606 255.355,22.89 256.066,22.89 C 257.203,22.89 257.772,22.18 257.772,21.184 L 257.772,15.213 C 257.772,14.786 258.056,14.644 258.341,14.644 L 260.616,14.644 C 261.042,14.644 261.184,14.928 261.184,15.213 L 261.184,21.753 C 261.184,24.17 259.62,26.018 256.777,26.018 L 256.777,26.018 Z M 274.549,30.284 L 272.417,30.284 C 271.99,30.284 271.848,30.142 271.848,29.715 L 271.848,25.308 C 271.137,25.876 270.142,26.161 269.004,26.161 C 266.161,26.161 263.601,23.886 263.601,20.331 C 263.601,16.777 266.161,14.502 269.004,14.502 C 270.568,14.502 271.706,15.071 272.417,15.781 L 273.981,14.786 C 274.407,14.502 274.549,14.502 274.691,14.502 C 274.976,14.502 275.118,14.644 275.118,15.071 L 275.118,29.715 C 275.26,29.999 274.976,30.284 274.549,30.284 L 274.549,30.284 Z M 269.715,17.345 C 268.293,17.345 267.156,18.341 267.156,20.331 C 267.156,22.18 268.293,23.317 269.715,23.317 C 270.426,23.317 271.279,23.033 271.848,22.464 L 271.848,18.483 C 271.279,17.772 270.568,17.345 269.715,17.345 L 269.715,17.345 Z M 288.909,30.426 C 286.066,30.426 283.791,28.862 283.791,26.018 C 283.791,21.326 290.331,21.326 290.331,19.052 C 290.331,18.199 289.763,17.63 288.341,17.63 C 286.919,17.63 286.066,18.199 285.355,18.625 C 285.071,18.767 284.786,18.909 284.502,18.483 L 283.364,16.919 C 283.222,16.777 283.222,16.635 283.222,16.492 C 283.222,16.35 283.222,16.208 283.364,16.066 C 283.933,15.497 285.497,14.502 288.199,14.502 C 291.753,14.502 293.886,16.208 293.886,19.194 C 293.886,24.028 287.203,23.886 287.203,26.303 C 287.203,27.014 287.772,27.582 288.909,27.582 C 289.905,27.582 290.473,27.156 290.9,26.871 C 291.326,26.587 291.611,26.729 291.753,26.871 L 292.748,28.293 C 292.89,28.435 292.89,28.578 292.89,28.72 C 292.89,28.862 292.89,29.004 292.748,29.146 C 292.322,29.715 290.9,30.426 288.909,30.426 L 288.909,30.426 Z M 301.848,26.018 C 298.578,26.018 295.876,23.886 295.876,20.189 C 295.876,16.492 298.578,14.36 301.848,14.36 C 303.412,14.36 304.691,14.928 305.687,15.497 C 305.829,15.639 305.971,15.781 305.971,15.924 C 305.971,16.066 305.971,16.208 305.829,16.35 L 304.691,17.772 C 304.407,18.056 304.123,18.056 303.838,17.914 C 303.412,17.63 302.701,17.345 301.848,17.345 C 300.71,17.345 299.289,18.198 299.289,20.189 C 299.289,22.18 300.568,23.033 301.848,23.033 C 302.701,23.033 303.412,22.748 303.838,22.464 C 304.123,22.322 304.407,22.322 304.691,22.606 L 305.829,24.028 C 305.971,24.17 305.971,24.312 305.971,24.454 C 305.971,24.597 305.971,24.739 305.687,24.881 C 304.691,25.592 303.412,26.018 301.848,26.018 L 301.848,26.018 Z M 314.502,26.018 C 313.364,26.018 312.369,25.734 311.516,25.165 L 311.516,29.573 C 311.516,29.999 311.232,30.142 310.947,30.142 L 308.672,30.142 C 308.246,30.142 308.104,29.999 308.104,29.573 L 308.104,15.213 C 308.104,14.786 308.388,14.644 308.672,14.644 L 310.947,14.644 C 311.374,14.644 311.516,14.786 311.516,15.213 L 311.516,21.895 C 312.085,22.606 313.08,22.89 313.791,22.89 C 314.928,22.89 315.497,22.18 315.497,21.184 L 315.497,15.213 C 315.497,14.786 315.781,14.644 316.066,14.644 L 318.341,14.644 C 318.767,14.644 318.909,14.928 318.909,15.213 L 318.909,21.753 C 318.909,24.17 317.345,26.018 314.502,26.018 L 314.502,26.018 Z M 320.473,25.876 C 320.047,25.876 319.905,25.592 319.905,25.45 C 319.905,25.308 319.905,25.165 320.047,24.881 L 324.597,14.928 C 324.739,14.644 324.881,14.502 325.165,14.502 C 325.45,14.502 325.592,14.644 325.734,14.928 L 328.293,20.189 L 330.853,14.928 C 330.995,14.644 331.137,14.502 331.421,14.502 C 331.706,14.502 331.848,14.644 331.99,14.928 L 336.54,24.881 C 336.54,25.023 336.682,25.308 336.682,25.45 C 336.682,25.592 336.54,25.876 336.113,25.876 L 333.981,25.876 C 333.696,25.876 333.412,25.734 333.27,25.45 L 331.137,20.189 L 328.72,25.592 C 328.578,25.876 328.436,26.018 328.151,26.018 C 328.009,26.018 327.725,25.876 327.582,25.592 L 325.165,20.189 L 323.033,25.45 C 322.891,25.734 322.748,25.876 322.322,25.876 L 320.473,25.876 L 320.473,25.876 Z M 343.222,26.018 C 339.383,26.018 337.535,23.317 337.535,20.189 C 337.535,16.777 339.668,14.36 343.507,14.36 C 345.782,14.36 347.061,15.071 347.772,15.497 C 348.056,15.781 348.056,16.066 347.914,16.35 L 347.061,17.488 C 346.777,17.772 346.492,17.772 346.208,17.63 C 345.781,17.345 344.928,16.919 343.791,16.919 C 342.085,16.919 341.09,17.772 340.947,18.909 L 348.341,18.909 C 348.767,18.909 349.052,19.194 349.052,19.478 L 349.052,20.047 C 348.767,23.317 346.777,26.018 343.222,26.018 L 343.222,26.018 Z M 343.222,23.459 C 344.786,23.459 345.497,22.322 345.497,21.326 L 340.805,21.326 C 340.805,22.18 341.516,23.459 343.222,23.459 L 343.222,23.459 Z M 354.17,30.284 L 351.895,30.284 C 351.469,30.284 351.327,29.999 351.327,29.715 L 351.327,27.867 C 351.327,27.44 351.611,27.298 351.895,27.298 L 354.17,27.298 C 354.597,27.298 354.739,27.582 354.739,27.867 L 354.739,29.715 C 354.739,29.999 354.597,30.284 354.17,30.284 L 354.17,30.284 Z M 354.17,25.876 L 350.758,25.876 C 350.331,25.876 350.189,25.734 350.189,25.45 C 350.189,25.308 350.331,25.023 350.473,24.739 L 351.184,23.459 L 351.184,15.213 C 351.184,14.786 351.469,14.644 351.753,14.644 L 354.028,14.644 C 354.455,14.644 354.597,14.928 354.597,15.213 L 354.597,25.165 C 354.739,25.592 354.597,25.876 354.17,25.876 L 354.17,25.876 Z M 357.725,25.876 C 357.298,25.876 357.156,25.592 357.156,25.308 L 357.156,23.886 C 357.156,23.459 357.44,23.317 357.725,23.317 L 361.848,23.317 L 357.014,15.781 C 356.872,15.639 356.872,15.497 356.872,15.355 C 356.872,15.071 357.156,14.786 357.44,14.786 L 366.255,14.786 C 366.682,14.786 366.824,15.071 366.824,15.355 L 366.824,16.777 C 366.824,17.203 366.54,17.345 366.255,17.345 L 361.706,17.345 L 366.398,24.739 C 366.54,24.881 366.54,25.023 366.54,25.165 C 366.54,25.45 366.255,25.734 365.971,25.734 L 357.725,25.734 L 357.725,25.876 Z" fill="#696b59" marker-start="none" marker-end="none"/>
   <path d="M 145.734,61.848 C 142.891,61.848 140.616,60.284 140.616,57.44 C 140.616,52.748 147.156,52.748 147.156,50.473 C 147.156,49.62 146.587,49.052 145.165,49.052 C 143.744,49.052 142.891,49.62 142.18,50.047 C 141.895,50.189 141.611,50.331 141.327,49.905 L 140.189,48.341 C 140.047,48.199 140.047,48.056 140.047,47.914 C 140.047,47.772 140.047,47.63 140.189,47.488 C 140.758,46.919 142.322,45.924 145.023,45.924 C 148.578,45.924 150.71,47.63 150.71,50.616 C 150.71,55.45 144.028,55.308 144.028,57.725 C 144.028,58.435 144.597,59.004 145.734,59.004 C 146.729,59.004 147.298,58.578 147.725,58.293 C 148.151,58.009 148.436,58.151 148.578,58.293 L 149.573,59.715 C 149.715,59.857 149.715,59.999 149.715,60.142 C 149.715,60.284 149.715,60.426 149.573,60.568 C 149.146,61.137 147.725,61.848 145.734,61.848 L 145.734,61.848 Z M 164.502,51.611 C 164.502,55.308 161.8,57.44 158.53,57.44 C 155.402,57.44 152.559,55.308 152.559,51.611 C 152.559,47.914 155.26,45.781 158.53,45.781 C 161.8,45.924 164.502,48.056 164.502,51.611 L 164.502,51.611 Z M 158.672,48.767 C 157.251,48.767 156.255,49.762 156.255,51.611 C 156.255,53.459 157.393,54.454 158.672,54.454 C 160.094,54.454 161.09,53.459 161.09,51.611 C 161.09,49.762 159.952,48.767 158.672,48.767 L 158.672,48.767 Z M 166.777,57.156 C 166.35,57.156 166.208,56.871 166.208,56.587 L 166.208,55.165 C 166.208,54.739 166.492,54.597 166.777,54.597 L 170.9,54.597 L 166.066,47.061 C 165.924,46.919 165.924,46.777 165.924,46.635 C 165.924,46.35 166.208,46.066 166.492,46.066 L 175.308,46.066 C 175.734,46.066 175.876,46.35 175.876,46.635 L 175.876,48.056 C 175.876,48.483 175.592,48.625 175.308,48.625 L 170.758,48.625 L 175.45,56.018 C 175.592,56.161 175.592,56.303 175.592,56.445 C 175.592,56.729 175.308,57.014 175.023,57.014 L 166.777,57.014 L 166.777,57.156 Z M 180.995,61.706 L 178.72,61.706 C 178.293,61.706 178.151,61.421 178.151,61.137 L 178.151,59.289 C 178.151,58.862 178.436,58.72 178.72,58.72 L 180.995,58.72 C 181.421,58.72 181.563,59.004 181.563,59.289 L 181.563,61.137 C 181.563,61.421 181.421,61.706 180.995,61.706 L 180.995,61.706 Z M 180.995,57.156 L 177.582,57.156 C 177.156,57.156 177.014,57.014 177.014,56.729 C 177.014,56.587 177.156,56.303 177.298,56.018 L 178.009,54.739 L 178.009,46.492 C 178.009,46.066 178.293,45.924 178.578,45.924 L 180.853,45.924 C 181.279,45.924 181.421,46.208 181.421,46.492 L 181.421,56.445 C 181.563,57.014 181.421,57.156 180.995,57.156 L 180.995,57.156 Z M 192.511,56.445 C 191.516,57.014 190.236,57.44 188.388,57.44 C 187.251,57.44 185.687,57.156 184.976,57.014 C 184.691,57.014 184.549,56.729 184.549,56.587 C 184.549,56.445 184.549,56.445 184.549,56.161 L 184.834,55.023 C 184.834,54.739 185.118,54.597 185.402,54.597 C 185.402,54.597 185.545,54.597 185.829,54.739 C 186.113,54.739 187.108,55.023 188.246,55.023 C 189.383,55.023 189.952,54.739 190.379,54.454 C 190.663,54.17 190.805,54.028 190.947,53.744 L 187.677,53.175 C 184.834,52.748 183.838,51.042 183.838,49.478 C 183.838,47.63 185.118,45.781 188.104,45.781 C 189.668,45.781 190.947,46.208 191.8,46.919 L 193.364,46.066 C 193.791,45.781 193.933,45.781 194.075,45.781 C 194.36,45.781 194.36,45.924 194.36,46.35 L 194.36,52.89 C 194.36,54.312 193.791,55.734 192.511,56.445 L 192.511,56.445 Z M 187.109,49.62 C 187.109,50.047 187.251,50.758 188.815,51.184 L 191.09,51.753 L 191.09,49.336 C 190.236,48.767 189.526,48.483 188.815,48.483 C 187.819,48.341 187.109,48.767 187.109,49.62 L 187.109,49.62 Z M 200.047,61.706 L 197.772,61.706 C 197.345,61.706 197.203,61.421 197.203,61.137 L 197.203,49.194 C 197.203,46.777 198.909,45.924 200.616,45.924 C 201.753,45.924 202.606,46.208 203.317,46.635 C 203.459,46.777 203.601,46.919 203.601,47.061 C 203.601,47.203 203.601,47.345 203.459,47.345 L 202.89,48.625 C 202.748,48.909 202.606,48.909 202.464,48.909 C 202.18,48.909 202.037,48.767 201.611,48.767 C 201.184,48.767 200.758,49.052 200.758,49.762 L 200.758,61.137 C 200.616,61.421 200.473,61.706 200.047,61.706 L 200.047,61.706 Z M 211.706,57.44 C 210.142,57.44 209.146,56.871 208.293,56.161 L 206.729,57.156 C 206.303,57.44 206.161,57.44 206.018,57.44 C 205.734,57.44 205.592,57.298 205.592,56.871 L 205.592,42.227 C 205.592,41.8 205.876,41.658 206.161,41.658 L 208.293,41.658 C 208.72,41.658 208.862,41.8 208.862,42.227 L 208.862,46.635 C 209.573,46.066 210.568,45.781 211.706,45.781 C 214.549,45.781 217.108,48.056 217.108,51.611 C 217.109,55.165 214.549,57.44 211.706,57.44 L 211.706,57.44 Z M 210.995,48.767 C 210.284,48.767 209.431,49.052 208.862,49.762 L 208.862,53.601 C 209.431,54.17 210.142,54.739 210.995,54.739 C 212.417,54.739 213.554,53.744 213.554,51.753 C 213.554,49.762 212.417,48.767 210.995,48.767 L 210.995,48.767 Z M 220.805,58.578 L 222.654,58.578 C 223.08,58.578 223.222,58.862 223.222,59.146 L 223.222,60.71 C 223.222,61.137 222.938,61.279 222.654,61.279 L 220.805,61.279 C 220.379,61.279 220.236,60.995 220.236,60.71 L 220.236,59.146 C 220.236,58.862 220.379,58.578 220.805,58.578 L 220.805,58.578 Z M 225.782,58.578 L 227.63,58.578 C 228.056,58.578 228.199,58.862 228.199,59.146 L 228.199,60.71 C 228.199,61.137 227.914,61.279 227.63,61.279 L 225.782,61.279 C 225.355,61.279 225.213,60.995 225.213,60.71 L 225.213,59.146 C 225.071,58.862 225.355,58.578 225.782,58.578 L 225.782,58.578 Z M 227.63,56.445 C 226.635,57.014 225.355,57.44 223.507,57.44 C 222.369,57.44 220.805,57.156 220.094,57.014 C 219.81,57.014 219.668,56.729 219.668,56.587 C 219.668,56.445 219.668,56.445 219.668,56.161 L 219.952,55.023 C 219.952,54.739 220.236,54.597 220.521,54.597 C 220.521,54.597 220.663,54.597 220.947,54.739 C 221.232,54.739 222.227,55.023 223.364,55.023 C 224.502,55.023 225.071,54.739 225.497,54.454 C 225.782,54.17 225.924,54.028 226.066,53.744 L 222.796,53.175 C 219.952,52.748 218.957,51.042 218.957,49.478 C 218.957,47.63 220.236,45.781 223.222,45.781 C 224.786,45.781 226.066,46.208 226.919,46.919 L 228.483,46.066 C 228.909,45.781 229.052,45.781 229.194,45.781 C 229.478,45.781 229.62,45.924 229.62,46.35 L 229.62,52.89 C 229.478,54.312 228.909,55.734 227.63,56.445 L 227.63,56.445 Z M 222.227,49.62 C 222.227,50.047 222.369,50.758 223.933,51.184 L 226.208,51.753 L 226.208,49.336 C 225.355,48.767 224.644,48.483 223.933,48.483 C 222.796,48.341 222.227,48.767 222.227,49.62 L 222.227,49.62 Z M 242.843,61.706 L 240.71,61.706 C 240.284,61.706 240.142,61.563 240.142,61.137 L 240.142,56.729 C 239.431,57.298 238.436,57.582 237.298,57.582 C 234.454,57.582 231.895,55.308 231.895,51.753 C 231.895,48.199 234.454,45.924 237.298,45.924 C 238.862,45.924 240,46.492 240.71,47.203 L 242.274,46.208 C 242.701,45.924 242.843,45.924 242.985,45.924 C 243.27,45.924 243.412,46.066 243.412,46.492 L 243.412,61.137 C 243.412,61.421 243.27,61.706 242.843,61.706 L 242.843,61.706 Z M 237.867,48.767 C 236.445,48.767 235.308,49.762 235.308,51.753 C 235.308,53.601 236.445,54.739 237.867,54.739 C 238.578,54.739 239.431,54.454 240,53.886 L 240,50.047 C 239.431,49.194 238.72,48.767 237.867,48.767 L 237.867,48.767 Z M 254.502,56.445 C 253.507,57.014 252.227,57.44 250.379,57.44 C 249.241,57.44 247.677,57.156 246.966,57.014 C 246.682,57.014 246.54,56.729 246.54,56.587 C 246.54,56.445 246.54,56.445 246.54,56.161 L 246.824,55.023 C 246.824,54.739 247.109,54.597 247.393,54.597 C 247.393,54.597 247.535,54.597 247.819,54.739 C 248.104,54.739 249.099,55.023 250.236,55.023 C 251.374,55.023 251.943,54.739 252.369,54.454 C 252.654,54.17 252.796,54.028 252.938,53.744 L 249.668,53.175 C 246.824,52.748 245.829,51.042 245.829,49.478 C 245.829,47.63 247.108,45.781 250.094,45.781 C 251.658,45.781 252.938,46.208 253.791,46.919 L 255.355,46.066 C 255.782,45.781 255.924,45.781 256.066,45.781 C 256.35,45.781 256.492,45.924 256.492,46.35 L 256.492,52.89 C 256.208,54.312 255.639,55.734 254.502,56.445 L 254.502,56.445 Z M 249.099,49.62 C 249.099,50.047 249.241,50.758 250.805,51.184 L 253.08,51.753 L 253.08,49.336 C 252.227,48.767 251.516,48.483 250.805,48.483 C 249.668,48.341 249.099,48.767 249.099,49.62 L 249.099,49.62 Z M 269.857,57.44 C 269.715,57.44 269.573,57.298 269.289,57.298 L 267.44,56.303 C 266.587,57.014 265.592,57.582 264.028,57.582 C 261.184,57.582 258.483,55.308 258.483,51.753 C 258.483,48.341 261.042,45.924 264.028,45.924 C 265.023,45.924 266.018,46.208 266.729,46.635 L 266.729,46.208 C 266.729,45.355 266.018,44.217 264.17,44.217 C 262.748,44.217 261.753,44.644 261.184,44.928 C 260.9,45.071 260.616,45.071 260.331,44.786 L 259.478,43.507 C 259.336,43.364 259.336,43.222 259.336,43.08 C 259.336,42.938 259.478,42.796 259.62,42.653 C 260.331,42.227 262.037,41.516 264.312,41.516 C 268.293,41.516 270.142,43.649 270.142,46.208 L 270.142,56.871 C 270.284,57.298 270.142,57.44 269.857,57.44 L 269.857,57.44 Z M 264.739,48.625 C 263.317,48.625 262.18,49.762 262.18,51.611 C 262.18,53.459 263.317,54.597 264.739,54.597 C 265.592,54.597 266.303,54.17 266.872,53.601 L 266.872,49.62 C 266.303,49.052 265.592,48.625 264.739,48.625 L 264.739,48.625 Z M 284.644,51.611 C 284.644,55.308 281.943,57.44 278.673,57.44 C 275.545,57.44 272.701,55.308 272.701,51.611 C 272.701,47.914 275.402,45.781 278.673,45.781 C 281.8,45.924 284.644,48.056 284.644,51.611 L 284.644,51.611 Z M 278.673,48.767 C 277.251,48.767 276.255,49.762 276.255,51.611 C 276.255,53.459 277.393,54.454 278.673,54.454 C 280.094,54.454 281.09,53.459 281.09,51.611 C 281.09,49.762 280.094,48.767 278.673,48.767 L 278.673,48.767 Z M 298.009,57.44 C 297.867,57.44 297.582,57.298 297.44,57.298 L 295.592,56.303 C 294.739,57.014 293.744,57.582 292.18,57.582 C 289.336,57.582 286.635,55.308 286.635,51.753 C 286.635,48.341 289.194,45.924 292.18,45.924 C 293.175,45.924 294.17,46.208 294.881,46.635 L 294.881,46.208 C 294.881,45.355 294.17,44.217 292.322,44.217 C 290.9,44.217 289.905,44.644 289.336,44.928 C 289.052,45.071 288.767,45.071 288.483,44.786 L 287.63,43.507 C 287.488,43.364 287.488,43.222 287.488,43.08 C 287.488,42.938 287.63,42.796 287.772,42.653 C 288.483,42.227 290.189,41.516 292.464,41.516 C 296.445,41.516 298.293,43.649 298.293,46.208 L 298.293,56.871 C 298.293,57.298 298.151,57.44 298.009,57.44 L 298.009,57.44 Z M 292.748,48.625 C 291.327,48.625 290.189,49.762 290.189,51.611 C 290.189,53.459 291.327,54.597 292.748,54.597 C 293.601,54.597 294.312,54.17 294.881,53.601 L 294.881,49.62 C 294.312,49.052 293.601,48.625 292.748,48.625 L 292.748,48.625 Z M 304.407,61.706 L 302.132,61.706 C 301.706,61.706 301.564,61.421 301.564,61.137 L 301.564,59.289 C 301.564,58.862 301.848,58.72 302.132,58.72 L 304.407,58.72 C 304.834,58.72 304.976,59.004 304.976,59.289 L 304.976,61.137 C 305.118,61.421 304.834,61.706 304.407,61.706 L 304.407,61.706 Z M 304.407,57.156 L 300.995,57.156 C 300.568,57.156 300.426,57.014 300.426,56.729 C 300.426,56.587 300.568,56.303 300.71,56.018 L 301.421,54.739 L 301.421,46.492 C 301.421,46.066 301.706,45.924 301.99,45.924 L 304.265,45.924 C 304.691,45.924 304.834,46.208 304.834,46.492 L 304.834,56.445 C 305.118,57.014 304.834,57.156 304.407,57.156 L 304.407,57.156 Z M 311.8,57.44 C 309.241,57.44 307.677,56.161 307.677,54.17 C 307.677,52.037 309.668,51.184 311.232,50.473 C 312.085,50.047 312.511,49.762 312.511,49.336 C 312.511,48.767 311.943,48.625 311.232,48.625 C 310.379,48.625 309.668,49.052 309.241,49.336 C 309.099,49.478 308.957,49.478 308.815,49.478 C 308.673,49.478 308.53,49.336 308.388,49.194 L 307.535,48.056 C 307.393,47.914 307.393,47.772 307.393,47.63 C 307.393,47.488 307.535,47.345 307.677,47.203 C 308.53,46.492 309.952,46.066 311.658,46.066 C 314.075,46.066 315.924,47.061 315.924,49.478 C 315.924,51.042 314.786,52.18 313.364,52.748 C 311.658,53.459 311.09,53.744 311.09,54.312 C 311.09,54.739 311.516,55.023 312.085,55.023 C 312.796,55.023 313.222,54.881 313.791,54.454 C 313.933,54.312 314.075,54.312 314.218,54.312 C 314.36,54.312 314.644,54.454 314.644,54.597 L 315.355,55.592 C 315.497,55.734 315.497,55.876 315.497,56.018 C 315.497,56.161 315.355,56.445 315.213,56.445 C 314.36,57.014 313.222,57.44 311.8,57.44 L 311.8,57.44 Z M 323.317,57.44 C 320.047,57.44 317.345,55.308 317.345,51.611 C 317.345,47.914 320.047,45.781 323.317,45.781 C 324.881,45.781 326.303,46.35 327.156,46.919 C 327.298,47.061 327.44,47.203 327.44,47.345 C 327.44,47.488 327.44,47.63 327.298,47.772 L 326.161,49.194 C 325.876,49.478 325.592,49.478 325.308,49.336 C 324.881,49.052 324.17,48.767 323.317,48.767 C 322.18,48.767 320.758,49.62 320.758,51.611 C 320.758,53.601 322.037,54.454 323.317,54.454 C 324.17,54.454 324.881,54.17 325.308,53.886 C 325.592,53.744 325.876,53.744 326.161,54.028 L 327.298,55.45 C 327.44,55.592 327.44,55.734 327.44,55.876 C 327.44,56.018 327.44,56.161 327.156,56.303 C 326.303,57.014 324.881,57.44 323.317,57.44 L 323.317,57.44 Z M 335.971,57.44 C 334.834,57.44 333.838,57.156 332.985,56.587 L 332.985,61.137 C 332.985,61.563 332.701,61.706 332.417,61.706 L 330.142,61.706 C 329.715,61.706 329.573,61.563 329.573,61.137 L 329.573,46.777 C 329.573,46.35 329.857,46.208 330.142,46.208 L 332.417,46.208 C 332.843,46.208 332.985,46.35 332.985,46.777 L 332.985,53.459 C 333.554,54.17 334.549,54.454 335.26,54.454 C 336.398,54.454 336.966,53.744 336.966,52.748 L 336.966,46.777 C 336.966,46.35 337.251,46.208 337.535,46.208 L 339.81,46.208 C 340.236,46.208 340.379,46.492 340.379,46.777 L 340.379,53.317 C 340.379,55.45 338.815,57.44 335.971,57.44 L 335.971,57.44 Z M 348.625,57.44 C 344.786,57.44 342.938,54.739 342.938,51.611 C 342.938,48.199 345.071,45.781 348.909,45.781 C 351.184,45.781 352.464,46.492 353.175,46.919 C 353.459,47.203 353.459,47.488 353.317,47.772 L 352.464,48.909 C 352.18,49.194 351.895,49.194 351.611,49.052 C 351.184,48.767 350.331,48.341 349.194,48.341 C 347.488,48.341 346.492,49.194 346.35,50.331 L 353.744,50.331 C 354.17,50.331 354.454,50.616 354.454,50.9 L 354.454,51.469 C 354.17,54.739 352.18,57.44 348.625,57.44 L 348.625,57.44 Z M 348.625,54.739 C 350.189,54.739 350.9,53.601 350.9,52.606 L 346.208,52.606 C 346.208,53.601 346.919,54.739 348.625,54.739 L 348.625,54.739 Z M 371.658,61.706 L 363.127,61.706 C 362.701,61.706 362.559,61.421 362.559,61.137 L 362.559,46.777 C 362.559,46.35 362.843,46.208 363.127,46.208 L 365.402,46.208 C 365.829,46.208 365.971,46.492 365.971,46.777 L 365.971,52.322 L 370.521,52.322 C 370.947,52.322 371.09,52.606 371.09,52.89 L 371.09,54.597 C 371.09,55.023 370.805,55.165 370.521,55.165 L 365.971,55.165 L 365.971,58.72 L 371.658,58.72 C 372.085,58.72 372.227,59.004 372.227,59.289 L 372.227,61.137 C 372.227,61.421 371.943,61.706 371.658,61.706 L 371.658,61.706 Z M 381.184,56.445 C 380.189,57.014 378.909,57.44 377.061,57.44 C 375.924,57.44 374.36,57.156 373.649,57.014 C 373.364,57.014 373.222,56.729 373.222,56.587 C 373.222,56.445 373.222,56.445 373.222,56.161 L 373.507,55.023 C 373.507,54.739 373.791,54.597 374.075,54.597 C 374.075,54.597 374.218,54.597 374.502,54.739 C 374.786,54.739 375.782,55.023 376.919,55.023 C 378.056,55.023 378.625,54.739 379.052,54.454 C 379.336,54.17 379.478,54.028 379.62,53.744 L 376.35,53.175 C 373.507,52.748 372.511,51.042 372.511,49.478 C 372.511,47.63 373.791,45.781 376.777,45.781 C 378.341,45.781 379.62,46.208 380.474,46.919 L 382.037,46.066 C 382.464,45.781 382.606,45.781 382.748,45.781 C 383.033,45.781 383.175,45.924 383.175,46.35 L 383.175,52.89 C 382.89,54.312 382.322,55.734 381.184,56.445 L 381.184,56.445 Z M 375.639,49.62 C 375.639,50.047 375.782,50.758 377.346,51.184 L 379.62,51.753 L 379.62,49.336 C 378.767,48.767 378.056,48.483 377.346,48.483 C 376.35,48.341 375.639,48.767 375.639,49.62 L 375.639,49.62 Z M 399.241,57.44 C 397.677,57.44 396.398,56.871 395.402,56.018 C 394.691,56.871 393.696,57.44 392.132,57.44 C 390.71,57.44 389.431,56.871 388.578,56.161 L 387.014,57.156 C 386.587,57.44 386.445,57.44 386.303,57.44 C 386.018,57.44 385.876,57.298 385.876,56.871 L 385.876,46.635 C 385.876,46.208 386.161,46.066 386.445,46.066 L 388.578,46.066 C 389.004,46.066 389.146,46.208 389.146,46.635 L 389.146,53.317 C 389.715,54.028 390.568,54.312 391.279,54.312 C 392.274,54.312 392.701,53.601 392.701,52.606 L 392.701,46.635 C 392.701,46.208 392.985,46.066 393.27,46.066 L 395.402,46.066 C 395.829,46.066 395.971,46.35 395.971,46.635 L 395.971,53.317 C 396.54,54.028 397.393,54.454 398.104,54.454 C 399.099,54.454 399.526,53.744 399.526,52.748 L 399.526,46.777 C 399.526,46.35 399.81,46.208 400.094,46.208 L 402.227,46.208 C 402.653,46.208 402.796,46.492 402.796,46.777 L 402.796,53.317 C 403.364,55.45 401.8,57.44 399.241,57.44 L 399.241,57.44 Z M 409.194,61.706 L 406.919,61.706 C 406.492,61.706 406.35,61.421 406.35,61.137 L 406.35,59.289 C 406.35,58.862 406.635,58.72 406.919,58.72 L 409.194,58.72 C 409.62,58.72 409.763,59.004 409.763,59.289 L 409.763,61.137 C 409.763,61.421 409.62,61.706 409.194,61.706 L 409.194,61.706 Z M 409.194,57.156 L 405.781,57.156 C 405.355,57.156 405.213,57.014 405.213,56.729 C 405.213,56.587 405.355,56.303 405.497,56.018 L 406.208,54.739 L 406.208,46.492 C 406.208,46.066 406.492,45.924 406.777,45.924 L 409.052,45.924 C 409.478,45.924 409.62,46.208 409.62,46.492 L 409.62,56.445 C 409.763,57.014 409.62,57.156 409.194,57.156 L 409.194,57.156 Z M 415.592,61.706 L 413.317,61.706 C 412.891,61.706 412.748,61.421 412.748,61.137 L 412.748,49.194 C 412.748,46.777 414.454,45.924 416.161,45.924 C 417.298,45.924 418.151,46.208 418.862,46.635 C 419.004,46.777 419.146,46.919 419.146,47.061 C 419.146,47.203 419.146,47.345 419.004,47.345 L 418.436,48.625 C 418.293,48.909 418.151,48.909 418.009,48.909 C 417.725,48.909 417.582,48.767 417.156,48.767 C 416.729,48.767 416.303,49.052 416.303,49.762 L 416.303,61.137 C 416.303,61.421 416.018,61.706 415.592,61.706 L 415.592,61.706 Z M 423.696,61.706 L 421.421,61.706 C 420.995,61.706 420.853,61.421 420.853,61.137 L 420.853,59.289 C 420.853,58.862 421.137,58.72 421.421,58.72 L 423.696,58.72 C 424.123,58.72 424.265,59.004 424.265,59.289 L 424.265,61.137 C 424.265,61.421 423.981,61.706 423.696,61.706 L 423.696,61.706 Z M 423.696,57.156 L 420.284,57.156 C 419.857,57.156 419.715,57.014 419.715,56.729 C 419.715,56.587 419.857,56.303 420,56.018 L 420.71,54.739 L 420.71,46.492 C 420.71,46.066 420.995,45.924 421.279,45.924 L 423.554,45.924 C 423.981,45.924 424.123,46.208 424.123,46.492 L 424.123,56.445 C 424.265,57.014 423.981,57.156 423.696,57.156 L 423.696,57.156 Z M 432.511,57.44 C 428.673,57.44 426.824,54.739 426.824,51.611 C 426.824,48.199 428.957,45.781 432.796,45.781 C 435.071,45.781 436.35,46.492 437.061,46.919 C 437.346,47.203 437.346,47.488 437.203,47.772 L 436.35,48.909 C 436.066,49.194 435.782,49.194 435.497,49.052 C 435.071,48.767 434.218,48.341 433.08,48.341 C 431.374,48.341 430.379,49.194 430.236,50.331 L 437.63,50.331 C 438.056,50.331 438.341,50.616 438.341,50.9 L 438.341,51.469 C 438.056,54.739 436.066,57.44 432.511,57.44 L 432.511,57.44 Z M 432.511,54.739 C 434.075,54.739 434.786,53.601 434.786,52.606 L 430.094,52.606 C 430.094,53.601 430.805,54.739 432.511,54.739 L 432.511,54.739 Z M 447.014,57.44 C 445.592,57.44 444.312,56.871 443.317,56.161 L 441.753,57.156 C 441.327,57.44 441.184,57.44 441.042,57.44 C 440.758,57.44 440.616,57.298 440.616,56.871 L 440.616,46.635 C 440.616,46.208 440.9,46.066 441.184,46.066 L 443.459,46.066 C 443.886,46.066 444.028,46.208 444.028,46.635 L 444.028,53.317 C 444.597,54.028 445.592,54.312 446.303,54.312 C 447.44,54.312 448.009,53.601 448.009,52.606 L 448.009,46.635 C 448.009,46.208 448.293,46.066 448.578,46.066 L 450.853,46.066 C 451.279,46.066 451.421,46.35 451.421,46.635 L 451.421,53.175 C 451.421,55.45 449.857,57.44 447.014,57.44 L 447.014,57.44 Z M 460.521,57.44 C 459.383,57.44 458.53,57.156 457.677,56.587 L 457.677,61.137 C 457.677,61.563 457.535,61.706 457.109,61.706 L 454.976,61.706 C 454.549,61.706 454.407,61.421 454.407,61.137 L 454.407,46.492 C 454.407,46.066 454.549,45.924 454.834,45.924 C 454.976,45.924 455.26,46.066 455.545,46.208 L 457.109,47.203 C 457.819,46.492 458.957,45.924 460.521,45.924 C 463.364,45.924 465.924,48.199 465.924,51.753 C 465.924,55.165 463.507,57.44 460.521,57.44 L 460.521,57.44 Z M 459.952,48.767 C 459.099,48.767 458.246,49.336 457.819,49.905 L 457.819,53.744 C 458.388,54.312 459.241,54.739 459.952,54.739 C 461.374,54.739 462.511,53.744 462.511,51.753 C 462.511,49.762 461.374,48.767 459.952,48.767 L 459.952,48.767 Z M 473.601,57.44 C 469.763,57.44 467.914,54.739 467.914,51.611 C 467.914,48.199 470.047,45.781 473.886,45.781 C 476.161,45.781 477.44,46.492 478.151,46.919 C 478.436,47.203 478.436,47.488 478.293,47.772 L 477.44,48.909 C 477.156,49.194 476.872,49.194 476.587,49.052 C 476.161,48.767 475.308,48.341 474.17,48.341 C 472.464,48.341 471.469,49.194 471.327,50.331 L 478.72,50.331 C 479.146,50.331 479.431,50.616 479.431,50.9 L 479.431,51.469 C 479.289,54.739 477.298,57.44 473.601,57.44 L 473.601,57.44 Z M 473.601,54.739 C 475.165,54.739 475.876,53.601 475.876,52.606 L 471.184,52.606 C 471.327,53.601 472.037,54.739 473.601,54.739 L 473.601,54.739 Z M 492.511,57.44 C 492.369,57.44 492.085,57.298 491.943,57.298 L 490.094,56.303 C 489.241,57.014 488.246,57.582 486.682,57.582 C 483.696,57.582 481.137,55.308 481.137,51.753 C 481.137,48.341 483.696,45.924 486.682,45.924 C 487.677,45.924 488.673,46.208 489.383,46.635 L 489.383,46.208 C 489.383,45.355 488.673,44.217 486.824,44.217 C 485.402,44.217 484.407,44.644 483.838,44.928 C 483.554,45.071 483.27,45.071 482.985,44.786 L 482.132,43.507 C 481.99,43.364 481.99,43.222 481.99,43.08 C 481.99,42.938 482.132,42.796 482.274,42.653 C 482.985,42.227 484.691,41.516 486.966,41.516 C 490.947,41.516 492.796,43.649 492.796,46.208 L 492.796,56.871 C 492.938,57.298 492.796,57.44 492.511,57.44 L 492.511,57.44 Z M 487.393,48.625 C 485.971,48.625 484.834,49.762 484.834,51.611 C 484.834,53.459 485.971,54.597 487.393,54.597 C 488.246,54.597 488.957,54.17 489.526,53.601 L 489.526,49.62 C 488.957,49.052 488.246,48.625 487.393,48.625 L 487.393,48.625 Z M 498.767,61.706 L 496.492,61.706 C 496.066,61.706 495.924,61.421 495.924,61.137 L 495.924,49.194 C 495.924,46.777 497.63,45.924 499.336,45.924 C 500.473,45.924 501.326,46.208 502.037,46.635 C 502.18,46.777 502.322,46.919 502.322,47.061 C 502.322,47.203 502.322,47.345 502.18,47.345 L 501.611,48.625 C 501.469,48.909 501.326,48.909 501.184,48.909 C 500.9,48.909 500.758,48.767 500.331,48.767 C 499.905,48.767 499.478,49.052 499.478,49.762 L 499.478,61.137 C 499.336,61.421 499.194,61.706 498.767,61.706 L 498.767,61.706 Z M 508.862,57.44 C 505.023,57.44 503.175,54.739 503.175,51.611 C 503.175,48.199 505.308,45.781 509.146,45.781 C 511.421,45.781 512.701,46.492 513.412,46.919 C 513.696,47.203 513.696,47.488 513.554,47.772 L 512.701,48.909 C 512.417,49.194 512.132,49.194 511.848,49.052 C 511.421,48.767 510.568,48.341 509.431,48.341 C 507.725,48.341 506.729,49.194 506.587,50.331 L 513.981,50.331 C 514.407,50.331 514.691,50.616 514.691,50.9 L 514.691,51.469 C 514.549,54.739 512.559,57.44 508.862,57.44 L 508.862,57.44 Z M 508.862,54.739 C 510.426,54.739 511.137,53.601 511.137,52.606 L 506.445,52.606 C 506.587,53.601 507.298,54.739 508.862,54.739 L 508.862,54.739 Z M 519.952,61.706 L 517.535,61.706 C 517.109,61.706 516.966,61.421 516.966,61.137 L 516.966,59.289 C 516.966,58.862 517.251,58.72 517.535,58.72 L 519.81,58.72 C 520.236,58.72 520.379,59.004 520.379,59.289 L 520.379,61.137 C 520.521,61.421 520.236,61.706 519.952,61.706 L 519.952,61.706 Z M 519.952,57.156 L 516.54,57.156 C 516.113,57.156 515.971,57.014 515.971,56.729 C 515.971,56.587 516.113,56.303 516.255,56.018 L 516.966,54.739 L 516.966,46.492 C 516.966,46.066 517.251,45.924 517.535,45.924 L 519.81,45.924 C 520.237,45.924 520.379,46.208 520.379,46.492 L 520.379,56.445 C 520.521,57.014 520.236,57.156 519.952,57.156 L 519.952,57.156 Z M 530.047,48.625 C 529.905,48.909 529.62,48.909 529.336,48.909 C 529.052,48.909 528.909,48.767 528.483,48.767 C 527.914,48.767 527.488,49.052 527.488,49.762 L 527.488,54.454 L 529.052,54.454 C 529.336,54.454 529.62,54.597 529.763,54.881 L 530.473,56.018 C 530.616,56.303 530.758,56.587 530.758,56.729 C 530.758,57.014 530.616,57.156 530.189,57.156 L 527.488,57.156 L 527.488,59.146 C 527.488,59.573 527.203,59.715 526.919,59.715 L 524.786,59.715 C 524.36,59.715 524.218,59.431 524.218,59.146 L 524.218,57.156 L 523.222,57.156 C 522.796,57.156 522.654,56.871 522.654,56.587 L 522.654,55.165 C 522.654,54.739 522.938,54.597 523.222,54.597 L 524.218,54.597 L 524.218,49.194 C 524.218,46.777 525.924,45.924 527.63,45.924 C 528.767,45.924 529.763,46.208 530.473,46.635 C 530.758,46.777 530.9,46.919 530.9,47.061 C 530.9,47.203 530.9,47.345 530.758,47.488 L 530.047,48.625 L 530.047,48.625 Z M 542.417,57.156 L 540.142,57.156 C 539.715,57.156 539.573,57.014 539.573,56.587 L 539.573,49.762 C 539.004,49.194 538.151,48.767 537.44,48.767 C 536.303,48.767 535.876,49.478 535.876,50.331 L 535.876,56.445 C 535.876,56.871 535.592,57.014 535.308,57.014 L 533.033,57.014 C 532.606,57.014 532.464,56.729 532.464,56.445 L 532.464,49.905 C 532.464,47.63 534.028,45.781 536.872,45.639 C 538.293,45.639 539.431,46.066 540.426,46.919 L 541.99,46.066 C 542.417,45.781 542.559,45.781 542.701,45.781 C 542.985,45.781 543.127,45.924 543.127,46.35 L 543.127,56.587 C 542.985,57.014 542.843,57.156 542.417,57.156 L 542.417,57.156 Z M 552.369,57.44 C 550.947,57.44 549.668,56.871 548.673,56.161 L 547.109,57.156 C 546.682,57.44 546.54,57.44 546.398,57.44 C 546.113,57.44 545.971,57.298 545.971,56.871 L 545.971,46.635 C 545.971,46.208 546.255,46.066 546.54,46.066 L 548.815,46.066 C 549.241,46.066 549.383,46.208 549.383,46.635 L 549.383,53.317 C 549.952,54.028 550.947,54.312 551.658,54.312 C 552.796,54.312 553.364,53.601 553.364,52.606 L 553.364,46.635 C 553.364,46.208 553.649,46.066 553.933,46.066 L 556.208,46.066 C 556.635,46.066 556.777,46.35 556.777,46.635 L 556.777,53.175 C 556.777,55.45 555.213,57.44 552.369,57.44 L 552.369,57.44 Z M 570.426,57.44 C 570.284,57.44 570.142,57.298 569.857,57.298 L 568.009,56.303 C 567.156,57.014 566.161,57.582 564.597,57.582 C 561.753,57.582 559.052,55.308 559.052,51.753 C 559.052,48.341 561.611,45.924 564.597,45.924 C 565.592,45.924 566.587,46.208 567.298,46.635 L 567.298,46.208 C 567.298,45.355 566.587,44.217 564.739,44.217 C 563.317,44.217 562.322,44.644 561.753,44.928 C 561.469,45.071 561.184,45.071 560.9,44.786 L 560.047,43.507 C 559.905,43.364 559.905,43.222 559.905,43.08 C 559.905,42.938 560.047,42.796 560.189,42.653 C 560.9,42.227 562.606,41.516 564.881,41.516 C 568.862,41.516 570.71,43.649 570.71,46.208 L 570.71,56.871 C 570.853,57.298 570.71,57.44 570.426,57.44 L 570.426,57.44 Z M 565.308,48.625 C 563.886,48.625 562.748,49.762 562.748,51.611 C 562.748,53.459 563.886,54.597 565.308,54.597 C 566.161,54.597 566.872,54.17 567.44,53.601 L 567.44,49.62 C 566.872,49.052 566.161,48.625 565.308,48.625 L 565.308,48.625 Z" fill="#f26253" marker-start="none" marker-end="none"/>
  </g>
 </g>
</svg>
